<svg xmlns="http://www.w3.org/2000/svg" width="175.646" height="141.455" viewBox="0 0 175.646 141.455">
  <g id="_003-moneda-peruana" data-name="003-moneda-peruana" transform="translate(-4.149 40.608) rotate(-31)">
    <g id="Grupo_3171" data-name="Grupo 3171" transform="translate(0 0.001)">
      <g id="Grupo_3165" data-name="Grupo 3165" transform="translate(8.455 60.371)">
        <path id="Trazado_8013" data-name="Trazado 8013" d="M59.119,51.545,41.688,61.676a5.188,5.188,0,0,1-1.3.526c-2.532.658-5.984-.243-10.3-2.735Q17.1,51.967,5.071,32.934L22.5,22.8Q34.509,41.821,47.524,49.336c4.316,2.492,7.767,3.394,10.3,2.735a5.2,5.2,0,0,0,1.3-.526Z" transform="translate(-5.071 -22.803)" fill="#ecae00" stroke="#000" stroke-width="1.3"/>
      </g>
      <g id="Grupo_3166" data-name="Grupo 3166" transform="translate(17.341 16.829)">
        <path id="Trazado_8014" data-name="Trazado 8014" d="M10.567,17.208,28,7.078c-1.512.879-2.278,2.743-2.287,5.627a17.718,17.718,0,0,0,3.74,10.671q3.742,5.114,15.984,15.59T63.858,59.174a39.449,39.449,0,0,1,6.16,21.7q-.03,10.532-6.138,14.061l-17.432,10.13q6.1-3.544,6.138-14.061a39.447,39.447,0,0,0-6.16-21.7Q40.245,59.557,28,49.1T12.02,33.507A17.717,17.717,0,0,1,8.28,22.836c.008-2.885.774-4.749,2.287-5.627Z" transform="translate(-8.28 -7.078)" fill="#ecae00" stroke="#000" stroke-width="1.3"/>
      </g>
      <path id="Unión_1" data-name="Unión 1" d="M37.432,26.906A78.36,78.36,0,0,0,22.308,15.3h0c-7.9-4.559-14.535-6.119-19.891-4.607a10.006,10.006,0,0,0-2.416,1L17.433,1.558a10.006,10.006,0,0,1,2.416-1C25.2-.953,31.843.608,39.737,5.166h0A78.3,78.3,0,0,1,54.864,16.777,88.581,88.581,0,0,1,67.843,32.388L50.411,42.519A88.548,88.548,0,0,0,37.432,26.906Z" transform="translate(9.002)" fill="#ffec8c" stroke="#000" stroke-width="1.3"/>
      <g id="Grupo_3168" data-name="Grupo 3168" transform="translate(52.195 32.388)">
        <path id="Trazado_8016" data-name="Trazado 8016" d="M28.086,22.828,45.518,12.7,38.3,20.192,20.868,30.323Z" transform="translate(-20.868 -12.697)" fill="#dca200" stroke="#000" stroke-width="1.3"/>
      </g>
      <g id="Grupo_3170" data-name="Grupo 3170" transform="translate(0 10.13)">
        <path id="Trazado_8018" data-name="Trazado 8018" d="M33.326,9.825a78.313,78.313,0,0,1,15.125,11.61A88.585,88.585,0,0,1,61.43,37.047l-7.218,7.5a60.28,60.28,0,0,0-9.537-11.534A61.738,61.738,0,0,0,32.76,23.765c-3.895-2.249-7.109-3.2-9.614-2.794s-3.777,2.424-3.787,6.144A17.717,17.717,0,0,0,23.1,37.786Q26.84,42.9,39.082,53.376T57.5,73.584a39.447,39.447,0,0,1,6.16,21.7c-.023,7.984-2.673,12.936-7.925,14.9-5.251,1.936-12.128.48-20.629-4.428Q16.437,94.979,2.017,71.84l8.455-6.811Q22.479,84.048,35.494,91.562c4.316,2.492,7.767,3.394,10.3,2.735,2.559-.673,3.83-2.787,3.84-6.325A17.372,17.372,0,0,0,46.078,77.68c-2.389-3.348-6.49-7.5-12.328-12.51q-8.8-7.487-13.331-12.15a68.66,68.66,0,0,1-8.065-9.957,39.241,39.241,0,0,1-7-22.913c.024-8.468,2.7-13.466,8.083-14.932,5.356-1.512,11.995.049,19.89,4.607Z" transform="translate(-2.017 -4.659)" fill="#ffda1a" stroke="#000" stroke-width="1.3"/>
      </g>
    </g>
    <g id="Grupo_3175" data-name="Grupo 3175" transform="translate(61.574 44.305)">
      <g id="Grupo_3172" data-name="Grupo 3172" transform="translate(11.37 7.505)">
        <path id="Trazado_8019" data-name="Trazado 8019" d="M65.258,29.842,82.69,19.711l-36.9,70.966-17.432,10.13Z" transform="translate(-28.361 -19.711)" fill="#ecae00" stroke="#000" stroke-width="1.3"/>
      </g>
      <g id="Grupo_3173" data-name="Grupo 3173" transform="translate(37.404 0)">
        <path id="Trazado_8020" data-name="Trazado 8020" d="M38.286,26.644,55.374,16.095l11.4,6.58L50.155,32.417l-1.107.649Z" transform="translate(-38.286 -16.095)" fill="#ffec8c" stroke="#000" stroke-width="1"/>
      </g>
      <g id="Grupo_3174" data-name="Grupo 3174" transform="translate(0 11.055)">
        <path id="Trazado_8021" data-name="Trazado 8021" d="M72.522,27.573,35.625,98.54l-11.37-6.564L61.126,20.994Z" transform="translate(-24.255 -20.994)" fill="#ffda1a" stroke="#000" stroke-width="1.3"/>
      </g>
    </g>
  </g>
</svg>
