<svg xmlns="http://www.w3.org/2000/svg" width="117.175" height="128.033" viewBox="0 0 117.175 128.033">
  <g id="_005-simbolo-de-moneda-1" data-name="005-simbolo-de-moneda-1" transform="translate(59.401 -5.116) rotate(30)">
    <g id="Grupo_3214" data-name="Grupo 3214" transform="translate(0 0)">
      <g id="Grupo_3201" data-name="Grupo 3201" transform="translate(36.563 95.919)">
        <path id="Trazado_8045" data-name="Trazado 8045" d="M24.3,49.132l14.135-8.214L38.4,52.124,24.264,60.339Z" transform="translate(-24.264 -40.918)" fill="#ecae00" stroke="#000" stroke-width="2"/>
      </g>
      <g id="Grupo_3202" data-name="Grupo 3202" transform="translate(36.63 83.338)">
        <path id="Trazado_8046" data-name="Trazado 8046" d="M24.292,43.9a43.781,43.781,0,0,1,7.161-5.605,22.709,22.709,0,0,1,6.974-2.609c5.656,3,10.505,4.272,14.44,3.645L38.732,47.542C34.8,48.169,29.948,46.892,24.292,43.9Z" transform="translate(-24.292 -35.682)" fill="#ecae00" stroke="#000" stroke-width="2"/>
      </g>
      <g id="Grupo_3203" data-name="Grupo 3203" transform="translate(11.887 26.007)">
        <path id="Trazado_8047" data-name="Trazado 8047" d="M20.532,20.037l14.135-8.214Q28.174,15.6,28.13,27.555a45.694,45.694,0,0,0,6.73,23.782,50.221,50.221,0,0,0,10.31,12.634L31.036,72.185a50.225,50.225,0,0,1-10.31-12.634A45.694,45.694,0,0,1,14,35.769q.034-11.964,6.536-15.732Z" transform="translate(-13.995 -11.823)" fill="#ecae00" stroke="#000" stroke-width="2"/>
      </g>
      <g id="Grupo_3204" data-name="Grupo 3204" transform="translate(61.521 98.787)">
        <path id="Trazado_8048" data-name="Trazado 8048" d="M48.786,42.7,34.651,50.916q.475-.276.931-.591l14.135-8.214Q49.261,42.426,48.786,42.7Z" transform="translate(-34.651 -42.111)" fill="#ff5766" stroke="#000" stroke-width="2"/>
      </g>
      <g id="Grupo_3205" data-name="Grupo 3205" transform="translate(36.63 28.48)">
        <path id="Trazado_8049" data-name="Trazado 8049" d="M24.448,21.067l14.135-8.215L38.427,67.71,24.292,75.925Z" transform="translate(-24.292 -12.852)" fill="#ecae00" stroke="#000" stroke-width="2"/>
      </g>
      <g id="Grupo_3206" data-name="Grupo 3206" transform="translate(51.131 65.673)">
        <path id="Trazado_8050" data-name="Trazado 8050" d="M30.327,36.545l14.135-8.215,11.4,6.58L41.723,43.125Z" transform="translate(-30.327 -28.331)" fill="#ffec8c" stroke="#000" stroke-width="2"/>
      </g>
      <g id="Grupo_3207" data-name="Grupo 3207" transform="translate(62.452 72.253)">
        <path id="Trazado_8051" data-name="Trazado 8051" d="M35.113,39.283l14.135-8.215L49.173,57.6,35.038,65.817Z" transform="translate(-35.038 -31.069)" fill="#ecae00" stroke="#000" stroke-width="2"/>
      </g>
      <g id="Grupo_3208" data-name="Grupo 3208" transform="translate(9.916 9.67)">
        <path id="Trazado_8052" data-name="Trazado 8052" d="M13.175,15.725,27.31,7.511q.235-.136.475-.266C33.158,4.329,39.4,4.3,46.511,7.076L32.375,15.291c-7.11-2.779-13.353-2.747-18.726.168q-.24.13-.475.266Z" transform="translate(-13.175 -5.024)" fill="#ffec8c" stroke="#000" stroke-width="2"/>
      </g>
      <g id="Grupo_3209" data-name="Grupo 3209" transform="translate(36.822 4.448)">
        <path id="Trazado_8053" data-name="Trazado 8053" d="M24.4,11.065,38.539,2.851l-.032,11.207L24.372,22.272Z" transform="translate(-24.372 -2.851)" fill="#ecae00" stroke="#000" stroke-width="2"/>
      </g>
      <g id="Grupo_3210" data-name="Grupo 3210" transform="translate(29.149)">
        <path id="Trazado_8054" data-name="Trazado 8054" d="M21.179,9.214,35.314,1l7.7,4.448L28.883,13.662Z" transform="translate(-21.179 -1)" fill="#ffec8c" stroke="#000" stroke-width="2"/>
      </g>
      <g id="Grupo_3211" data-name="Grupo 3211" transform="translate(36.822 15.655)">
        <path id="Trazado_8055" data-name="Trazado 8055" d="M24.372,15.729,38.507,7.515A69.819,69.819,0,0,1,61.23,30.336L47.095,38.551A69.821,69.821,0,0,0,24.372,15.729Z" transform="translate(-24.372 -7.515)" fill="#ffec8c" stroke="#000" stroke-width="2"/>
      </g>
      <g id="Grupo_3212" data-name="Grupo 3212" transform="translate(0 8.214)">
        <path id="Trazado_8056" data-name="Trazado 8056" d="M60.179,70.092l11.4,6.58L71.5,103.206c-6.1,4.213-14.759,3.22-25.857-2.868l-.032,11.207-7.7-4.448.033-11.7a72.456,72.456,0,0,1-18.857-21.67Q9,56.559,9.048,39.221t10.39-22.912c5.374-2.915,11.616-2.947,18.726-.168L38.2,4.418l7.7,4.448L45.87,20.074A69.819,69.819,0,0,1,68.592,42.895L62.46,49.376a53.508,53.508,0,0,0-7.945-9.991A48.429,48.429,0,0,0,45.834,32.9l-.156,54.858c5.656,3,10.505,4.272,14.44,3.645Zm-22.2,12.481.151-53.117a13.825,13.825,0,0,0-10.177.707q-6.968,3.6-7.014,15.994a45.694,45.694,0,0,0,6.73,23.782,50.215,50.215,0,0,0,10.31,12.634" transform="translate(-9.048 -4.418)" fill="#ffda1a" stroke="#000" stroke-width="2"/>
      </g>
      <g id="Grupo_3213" data-name="Grupo 3213" transform="translate(53.412 38.476)">
        <path id="Trazado_8057" data-name="Trazado 8057" d="M37.408,25.227l14.135-8.214-6.132,6.481L31.276,31.708Z" transform="translate(-31.276 -17.012)" fill="#ecae00" stroke="#000" stroke-width="2"/>
      </g>
    </g>
  </g>
</svg>
