<svg xmlns="http://www.w3.org/2000/svg" width="234.315" height="188.923" viewBox="0 0 234.315 188.923">
  <g id="_003-moneda-peruana" data-name="003-moneda-peruana" transform="translate(-5.925 54.083) rotate(-31)">
    <g id="Grupo_3171" data-name="Grupo 3171" transform="translate(0 0)">
      <g id="Grupo_3165" data-name="Grupo 3165" transform="translate(11.334 80.924)">
        <path id="Trazado_8013" data-name="Trazado 8013" d="M77.52,61.331,54.154,74.91a6.954,6.954,0,0,1-1.737.7c-3.395.883-8.021-.326-13.806-3.667Q21.2,61.9,5.071,36.382L28.437,22.8Q44.532,48.3,61.977,58.369c5.786,3.34,10.412,4.549,13.806,3.667a6.969,6.969,0,0,0,1.737-.7Z" transform="translate(-5.071 -22.803)" fill="#ecae00" stroke="#000" stroke-width="1.3"/>
      </g>
      <g id="Grupo_3166" data-name="Grupo 3166" transform="translate(23.245 22.558)">
        <path id="Trazado_8014" data-name="Trazado 8014" d="M11.345,20.657,34.712,7.078c-2.027,1.178-3.054,3.677-3.065,7.543a23.749,23.749,0,0,0,5.013,14.3q5.016,6.855,21.426,20.9Q74.477,63.854,82.779,76.911A52.879,52.879,0,0,1,91.036,106q-.04,14.118-8.228,18.848L59.442,138.427q8.176-4.751,8.228-18.848a52.876,52.876,0,0,0-8.257-29.09Q51.128,77.423,34.718,63.4,18.326,49.369,13.293,42.5A23.749,23.749,0,0,1,8.28,28.2c.011-3.867,1.038-6.365,3.065-7.543Z" transform="translate(-8.28 -7.078)" fill="#ecae00" stroke="#000" stroke-width="1.3"/>
      </g>
      <path id="Unión_1" data-name="Unión 1" d="M-10924.408-5940.473a105.1,105.1,0,0,0-20.271-15.563h0c-10.584-6.112-19.48-8.205-26.661-6.178a13.6,13.6,0,0,0-3.239,1.338l23.367-13.578a13.344,13.344,0,0,1,3.239-1.339c7.177-2.027,16.077.066,26.657,6.176h0a104.957,104.957,0,0,1,20.274,15.564,118.755,118.755,0,0,1,17.4,20.927l-23.367,13.578A118.752,118.752,0,0,0-10924.408-5940.473Z" transform="translate(10986.65 5976.541)" fill="#ffec8c" stroke="#000" stroke-width="1.3"/>
      <g id="Grupo_3168" data-name="Grupo 3168" transform="translate(69.964 43.415)">
        <path id="Trazado_8016" data-name="Trazado 8016" d="M30.543,26.276,53.91,12.7,44.234,22.744,20.868,36.323Z" transform="translate(-20.868 -12.697)" fill="#dca200" stroke="#000" stroke-width="1.3"/>
      </g>
      <g id="Grupo_3170" data-name="Grupo 3170" transform="translate(0 13.579)">
        <path id="Trazado_8018" data-name="Trazado 8018" d="M43.986,11.584A104.975,104.975,0,0,1,64.26,27.147a118.743,118.743,0,0,1,17.4,20.926L71.982,58.12A80.8,80.8,0,0,0,59.2,42.659,82.757,82.757,0,0,0,43.226,30.27C38,27.256,33.7,25.987,30.339,26.525s-5.063,3.249-5.077,8.235a23.749,23.749,0,0,0,5.013,14.3q5.016,6.855,21.425,20.9Q68.092,83.993,76.394,97.05a52.876,52.876,0,0,1,8.257,29.09c-.03,10.7-3.583,17.34-10.622,19.976-7.039,2.6-16.257.644-27.652-5.936Q21.347,125.728,2.017,94.712l11.334-9.13q16.094,25.493,33.54,35.566c5.786,3.34,10.412,4.549,13.806,3.667,3.43-.9,5.135-3.735,5.148-8.478a23.286,23.286,0,0,0-4.767-13.8c-3.2-4.488-8.7-10.058-16.525-16.768Q32.761,75.735,26.683,69.485A92.036,92.036,0,0,1,15.872,56.138,52.6,52.6,0,0,1,6.489,25.424c.032-11.351,3.62-18.05,10.834-20.016C24.5,3.381,33.4,5.474,43.986,11.584Z" transform="translate(-2.017 -4.659)" fill="#ffda1a" stroke="#000" stroke-width="1.3"/>
      </g>
    </g>
    <g id="Grupo_3175" data-name="Grupo 3175" transform="translate(82.537 60.629)">
      <g id="Grupo_3172" data-name="Grupo 3172" transform="translate(15.241 8.82)">
        <path id="Trazado_8019" data-name="Trazado 8019" d="M77.82,33.29l23.366-13.579L51.728,114.838,28.361,128.417Z" transform="translate(-28.361 -19.711)" fill="#ecae00" stroke="#000" stroke-width="1.3"/>
      </g>
      <g id="Grupo_3173" data-name="Grupo 3173" transform="translate(49.423)">
        <path id="Trazado_8020" data-name="Trazado 8020" d="M38.286,30.235l22.905-14.14,15.276,8.82L54.2,37.974l-1.484.87Z" transform="translate(-37.571 -17.335)" fill="#ffec8c" stroke="#000" stroke-width="1"/>
      </g>
      <g id="Grupo_3174" data-name="Grupo 3174" transform="translate(0 13.579)">
        <path id="Trazado_8021" data-name="Trazado 8021" d="M88.954,29.813,39.5,124.94l-15.241-8.8L73.678,20.994Z" transform="translate(-24.255 -20.994)" fill="#ffda1a" stroke="#000" stroke-width="1.3"/>
      </g>
    </g>
  </g>
</svg>
