<svg xmlns="http://www.w3.org/2000/svg" width="185.929" height="195.741" viewBox="0 0 185.929 195.741">
  <g id="_005-simbolo-de-moneda-1" data-name="005-simbolo-de-moneda-1" transform="matrix(0.799, 0.602, -0.602, 0.799, 108.412, -8.845)">
    <g id="Grupo_3214" data-name="Grupo 3214" transform="translate(0 0)">
      <g id="Grupo_3201" data-name="Grupo 3201" transform="translate(56.474 148.156)">
        <path id="Trazado_8045" data-name="Trazado 8045" d="M24.313,53.606,46.147,40.918,46.1,58.227,24.264,70.916Z" transform="translate(-24.264 -40.918)" fill="#ecae00" stroke="#000" stroke-width="1.3"/>
      </g>
      <g id="Grupo_3202" data-name="Grupo 3202" transform="translate(56.578 128.724)">
        <path id="Trazado_8046" data-name="Trazado 8046" d="M24.292,48.37a67.624,67.624,0,0,1,11.061-8.658,35.076,35.076,0,0,1,10.773-4.03c8.737,4.627,16.226,6.6,22.3,5.631L46.6,54C40.518,54.969,33.029,53,24.292,48.37Z" transform="translate(-24.292 -35.682)" fill="#ecae00" stroke="#000" stroke-width="1.3"/>
      </g>
      <g id="Grupo_3203" data-name="Grupo 3203" transform="translate(18.361 40.17)">
        <path id="Trazado_8047" data-name="Trazado 8047" d="M24.091,24.511,45.925,11.823q-10.029,5.828-10.1,24.3a70.579,70.579,0,0,0,10.4,36.733A77.572,77.572,0,0,0,62.149,92.37L40.316,105.058A77.578,77.578,0,0,1,24.391,85.544,70.579,70.579,0,0,1,14,48.811q.052-18.48,10.1-24.3Z" transform="translate(-13.995 -11.823)" fill="#ecae00" stroke="#000" stroke-width="1.3"/>
      </g>
      <g id="Grupo_3204" data-name="Grupo 3204" transform="translate(95.025 152.586)">
        <path id="Trazado_8048" data-name="Trazado 8048" d="M56.484,43.023,34.651,55.712q.734-.426,1.438-.913L57.922,42.111Q57.217,42.6,56.484,43.023Z" transform="translate(-34.651 -42.111)" fill="#ff5766" stroke="#000" stroke-width="1.3"/>
      </g>
      <g id="Grupo_3205" data-name="Grupo 3205" transform="translate(56.578 43.991)">
        <path id="Trazado_8049" data-name="Trazado 8049" d="M24.533,25.541,46.366,12.852l-.241,84.733L24.292,110.274Z" transform="translate(-24.292 -12.852)" fill="#ecae00" stroke="#000" stroke-width="1.3"/>
      </g>
      <g id="Grupo_3206" data-name="Grupo 3206" transform="translate(78.976 101.439)">
        <path id="Trazado_8050" data-name="Trazado 8050" d="M30.327,41.019,52.16,28.331l17.6,10.163L47.929,51.182Z" transform="translate(-30.327 -28.331)" fill="#ffec8c" stroke="#000" stroke-width="1.3"/>
      </g>
      <g id="Grupo_3207" data-name="Grupo 3207" transform="translate(96.463 111.602)">
        <path id="Trazado_8051" data-name="Trazado 8051" d="M35.154,43.757,56.987,31.069l-.116,40.984L35.038,84.741Z" transform="translate(-35.038 -31.069)" fill="#ecae00" stroke="#000" stroke-width="1.3"/>
      </g>
      <g id="Grupo_3208" data-name="Grupo 3208" transform="translate(15.316 14.936)">
        <path id="Trazado_8052" data-name="Trazado 8052" d="M13.175,21.553,35.007,8.865q.362-.21.733-.411c8.3-4.5,17.942-4.552,28.924-.26L42.832,20.882c-10.983-4.292-20.624-4.243-28.924.26q-.371.2-.733.411Z" transform="translate(-13.175 -5.024)" fill="#ffec8c" stroke="#000" stroke-width="1.3"/>
      </g>
      <g id="Grupo_3209" data-name="Grupo 3209" transform="translate(56.875 6.87)">
        <path id="Trazado_8053" data-name="Trazado 8053" d="M24.421,15.539,46.254,2.851,46.2,20.161,24.372,32.849Z" transform="translate(-24.372 -2.851)" fill="#ecae00" stroke="#000" stroke-width="1.3"/>
      </g>
      <g id="Grupo_3210" data-name="Grupo 3210" transform="translate(45.024)">
        <path id="Trazado_8054" data-name="Trazado 8054" d="M21.179,13.688,43.012,1l11.9,6.87L33.079,20.558Z" transform="translate(-21.179 -1)" fill="#ffec8c" stroke="#000" stroke-width="1.3"/>
      </g>
      <g id="Grupo_3211" data-name="Grupo 3211" transform="translate(56.875 24.181)">
        <path id="Trazado_8055" data-name="Trazado 8055" d="M24.372,20.2,46.205,7.515a107.843,107.843,0,0,1,35.1,35.25L59.469,55.453a107.846,107.846,0,0,0-35.1-35.25Z" transform="translate(-24.372 -7.515)" fill="#ffec8c" stroke="#000" stroke-width="1.3"/>
      </g>
      <g id="Grupo_3212" data-name="Grupo 3212" transform="translate(0 12.688)">
        <path id="Trazado_8056" data-name="Trazado 8056" d="M88.024,105.858l17.6,10.163L105.511,157c-9.429,6.507-22.8,4.974-39.939-4.43l-.049,17.31-11.9-6.87.051-18.068q-16.9-12.717-29.126-33.471-15.576-26.52-15.5-53.3Q9.124,31.413,25.1,22.784c8.3-4.5,17.942-4.552,28.924-.26l.051-18.106,11.9,6.87L65.923,28.6a107.843,107.843,0,0,1,35.1,35.25L91.549,73.86A82.648,82.648,0,0,0,79.277,58.428,74.8,74.8,0,0,0,65.867,48.41l-.241,84.733c8.737,4.627,16.226,6.6,22.3,5.63ZM53.73,125.136l.233-82.044c-5.906-1.589-11.157-1.243-15.72,1.092q-10.763,5.566-10.834,24.7a70.579,70.579,0,0,0,10.4,36.734A77.562,77.562,0,0,0,53.73,125.136" transform="translate(-9.048 -4.418)" fill="#ffda1a" stroke="#000" stroke-width="1.3"/>
      </g>
      <g id="Grupo_3213" data-name="Grupo 3213" transform="translate(82.501 59.43)">
        <path id="Trazado_8057" data-name="Trazado 8057" d="M40.748,29.7,62.581,17.012,53.11,27.023,31.276,39.711Z" transform="translate(-31.276 -17.012)" fill="#ecae00" stroke="#000" stroke-width="1.3"/>
      </g>
    </g>
  </g>
</svg>
