<svg xmlns="http://www.w3.org/2000/svg" width="196.958" height="194.676" viewBox="0 0 196.958 194.676">
  <g id="_006-simbolo-de-libra" data-name="006-simbolo-de-libra" transform="matrix(0.616, -0.788, 0.788, 0.616, -8.996, 83.788)">
    <g id="Grupo_3227" data-name="Grupo 3227" transform="translate(0 0)">
      <g id="Grupo_3215" data-name="Grupo 3215" transform="translate(0.556 98.216)">
        <path id="Trazado_8058" data-name="Trazado 8058" d="M11,40.042,32.65,27.462l13.53,7.812L24.534,47.853Z" transform="translate(-11.004 -27.462)" fill="#ffec8c" stroke="#000" stroke-width="1.3"/>
      </g>
      <g id="Grupo_3216" data-name="Grupo 3216" transform="translate(0.052 44.738)">
        <path id="Trazado_8059" data-name="Trazado 8059" d="M10.868,25.633,32.515,13.054,46.7,21.242,25.052,33.822Z" transform="translate(-10.868 -13.054)" fill="#ffec8c" stroke="#000" stroke-width="1.3"/>
      </g>
      <g id="Grupo_3217" data-name="Grupo 3217" transform="translate(33.564 82.762)">
        <path id="Trazado_8060" data-name="Trazado 8060" d="M20,35.878,41.641,23.3l-.1,34.512L19.9,70.39Z" transform="translate(-19.897 -23.298)" fill="#ecae00" stroke="#000" stroke-width="1.3"/>
      </g>
      <g id="Grupo_3218" data-name="Grupo 3218" transform="translate(33.564 117.274)">
        <path id="Trazado_8061" data-name="Trazado 8061" d="M19.9,45.177,41.543,32.6l49.186,28.4L69.083,73.574Z" transform="translate(-19.897 -32.597)" fill="#ffec8c" stroke="#000" stroke-width="1.3"/>
      </g>
      <g id="Grupo_3219" data-name="Grupo 3219" transform="translate(82.694 145.671)">
        <path id="Trazado_8062" data-name="Trazado 8062" d="M33.191,52.828l21.646-12.58-.056,19.9L33.134,72.731Z" transform="translate(-33.134 -40.248)" fill="#ecae00" stroke="#000" stroke-width="1.3"/>
      </g>
      <g id="Grupo_3220" data-name="Grupo 3220" transform="translate(33.715 39.349)">
        <path id="Trazado_8063" data-name="Trazado 8063" d="M20.008,24.181a119.512,119.512,0,0,1,10.611-7.095A106.359,106.359,0,0,1,41.655,11.6l-.07,24.823L19.938,49Z" transform="translate(-19.938 -11.602)" fill="#ecae00" stroke="#000" stroke-width="1.3"/>
      </g>
      <g id="Grupo_3221" data-name="Grupo 3221" transform="translate(61.213 80.079)">
        <path id="Trazado_8064" data-name="Trazado 8064" d="M27.4,35.155,49.046,22.576l-.053,18.589L27.347,53.744Z" transform="translate(-27.347 -22.576)" fill="#ecae00" stroke="#000" stroke-width="1.3"/>
      </g>
      <g id="Grupo_3222" data-name="Grupo 3222" transform="translate(33.715 64.173)">
        <path id="Trazado_8065" data-name="Trazado 8065" d="M19.938,30.87,41.584,18.29,69.135,34.2,47.489,46.776Z" transform="translate(-19.938 -18.29)" fill="#ffec8c" stroke="#000" stroke-width="1.3"/>
      </g>
      <g id="Grupo_3223" data-name="Grupo 3223" transform="translate(33.785 25.904)">
        <path id="Trazado_8066" data-name="Trazado 8066" d="M24.515,20.558,46.162,7.979Q41.634,10.61,41.6,21.425L19.957,34Q19.988,23.19,24.515,20.558Z" transform="translate(-19.957 -7.979)" fill="#ecae00" stroke="#000" stroke-width="1.3"/>
      </g>
      <path id="Unión_2" data-name="Unión 2" d="M-10288.551-4763.871q-16.326-9.426-26.438-4.694c-.329.152-.65.321-.966.5l21.646-12.58c.315-.181.637-.35.968-.5q10.078-4.73,26.437,4.694,21.618,12.481,32.457,40.031l-21.646,12.577Q-10266.917-4751.362-10288.551-4763.871Z" transform="translate(10339.452 4782.726)" fill="#ffec8c" stroke="#000" stroke-width="1.3"/>
      <g id="Grupo_3225" data-name="Grupo 3225" transform="translate(0 12.58)">
        <path id="Trazado_8068" data-name="Trazado 8068" d="M61.755,10.664q21.619,12.482,32.458,40.03l-13.729,4.6C75.966,44.071,70.161,36.431,63,32.3c-5.261-3.038-9.646-3.839-13.12-2.346q-5.211,2.182-5.244,13.787l-.071,24.823L72.12,84.468l-.053,18.589L44.516,87.151l-.1,34.512L93.6,150.06l-.056,19.9L11.353,122.509l.056-19.9,13.53,7.812.1-34.512L10.854,67.716l.052-18.589,14.184,8.189.067-23.7q.065-22.983,10.161-27.649Q45.4,1.239,61.755,10.664Z" transform="translate(-10.854 -4.389)" fill="#ffda1a" stroke="#000" stroke-width="1.3"/>
      </g>
    </g>
  </g>
</svg>
