<?xml version="1.0" encoding="iso-8859-1"?>
<!-- Generator: Adobe Illustrator 19.0.0, SVG Export Plug-In . SVG Version: 6.00 Build 0)  -->
<svg xmlns="http://www.w3.org/2000/svg" xmlns:xlink="http://www.w3.org/1999/xlink" version="1.1" id="Capa_1" x="0px" y="0px" viewBox="0 0 512 512" style="enable-background:new 0 0 512 512;" xml:space="preserve">
<rect y="0.001" style="fill:#FFDA44;" width="512" height="511.978"/>
<rect y="0.005" style="fill:#6DA544;" width="512" height="170.663"/>
<rect y="341.336" style="fill:#D80027;" width="512" height="170.663"/>
<circle style="fill:#0052B4;" cx="256" cy="255.999" r="128"/>
<g>
	<polygon style="fill:#FFDA44;" points="255.973,156.88 279.08,227.993 353.972,227.993 293.36,271.945 316.647,343.271    255.973,299.109 195.391,343.189 218.585,271.945 158.028,227.993 232.865,227.993  "/>
	<polygon style="fill:#FFDA44;" points="348.13,273.698 274.826,249.879 320.129,187.527 301.302,173.847 255.998,236.201    210.698,173.848 191.869,187.526 237.171,249.882 163.87,273.697 171.061,295.832 244.363,272.015 244.363,349.089    267.637,349.089 267.637,272.014 340.936,295.832  "/>
</g>
<g>
</g>
<g>
</g>
<g>
</g>
<g>
</g>
<g>
</g>
<g>
</g>
<g>
</g>
<g>
</g>
<g>
</g>
<g>
</g>
<g>
</g>
<g>
</g>
<g>
</g>
<g>
</g>
<g>
</g>
</svg>
