<?xml version="1.0" encoding="iso-8859-1"?>
<!-- Generator: Adobe Illustrator 19.0.0, SVG Export Plug-In . SVG Version: 6.00 Build 0)  -->
<svg xmlns="http://www.w3.org/2000/svg" xmlns:xlink="http://www.w3.org/1999/xlink" version="1.1" id="Capa_1" x="0px" y="0px" viewBox="0 0 512 512" style="enable-background:new 0 0 512 512;" xml:space="preserve">
<rect y="0.009" style="fill:#F0F0F0;" width="512" height="511.978"/>
<rect y="170.665" style="fill:#0052B4;" width="512" height="170.663"/>
<rect y="341.328" style="fill:#D80027;" width="512" height="170.663"/>
<path style="fill:#F0F0F0;" d="M233.606,196.639v14.837c0,34.081-44.522,44.522-44.522,44.522s-44.522-10.44-44.522-44.522v-14.837  l-0.145-44.188l89.043-0.266L233.606,196.639z"/>
<path style="fill:#0052B4;" d="M253.011,193.395v21.294c0,48.913-63.896,63.896-63.896,63.896s-63.896-14.984-63.896-63.896v-21.294  l-0.208-63.417l127.792-0.382L253.011,193.395z"/>
<path style="fill:#F0F0F0;" d="M253.011,193.395v21.294c0,48.913-63.896,63.896-63.896,63.896s-63.896-14.984-63.896-63.896v-21.294  l21.309,21.294l42.587-31.948l42.603,31.948L253.011,193.395z"/>
<g>
</g>
<g>
</g>
<g>
</g>
<g>
</g>
<g>
</g>
<g>
</g>
<g>
</g>
<g>
</g>
<g>
</g>
<g>
</g>
<g>
</g>
<g>
</g>
<g>
</g>
<g>
</g>
<g>
</g>
</svg>
