<?xml version="1.0" encoding="iso-8859-1"?>
<!-- Generator: Adobe Illustrator 19.0.0, SVG Export Plug-In . SVG Version: 6.00 Build 0)  -->
<svg xmlns="http://www.w3.org/2000/svg" xmlns:xlink="http://www.w3.org/1999/xlink" version="1.1" id="Capa_1" x="0px" y="0px" viewBox="0 0 512 512" style="enable-background:new 0 0 512 512;" xml:space="preserve">
<rect y="0.019" style="fill:#F0F0F0;" width="512" height="511.978"/>
<rect y="356.173" style="fill:#FFDA44;" width="512" height="155.815"/>
<rect y="0.003" style="fill:#496E2D;" width="512" height="156.761"/>
<rect y="188.304" width="512" height="134.478"/>
<polygon style="fill:#A2001D;" points="256,256.007 0,511.994 0,0.003 "/>
<polygon style="fill:#FFDA44;" points="83.477,187.194 100.555,239.755 155.826,239.755 111.113,272.244 128.19,324.807   83.477,292.321 38.763,324.807 55.844,272.244 11.13,239.755 66.399,239.755 "/>
<rect x="33.503" y="255.999" style="fill:#F0F0F0;" width="99.962" height="45.869"/>
<polygon points="152.395,203.412 136.176,187.194 83.478,239.892 30.78,187.194 14.562,203.412 67.307,256.063 14.562,308.808   30.78,324.807 83.478,272.204 136.176,324.807 152.395,308.808 99.65,256.063 "/>
<g>
</g>
<g>
</g>
<g>
</g>
<g>
</g>
<g>
</g>
<g>
</g>
<g>
</g>
<g>
</g>
<g>
</g>
<g>
</g>
<g>
</g>
<g>
</g>
<g>
</g>
<g>
</g>
<g>
</g>
</svg>
