<?xml version="1.0" encoding="iso-8859-1"?>
<!-- Generator: Adobe Illustrator 19.0.0, SVG Export Plug-In . SVG Version: 6.00 Build 0)  -->
<svg xmlns="http://www.w3.org/2000/svg" xmlns:xlink="http://www.w3.org/1999/xlink" version="1.1" id="Capa_1" x="0px" y="0px" viewBox="0 0 512 512" style="enable-background:new 0 0 512 512;" xml:space="preserve">
<rect style="fill:#F0F0F0;" width="512" height="512"/>
<rect style="fill:#A2001D;" width="512" height="170.663"/>
<rect y="341.337" width="512" height="170.663"/>
<g>
	<path style="fill:#496E2D;" d="M208.152,242.758c-0.111,0-0.22,0.007-0.331,0.009v-0.009H169.01   c1.968-7.602,8.867-13.242,17.074-13.242v-26.483c-24.338,0-44.138,19.8-44.138,44.138V268.8v0.442h65.875c0.149,0,0.266,0,0.331,0   c2.433,0,4.414,1.98,4.414,4.414v8.828h-88.275v26.483h114.757v-35.31C239.048,256.619,225.189,242.758,208.152,242.758z"/>
	<polygon style="fill:#496E2D;" points="274.359,282.483 274.359,203.035 247.876,203.035 247.876,308.965 292.014,308.965    292.014,282.483  "/>
	<polygon style="fill:#496E2D;" points="362.635,282.484 362.635,203.035 336.152,203.035 336.152,282.484 327.325,282.484    327.325,256.001 300.841,256.001 300.841,308.966 380.29,308.966 380.29,282.484  "/>
</g>
<g>
</g>
<g>
</g>
<g>
</g>
<g>
</g>
<g>
</g>
<g>
</g>
<g>
</g>
<g>
</g>
<g>
</g>
<g>
</g>
<g>
</g>
<g>
</g>
<g>
</g>
<g>
</g>
<g>
</g>
</svg>
