<?xml version="1.0" encoding="iso-8859-1"?>
<!-- Generator: Adobe Illustrator 19.0.0, SVG Export Plug-In . SVG Version: 6.00 Build 0)  -->
<svg xmlns="http://www.w3.org/2000/svg" xmlns:xlink="http://www.w3.org/1999/xlink" version="1.1" id="Capa_1" x="0px" y="0px" viewBox="0 0 512 512" style="enable-background:new 0 0 512 512;" xml:space="preserve">
<rect width="512" height="512"/>
<rect y="85.326" style="fill:#FFDA44;" width="512" height="85.337"/>
<rect y="170.663" style="fill:#D80027;" width="512" height="85.337"/>
<rect y="341.337" style="fill:#FFDA44;" width="512" height="85.337"/>
<rect y="426.663" style="fill:#D80027;" width="512" height="85.337"/>
<path style="fill:#F0F0F0;" d="M341.334,255.998c0,47.132-38.202,85.334-85.334,85.334s-85.335-38.202-85.335-85.334  s38.202-85.334,85.335-85.334S341.334,208.866,341.334,255.998z"/>
<path d="M287.261,260.35L256,246.803c0,0,7.314-24.278,7.704-25.938c0.285-1.214,0.437-2.48,0.437-3.781  c0-4.606-1.867-8.775-4.885-11.793l7.863-7.863c-5.03-5.031-11.979-8.141-19.655-8.141s-14.625,3.111-19.655,8.141l7.863,7.863  c-3.019,3.017-4.885,7.187-4.885,11.793c0,1.684,0.255,3.307,0.719,4.841l-11.837,11.837h21.513c0,0-8.894,13.36-13.749,24.33  c-4.855,10.971,0.067,24.363,11.288,29.351l6.488,2.884l10.793,10.145v11.118l-11.118,11.118h22.237v-22.236l10.145-10.145h20.985  c0.101-0.208,0.207-0.413,0.303-0.626C303.539,278.477,298.485,265.337,287.261,260.35z"/>
<g>
</g>
<g>
</g>
<g>
</g>
<g>
</g>
<g>
</g>
<g>
</g>
<g>
</g>
<g>
</g>
<g>
</g>
<g>
</g>
<g>
</g>
<g>
</g>
<g>
</g>
<g>
</g>
<g>
</g>
</svg>
