<?xml version="1.0" encoding="iso-8859-1"?>
<!-- Generator: Adobe Illustrator 19.0.0, SVG Export Plug-In . SVG Version: 6.00 Build 0)  -->
<svg xmlns="http://www.w3.org/2000/svg" xmlns:xlink="http://www.w3.org/1999/xlink" version="1.1" id="Capa_1" x="0px" y="0px" viewBox="0 0 512 512" style="enable-background:new 0 0 512 512;" xml:space="preserve">
<rect style="fill:#F0F0F0;" width="512" height="512"/>
<g>
	<rect style="fill:#338AF3;" width="512" height="170.663"/>
	<rect y="341.337" style="fill:#338AF3;" width="512" height="170.663"/>
</g>
<path style="fill:#FFDA44;" d="M256,192c-35.346,0-64,28.653-64,64s28.654,64,64,64s64-28.653,64-64S291.346,192,256,192z   M256,292.571c-20.197,0-36.571-16.373-36.571-36.571s16.374-36.571,36.571-36.571s36.571,16.373,36.571,36.571  S276.197,292.571,256,292.571z"/>
<polygon style="fill:#0052B4;" points="287.673,265.143 256,256 224.327,265.143 213.77,283.429 298.23,283.429 "/>
<polygon style="fill:#338AF3;" points="256,210.286 234.886,246.857 256,256 277.114,246.857 "/>
<polygon style="fill:#6DA544;" points="224.327,265.143 287.673,265.143 277.114,246.857 234.886,246.857 "/>
<g>
</g>
<g>
</g>
<g>
</g>
<g>
</g>
<g>
</g>
<g>
</g>
<g>
</g>
<g>
</g>
<g>
</g>
<g>
</g>
<g>
</g>
<g>
</g>
<g>
</g>
<g>
</g>
<g>
</g>
</svg>
