<?xml version="1.0" encoding="iso-8859-1"?>
<!-- Generator: Adobe Illustrator 19.0.0, SVG Export Plug-In . SVG Version: 6.00 Build 0)  -->
<svg xmlns="http://www.w3.org/2000/svg" xmlns:xlink="http://www.w3.org/1999/xlink" version="1.1" id="Capa_1" x="0px" y="0px" viewBox="0 0 512 512" style="enable-background:new 0 0 512 512;" xml:space="preserve">
<rect style="fill:#F0F0F0;" width="512" height="512"/>
<g>
	<rect style="fill:#0052B4;" width="512" height="170.663"/>
	<rect y="341.337" style="fill:#0052B4;" width="512" height="170.663"/>
</g>
<polygon style="fill:#FFDA44;" points="219.049,264.001 256,200.001 292.951,264.001 "/>
<polygon style="fill:#6DA544;" points="304,285.132 256,309.132 208,285.132 208,253.132 304,253.132 "/>
<path style="fill:#FFDA44;" d="M301.255,202.745l-16.971,16.971c7.238,7.239,11.716,17.239,11.716,28.285  c0,22.092-17.909,40.001-40.001,40.001s-40.001-17.909-40.001-40.001c0-11.045,4.478-21.045,11.716-28.285l-16.971-16.971  C199.162,214.327,192,230.327,192,248.001c0,35.346,28.654,64,64,64s64-28.654,64-64C320,230.327,312.836,214.327,301.255,202.745z"/>
<g>
</g>
<g>
</g>
<g>
</g>
<g>
</g>
<g>
</g>
<g>
</g>
<g>
</g>
<g>
</g>
<g>
</g>
<g>
</g>
<g>
</g>
<g>
</g>
<g>
</g>
<g>
</g>
<g>
</g>
</svg>
