<?xml version="1.0" encoding="iso-8859-1"?>
<!-- Generator: Adobe Illustrator 19.0.0, SVG Export Plug-In . SVG Version: 6.00 Build 0)  -->
<svg xmlns="http://www.w3.org/2000/svg" xmlns:xlink="http://www.w3.org/1999/xlink" version="1.1" id="Capa_1" x="0px" y="0px" viewBox="0 0 512 512" style="enable-background:new 0 0 512 512;" xml:space="preserve">
<rect style="fill:#496E2D;" width="512" height="512"/>
<path style="fill:#FF9811;" d="M490.668,195.479h-48c0-8.836-7.164-16-16-16s-16,7.164-16,16h-48c0,8.836,7.697,16,16.533,16h-0.533  c0,8.836,7.162,16,16,16c0,8.836,7.162,16,16,16h32c8.836,0,16-7.164,16-16c8.836,0,16-7.164,16-16h-0.533  C482.972,211.479,490.668,204.316,490.668,195.479z"/>
<rect x="341.337" y="256" style="fill:#D80027;" width="56.888" height="256"/>
<rect x="455.112" y="256" style="fill:#FF9811;" width="56.888" height="256"/>
<rect x="398.225" y="256" width="56.888" height="256"/>
<g>
</g>
<g>
</g>
<g>
</g>
<g>
</g>
<g>
</g>
<g>
</g>
<g>
</g>
<g>
</g>
<g>
</g>
<g>
</g>
<g>
</g>
<g>
</g>
<g>
</g>
<g>
</g>
<g>
</g>
</svg>
