<?xml version="1.0" encoding="iso-8859-1"?>
<!-- Generator: Adobe Illustrator 19.0.0, SVG Export Plug-In . SVG Version: 6.00 Build 0)  -->
<svg xmlns="http://www.w3.org/2000/svg" xmlns:xlink="http://www.w3.org/1999/xlink" version="1.1" id="Capa_1" x="0px" y="0px" viewBox="0 0 512.006 512.006" style="enable-background:new 0 0 512.006 512.006;" xml:space="preserve">
<rect x="0.003" y="0.017" style="fill:#F0F0F0;" width="512" height="511.989"/>
<rect x="0.003" y="322.794" style="fill:#D80027;" width="211.478" height="189.206"/>
<rect x="0.003" style="fill:#0052B4;" width="211.478" height="189.229"/>
<rect x="300.525" style="fill:#D80027;" width="211.478" height="189.229"/>
<rect x="300.525" y="322.794" style="fill:#0052B4;" width="211.478" height="189.206"/>
<path style="fill:#496E2D;" d="M320.003,256.006c0,35.347-28.653,64-64,64c-35.346,0-64-28.653-64-64s64-64,64-64  S320.003,220.659,320.003,256.006z"/>
<path style="fill:#0052B4;" d="M192.003,256.006c0-35.347,28.654-64,64-64c35.347,0,64,28.653,64,64"/>
<path style="fill:#D80027;" d="M220.003,224.006v40.001c0,19.882,16.118,36,36,36s36-16.118,36-36v-40.001L220.003,224.006  L220.003,224.006z"/>
<g>
</g>
<g>
</g>
<g>
</g>
<g>
</g>
<g>
</g>
<g>
</g>
<g>
</g>
<g>
</g>
<g>
</g>
<g>
</g>
<g>
</g>
<g>
</g>
<g>
</g>
<g>
</g>
<g>
</g>
</svg>
