<?xml version="1.0" encoding="iso-8859-1"?>
<!-- Generator: Adobe Illustrator 19.0.0, SVG Export Plug-In . SVG Version: 6.00 Build 0)  -->
<svg xmlns="http://www.w3.org/2000/svg" xmlns:xlink="http://www.w3.org/1999/xlink" version="1.1" id="Capa_1" x="0px" y="0px" viewBox="0 0 512 512" style="enable-background:new 0 0 512 512;" xml:space="preserve">
<g>
	<rect style="fill:#496E2D;" width="512" height="512"/>
	<polygon style="fill:#496E2D;" points="449.016,0.009 449.025,0 401.81,0 401.802,0.009  "/>
</g>
<polygon style="fill:#0052B4;" points="401.81,0 0,0 0,401.81 401.802,0.009 "/>
<polygon style="fill:#FFDA44;" points="203.694,139.124 169.583,155.168 187.747,188.203 150.708,181.118 146.015,218.534   120.215,191.014 94.416,218.534 89.724,181.118 52.685,188.201 70.847,155.167 36.738,139.124 70.849,123.079 52.685,90.045   89.722,97.13 94.417,59.714 120.215,87.234 146.016,59.714 150.708,97.13 187.748,90.045 169.584,123.08 "/>
<polygon style="fill:#F0F0F0;" points="512,0.004 512,110.196 110.202,511.993 0,511.993 0,401.813 401.798,0.016 449.013,0.016   449.024,0.004 "/>
<polygon style="fill:#A2001D;" points="62.967,511.996 512,62.978 512,0.004 449.025,0.004 449.016,0.013 0,449.044 0,511.996 "/>
<g>
</g>
<g>
</g>
<g>
</g>
<g>
</g>
<g>
</g>
<g>
</g>
<g>
</g>
<g>
</g>
<g>
</g>
<g>
</g>
<g>
</g>
<g>
</g>
<g>
</g>
<g>
</g>
<g>
</g>
</svg>
