<?xml version="1.0" encoding="iso-8859-1"?>
<!-- Generator: Adobe Illustrator 19.0.0, SVG Export Plug-In . SVG Version: 6.00 Build 0)  -->
<svg xmlns="http://www.w3.org/2000/svg" xmlns:xlink="http://www.w3.org/1999/xlink" version="1.1" id="Capa_1" x="0px" y="0px" viewBox="0 0 512 512" style="enable-background:new 0 0 512 512;" xml:space="preserve">
<rect style="fill:#F0F0F0;" width="512" height="512"/>
<rect width="512" height="135.869"/>
<rect y="376.153" style="fill:#496E2D;" width="512" height="135.847"/>
<rect y="169.906" style="fill:#A2001D;" width="512" height="172.199"/>
<g>
	<polygon style="fill:#F0F0F0;" points="356.897,81.712 318.524,64 256,205.572 193.476,64 155.103,81.712 232.726,256    155.103,430.288 193.476,448 256,306.428 318.524,448 356.897,430.288 279.274,256  "/>
	<path style="fill:#F0F0F0;" d="M282.063,98.404C267.208,82.18,256,72.855,256,72.855s-11.208,9.325-26.063,25.549v315.191   C244.792,429.82,256,439.145,256,439.145s11.208-9.325,26.063-25.55V98.404z"/>
</g>
<g>
	<path style="fill:#A2001D;" d="M185.56,158.848v194.303c15.697,27.814,34.911,50.612,49.308,65.727V93.122   C220.471,108.236,201.257,131.033,185.56,158.848z"/>
	<path style="fill:#A2001D;" d="M326.44,158.848c-15.697-27.814-34.911-50.612-49.308-65.726v325.758   c14.397-15.116,33.611-37.914,49.308-65.727V158.848z"/>
</g>
<path d="M326.44,158.848v194.303c15.892-28.161,28.176-61.46,28.176-97.151S342.332,187.01,326.44,158.848z"/>
<path d="M185.56,158.848v194.303c-15.892-28.161-28.176-61.46-28.176-97.151S169.668,187.01,185.56,158.848z"/>
<g>
</g>
<g>
</g>
<g>
</g>
<g>
</g>
<g>
</g>
<g>
</g>
<g>
</g>
<g>
</g>
<g>
</g>
<g>
</g>
<g>
</g>
<g>
</g>
<g>
</g>
<g>
</g>
<g>
</g>
</svg>
