<?xml version="1.0" encoding="iso-8859-1"?>
<!-- Generator: Adobe Illustrator 19.0.0, SVG Export Plug-In . SVG Version: 6.00 Build 0)  -->
<svg xmlns="http://www.w3.org/2000/svg" xmlns:xlink="http://www.w3.org/1999/xlink" version="1.1" id="Capa_1" x="0px" y="0px" viewBox="0 0 512.006 512.006" style="enable-background:new 0 0 512.006 512.006;" xml:space="preserve">
<rect x="0.003" y="0.017" style="fill:#F0F0F0;" width="512" height="511.989"/>
<rect x="128.003" style="fill:#496E2D;" width="384" height="512"/>
<g>
	<path style="fill:#F0F0F0;" d="M372.459,297.284c-31.577,22.816-75.671,15.714-98.488-15.863   c-22.817-31.578-15.714-75.673,15.863-98.488c9.845-7.113,20.907-11.319,32.163-12.781c-21.652-3.239-44.538,1.641-63.686,15.475   c-38.864,28.082-47.606,82.352-19.525,121.217c28.081,38.863,82.352,47.606,121.216,19.522   c19.148-13.834,30.966-34.029,34.689-55.605C389.769,280.987,382.304,290.169,372.459,297.284z"/>
	<polygon style="fill:#F0F0F0;" points="371.107,169.19 388.895,188.359 412.622,177.369 399.886,200.208 417.672,219.379    392.014,214.324 379.278,237.164 376.157,211.2 350.5,206.145 374.228,195.154  "/>
</g>
<g>
</g>
<g>
</g>
<g>
</g>
<g>
</g>
<g>
</g>
<g>
</g>
<g>
</g>
<g>
</g>
<g>
</g>
<g>
</g>
<g>
</g>
<g>
</g>
<g>
</g>
<g>
</g>
<g>
</g>
</svg>
