<?xml version="1.0" encoding="iso-8859-1"?>
<!-- Generator: Adobe Illustrator 19.0.0, SVG Export Plug-In . SVG Version: 6.00 Build 0)  -->
<svg xmlns="http://www.w3.org/2000/svg" xmlns:xlink="http://www.w3.org/1999/xlink" version="1.1" id="Capa_1" x="0px" y="0px" viewBox="0 0 512 512" style="enable-background:new 0 0 512 512;" xml:space="preserve">
<rect style="fill:#338AF3;" width="512" height="512"/>
<path style="fill:#FFDA44;" d="M360.727,266.662H151.273c0,14.461,12.594,26.182,27.054,26.182h-0.872  c0,14.461,11.721,26.182,26.182,26.182c0,14.461,11.721,26.182,26.182,26.182h52.363c14.461,0,26.182-11.721,26.182-26.182  c14.461,0,26.182-11.721,26.182-26.182h-0.872C348.132,292.844,360.727,281.122,360.727,266.662z"/>
<path style="fill:#338AF3;" d="M328.504,232.423c0,40.042-32.461,72.504-72.504,72.504s-72.504-32.461-72.504-72.504"/>
<polygon style="fill:#FFDA44;" points="327.871,225.638 298.504,237.528 314.142,262.008 282.253,256.757 278.212,284.484   256,264.092 233.787,284.484 229.747,256.757 197.858,262.007 213.495,237.527 184.129,225.638 213.496,213.749 197.858,189.27   229.747,194.52 233.788,166.793 256,187.185 278.213,166.793 282.253,194.52 314.143,189.27 298.505,213.75 "/>
<g>
</g>
<g>
</g>
<g>
</g>
<g>
</g>
<g>
</g>
<g>
</g>
<g>
</g>
<g>
</g>
<g>
</g>
<g>
</g>
<g>
</g>
<g>
</g>
<g>
</g>
<g>
</g>
<g>
</g>
</svg>
