<?xml version="1.0" encoding="iso-8859-1"?>
<!-- Generator: Adobe Illustrator 19.0.0, SVG Export Plug-In . SVG Version: 6.00 Build 0)  -->
<svg xmlns="http://www.w3.org/2000/svg" xmlns:xlink="http://www.w3.org/1999/xlink" version="1.1" id="Capa_1" x="0px" y="0px" viewBox="0 0 512 512" style="enable-background:new 0 0 512 512;" xml:space="preserve">
<rect style="fill:#0052B4;" width="512" height="512"/>
<rect style="fill:#D80027;" width="512" height="170.663"/>
<rect y="341.337" style="fill:#F0F0F0;" width="512" height="170.663"/>
<path style="fill:#D80027;" d="M101.787,155.826v122.386c0,69.616,90.947,90.948,90.947,90.948s90.947-21.331,90.947-90.948V155.826  H101.787z"/>
<g>
	<polygon style="fill:#FFDA44;" points="139.401,177.16 246.067,177.16 246.067,134.493 224.733,145.16 192.733,113.16    160.733,145.16 139.401,134.493  "/>
	<polygon style="fill:#FFDA44;" points="262.348,295.251 193.014,225.918 123.681,295.251 146.308,317.879 193.014,271.172    239.721,317.879  "/>
</g>
<path style="fill:#F0F0F0;" d="M262.348,230.493h-32.35c1.819-3.14,2.877-6.775,2.877-10.664c0-11.784-9.552-21.334-21.334-21.334  c-8.141,0-15.211,4.56-18.807,11.264c-3.597-6.703-10.666-11.264-18.807-11.264c-11.782,0-21.334,9.55-21.334,21.334  c0,3.889,1.059,7.525,2.877,10.664h-31.79c0,11.783,10.262,21.334,22.044,21.334h-0.71c0,11.783,9.551,21.334,21.334,21.334  c0,10.433,7.492,19.1,17.387,20.954l-16.809,37.953c8.055,3.275,16.858,5.093,26.09,5.093c9.232,0,18.035-1.819,26.09-5.093  l-16.809-37.953c9.894-1.854,17.387-10.522,17.387-20.954c11.783,0,21.334-9.551,21.334-21.334h-0.71  C252.085,251.826,262.348,242.275,262.348,230.493z"/>
<g>
</g>
<g>
</g>
<g>
</g>
<g>
</g>
<g>
</g>
<g>
</g>
<g>
</g>
<g>
</g>
<g>
</g>
<g>
</g>
<g>
</g>
<g>
</g>
<g>
</g>
<g>
</g>
<g>
</g>
</svg>
