<?xml version="1.0" encoding="iso-8859-1"?>
<!-- Generator: Adobe Illustrator 19.0.0, SVG Export Plug-In . SVG Version: 6.00 Build 0)  -->
<svg xmlns="http://www.w3.org/2000/svg" xmlns:xlink="http://www.w3.org/1999/xlink" version="1.1" id="Capa_1" x="0px" y="0px" viewBox="0 0 512.006 512.006" style="enable-background:new 0 0 512.006 512.006;" xml:space="preserve">
<rect x="0.003" y="0.007" style="fill:#F0F0F0;" width="511.999" height="511.999"/>
<g>
	<rect x="0.003" style="fill:#338AF3;" width="511.999" height="64"/>
	<rect x="0.003" y="128" style="fill:#338AF3;" width="511.999" height="64"/>
	<rect x="0.003" y="383.999" style="fill:#338AF3;" width="511.999" height="64"/>
	<rect x="0.003" y="255.999" style="fill:#338AF3;" width="511.999" height="64"/>
</g>
<rect x="0.003" y="0.004" style="fill:#F0F0F0;" width="255.999" height="255.999"/>
<polygon style="fill:#FFDA44;" points="197.568,128.002 169.143,141.373 184.28,168.902 153.414,162.997 149.503,194.178   128.003,171.245 106.504,194.178 102.593,162.997 71.728,168.901 86.863,141.372 58.438,128.002 86.864,114.632 71.728,87.103   102.592,93.007 106.505,61.827 128.003,84.759 149.504,61.827 153.414,93.007 184.281,87.103 169.144,114.632 "/>
<g>
</g>
<g>
</g>
<g>
</g>
<g>
</g>
<g>
</g>
<g>
</g>
<g>
</g>
<g>
</g>
<g>
</g>
<g>
</g>
<g>
</g>
<g>
</g>
<g>
</g>
<g>
</g>
<g>
</g>
</svg>
