<?xml version="1.0" encoding="iso-8859-1"?>
<!-- Generator: Adobe Illustrator 19.0.0, SVG Export Plug-In . SVG Version: 6.00 Build 0)  -->
<svg xmlns="http://www.w3.org/2000/svg" xmlns:xlink="http://www.w3.org/1999/xlink" version="1.1" id="Capa_1" x="0px" y="0px" viewBox="0 0 512 512" style="enable-background:new 0 0 512 512;" xml:space="preserve">
<rect style="fill:#F0F0F0;" width="512" height="512"/>
<g>
	<rect style="fill:#338AF3;" width="170.663" height="512"/>
	<rect x="341.337" style="fill:#338AF3;" width="170.663" height="512"/>
</g>
<polygon style="fill:#ACABB1;" points="304.083,286.741 272.971,255.629 302.586,226.013 301.244,210.372 292.766,201.892   256,238.658 219.234,201.892 210.756,210.372 209.414,226.013 239.029,255.629 207.917,286.741 224.887,303.712 256,272.6   287.113,303.712 "/>
<path style="fill:#6DA544;" d="M301.255,210.373l-16.971,16.971c7.238,7.239,11.716,17.239,11.716,28.285  c0,22.092-17.909,40.001-40.001,40.001s-40.001-17.909-40.001-40.001c0-11.045,4.478-21.045,11.716-28.285l-16.971-16.971  C199.162,221.954,192,237.954,192,255.628c0,35.346,28.654,64,64,64s64-28.654,64-64C320,237.954,312.836,221.954,301.255,210.373z"/>
<g>
</g>
<g>
</g>
<g>
</g>
<g>
</g>
<g>
</g>
<g>
</g>
<g>
</g>
<g>
</g>
<g>
</g>
<g>
</g>
<g>
</g>
<g>
</g>
<g>
</g>
<g>
</g>
<g>
</g>
</svg>
