<?xml version="1.0" encoding="iso-8859-1"?>
<!-- Generator: Adobe Illustrator 19.0.0, SVG Export Plug-In . SVG Version: 6.00 Build 0)  -->
<svg xmlns="http://www.w3.org/2000/svg" xmlns:xlink="http://www.w3.org/1999/xlink" version="1.1" id="Capa_1" x="0px" y="0px" viewBox="0 0 512 512" style="enable-background:new 0 0 512 512;" xml:space="preserve">
<rect style="fill:#F0F0F0;" width="512" height="512"/>
<rect y="166.957" style="fill:#0052B4;" width="512" height="178.076"/>
<rect y="345.043" style="fill:#D80027;" width="512" height="166.957"/>
<path style="fill:#F0F0F0;" d="M83.597,141.308V288.17c0,83.541,109.136,109.137,109.136,109.137S301.87,371.71,301.87,288.17  V141.308H83.597z"/>
<path style="fill:#D80027;" d="M109.197,141.308V288.17c0,9.807,2.179,19.07,6.493,27.753c42.819,0,106.819,0,154.085,0  c4.315-8.683,6.493-17.946,6.493-27.753V141.308H109.197z"/>
<polygon style="fill:#F0F0F0;" points="243.933,243.708 205.536,243.708 205.536,218.108 231.136,218.108 231.136,192.508   205.536,192.508 205.536,166.908 179.936,166.908 179.936,192.508 154.337,192.508 154.337,218.108 179.936,218.108   179.936,243.708 141.533,243.708 141.533,269.308 179.936,269.308 179.936,294.908 205.536,294.908 205.536,269.308   243.933,269.308 "/>
<path style="fill:#0052B4;" d="M150.611,351.658c16.496,10.366,33.445,16.386,42.122,19.062c8.677-2.676,25.627-8.696,42.122-19.062  c16.637-10.456,28.299-22.413,34.921-35.736c-7.304-5.168-16.215-8.215-25.843-8.215c-3.505,0-6.911,0.415-10.185,1.178  c-6.938-15.765-22.686-26.778-41.015-26.778s-34.077,11.012-41.015,26.778c-3.273-0.762-6.679-1.178-10.185-1.178  c-9.628,0-18.539,3.048-25.843,8.215C122.312,329.245,133.975,341.202,150.611,351.658z"/>
<g>
</g>
<g>
</g>
<g>
</g>
<g>
</g>
<g>
</g>
<g>
</g>
<g>
</g>
<g>
</g>
<g>
</g>
<g>
</g>
<g>
</g>
<g>
</g>
<g>
</g>
<g>
</g>
<g>
</g>
</svg>
