<?xml version="1.0" encoding="iso-8859-1"?>
<!-- Generator: Adobe Illustrator 19.0.0, SVG Export Plug-In . SVG Version: 6.00 Build 0)  -->
<svg xmlns="http://www.w3.org/2000/svg" xmlns:xlink="http://www.w3.org/1999/xlink" version="1.1" id="Capa_1" x="0px" y="0px" viewBox="0 0 512 512" style="enable-background:new 0 0 512 512;" xml:space="preserve">
<rect style="fill:#F0F0F0;" width="512" height="512"/>
<path style="fill:#0052B4;" d="M256,256c0,0,0,127.959,0,256H0V256h85.337C166.934,256,256,256,256,256z"/>
<path style="fill:#D80027;" d="M512,0v256h-85.337C336.184,256,256,256,256,256s0-135.487,0-256H512z"/>
<polygon style="fill:#0052B4;" points="128,64.486 143.765,113.006 194.783,113.006 153.509,142.994 169.274,191.514 128,161.527   86.726,191.514 102.491,142.994 61.217,113.006 112.235,113.006 "/>
<polygon style="fill:#D80027;" points="384,320.486 399.765,369.006 450.783,369.006 409.509,398.994 425.274,447.514 384,417.527   342.726,447.514 358.491,398.994 317.217,369.006 368.235,369.006 "/>
<g>
</g>
<g>
</g>
<g>
</g>
<g>
</g>
<g>
</g>
<g>
</g>
<g>
</g>
<g>
</g>
<g>
</g>
<g>
</g>
<g>
</g>
<g>
</g>
<g>
</g>
<g>
</g>
<g>
</g>
</svg>
