<?xml version="1.0" encoding="iso-8859-1"?>
<!-- Generator: Adobe Illustrator 19.0.0, SVG Export Plug-In . SVG Version: 6.00 Build 0)  -->
<svg xmlns="http://www.w3.org/2000/svg" xmlns:xlink="http://www.w3.org/1999/xlink" version="1.1" id="Capa_1" x="0px" y="0px" viewBox="0 0 512 512" style="enable-background:new 0 0 512 512;" xml:space="preserve">
<rect style="fill:#0052B4;" width="512" height="512"/>
<g>
	<polygon style="fill:#D80027;" points="445.95,216.686 451.033,232.328 467.478,232.328 454.173,241.993 459.255,257.635    445.95,247.968 432.644,257.635 437.728,241.993 424.422,232.328 440.868,232.328  "/>
	<polygon style="fill:#D80027;" points="387.161,329.295 394.785,352.758 419.454,352.758 399.495,367.256 407.119,390.718    387.161,376.219 367.203,390.718 374.827,367.256 354.868,352.758 379.537,352.758  "/>
	<polygon style="fill:#D80027;" points="389.382,145.025 395.735,164.578 416.292,164.578 399.661,176.66 406.014,196.212    389.382,184.127 372.75,196.212 379.104,176.66 362.471,164.578 383.028,164.578  "/>
	<polygon style="fill:#D80027;" points="332.814,216.004 340.438,239.467 365.106,239.467 345.148,253.965 352.772,277.427    332.814,262.928 312.855,277.427 320.48,253.965 300.522,239.467 325.19,239.467  "/>
</g>
<polygon style="fill:#F0F0F0;" points="256,0.002 256,48.898 215.853,89.046 256,89.046 256,166.959 203.464,166.959 256,219.494   256,256.002 232.281,256.002 166.957,190.667 166.957,256.002 89.043,256.002 89.043,178.278 11.331,256.002 0,256.002 0,207.106   40.147,166.959 0,166.959 0,89.046 52.536,89.046 0,36.51 0,0.002 23.719,0.002 89.043,65.338 89.043,0.002 166.957,0.002   166.957,77.726 244.669,0.002 "/>
<polygon style="fill:#D80027;" points="0,152.002 104.001,152.002 104.001,256.002 152.001,256.002 152.001,152.002 256,152.002   256,104.002 152.001,104.002 152.001,0.002 104.001,0.002 104.001,104.002 0,104.002 "/>
<polygon style="fill:#0052B4;" points="166.957,166.959 256,256.002 256,230.822 192.137,166.959 "/>
<polygon style="fill:#F0F0F0;" points="166.957,166.959 256,256.002 256,230.822 192.137,166.959 "/>
<g>
	<polygon style="fill:#D80027;" points="166.957,166.959 256,256.002 256,230.822 192.137,166.959  "/>
	<polygon style="fill:#D80027;" points="63.862,166.961 0,230.823 0,256.002 0,256.002 89.041,166.961  "/>
</g>
<polygon style="fill:#0052B4;" points="89.043,89.046 0,0.002 0,25.183 63.863,89.046 "/>
<polygon style="fill:#F0F0F0;" points="89.043,89.046 0,0.002 0,25.183 63.863,89.046 "/>
<g>
	<polygon style="fill:#D80027;" points="89.043,89.046 0,0.002 0,25.183 63.863,89.046  "/>
	<polygon style="fill:#D80027;" points="192.138,89.043 256,25.181 256,0.002 256,0.002 166.959,89.043  "/>
</g>
<g>
</g>
<g>
</g>
<g>
</g>
<g>
</g>
<g>
</g>
<g>
</g>
<g>
</g>
<g>
</g>
<g>
</g>
<g>
</g>
<g>
</g>
<g>
</g>
<g>
</g>
<g>
</g>
<g>
</g>
</svg>
