<?xml version="1.0" encoding="iso-8859-1"?>
<!-- Generator: Adobe Illustrator 19.0.0, SVG Export Plug-In . SVG Version: 6.00 Build 0)  -->
<svg xmlns="http://www.w3.org/2000/svg" xmlns:xlink="http://www.w3.org/1999/xlink" version="1.1" id="Capa_1" x="0px" y="0px" viewBox="0 0 512 512" style="enable-background:new 0 0 512 512;" xml:space="preserve">
<rect style="fill:#FFDA44;" width="512" height="256"/>
<rect y="256" style="fill:#0052B4;" width="512" height="128.011"/>
<rect y="384.011" style="fill:#D80027;" width="512" height="127.989"/>
<circle style="fill:#FFDA44;" cx="256" cy="256" r="89.043"/>
<path style="fill:#338AF3;" d="M256,311.651c-30.687,0-55.652-24.966-55.652-55.652v-33.391c0-30.687,24.966-55.652,55.652-55.652  s55.652,24.966,55.652,55.652v33.391C311.652,286.685,286.687,311.651,256,311.651z"/>
<path d="M345.043,122.434h-66.783c0-12.294-9.967-22.261-22.261-22.261s-22.261,9.967-22.261,22.261h-66.783  c0,12.295,10.709,22.261,23.002,22.261h-0.741c0,12.295,9.966,22.261,22.261,22.261c0,12.295,9.966,22.261,22.261,22.261h44.522  c12.295,0,22.261-9.966,22.261-22.261c12.295,0,22.261-9.966,22.261-22.261h-0.741C334.335,144.695,345.043,134.728,345.043,122.434  z"/>
<g>
</g>
<g>
</g>
<g>
</g>
<g>
</g>
<g>
</g>
<g>
</g>
<g>
</g>
<g>
</g>
<g>
</g>
<g>
</g>
<g>
</g>
<g>
</g>
<g>
</g>
<g>
</g>
<g>
</g>
</svg>
