<?xml version="1.0" encoding="iso-8859-1"?>
<!-- Generator: Adobe Illustrator 19.0.0, SVG Export Plug-In . SVG Version: 6.00 Build 0)  -->
<svg xmlns="http://www.w3.org/2000/svg" xmlns:xlink="http://www.w3.org/1999/xlink" version="1.1" id="Capa_1" x="0px" y="0px" viewBox="0 0 512 512" style="enable-background:new 0 0 512 512;" xml:space="preserve">
<rect style="fill:#F0F0F0;" width="512" height="512"/>
<g>
	<rect y="64" style="fill:#D80027;" width="512" height="64"/>
	<rect y="192" style="fill:#D80027;" width="512" height="64"/>
	<rect y="320" style="fill:#D80027;" width="512" height="64"/>
	<rect y="448" style="fill:#D80027;" width="512" height="64"/>
</g>
<rect style="fill:#0052B4;" width="256" height="256"/>
<g>
	<path style="fill:#FFDA44;" d="M142.964,176.883c-26.997,0-48.883-21.886-48.883-48.883s21.886-48.883,48.883-48.883   c8.418,0,16.337,2.128,23.253,5.876c-10.848-10.607-25.682-17.155-42.053-17.155C90.937,67.838,64,94.773,64,128   s26.937,60.162,60.162,60.162c16.371,0,31.206-6.548,42.053-17.155C159.301,174.753,151.381,176.883,142.964,176.883z"/>
	<polygon style="fill:#FFDA44;" points="156.738,93.621 165.416,111.77 185.016,107.241 176.238,125.34 192,137.839    172.376,142.263 172.432,162.379 156.738,149.794 141.044,162.379 141.098,142.263 121.474,137.839 137.236,125.34    128.459,107.241 148.058,111.77  "/>
</g>
<g>
</g>
<g>
</g>
<g>
</g>
<g>
</g>
<g>
</g>
<g>
</g>
<g>
</g>
<g>
</g>
<g>
</g>
<g>
</g>
<g>
</g>
<g>
</g>
<g>
</g>
<g>
</g>
<g>
</g>
</svg>
