<?xml version="1.0" encoding="iso-8859-1"?>
<!-- Generator: Adobe Illustrator 19.0.0, SVG Export Plug-In . SVG Version: 6.00 Build 0)  -->
<svg xmlns="http://www.w3.org/2000/svg" xmlns:xlink="http://www.w3.org/1999/xlink" version="1.1" id="Capa_1" x="0px" y="0px" viewBox="0 0 512 512" style="enable-background:new 0 0 512 512;" xml:space="preserve">
<rect style="fill:#6DA544;" width="512" height="512"/>
<g>
	<path style="fill:#F0F0F0;" d="M159.397,299.472c0,16.006,12.976,28.981,28.981,28.981h86.943   c0,13.338,10.813,24.151,24.151,24.151h28.981c13.339,0,24.151-10.813,24.151-24.151v-28.981H159.397z"/>
	<path style="fill:#F0F0F0;" d="M355.019,159.397v67.623c0,10.654-8.667,19.32-19.32,19.32v28.981   c26.634,0,48.302-21.668,48.302-48.302v-67.623H355.019z"/>
	<path style="fill:#F0F0F0;" d="M147.32,227.019c0,10.654-8.667,19.32-19.32,19.32v28.981c26.634,0,48.302-21.668,48.302-48.302   v-67.623H147.32V227.019z"/>
	<rect x="311.552" y="159.399" style="fill:#F0F0F0;" width="28.984" height="67.623"/>
	<path style="fill:#F0F0F0;" d="M268.075,198.038c0,2.664-2.167,4.831-4.831,4.831s-4.831-2.167-4.831-4.831v-38.642h-28.981v38.642   c0,2.664-2.167,4.831-4.831,4.831s-4.831-2.167-4.831-4.831v-38.642H190.79v38.642c0,18.643,15.167,33.811,33.811,33.811   c7.18,0,13.84-2.256,19.32-6.088c5.481,3.832,12.141,6.088,19.32,6.088c1.446,0,2.867-0.102,4.266-0.279   c-2.055,8.461-9.673,14.77-18.757,14.77v28.981c26.634,0,48.302-21.668,48.302-48.302v-28.981v-38.642h-28.981v38.642H268.075z"/>
	<rect x="190.787" y="246.339" style="fill:#F0F0F0;" width="43.475" height="28.984"/>
</g>
<g>
</g>
<g>
</g>
<g>
</g>
<g>
</g>
<g>
</g>
<g>
</g>
<g>
</g>
<g>
</g>
<g>
</g>
<g>
</g>
<g>
</g>
<g>
</g>
<g>
</g>
<g>
</g>
<g>
</g>
</svg>
