<?xml version="1.0" encoding="iso-8859-1"?>
<!-- Generator: Adobe Illustrator 19.0.0, SVG Export Plug-In . SVG Version: 6.00 Build 0)  -->
<svg xmlns="http://www.w3.org/2000/svg" xmlns:xlink="http://www.w3.org/1999/xlink" version="1.1" id="Capa_1" x="0px" y="0px" viewBox="0 0 512 512" style="enable-background:new 0 0 512 512;" xml:space="preserve">
<rect style="fill:#F0F0F0;" width="512" height="512"/>
<polygon points="114.024,256.001 0,84.885 0,427.147 "/>
<polygon style="fill:#FFDA44;" points="161.192,256 0,14.044 0,84.885 114.024,256.001 0,427.147 0,497.858 "/>
<path style="fill:#6DA544;" d="M509.833,306.088L509.833,306.088c0.058-0.659,0.804-1.318,2.167-1.977V256v-50.088h-2.167H222.602  L85.33,0H0v14.044L161.192,256L0,497.858V512h85.33l137.272-205.912H509.833z"/>
<polygon style="fill:#0052B4;" points="503.181,356.176 236.433,356.176 132.552,512 512,512 512,356.176 "/>
<polygon style="fill:#D80027;" points="503.181,155.824 512,155.824 512,0 132.552,0 236.433,155.824 "/>
<g>
</g>
<g>
</g>
<g>
</g>
<g>
</g>
<g>
</g>
<g>
</g>
<g>
</g>
<g>
</g>
<g>
</g>
<g>
</g>
<g>
</g>
<g>
</g>
<g>
</g>
<g>
</g>
<g>
</g>
</svg>
