<?xml version="1.0" encoding="iso-8859-1"?>
<!-- Generator: Adobe Illustrator 19.0.0, SVG Export Plug-In . SVG Version: 6.00 Build 0)  -->
<svg xmlns="http://www.w3.org/2000/svg" xmlns:xlink="http://www.w3.org/1999/xlink" version="1.1" id="Capa_1" x="0px" y="0px" viewBox="0 0 512 512" style="enable-background:new 0 0 512 512;" xml:space="preserve">
<rect style="fill:#D80027;" width="512" height="512"/>
<rect style="fill:#0052B4;" width="512" height="256"/>
<g>
	<polygon style="fill:#F0F0F0;" points="0,512 256,256 0,0  "/>
</g>
<g>
	<polygon style="fill:#FFDA44;" points="169.699,256 137.864,241.026 154.817,210.194 120.247,216.806 115.866,181.884    91.786,207.568 67.708,181.884 63.325,216.806 28.757,210.193 45.709,241.025 13.873,256 45.709,270.974 28.757,301.806    63.328,295.194 67.706,330.116 91.786,304.432 115.866,330.116 120.247,295.194 154.815,301.807 137.863,270.976  "/>
	<polygon style="fill:#FFDA44;" points="21.789,50.825 30.87,63.52 45.749,58.807 36.481,71.366 45.562,84.06 30.753,79.128    21.485,91.687 21.602,76.08 6.793,71.146 21.673,66.433  "/>
	<polygon style="fill:#FFDA44;" points="21.789,420.313 30.87,433.008 45.749,428.295 36.481,440.854 45.562,453.55 30.753,448.617    21.485,461.175 21.602,445.568 6.793,440.634 21.673,435.921  "/>
	<polygon style="fill:#FFDA44;" points="210.395,235.569 201.314,248.264 186.435,243.551 195.703,256.11 186.622,268.806    201.431,263.873 210.699,276.431 210.582,260.824 225.391,255.89 210.511,251.177  "/>
</g>
<g>
</g>
<g>
</g>
<g>
</g>
<g>
</g>
<g>
</g>
<g>
</g>
<g>
</g>
<g>
</g>
<g>
</g>
<g>
</g>
<g>
</g>
<g>
</g>
<g>
</g>
<g>
</g>
<g>
</g>
</svg>
