<?xml version="1.0" encoding="iso-8859-1"?>
<!-- Generator: Adobe Illustrator 19.0.0, SVG Export Plug-In . SVG Version: 6.00 Build 0)  -->
<svg xmlns="http://www.w3.org/2000/svg" xmlns:xlink="http://www.w3.org/1999/xlink" version="1.1" id="Capa_1" x="0px" y="0px" viewBox="0 0 512 512" style="enable-background:new 0 0 512 512;" xml:space="preserve">
<rect x="0.002" y="0.002" style="fill:#2E52B2;" width="511.998" height="511.998"/>
<g>
	<polygon style="fill:#F0F0F0;" points="383.998,156.706 389.281,172.96 406.37,172.96 392.544,183.005 397.826,199.258    383.998,189.213 370.173,199.258 375.454,183.005 361.629,172.96 378.717,172.96  "/>
	<polygon style="fill:#F0F0F0;" points="313.79,185.787 329.018,193.546 341.102,181.462 338.428,198.342 353.656,206.1    336.777,208.773 334.103,225.654 326.343,210.426 309.465,213.099 321.55,201.016  "/>
	<polygon style="fill:#F0F0F0;" points="284.709,255.996 300.962,250.715 300.963,233.627 311.007,247.451 327.261,242.169    317.216,255.996 327.261,269.823 311.007,264.541 300.963,278.368 300.963,261.278  "/>
	<polygon style="fill:#F0F0F0;" points="313.79,326.204 321.549,310.975 309.465,298.892 326.345,301.566 334.103,286.339    336.777,303.217 353.656,305.89 338.428,313.65 341.102,330.53 329.018,318.444  "/>
	<polygon style="fill:#F0F0F0;" points="383.998,355.285 378.717,339.032 361.626,339.032 375.454,328.986 370.173,312.733    383.998,322.777 397.826,312.733 392.544,328.986 406.37,339.032 389.281,339.032  "/>
	<polygon style="fill:#F0F0F0;" points="454.207,326.204 438.978,318.447 426.895,330.53 429.568,313.65 414.341,305.892    431.22,303.217 433.895,286.339 441.652,301.566 458.532,298.892 446.446,310.977  "/>
	<polygon style="fill:#F0F0F0;" points="483.288,255.996 467.034,261.278 467.034,278.368 456.989,264.54 440.736,269.823    450.781,255.996 440.736,242.169 456.989,247.451 467.034,233.627 467.034,250.715  "/>
	<polygon style="fill:#F0F0F0;" points="454.207,185.788 446.45,201.016 458.532,213.099 441.652,210.426 433.895,225.654    431.22,208.773 414.341,206.099 429.568,198.342 426.895,181.463 438.979,193.546  "/>
	<polygon style="fill:#F0F0F0;" points="255.999,0 255.999,48.896 215.852,89.043 255.999,89.043 255.999,166.956 203.463,166.956    255.999,219.491 255.999,255.999 232.28,255.999 166.956,190.664 166.956,255.999 89.043,255.999 89.043,178.275 11.331,255.999    0,255.999 0,207.103 40.147,166.956 0,166.956 0,89.043 52.535,89.043 0,36.508 0,0 23.719,0 89.043,65.335 89.043,0 166.956,0    166.956,77.723 244.668,0  "/>
</g>
<polygon style="fill:#D80027;" points="0,152 104,152 104,255.999 152,255.999 152,152 255.999,152 255.999,104 152,104 152,0   104,0 104,104 0,104 "/>
<polygon style="fill:#0052B4;" points="166.956,166.956 255.999,255.999 255.999,230.819 192.136,166.956 "/>
<polygon style="fill:#F0F0F0;" points="166.956,166.956 255.999,255.999 255.999,230.819 192.136,166.956 "/>
<g>
	<polygon style="fill:#D80027;" points="166.956,166.956 255.999,255.999 255.999,230.819 192.136,166.956  "/>
	<polygon style="fill:#D80027;" points="63.862,166.958 0,230.82 0,255.999 0,255.999 89.041,166.958  "/>
</g>
<polygon style="fill:#0052B4;" points="89.043,89.043 0,0 0,25.18 63.863,89.043 "/>
<polygon style="fill:#F0F0F0;" points="89.043,89.043 0,0 0,25.18 63.863,89.043 "/>
<g>
	<polygon style="fill:#D80027;" points="89.043,89.043 0,0 0,25.18 63.863,89.043  "/>
	<polygon style="fill:#D80027;" points="192.137,89.041 255.999,25.179 255.999,0 255.999,0 166.958,89.041  "/>
</g>
<g>
</g>
<g>
</g>
<g>
</g>
<g>
</g>
<g>
</g>
<g>
</g>
<g>
</g>
<g>
</g>
<g>
</g>
<g>
</g>
<g>
</g>
<g>
</g>
<g>
</g>
<g>
</g>
<g>
</g>
</svg>
