<?xml version="1.0" encoding="iso-8859-1"?>
<!-- Generator: Adobe Illustrator 19.0.0, SVG Export Plug-In . SVG Version: 6.00 Build 0)  -->
<svg xmlns="http://www.w3.org/2000/svg" xmlns:xlink="http://www.w3.org/1999/xlink" version="1.1" id="Capa_1" x="0px" y="0px" viewBox="0 0 512 512" style="enable-background:new 0 0 512 512;" xml:space="preserve">
<rect style="fill:#6DA544;" width="512" height="512"/>
<g>
	<polygon style="fill:#FFDA44;" points="355.958,339 361.169,349.897 372.94,347.178 367.668,358.048 377.134,365.554    365.35,368.209 365.382,380.29 355.958,372.732 346.534,380.29 346.566,368.209 334.781,365.554 344.247,358.048 338.976,347.178    350.746,349.897  "/>
	<polygon style="fill:#FFDA44;" points="307.472,223.387 312.683,234.285 324.453,231.564 319.183,242.435 328.647,249.941    316.863,252.596 316.896,264.677 307.472,257.119 298.047,264.677 298.08,252.596 286.296,249.941 295.76,242.435 290.489,231.564    302.259,234.285  "/>
	<polygon style="fill:#FFDA44;" points="355.958,157.322 361.169,168.221 372.94,165.5 367.669,176.371 377.134,183.876    365.35,186.532 365.382,198.613 355.958,191.054 346.534,198.613 346.566,186.532 334.782,183.876 344.247,176.371 338.976,165.5    350.746,168.221  "/>
	<polygon style="fill:#FFDA44;" points="398.31,206.87 403.522,217.769 415.292,215.048 410.021,225.919 419.486,233.424    407.702,236.08 407.735,248.161 398.31,240.603 388.886,248.161 388.919,236.08 377.134,233.424 386.599,225.919 381.328,215.048    393.098,217.769  "/>
	<polygon style="fill:#FFDA44;" points="368.026,264.677 372.126,277.295 385.392,277.295 374.659,285.093 378.759,297.709    368.026,289.911 357.293,297.709 361.393,285.093 350.66,277.295 363.926,277.295  "/>
	<path style="fill:#FFDA44;" d="M274.97,310.096c-29.646,0-53.678-24.032-53.678-53.678s24.032-53.678,53.678-53.678   c9.244,0,17.94,2.337,25.534,6.451c-11.912-11.649-28.201-18.838-46.18-18.838c-36.486,0-66.064,29.578-66.064,66.065   s29.578,66.065,66.064,66.065c17.978,0,34.268-7.189,46.18-18.838C292.91,307.759,284.213,310.096,274.97,310.096z"/>
	<path style="fill:#FFDA44;" d="M183.83,140.806c-5.712-9.87-16.378-16.516-28.602-16.516c-12.223,0-22.89,6.645-28.602,16.516   H183.83z"/>
	<path style="fill:#FFDA44;" d="M183.939,140.997l-28.712,28.712l-28.712-28.712c-2.745,4.816-4.32,10.385-4.32,16.325   c0,18.244,14.789,33.032,33.032,33.032s33.032-14.789,33.032-33.032C188.26,151.382,186.684,145.813,183.939,140.997z"/>
</g>
<path style="fill:#A2001D;" d="M146.97,161.451v27.863c2.639,0.679,5.406,1.041,8.258,1.041c2.852,0,5.619-0.362,8.258-1.041  v-27.863H146.97z"/>
<g>
</g>
<g>
</g>
<g>
</g>
<g>
</g>
<g>
</g>
<g>
</g>
<g>
</g>
<g>
</g>
<g>
</g>
<g>
</g>
<g>
</g>
<g>
</g>
<g>
</g>
<g>
</g>
<g>
</g>
</svg>
