<?xml version="1.0" encoding="iso-8859-1"?>
<!-- Generator: Adobe Illustrator 19.0.0, SVG Export Plug-In . SVG Version: 6.00 Build 0)  -->
<svg xmlns="http://www.w3.org/2000/svg" xmlns:xlink="http://www.w3.org/1999/xlink" version="1.1" id="Capa_1" x="0px" y="0px" viewBox="0 0 512 512" style="enable-background:new 0 0 512 512;" xml:space="preserve">
<rect style="fill:#0052B4;" width="512" height="512"/>
<polyline style="fill:#6DA544;" points="0,0 512,0 512,512 "/>
<circle style="fill:#FFDA44;" cx="256" cy="256" r="44.522"/>
<g>
	<polygon style="fill:#F0F0F0;" points="104.073,322.734 109.688,334.476 122.37,331.544 116.69,343.257 126.889,351.344    114.192,354.206 114.227,367.222 104.073,359.079 93.919,367.222 93.954,354.206 81.257,351.344 91.454,343.257 85.776,331.544    98.456,334.476  "/>
	<polygon style="fill:#F0F0F0;" points="67.338,224.858 72.953,236.601 85.635,233.669 79.957,245.382 90.154,253.469    77.457,256.331 77.491,269.346 67.338,261.203 57.184,269.346 57.219,256.331 44.522,253.469 54.719,245.382 49.041,233.669    61.722,236.601  "/>
	<polygon style="fill:#F0F0F0;" points="104.073,144.778 109.688,156.521 122.37,153.589 116.691,165.301 126.889,173.389    114.192,176.25 114.227,189.266 104.073,181.123 93.919,189.266 93.954,176.25 81.257,173.389 91.454,165.301 85.776,153.589    98.456,156.521  "/>
	<polygon style="fill:#F0F0F0;" points="149.705,207.063 155.322,218.805 168.003,215.874 162.324,227.586 172.522,235.674    159.824,238.535 159.86,251.551 149.705,243.408 139.552,251.551 139.587,238.535 126.889,235.674 137.087,227.586    131.408,215.874 144.09,218.805  "/>
	<polygon style="fill:#F0F0F0;" points="117.075,260.449 121.493,274.044 135.787,274.044 124.222,282.446 128.64,296.039    117.075,287.638 105.511,296.039 109.929,282.446 98.364,274.044 112.658,274.044  "/>
</g>
<path style="fill:#6DA544;" d="M256,285.682h14.84c0,0,6.431-11.376,0-22.261l14.84-14.84l-7.42-14.841h-7.421  c0,0-3.71,11.13-18.551,11.13c-14.841,0-18.55-11.13-18.55-11.13h-7.42l7.42,14.84l-7.421,14.84l7.421,7.421  c0,0,7.421-14.84,22.261-7.421C256,263.421,262.308,272.696,256,285.682z"/>
<path style="fill:#FFDA44;" d="M401.989,135.226c0.477-2.487,0.731-5.051,0.731-7.676c0-18-11.753-33.247-28-38.506  c4.964,10.091,7.762,21.441,7.762,33.447c0,4.049-0.326,8.022-0.937,11.9c-2.445-3.939-5.586-7.539-9.423-10.592  c-14.455-11.502-34.209-11.806-48.815-2.119c11.275,2.461,22.177,7.466,31.82,15.139c7.549,6.007,13.649,14.132,18.32,21.976  l-61.795,19.348c60.711,10.119,111.304-30.356,111.304-30.356C417.351,136.575,408.644,134.686,401.989,135.226z"/>
<g>
</g>
<g>
</g>
<g>
</g>
<g>
</g>
<g>
</g>
<g>
</g>
<g>
</g>
<g>
</g>
<g>
</g>
<g>
</g>
<g>
</g>
<g>
</g>
<g>
</g>
<g>
</g>
<g>
</g>
</svg>
