<?xml version="1.0" encoding="iso-8859-1"?>
<!-- Generator: Adobe Illustrator 19.0.0, SVG Export Plug-In . SVG Version: 6.00 Build 0)  -->
<svg xmlns="http://www.w3.org/2000/svg" xmlns:xlink="http://www.w3.org/1999/xlink" version="1.1" id="Capa_1" x="0px" y="0px" viewBox="0 0 512 512" style="enable-background:new 0 0 512 512;" xml:space="preserve">
<rect style="fill:#0052B4;" width="512" height="507.793"/>
<polygon style="fill:#D80027;" points="512,36.632 59.699,259.41 512,482.189 512,512 0,259.41 512,6.822 "/>
<polyline style="fill:#F0F0F0;" points="512,431.849 512,482.189 59.699,259.41 512,36.632 512,86.973 "/>
<path style="fill:#A2001D;" d="M493.301,253.493h-29.275c7.612-9.139,7.141-22.736-1.432-31.31c9.084-9.082,9.084-23.81,0-32.895  l-0.546,0.549c9.082-9.082,9.63-24.359,0.546-33.441L331.019,287.971c9.084,9.085,23.552,8.976,32.634-0.108l2.532-2.314  l63.003-5.728v27.097h21.37v-29.04l32.056-2.913L493.301,253.493z"/>
<polygon style="fill:#FFDA44;" points="333.03,316.084 311.652,305.399 333.03,294.714 471.938,294.714 471.938,316.084 "/>
<g>
</g>
<g>
</g>
<g>
</g>
<g>
</g>
<g>
</g>
<g>
</g>
<g>
</g>
<g>
</g>
<g>
</g>
<g>
</g>
<g>
</g>
<g>
</g>
<g>
</g>
<g>
</g>
<g>
</g>
</svg>
