<?xml version="1.0" encoding="iso-8859-1"?>
<!-- Generator: Adobe Illustrator 19.0.0, SVG Export Plug-In . SVG Version: 6.00 Build 0)  -->
<svg xmlns="http://www.w3.org/2000/svg" xmlns:xlink="http://www.w3.org/1999/xlink" version="1.1" id="Capa_1" x="0px" y="0px" viewBox="0 0 512 512" style="enable-background:new 0 0 512 512;" xml:space="preserve">
<polygon style="fill:#D80027;" points="0,0 0,256 0,512 512,512 512,256 512,0 "/>
<path style="fill:#FFDA44;" d="M390.587,217.82H287.772L256,120.038l-31.772,97.782H121.413l83.18,60.434l-31.773,97.784  L256,315.605l83.18,60.434l-31.773-97.784L390.587,217.82z M227.872,270.69l10.744-33.065h34.767l10.744,33.065l0,0v0.001  L256,291.125L227.872,270.69L227.872,270.69L227.872,270.69z M266.949,217.82h-21.898L256,184.122L266.949,217.82z M300.973,258.451  l-6.767-20.826h35.433L300.973,258.451z M217.794,237.624l-6.767,20.826l-28.665-20.826H217.794z M210.489,324.192l10.949-33.697  l17.716,12.871L210.489,324.192z M272.846,303.366l17.716-12.871l10.949,33.697L272.846,303.366z"/>
<g>
</g>
<g>
</g>
<g>
</g>
<g>
</g>
<g>
</g>
<g>
</g>
<g>
</g>
<g>
</g>
<g>
</g>
<g>
</g>
<g>
</g>
<g>
</g>
<g>
</g>
<g>
</g>
<g>
</g>
</svg>
