<?xml version="1.0" encoding="iso-8859-1"?>
<!-- Generator: Adobe Illustrator 19.0.0, SVG Export Plug-In . SVG Version: 6.00 Build 0)  -->
<svg xmlns="http://www.w3.org/2000/svg" xmlns:xlink="http://www.w3.org/1999/xlink" version="1.1" id="Capa_1" x="0px" y="0px" viewBox="0 0 512 512" style="enable-background:new 0 0 512 512;" xml:space="preserve">
<rect x="0.002" y="0.002" style="fill:#2E52B2;" width="511.998" height="511.998"/>
<path style="fill:#F3F3F3;" d="M427.755,295.821c4.907-6.752,8.185-14.997,8.185-24.982v-74.203  c-6.202,4.659-13.907,7.421-22.261,7.421c-12.138,0-22.912-5.829-29.681-14.839c-6.77,9.01-17.544,14.839-29.681,14.839  c-8.353,0-16.059-2.761-22.261-7.418v74.201c0,9.985,3.278,18.232,8.185,24.982H427.755z"/>
<g>
	<path style="fill:#FF9811;" d="M412.318,257.073c2.362-5.763,4.2-14.188,4.2-18.382c0-6.737-8.783-12.198-8.783-12.198   s-8.783,5.461-8.783,12.198c0,4.194,1.838,12.619,4.199,18.382l-5.07,11.448c2.98,1.212,6.237,1.885,9.653,1.885   c3.416,0,6.673-0.673,9.653-1.885L412.318,257.073z"/>
	<path style="fill:#FF9811;" d="M377.992,220.007c-6.171,0.836-14.385,3.459-18.017,5.556c-5.835,3.369-6.173,13.704-6.173,13.704   s9.121,4.875,14.955,1.507c3.632-2.097,10.008-7.9,13.816-12.828l12.45-1.333c-0.441-3.186-1.488-6.343-3.194-9.302   c-1.71-2.958-3.919-5.444-6.459-7.418L377.992,220.007z"/>
	<path style="fill:#FF9811;" d="M363.058,268.269c3.809,4.925,10.187,10.727,13.818,12.824c5.835,3.368,14.955-1.507,14.955-1.507   s-0.339-10.336-6.173-13.705c-3.633-2.097-11.846-4.717-18.019-5.552l-7.378-10.115c-2.539,1.975-4.75,4.461-6.459,7.416   c-1.707,2.96-2.753,6.116-3.194,9.304L363.058,268.269z"/>
</g>
<path style="fill:#338AF3;" d="M338.406,293.101c13.86,22.236,45.592,29.679,45.592,29.679s31.733-7.443,45.592-29.679  L338.406,293.101L338.406,293.101z"/>
<polygon style="fill:#F0F0F0;" points="255.999,0 255.999,48.896 215.852,89.043 255.999,89.043 255.999,166.956 203.463,166.956   255.999,219.491 255.999,255.999 232.28,255.999 166.956,190.664 166.956,255.999 89.043,255.999 89.043,178.275 11.331,255.999   0,255.999 0,207.103 40.147,166.956 0,166.956 0,89.043 52.535,89.043 0,36.508 0,0 23.719,0 89.043,65.335 89.043,0 166.956,0   166.956,77.723 244.668,0 "/>
<polygon style="fill:#D80027;" points="0,152 104,152 104,255.999 152,255.999 152,152 255.999,152 255.999,104 152,104 152,0   104,0 104,104 0,104 "/>
<polygon style="fill:#0052B4;" points="166.956,166.956 255.999,255.999 255.999,230.819 192.136,166.956 "/>
<polygon style="fill:#F0F0F0;" points="166.956,166.956 255.999,255.999 255.999,230.819 192.136,166.956 "/>
<g>
	<polygon style="fill:#D80027;" points="166.956,166.956 255.999,255.999 255.999,230.819 192.136,166.956  "/>
	<polygon style="fill:#D80027;" points="63.862,166.958 0,230.82 0,255.999 0,255.999 89.041,166.958  "/>
</g>
<polygon style="fill:#0052B4;" points="89.043,89.043 0,0 0,25.18 63.863,89.043 "/>
<polygon style="fill:#F0F0F0;" points="89.043,89.043 0,0 0,25.18 63.863,89.043 "/>
<g>
	<polygon style="fill:#D80027;" points="89.043,89.043 0,0 0,25.18 63.863,89.043  "/>
	<polygon style="fill:#D80027;" points="192.137,89.041 255.999,25.179 255.999,0 255.999,0 166.958,89.041  "/>
</g>
<g>
</g>
<g>
</g>
<g>
</g>
<g>
</g>
<g>
</g>
<g>
</g>
<g>
</g>
<g>
</g>
<g>
</g>
<g>
</g>
<g>
</g>
<g>
</g>
<g>
</g>
<g>
</g>
<g>
</g>
</svg>
