<?xml version="1.0" encoding="iso-8859-1"?>
<!-- Generator: Adobe Illustrator 19.0.0, SVG Export Plug-In . SVG Version: 6.00 Build 0)  -->
<svg xmlns="http://www.w3.org/2000/svg" xmlns:xlink="http://www.w3.org/1999/xlink" version="1.1" id="Capa_1" x="0px" y="0px" viewBox="0 0 512 512" style="enable-background:new 0 0 512 512;" xml:space="preserve">
<rect y="0.008" style="fill:#0052B4;" width="512" height="511.989"/>
<rect y="0.002" style="fill:#FFDA44;" width="512" height="128"/>
<rect y="128" style="fill:#F0F0F0;" width="512" height="128"/>
<rect y="256" style="fill:#D80027;" width="512" height="128"/>
<polygon style="fill:#6DA544;" points="256,256.008 0,512 0,0 "/>
<g>
	<path style="fill:#F0F0F0;" d="M65.192,256c0-30.638,21.532-56.232,50.286-62.512c-4.42-0.965-9.005-1.488-13.714-1.488   c-35.347,0-64,28.653-64,64s28.653,64,64,64c4.71,0,9.295-0.523,13.714-1.488C86.725,312.232,65.192,286.638,65.192,256z"/>
	<polygon style="fill:#F0F0F0;" points="114.773,201.143 118.177,211.62 129.192,211.62 120.28,218.094 123.685,228.571    114.773,222.097 105.86,228.571 109.265,218.094 100.352,211.62 111.368,211.62  "/>
	<polygon style="fill:#F0F0F0;" points="114.773,228.571 118.177,239.048 129.192,239.048 120.28,245.523 123.685,256    114.773,249.525 105.86,256 109.265,245.523 100.352,239.048 111.368,239.048  "/>
	<polygon style="fill:#F0F0F0;" points="114.773,256 118.177,266.477 129.192,266.477 120.28,272.952 123.685,283.429    114.773,276.954 105.86,283.429 109.265,272.952 100.352,266.477 111.368,266.477  "/>
	<polygon style="fill:#F0F0F0;" points="114.773,283.429 118.177,293.906 129.192,293.906 120.28,300.38 123.685,310.857    114.773,304.382 105.86,310.857 109.265,300.38 100.352,293.906 111.368,293.906  "/>
</g>
<g>
</g>
<g>
</g>
<g>
</g>
<g>
</g>
<g>
</g>
<g>
</g>
<g>
</g>
<g>
</g>
<g>
</g>
<g>
</g>
<g>
</g>
<g>
</g>
<g>
</g>
<g>
</g>
<g>
</g>
</svg>
