<?xml version="1.0" encoding="iso-8859-1"?>
<!-- Generator: Adobe Illustrator 19.0.0, SVG Export Plug-In . SVG Version: 6.00 Build 0)  -->
<svg xmlns="http://www.w3.org/2000/svg" xmlns:xlink="http://www.w3.org/1999/xlink" version="1.1" id="Capa_1" x="0px" y="0px" viewBox="0 0 512 512" style="enable-background:new 0 0 512 512;" xml:space="preserve">
<rect style="fill:#D80027;" width="512" height="512"/>
<g>
	<rect y="256" style="fill:#6DA544;" width="211.478" height="128"/>
	<rect x="300.522" y="256" style="fill:#6DA544;" width="211.478" height="128"/>
</g>
<polygon style="fill:#0052B4;" points="0,0 0,0.006 0,128 211.478,128 211.478,0.006 300.522,0.006 300.522,128 512,128 512,0.006   512,0 "/>
<g>
	<rect x="300.522" y="128" style="fill:#F0F0F0;" width="211.478" height="128"/>
	<rect y="128" style="fill:#F0F0F0;" width="211.478" height="128"/>
</g>
<g>
	<polygon style="fill:#FFDA44;" points="300.522,511.994 211.478,511.994 211.478,384 0,384 0,511.994 0,512 512,512 512,511.994    512,384 300.522,384  "/>
	<polygon style="fill:#FFDA44;" points="161.39,33.566 168.944,56.814 193.391,56.814 173.615,71.185 181.169,94.434 161.39,80.066    141.613,94.434 149.169,71.185 129.391,56.814 153.837,56.814  "/>
</g>
<g>
</g>
<g>
</g>
<g>
</g>
<g>
</g>
<g>
</g>
<g>
</g>
<g>
</g>
<g>
</g>
<g>
</g>
<g>
</g>
<g>
</g>
<g>
</g>
<g>
</g>
<g>
</g>
<g>
</g>
</svg>
