<?xml version="1.0" encoding="iso-8859-1"?>
<!-- Generator: Adobe Illustrator 19.0.0, SVG Export Plug-In . SVG Version: 6.00 Build 0)  -->
<svg xmlns="http://www.w3.org/2000/svg" xmlns:xlink="http://www.w3.org/1999/xlink" version="1.1" id="Capa_1" x="0px" y="0px" viewBox="0 0 512 512" style="enable-background:new 0 0 512 512;" xml:space="preserve">
<rect style="fill:#F0F0F0;" width="512" height="512"/>
<g>
	<path style="fill:#0052B4;" d="M461.664,199.866c-4.016,0-13.378-5.315-20.212-9.197c-10.958-6.223-21.308-12.1-31.204-12.1   s-20.246,5.877-31.204,12.1c-6.835,3.881-16.196,9.197-20.212,9.197s-13.378-5.315-20.211-9.197   c-10.958-6.223-21.308-12.1-31.204-12.1c-9.896,0-20.246,5.877-31.204,12.1c-6.835,3.881-16.196,9.197-20.212,9.197   c-4.016,0-13.378-5.315-20.212-9.197c-10.958-6.223-21.308-12.1-31.204-12.1c-9.896,0-20.246,5.877-31.204,12.1   c-6.834,3.881-16.195,9.197-20.211,9.197c-4.016,0-13.378-5.315-20.212-9.197c-10.958-6.223-21.308-12.1-31.204-12.1   s-20.246,5.877-31.204,12.1c-6.835,3.881-16.196,9.197-20.212,9.197s-13.378-5.315-20.211-9.197   C19.565,184.672,9.57,179.012,0,178.608v22.332c4.437,0.746,12.847,5.516,19.131,9.086c10.958,6.223,21.308,12.1,31.204,12.1   s20.246-5.877,31.204-12.1c6.835-3.881,16.196-9.197,20.212-9.197s13.378,5.315,20.212,9.197c10.958,6.223,21.308,12.1,31.204,12.1   s20.246-5.877,31.204-12.1c6.834-3.881,16.195-9.197,20.211-9.197c4.016,0,13.378,5.315,20.212,9.197   c10.958,6.223,21.308,12.1,31.204,12.1s20.246-5.877,31.204-12.1c6.835-3.881,16.196-9.197,20.212-9.197   c4.016,0,13.378,5.315,20.211,9.197c10.958,6.223,21.308,12.1,31.204,12.1s20.246-5.877,31.204-12.1   c6.835-3.881,16.196-9.197,20.212-9.197s13.378,5.315,20.212,9.197c10.958,6.223,21.308,12.1,31.204,12.1s20.246-5.877,31.204-12.1   c6.284-3.57,14.694-8.34,19.131-9.086v-22.332c-9.57,0.404-19.565,6.064-30.125,12.061   C475.041,194.551,465.681,199.866,461.664,199.866z"/>
	<path style="fill:#0052B4;" d="M0,33.985c4.437,0.746,12.847,5.516,19.131,9.086c10.958,6.223,21.308,12.1,31.204,12.1   s20.246-5.877,31.204-12.1c6.835-3.881,16.196-9.197,20.212-9.197s13.378,5.315,20.212,9.197c10.958,6.223,21.308,12.1,31.204,12.1   s20.246-5.877,31.204-12.1c6.834-3.881,16.195-9.197,20.211-9.197c4.016,0,13.378,5.315,20.212,9.197   c10.958,6.223,21.308,12.1,31.204,12.1s20.246-5.877,31.204-12.1c6.835-3.881,16.196-9.197,20.212-9.197   c4.016,0,13.378,5.315,20.211,9.197c10.958,6.223,21.308,12.1,31.204,12.1s20.246-5.877,31.204-12.1   c6.835-3.881,16.196-9.197,20.212-9.197s13.378,5.315,20.212,9.197c10.958,6.223,21.308,12.1,31.204,12.1s20.246-5.877,31.204-12.1   c6.284-3.57,14.694-8.34,19.131-9.086V11.651c-9.57,0.404-19.565,6.064-30.125,12.061c-6.834,3.881-16.195,9.197-20.211,9.197   s-13.378-5.315-20.212-9.197c-10.958-6.223-21.308-12.1-31.204-12.1s-20.246,5.877-31.204,12.1   c-6.835,3.881-16.196,9.197-20.212,9.197c-4.016,0-13.378-5.315-20.211-9.197c-10.958-6.223-21.308-12.1-31.204-12.1   s-20.246,5.877-31.204,12.1c-6.835,3.881-16.196,9.197-20.212,9.197c-4.016,0-13.378-5.315-20.212-9.197   c-10.958-6.223-21.308-12.1-31.204-12.1s-20.246,5.877-31.204,12.1c-6.834,3.881-16.195,9.197-20.211,9.197   c-4.016,0-13.378-5.315-20.212-9.197c-10.958-6.223-21.308-12.1-31.204-12.1s-20.246,5.877-31.204,12.1   c-6.835,3.881-16.196,9.197-20.212,9.197s-13.378-5.315-20.211-9.197C19.565,17.715,9.57,12.055,0,11.651V33.985z"/>
	<path style="fill:#0052B4;" d="M461.664,88.562c-4.016,0-13.378-5.315-20.212-9.197c-10.958-6.223-21.308-12.1-31.204-12.1   s-20.246,5.877-31.204,12.1c-6.835,3.881-16.196,9.197-20.212,9.197s-13.378-5.315-20.211-9.197   c-10.958-6.223-21.308-12.1-31.204-12.1c-9.896,0-20.246,5.877-31.204,12.1c-6.835,3.881-16.196,9.197-20.212,9.197   c-4.016,0-13.378-5.315-20.212-9.197c-10.958-6.223-21.308-12.1-31.204-12.1c-9.896,0-20.246,5.877-31.204,12.1   c-6.834,3.881-16.195,9.197-20.211,9.197c-4.016,0-13.378-5.315-20.212-9.197c-10.958-6.223-21.308-12.1-31.204-12.1   s-20.246,5.877-31.204,12.1c-6.835,3.881-16.196,9.197-20.212,9.197s-13.378-5.315-20.211-9.197   C19.565,73.367,9.57,67.708,0,67.304v22.332c4.437,0.746,12.847,5.516,19.131,9.086c10.958,6.223,21.308,12.1,31.204,12.1   s20.246-5.877,31.204-12.1c6.835-3.881,16.196-9.197,20.212-9.197s13.378,5.315,20.212,9.197c10.958,6.223,21.308,12.1,31.204,12.1   s20.246-5.877,31.204-12.1c6.834-3.881,16.195-9.197,20.211-9.197c4.016,0,13.378,5.315,20.212,9.197   c10.958,6.223,21.308,12.1,31.204,12.1s20.246-5.877,31.204-12.1c6.835-3.881,16.196-9.197,20.212-9.197   c4.016,0,13.378,5.315,20.211,9.197c10.958,6.223,21.308,12.1,31.204,12.1s20.246-5.877,31.204-12.1   c6.835-3.881,16.196-9.197,20.212-9.197s13.378,5.315,20.212,9.197c10.958,6.223,21.308,12.1,31.204,12.1s20.246-5.877,31.204-12.1   c6.284-3.57,14.694-8.34,19.131-9.086V67.304c-9.57,0.404-19.565,6.064-30.125,12.061   C475.041,83.247,465.681,88.562,461.664,88.562z"/>
	<path style="fill:#0052B4;" d="M512,122.956c-9.57,0.404-19.565,6.064-30.125,12.061c-6.834,3.881-16.195,9.197-20.211,9.197   s-13.378-5.315-20.212-9.197c-10.958-6.223-21.308-12.1-31.204-12.1s-20.246,5.877-31.204,12.1   c-6.835,3.881-16.196,9.197-20.212,9.197c-4.016,0-13.378-5.315-20.211-9.197c-10.958-6.223-21.308-12.1-31.204-12.1   s-20.246,5.877-31.204,12.1c-6.835,3.881-16.196,9.197-20.212,9.197c-4.016,0-13.378-5.315-20.212-9.197   c-10.958-6.223-21.308-12.1-31.204-12.1s-20.246,5.877-31.204,12.1c-6.834,3.881-16.195,9.197-20.211,9.197   s-13.378-5.315-20.212-9.197c-10.958-6.223-21.308-12.1-31.204-12.1s-20.246,5.877-31.204,12.1   c-6.835,3.881-16.196,9.197-20.212,9.197s-13.378-5.315-20.211-9.197C19.565,129.02,9.57,123.36,0,122.956v22.332   c4.437,0.746,12.847,5.516,19.131,9.086c10.958,6.223,21.308,12.1,31.204,12.1s20.246-5.877,31.204-12.1   c6.835-3.881,16.196-9.197,20.212-9.197s13.378,5.315,20.212,9.197c10.958,6.223,21.308,12.1,31.204,12.1s20.246-5.877,31.204-12.1   c6.834-3.881,16.195-9.197,20.211-9.197c4.016,0,13.378,5.315,20.212,9.197c10.958,6.223,21.308,12.1,31.204,12.1   s20.246-5.877,31.204-12.1c6.835-3.881,16.196-9.197,20.212-9.197c4.016,0,13.378,5.315,20.211,9.197   c10.958,6.223,21.308,12.1,31.204,12.1s20.246-5.877,31.204-12.1c6.835-3.881,16.196-9.197,20.212-9.197s13.378,5.315,20.212,9.197   c10.958,6.223,21.308,12.1,31.204,12.1s20.246-5.877,31.204-12.1c6.284-3.57,14.694-8.34,19.131-9.086v-22.332H512z"/>
	<path style="fill:#0052B4;" d="M461.664,255.518c-4.016,0-13.378-5.315-20.212-9.197c-10.958-6.223-21.308-12.1-31.204-12.1   s-20.246,5.877-31.204,12.1c-6.835,3.881-16.196,9.197-20.212,9.197s-13.378-5.315-20.211-9.197   c-10.958-6.223-21.308-12.1-31.204-12.1c-9.896,0-20.246,5.877-31.204,12.1c-6.835,3.881-16.196,9.197-20.212,9.197   c-4.016,0-13.378-5.315-20.212-9.197c-10.958-6.223-21.308-12.1-31.204-12.1c-9.896,0-20.246,5.877-31.204,12.1   c-6.834,3.881-16.195,9.197-20.211,9.197c-4.016,0-13.378-5.315-20.212-9.197c-10.958-6.223-21.308-12.1-31.204-12.1   s-20.246,5.877-31.204,12.1c-6.835,3.881-16.196,9.197-20.212,9.197s-13.378-5.315-20.211-9.197   C19.565,240.324,9.57,234.664,0,234.26v22.332c4.437,0.746,12.847,5.516,19.131,9.086c10.958,6.223,21.308,12.1,31.204,12.1   s20.246-5.877,31.204-12.1c6.835-3.881,16.196-9.197,20.212-9.197s13.378,5.315,20.212,9.197c10.958,6.223,21.308,12.1,31.204,12.1   s20.246-5.877,31.204-12.1c6.834-3.881,16.195-9.197,20.211-9.197c4.016,0,13.378,5.315,20.212,9.197   c10.958,6.223,21.308,12.1,31.204,12.1s20.246-5.877,31.204-12.1c6.835-3.881,16.196-9.197,20.212-9.197   c4.016,0,13.378,5.315,20.211,9.197c10.958,6.223,21.308,12.1,31.204,12.1s20.246-5.877,31.204-12.1   c6.835-3.881,16.196-9.197,20.212-9.197s13.378,5.315,20.212,9.197c10.958,6.223,21.308,12.1,31.204,12.1s20.246-5.877,31.204-12.1   c6.284-3.57,14.694-8.34,19.131-9.086V234.26c-9.57,0.404-19.565,6.064-30.125,12.061   C475.041,250.203,465.681,255.518,461.664,255.518z"/>
	<path style="fill:#0052B4;" d="M512,289.912c-9.57,0.404-19.565,6.064-30.125,12.061c-6.834,3.881-16.195,9.197-20.211,9.197   s-13.378-5.315-20.212-9.197c-10.958-6.223-21.308-12.1-31.204-12.1s-20.246,5.877-31.204,12.1   c-6.835,3.881-16.196,9.197-20.212,9.197c-4.016,0-13.378-5.315-20.211-9.197c-10.958-6.223-21.308-12.1-31.204-12.1   s-20.246,5.877-31.204,12.1c-6.835,3.881-16.196,9.197-20.212,9.197c-4.016,0-13.378-5.315-20.212-9.197   c-10.958-6.223-21.308-12.1-31.204-12.1s-20.246,5.877-31.204,12.1c-6.834,3.881-16.195,9.197-20.211,9.197   s-13.378-5.315-20.212-9.197c-10.958-6.223-21.308-12.1-31.204-12.1s-20.246,5.877-31.204,12.1   c-6.835,3.881-16.196,9.197-20.212,9.197s-13.378-5.315-20.211-9.197C19.565,295.976,9.57,290.316,0,289.912v22.332   c4.437,0.746,12.847,5.516,19.131,9.086c10.958,6.223,21.308,12.1,31.204,12.1s20.246-5.877,31.204-12.1   c6.835-3.881,16.196-9.197,20.212-9.197s13.378,5.315,20.212,9.197c10.958,6.223,21.308,12.1,31.204,12.1s20.246-5.877,31.204-12.1   c6.834-3.881,16.195-9.197,20.211-9.197c4.016,0,13.378,5.315,20.212,9.197c10.958,6.223,21.308,12.1,31.204,12.1   s20.246-5.877,31.204-12.1c6.835-3.881,16.196-9.197,20.212-9.197c4.016,0,13.378,5.315,20.211,9.197   c10.958,6.223,21.308,12.1,31.204,12.1s20.246-5.877,31.204-12.1c6.835-3.881,16.196-9.197,20.212-9.197s13.378,5.315,20.212,9.197   c10.958,6.223,21.308,12.1,31.204,12.1s20.246-5.877,31.204-12.1c6.284-3.57,14.694-8.34,19.131-9.086v-22.332H512z"/>
	<path style="fill:#0052B4;" d="M512,345.564c-9.57,0.404-19.565,6.064-30.125,12.061c-6.834,3.881-16.195,9.197-20.211,9.197   s-13.378-5.315-20.212-9.197c-10.958-6.223-21.308-12.1-31.204-12.1s-20.246,5.877-31.204,12.1   c-6.835,3.881-16.196,9.197-20.212,9.197c-4.016,0-13.378-5.315-20.211-9.197c-10.958-6.223-21.308-12.1-31.204-12.1   s-20.246,5.877-31.204,12.1c-6.835,3.881-16.196,9.197-20.212,9.197c-4.016,0-13.378-5.315-20.212-9.197   c-10.958-6.223-21.308-12.1-31.204-12.1s-20.246,5.877-31.204,12.1c-6.834,3.881-16.195,9.197-20.211,9.197   s-13.378-5.315-20.212-9.197c-10.958-6.223-21.308-12.1-31.204-12.1s-20.246,5.877-31.204,12.1   c-6.835,3.881-16.196,9.197-20.212,9.197s-13.378-5.315-20.211-9.197C19.565,351.628,9.57,345.968,0,345.564v22.332   c4.437,0.746,12.847,5.516,19.131,9.086c10.958,6.223,21.308,12.1,31.204,12.1s20.246-5.877,31.204-12.1   c6.835-3.881,16.196-9.197,20.212-9.197s13.378,5.315,20.212,9.197c10.958,6.223,21.308,12.1,31.204,12.1s20.246-5.877,31.204-12.1   c6.834-3.881,16.195-9.197,20.211-9.197c4.016,0,13.378,5.315,20.212,9.197c10.958,6.223,21.308,12.1,31.204,12.1   s20.246-5.877,31.204-12.1c6.835-3.881,16.196-9.197,20.212-9.197c4.016,0,13.378,5.315,20.211,9.197   c10.958,6.223,21.308,12.1,31.204,12.1s20.246-5.877,31.204-12.1c6.835-3.881,16.196-9.197,20.212-9.197s13.378,5.315,20.212,9.197   c10.958,6.223,21.308,12.1,31.204,12.1s20.246-5.877,31.204-12.1c6.284-3.57,14.694-8.34,19.131-9.086v-22.332H512z"/>
	<path style="fill:#0052B4;" d="M512,401.217c-9.57,0.404-19.565,6.064-30.125,12.061c-6.834,3.881-16.195,9.197-20.211,9.197   s-13.378-5.315-20.212-9.197c-10.958-6.223-21.308-12.1-31.204-12.1s-20.246,5.877-31.204,12.1   c-6.835,3.881-16.196,9.197-20.212,9.197c-4.016,0-13.378-5.315-20.211-9.197c-10.958-6.223-21.308-12.1-31.204-12.1   s-20.246,5.877-31.204,12.1c-6.835,3.881-16.196,9.197-20.212,9.197c-4.016,0-13.378-5.315-20.212-9.197   c-10.958-6.223-21.308-12.1-31.204-12.1s-20.246,5.877-31.204,12.1c-6.834,3.881-16.195,9.197-20.211,9.197   s-13.378-5.315-20.212-9.197c-10.958-6.223-21.308-12.1-31.204-12.1s-20.246,5.877-31.204,12.1   c-6.835,3.881-16.196,9.197-20.212,9.197s-13.378-5.315-20.211-9.197C19.565,407.28,9.57,401.621,0,401.217v22.332   c4.437,0.746,12.847,5.516,19.131,9.086c10.958,6.223,21.308,12.1,31.204,12.1s20.246-5.877,31.204-12.1   c6.835-3.881,16.196-9.197,20.212-9.197s13.378,5.315,20.212,9.197c10.958,6.223,21.308,12.1,31.204,12.1s20.246-5.877,31.204-12.1   c6.834-3.881,16.195-9.197,20.211-9.197c4.016,0,13.378,5.315,20.212,9.197c10.958,6.223,21.308,12.1,31.204,12.1   s20.246-5.877,31.204-12.1c6.835-3.881,16.196-9.197,20.212-9.197c4.016,0,13.378,5.315,20.211,9.197   c10.958,6.223,21.308,12.1,31.204,12.1s20.246-5.877,31.204-12.1c6.835-3.881,16.196-9.197,20.212-9.197s13.378,5.315,20.212,9.197   c10.958,6.223,21.308,12.1,31.204,12.1s20.246-5.877,31.204-12.1c6.284-3.57,14.694-8.34,19.131-9.086v-22.332H512z"/>
	<path style="fill:#0052B4;" d="M512,456.869c-9.57,0.404-19.565,6.064-30.125,12.061c-6.834,3.881-16.195,9.197-20.211,9.197   s-13.378-5.315-20.212-9.197c-10.958-6.223-21.308-12.1-31.204-12.1s-20.246,5.877-31.204,12.1   c-6.835,3.881-16.196,9.197-20.212,9.197c-4.016,0-13.378-5.315-20.211-9.197c-10.958-6.223-21.308-12.1-31.204-12.1   s-20.246,5.877-31.204,12.1c-6.835,3.881-16.196,9.197-20.212,9.197c-4.016,0-13.378-5.315-20.212-9.197   c-10.958-6.223-21.308-12.1-31.204-12.1s-20.246,5.877-31.204,12.1c-6.834,3.881-16.195,9.197-20.211,9.197   s-13.378-5.315-20.212-9.197c-10.958-6.223-21.308-12.1-31.204-12.1s-20.246,5.877-31.204,12.1   c-6.835,3.881-16.196,9.197-20.212,9.197s-13.378-5.315-20.211-9.197C19.565,462.933,9.57,457.273,0,456.869v22.332   c4.437,0.746,12.847,5.516,19.131,9.086c10.958,6.223,21.308,12.1,31.204,12.1s20.246-5.877,31.204-12.1   c6.835-3.881,16.196-9.197,20.212-9.197s13.378,5.315,20.212,9.197c10.958,6.223,21.308,12.1,31.204,12.1s20.246-5.877,31.204-12.1   c6.834-3.881,16.195-9.197,20.211-9.197c4.016,0,13.378,5.315,20.212,9.197c10.958,6.223,21.308,12.1,31.204,12.1   s20.246-5.877,31.204-12.1c6.835-3.881,16.196-9.197,20.212-9.197c4.016,0,13.378,5.315,20.211,9.197   c10.958,6.223,21.308,12.1,31.204,12.1s20.246-5.877,31.204-12.1c6.835-3.881,16.196-9.197,20.212-9.197s13.378,5.315,20.212,9.197   c10.958,6.223,21.308,12.1,31.204,12.1s20.246-5.877,31.204-12.1c6.284-3.57,14.694-8.34,19.131-9.086v-22.332H512z"/>
</g>
<g>
	<path style="fill:#F0F0F0;" d="M256,85.334c-0.01,0-0.019,0-0.029,0H256L256,85.334z"/>
	<path style="fill:#F0F0F0;" d="M255.544,256H256c0-0.154,0-0.303,0-0.456C255.848,255.696,255.696,255.848,255.544,256z"/>
</g>
<polygon style="fill:#496E2D;" points="278.261,256 278.261,256 278.261,255.999 "/>
<polygon style="fill:#6DA544;" points="350.609,168.812 417.391,168.812 384,202.203 "/>
<g>
	<rect x="376.576" y="194.783" style="fill:#A2001D;" width="14.84" height="40.812"/>
	<rect x="376.576" y="302.381" style="fill:#A2001D;" width="14.84" height="40.812"/>
</g>
<path style="fill:#FFDA44;" d="M428.522,280.116c0-12.295-9.966-22.261-22.261-22.261c-5.703,0-10.901,2.146-14.84,5.672v-13.093  h7.421v-14.84h-7.421v-7.421h-14.84v7.421h-7.421v14.84h7.421v13.093c-3.939-3.526-9.138-5.672-14.84-5.672  c-12.295,0-22.261,9.966-22.261,22.261c0,6.591,2.867,12.512,7.421,16.589v13.093h74.203v-13.094  C425.655,292.628,428.522,286.708,428.522,280.116z"/>
<path style="fill:#D80027;" d="M406.261,272.696c-2.341,0-3.98,1.027-4.943,1.889l-9.898,8.861h-14.84l-9.898-8.861  c-0.962-0.861-2.601-1.889-4.942-1.889c-4.092,0-7.421,3.329-7.421,7.421c0,2.882,1.554,4.703,2.48,5.533l4.941,4.424v4.883h44.522  v-4.884l4.941-4.424c0.926-0.829,2.48-2.651,2.48-5.533C413.681,276.025,410.352,272.696,406.261,272.696z"/>
<rect y="0" style="fill:#F0F0F0;" width="256" height="256"/>
<polygon style="fill:#D80027;" points="0,152.001 104.001,152.001 104.001,256.001 152.001,256.001 152.001,152.001 256,152.001   256,104.001 152.001,104.001 152.001,0.001 104.001,0.001 104.001,104.001 0,104.001 "/>
<g>
	<polygon style="fill:#0052B4;" points="203.46,166.958 256,219.498 256,166.958  "/>
	<polygon style="fill:#0052B4;" points="166.957,166.958 256,256.001 256,230.821 192.137,166.958  "/>
	<polygon style="fill:#0052B4;" points="232.282,256.001 166.957,190.67 166.957,256.001  "/>
</g>
<polygon style="fill:#F0F0F0;" points="166.957,166.958 256,256.001 256,230.821 192.137,166.958 "/>
<polygon style="fill:#D80027;" points="166.957,166.958 256,256.001 256,230.821 192.137,166.958 "/>
<g>
	<polygon style="fill:#0052B4;" points="40.151,166.958 0,207.108 0,166.958  "/>
	<polygon style="fill:#0052B4;" points="89.041,178.281 89.041,255.999 11.33,255.999  "/>
</g>
<polygon style="fill:#D80027;" points="63.862,166.96 0,230.822 0,256.001 0,256.001 89.041,166.96 "/>
<g>
	<polygon style="fill:#0052B4;" points="52.54,89.045 0,36.504 0,89.045  "/>
	<polygon style="fill:#0052B4;" points="89.043,89.045 0,0.001 0,25.181 63.863,89.045  "/>
	<polygon style="fill:#0052B4;" points="23.718,0.001 89.043,65.332 89.043,0.001  "/>
</g>
<polygon style="fill:#F0F0F0;" points="89.043,89.045 0,0.001 0,25.181 63.863,89.045 "/>
<polygon style="fill:#D80027;" points="89.043,89.045 0,0.001 0,25.181 63.863,89.045 "/>
<g>
	<polygon style="fill:#0052B4;" points="215.849,89.045 256,48.894 256,89.045  "/>
	<polygon style="fill:#0052B4;" points="166.959,77.722 166.959,0.002 244.67,0.002  "/>
</g>
<polygon style="fill:#D80027;" points="192.138,89.042 256,25.18 256,0.001 256,0.001 166.959,89.042 "/>
<g>
</g>
<g>
</g>
<g>
</g>
<g>
</g>
<g>
</g>
<g>
</g>
<g>
</g>
<g>
</g>
<g>
</g>
<g>
</g>
<g>
</g>
<g>
</g>
<g>
</g>
<g>
</g>
<g>
</g>
</svg>
