<?xml version="1.0" encoding="iso-8859-1"?>
<!-- Generator: Adobe Illustrator 19.0.0, SVG Export Plug-In . SVG Version: 6.00 Build 0)  -->
<svg xmlns="http://www.w3.org/2000/svg" xmlns:xlink="http://www.w3.org/1999/xlink" version="1.1" id="Capa_1" x="0px" y="0px" viewBox="0 0 512 512" style="enable-background:new 0 0 512 512;" xml:space="preserve">
<rect style="fill:#FFDA44;" width="512" height="512"/>
<rect style="fill:#0052B4;" width="170.663" height="512"/>
<g>
	<rect x="341.337" style="fill:#D80027;" width="170.663" height="512"/>
	<path style="fill:#D80027;" d="M256,321.855c0-30.639,0-66.783,0-66.783h50.087v25.043c0,4.351-8.348,20.292-28.951,33.391   C269.331,318.47,261.254,320.066,256,321.855z"/>
	<rect x="205.913" y="204.989" style="fill:#D80027;" width="50.087" height="50.087"/>
</g>
<path style="fill:#FF9811;" d="M281.043,188.29c0-9.22-7.475-16.696-16.696-16.696c-3.045,0-5.89,0.828-8.348,2.252  c-2.458-1.424-5.303-2.252-8.348-2.252c-9.22,0-16.696,7.475-16.696,16.696h-41.739v83.477c0,31.077,24.68,49.05,44.033,58.366  c-1.448,2.473-2.294,5.344-2.294,8.418c0,9.22,7.475,16.696,16.696,16.696c3.045,0,5.89-0.828,8.348-2.252  c2.458,1.424,5.303,2.252,8.348,2.252c9.22,0,16.696-7.475,16.696-16.696c0-3.074-0.846-5.945-2.295-8.418  c19.354-9.316,44.034-27.288,44.034-58.366V188.29L281.043,188.29L281.043,188.29z M297.739,271.767c0,4.351,0,17.589-20.604,30.688  c-7.805,4.962-15.882,8.179-21.136,9.968c-5.254-1.79-13.331-5.006-21.136-9.968c-20.604-13.098-20.604-26.337-20.604-30.688  v-58.434h83.478V271.767z"/>
<g>
</g>
<g>
</g>
<g>
</g>
<g>
</g>
<g>
</g>
<g>
</g>
<g>
</g>
<g>
</g>
<g>
</g>
<g>
</g>
<g>
</g>
<g>
</g>
<g>
</g>
<g>
</g>
<g>
</g>
</svg>
