<?xml version="1.0" encoding="iso-8859-1"?>
<!-- Generator: Adobe Illustrator 19.0.0, SVG Export Plug-In . SVG Version: 6.00 Build 0)  -->
<svg xmlns="http://www.w3.org/2000/svg" xmlns:xlink="http://www.w3.org/1999/xlink" version="1.1" id="Capa_1" x="0px" y="0px" viewBox="0 0 512.006 512.006" style="enable-background:new 0 0 512.006 512.006;" xml:space="preserve">
<rect x="0.003" y="0.017" style="fill:#D80027;" width="512" height="511.989"/>
<g>
	<polygon style="fill:#6DA544;" points="215.866,256.008 0.003,471.864 0.003,40.136  "/>
	<polygon style="fill:#6DA544;" points="512.003,40.136 512.003,471.864 296.139,256.008  "/>
</g>
<polygon style="fill:#0052B4;" points="512.003,40.136 296.139,256.008 512.003,471.864 512.003,512 471.878,512 256.003,296.127   40.128,512 0.003,512 0.003,471.864 215.866,256.008 0.003,40.136 0.003,0 40.128,0 256.003,215.873 471.878,0 512.003,0 "/>
<g>
	<polygon style="fill:#F0F0F0;" points="512.003,40.136 296.139,256.008 512.003,471.864 512.003,512 471.878,512 256.003,296.127    40.128,512 0.003,512 0.003,471.864 215.866,256.008 0.003,40.136 0.003,0 40.128,0 256.003,215.873 471.878,0 512.003,0  "/>
	<circle style="fill:#F0F0F0;" cx="256.003" cy="256" r="74.207"/>
</g>
<g>
	<polygon style="fill:#D80027;" points="256.003,204.058 262.428,215.188 275.281,215.188 268.855,226.318 275.281,237.449    262.428,237.449 256.003,248.579 249.577,237.449 236.725,237.449 243.15,226.318 236.725,215.188 249.577,215.188  "/>
	<polygon style="fill:#D80027;" points="223.339,256 229.765,267.13 242.617,267.13 236.192,278.261 242.617,289.391    229.765,289.391 223.339,300.522 216.913,289.391 204.06,289.391 210.487,278.261 204.06,267.13 216.913,267.13  "/>
	<polygon style="fill:#D80027;" points="288.666,256 295.093,267.13 307.945,267.13 301.518,278.261 307.945,289.391    295.093,289.391 288.666,300.522 282.241,289.391 269.388,289.391 275.814,278.261 269.388,267.13 282.241,267.13  "/>
</g>
<g>
</g>
<g>
</g>
<g>
</g>
<g>
</g>
<g>
</g>
<g>
</g>
<g>
</g>
<g>
</g>
<g>
</g>
<g>
</g>
<g>
</g>
<g>
</g>
<g>
</g>
<g>
</g>
<g>
</g>
</svg>
