<?xml version="1.0" encoding="iso-8859-1"?>
<!-- Generator: Adobe Illustrator 19.0.0, SVG Export Plug-In . SVG Version: 6.00 Build 0)  -->
<svg xmlns="http://www.w3.org/2000/svg" xmlns:xlink="http://www.w3.org/1999/xlink" version="1.1" id="Capa_1" x="0px" y="0px" viewBox="0 0 512 512" style="enable-background:new 0 0 512 512;" xml:space="preserve">
<rect width="512" height="512"/>
<polygon style="fill:#FFDA44;" points="369.883,208.509 142.117,208.509 188.651,186.618 163.871,141.552 214.4,151.217   220.806,100.172 256,137.716 291.197,100.172 297.599,151.217 348.13,141.552 323.351,186.622 "/>
<path style="fill:#0052B4;" d="M88.751,204.797c-2.239,16.543-3.417,33.665-3.417,51.201s1.179,34.657,3.417,51.201L256,322.781  l167.249-15.583c2.239-16.543,3.417-33.665,3.417-51.201s-1.179-34.657-3.417-51.201"/>
<path style="fill:#F0F0F0;" d="M423.249,307.198H88.751C104.564,424.049,173.433,512,256,512S407.436,424.049,423.249,307.198z"/>
<g>
	<polygon style="fill:#A2001D;" points="255.997,511.994 0,0 0,511.994  "/>
	<polygon style="fill:#A2001D;" points="512,511.994 512,0 256.003,511.994  "/>
</g>
<g>
</g>
<g>
</g>
<g>
</g>
<g>
</g>
<g>
</g>
<g>
</g>
<g>
</g>
<g>
</g>
<g>
</g>
<g>
</g>
<g>
</g>
<g>
</g>
<g>
</g>
<g>
</g>
<g>
</g>
</svg>
