<?xml version="1.0" encoding="iso-8859-1"?>
<!-- Generator: Adobe Illustrator 19.0.0, SVG Export Plug-In . SVG Version: 6.00 Build 0)  -->
<svg xmlns="http://www.w3.org/2000/svg" xmlns:xlink="http://www.w3.org/1999/xlink" version="1.1" id="Capa_1" x="0px" y="0px" viewBox="0 0 512 512" style="enable-background:new 0 0 512 512;" xml:space="preserve">
<rect x="0.002" y="0.002" style="fill:#2E52B2;" width="511.998" height="511.998"/>
<path style="fill:#FFDA44;" d="M383.998,259.709l-46.129,46.129c8.645,16.674,26.051,28.074,46.129,28.074  c20.078,0,37.484-11.4,46.129-28.074L383.998,259.709z"/>
<path style="fill:#6DA544;" d="M332.056,178.086v81.622v0.001l0,0c0.001,39.759,51.942,51.941,51.942,51.941  s51.941-12.182,51.942-51.942l0,0v-0.001v-81.621H332.056z"/>
<rect x="372.868" y="215.184" style="fill:#F0F0F0;" width="22.261" height="59.358"/>
<circle style="fill:#A2001D;" cx="383.998" cy="215.184" r="11.13"/>
<g>
	<rect x="346.901" y="192.923" style="fill:#FFDA44;" width="14.84" height="14.84"/>
	<rect x="346.901" y="226.314" style="fill:#FFDA44;" width="14.84" height="14.84"/>
	<rect x="346.901" y="259.705" style="fill:#FFDA44;" width="14.84" height="14.84"/>
	<rect x="406.259" y="192.923" style="fill:#FFDA44;" width="14.84" height="14.84"/>
	<rect x="406.259" y="226.314" style="fill:#FFDA44;" width="14.84" height="14.84"/>
	<rect x="406.259" y="259.705" style="fill:#FFDA44;" width="14.84" height="14.84"/>
</g>
<polygon style="fill:#F0F0F0;" points="255.999,0 255.999,48.896 215.852,89.043 255.999,89.043 255.999,166.956 203.463,166.956   255.999,219.491 255.999,255.999 232.28,255.999 166.956,190.664 166.956,255.999 89.043,255.999 89.043,178.275 11.331,255.999   0,255.999 0,207.103 40.147,166.956 0,166.956 0,89.043 52.535,89.043 0,36.508 0,0 23.719,0 89.043,65.335 89.043,0 166.956,0   166.956,77.723 244.668,0 "/>
<polygon style="fill:#D80027;" points="0,152 104,152 104,255.999 152,255.999 152,152 255.999,152 255.999,104 152,104 152,0   104,0 104,104 0,104 "/>
<polygon style="fill:#0052B4;" points="166.956,166.956 255.999,255.999 255.999,230.819 192.136,166.956 "/>
<polygon style="fill:#F0F0F0;" points="166.956,166.956 255.999,255.999 255.999,230.819 192.136,166.956 "/>
<g>
	<polygon style="fill:#D80027;" points="166.956,166.956 255.999,255.999 255.999,230.819 192.136,166.956  "/>
	<polygon style="fill:#D80027;" points="63.862,166.958 0,230.82 0,255.999 0,255.999 89.041,166.958  "/>
</g>
<polygon style="fill:#0052B4;" points="89.043,89.043 0,0 0,25.18 63.863,89.043 "/>
<polygon style="fill:#F0F0F0;" points="89.043,89.043 0,0 0,25.18 63.863,89.043 "/>
<g>
	<polygon style="fill:#D80027;" points="89.043,89.043 0,0 0,25.18 63.863,89.043  "/>
	<polygon style="fill:#D80027;" points="192.137,89.041 255.999,25.179 255.999,0 255.999,0 166.958,89.041  "/>
</g>
<g>
</g>
<g>
</g>
<g>
</g>
<g>
</g>
<g>
</g>
<g>
</g>
<g>
</g>
<g>
</g>
<g>
</g>
<g>
</g>
<g>
</g>
<g>
</g>
<g>
</g>
<g>
</g>
<g>
</g>
</svg>
