<?xml version="1.0" encoding="iso-8859-1"?>
<!-- Generator: Adobe Illustrator 19.0.0, SVG Export Plug-In . SVG Version: 6.00 Build 0)  -->
<svg xmlns="http://www.w3.org/2000/svg" xmlns:xlink="http://www.w3.org/1999/xlink" version="1.1" id="Capa_1" x="0px" y="0px" viewBox="0 0 512 512" style="enable-background:new 0 0 512 512;" xml:space="preserve">
<rect style="fill:#D80027;" width="512" height="512"/>
<path style="fill:#F3F3F3;" d="M320,173.714v100.57c0,48.991,128,48.991,128,0v-100.57H320z"/>
<path style="fill:#6DA544;" d="M320,274.286L320,274.286c0,48.989,64,64,64,64s64-15.01,64-64.001v0.001H320L320,274.286z"/>
<polygon style="fill:#A2001D;" points="384,234.057 354.286,246.857 354.286,274.286 384,292.571 413.715,274.286 413.715,246.857   "/>
<rect x="354.282" y="219.425" style="fill:#338AF3;" width="59.425" height="27.429"/>
<rect y="0" style="fill:#F0F0F0;" width="256" height="256"/>
<polygon style="fill:#D80027;" points="0,152.001 104.001,152.001 104.001,256.001 152.001,256.001 152.001,152.001 256,152.001   256,104.001 152.001,104.001 152.001,0.001 104.001,0.001 104.001,104.001 0,104.001 "/>
<g>
	<polygon style="fill:#0052B4;" points="203.46,166.958 256,219.498 256,166.958  "/>
	<polygon style="fill:#0052B4;" points="166.957,166.958 256,256.001 256,230.821 192.137,166.958  "/>
	<polygon style="fill:#0052B4;" points="232.282,256.001 166.957,190.67 166.957,256.001  "/>
</g>
<polygon style="fill:#F0F0F0;" points="166.957,166.958 256,256.001 256,230.821 192.137,166.958 "/>
<polygon style="fill:#D80027;" points="166.957,166.958 256,256.001 256,230.821 192.137,166.958 "/>
<g>
	<polygon style="fill:#0052B4;" points="40.151,166.958 0,207.108 0,166.958  "/>
	<polygon style="fill:#0052B4;" points="89.041,178.281 89.041,255.999 11.33,255.999  "/>
</g>
<polygon style="fill:#D80027;" points="63.862,166.96 0,230.822 0,256.001 0,256.001 89.041,166.96 "/>
<g>
	<polygon style="fill:#0052B4;" points="52.54,89.045 0,36.504 0,89.045  "/>
	<polygon style="fill:#0052B4;" points="89.043,89.045 0,0.001 0,25.181 63.863,89.045  "/>
	<polygon style="fill:#0052B4;" points="23.718,0.001 89.043,65.332 89.043,0.001  "/>
</g>
<polygon style="fill:#F0F0F0;" points="89.043,89.045 0,0.001 0,25.181 63.863,89.045 "/>
<polygon style="fill:#D80027;" points="89.043,89.045 0,0.001 0,25.181 63.863,89.045 "/>
<g>
	<polygon style="fill:#0052B4;" points="215.849,89.045 256,48.894 256,89.045  "/>
	<polygon style="fill:#0052B4;" points="166.959,77.722 166.959,0.002 244.67,0.002  "/>
</g>
<polygon style="fill:#D80027;" points="192.138,89.042 256,25.18 256,0.001 256,0.001 166.959,89.042 "/>
<g>
</g>
<g>
</g>
<g>
</g>
<g>
</g>
<g>
</g>
<g>
</g>
<g>
</g>
<g>
</g>
<g>
</g>
<g>
</g>
<g>
</g>
<g>
</g>
<g>
</g>
<g>
</g>
<g>
</g>
</svg>
