<?xml version="1.0" encoding="iso-8859-1"?>
<!-- Generator: Adobe Illustrator 19.0.0, SVG Export Plug-In . SVG Version: 6.00 Build 0)  -->
<svg xmlns="http://www.w3.org/2000/svg" xmlns:xlink="http://www.w3.org/1999/xlink" version="1.1" id="Capa_1" x="0px" y="0px" viewBox="0 0 512 512" style="enable-background:new 0 0 512 512;" xml:space="preserve">
<rect style="fill:#D80027;" width="512" height="512"/>
<rect width="170.663" height="512"/>
<rect x="341.337" style="fill:#496E2D;" width="170.663" height="512"/>
<g>
	<path style="fill:#FFDA44;" d="M256,183.652c-39.956,0-72.348,32.392-72.348,72.348s32.392,72.348,72.348,72.348   s72.348-32.392,72.348-72.348S295.956,183.652,256,183.652z M256,301.217c-24.973,0-45.217-20.244-45.217-45.217   s20.244-45.217,45.217-45.217s45.217,20.244,45.217,45.217S280.973,301.217,256,301.217z"/>
	<path style="fill:#FFDA44;" d="M256,228.87c-9.99,0-18.087,8.097-18.087,18.087v27.13h36.174v-27.13   C274.087,236.967,265.99,228.87,256,228.87z"/>
</g>
<g>
</g>
<g>
</g>
<g>
</g>
<g>
</g>
<g>
</g>
<g>
</g>
<g>
</g>
<g>
</g>
<g>
</g>
<g>
</g>
<g>
</g>
<g>
</g>
<g>
</g>
<g>
</g>
<g>
</g>
</svg>
