<?xml version="1.0" encoding="iso-8859-1"?>
<!-- Generator: Adobe Illustrator 19.0.0, SVG Export Plug-In . SVG Version: 6.00 Build 0)  -->
<svg xmlns="http://www.w3.org/2000/svg" xmlns:xlink="http://www.w3.org/1999/xlink" version="1.1" id="Capa_1" x="0px" y="0px" viewBox="0 0 512 512" style="enable-background:new 0 0 512 512;" xml:space="preserve">
<rect y="0.006" style="fill:#D80027;" width="512" height="511.989"/>
<rect style="fill:#338AF3;" width="512" height="170.663"/>
<rect y="341.337" style="fill:#6DA544;" width="512" height="170.663"/>
<g>
	<path style="fill:#F0F0F0;" d="M261.334,325.334C223.042,325.334,192,294.292,192,256s31.042-69.334,69.334-69.334   c11.94,0,23.172,3.019,32.982,8.333c-15.387-15.046-36.428-24.333-59.648-24.333c-47.128,0-85.333,38.205-85.333,85.334   s38.205,85.334,85.333,85.334c23.22,0,44.261-9.287,59.648-24.333C284.506,322.314,273.273,325.334,261.334,325.334z"/>
	<polygon style="fill:#F0F0F0;" points="314.666,208 323.85,233.828 348.609,222.058 336.838,246.815 362.666,256 336.838,265.185    348.609,289.942 323.85,278.172 314.666,304 305.484,278.172 280.725,289.942 292.494,265.185 266.666,256 292.494,246.815    280.725,222.058 305.484,233.828  "/>
</g>
<g>
</g>
<g>
</g>
<g>
</g>
<g>
</g>
<g>
</g>
<g>
</g>
<g>
</g>
<g>
</g>
<g>
</g>
<g>
</g>
<g>
</g>
<g>
</g>
<g>
</g>
<g>
</g>
<g>
</g>
</svg>
