<?xml version="1.0" encoding="iso-8859-1"?>
<!-- Generator: Adobe Illustrator 19.0.0, SVG Export Plug-In . SVG Version: 6.00 Build 0)  -->
<svg xmlns="http://www.w3.org/2000/svg" xmlns:xlink="http://www.w3.org/1999/xlink" version="1.1" id="Capa_1" x="0px" y="0px" viewBox="0 0 512 512" style="enable-background:new 0 0 512 512;" xml:space="preserve">
<rect y="0.006" style="fill:#F0F0F0;" width="512" height="511.989"/>
<rect style="fill:#D80027;" width="512" height="170.663"/>
<rect y="341.337" style="fill:#0052B4;" width="512" height="170.663"/>
<g>
	<polygon style="fill:#338AF3;" points="317.44,188.55 276.48,188.55 283.306,137.35 310.614,116.87 337.92,137.35 337.92,178.31     "/>
	<polygon style="fill:#338AF3;" points="194.56,188.55 235.52,188.55 228.694,137.35 201.386,116.87 174.08,137.35 174.08,178.31     "/>
</g>
<polygon style="fill:#0052B4;" points="283.306,188.55 228.693,188.55 228.693,137.35 256,116.87 283.306,137.35 "/>
<path style="fill:#F0F0F0;" d="M174.08,178.311V290.95c0,26.821,12.956,50.674,32.938,65.625l14.336-3.587l18.091,18.2  c5.348,1.102,10.884,1.683,16.554,1.683c5.64,0,11.147-0.573,16.47-1.664l20.65-17.194l11.862,2.531  c19.974-14.952,32.938-38.78,32.938-65.593v-112.64H174.08z"/>
<g>
	<rect x="174.08" y="178.31" style="fill:#D80027;" width="32.768" height="32.768"/>
	<rect x="239.616" y="178.31" style="fill:#D80027;" width="32.768" height="32.768"/>
	<rect x="305.152" y="178.31" style="fill:#D80027;" width="32.768" height="32.768"/>
	<rect x="206.848" y="211.078" style="fill:#D80027;" width="32.768" height="32.768"/>
	<rect x="272.384" y="211.078" style="fill:#D80027;" width="32.768" height="32.768"/>
	<rect x="174.08" y="243.834" style="fill:#D80027;" width="32.768" height="32.768"/>
	<rect x="206.848" y="276.602" style="fill:#D80027;" width="32.768" height="32.768"/>
	<rect x="239.616" y="243.834" style="fill:#D80027;" width="32.768" height="32.768"/>
	<rect x="305.152" y="243.834" style="fill:#D80027;" width="32.768" height="32.768"/>
	<rect x="272.384" y="276.602" style="fill:#D80027;" width="32.768" height="32.768"/>
	<rect x="239.616" y="309.37" style="fill:#D80027;" width="32.768" height="32.768"/>
	<path style="fill:#D80027;" d="M206.848,309.375h-30.653c2.812,12.18,8.338,23.327,15.919,32.768h14.734L206.848,309.375   L206.848,309.375z"/>
	<path style="fill:#D80027;" d="M305.152,342.143h14.734c7.581-9.441,13.106-20.588,15.919-32.768h-30.653V342.143z"/>
	<path style="fill:#D80027;" d="M206.848,342.143v14.298c9.531,7.17,20.667,12.314,32.768,14.78v-29.078H206.848z"/>
	<path style="fill:#D80027;" d="M272.384,342.143v29.078c12.101-2.466,23.237-7.61,32.768-14.78v-14.298H272.384z"/>
</g>
<g>
</g>
<g>
</g>
<g>
</g>
<g>
</g>
<g>
</g>
<g>
</g>
<g>
</g>
<g>
</g>
<g>
</g>
<g>
</g>
<g>
</g>
<g>
</g>
<g>
</g>
<g>
</g>
<g>
</g>
</svg>
