<?xml version="1.0" encoding="iso-8859-1"?>
<!-- Generator: Adobe Illustrator 19.0.0, SVG Export Plug-In . SVG Version: 6.00 Build 0)  -->
<svg xmlns="http://www.w3.org/2000/svg" xmlns:xlink="http://www.w3.org/1999/xlink" version="1.1" id="Capa_1" x="0px" y="0px" viewBox="0 0 512 512" style="enable-background:new 0 0 512 512;" xml:space="preserve">
<rect style="fill:#F0F0F0;" width="512" height="512"/>
<rect style="fill:#D80027;" width="512" height="256"/>
<g>
	<path style="fill:#F0F0F0;" d="M69.565,128c0-35.744,25.121-65.604,58.666-72.93c-5.157-1.126-10.505-1.736-16-1.736   c-41.238,0-74.666,33.428-74.666,74.666s33.428,74.666,74.666,74.666c5.495,0,10.843-0.61,16-1.736   C94.687,193.604,69.565,163.744,69.565,128z"/>
	<polygon style="fill:#F0F0F0;" points="165.565,58.666 170.861,74.965 187.996,74.965 174.133,85.037 179.429,101.334    165.565,91.262 151.701,101.334 156.997,85.037 143.134,74.965 160.269,74.965  "/>
	<polygon style="fill:#F0F0F0;" points="123.996,90.666 129.292,106.965 146.428,106.965 132.565,117.037 137.86,133.334    123.996,123.262 110.133,133.334 115.429,117.037 101.565,106.965 118.701,106.965  "/>
	<polygon style="fill:#F0F0F0;" points="207.134,90.666 212.43,106.965 229.565,106.965 215.701,117.037 220.997,133.334    207.134,123.262 193.27,133.334 198.566,117.037 184.703,106.965 201.838,106.965  "/>
	<polygon style="fill:#F0F0F0;" points="191.134,138.666 196.43,154.965 213.565,154.965 199.701,165.037 204.997,181.334    191.134,171.262 177.27,181.334 182.566,165.037 168.703,154.965 185.838,154.965  "/>
	<polygon style="fill:#F0F0F0;" points="139.996,138.666 145.292,154.965 162.428,154.965 148.565,165.037 153.86,181.334    139.996,171.262 126.133,181.334 131.429,165.037 117.565,154.965 134.701,154.965  "/>
</g>
<g>
</g>
<g>
</g>
<g>
</g>
<g>
</g>
<g>
</g>
<g>
</g>
<g>
</g>
<g>
</g>
<g>
</g>
<g>
</g>
<g>
</g>
<g>
</g>
<g>
</g>
<g>
</g>
<g>
</g>
</svg>
