<?xml version="1.0" encoding="iso-8859-1"?>
<!-- Generator: Adobe Illustrator 19.0.0, SVG Export Plug-In . SVG Version: 6.00 Build 0)  -->
<svg xmlns="http://www.w3.org/2000/svg" xmlns:xlink="http://www.w3.org/1999/xlink" version="1.1" id="Capa_1" x="0px" y="0px" viewBox="0 0 512 512" style="enable-background:new 0 0 512 512;" xml:space="preserve">
<rect style="fill:#FFDA44;" width="512" height="512"/>
<rect y="0" style="fill:#F0F0F0;" width="256" height="256"/>
<polygon style="fill:#D80027;" points="0,152.001 104.001,152.001 104.001,256.001 152.001,256.001 152.001,152.001 256,152.001   256,104.001 152.001,104.001 152.001,0.001 104.001,0.001 104.001,104.001 0,104.001 "/>
<g>
	<polygon style="fill:#0052B4;" points="203.46,166.958 256,219.498 256,166.958  "/>
	<polygon style="fill:#0052B4;" points="166.957,166.958 256,256.001 256,230.821 192.137,166.958  "/>
	<polygon style="fill:#0052B4;" points="232.282,256.001 166.957,190.67 166.957,256.001  "/>
</g>
<polygon style="fill:#F0F0F0;" points="166.957,166.958 256,256.001 256,230.821 192.137,166.958 "/>
<polygon style="fill:#D80027;" points="166.957,166.958 256,256.001 256,230.821 192.137,166.958 "/>
<g>
	<polygon style="fill:#0052B4;" points="40.151,166.958 0,207.108 0,166.958  "/>
	<polygon style="fill:#0052B4;" points="89.041,178.281 89.041,255.999 11.33,255.999  "/>
</g>
<polygon style="fill:#D80027;" points="63.862,166.96 0,230.822 0,256.001 0,256.001 89.041,166.96 "/>
<g>
	<polygon style="fill:#0052B4;" points="52.54,89.045 0,36.504 0,89.045  "/>
	<polygon style="fill:#0052B4;" points="89.043,89.045 0,0.001 0,25.181 63.863,89.045  "/>
	<polygon style="fill:#0052B4;" points="23.718,0.001 89.043,65.332 89.043,0.001  "/>
</g>
<polygon style="fill:#F0F0F0;" points="89.043,89.045 0,0.001 0,25.181 63.863,89.045 "/>
<polygon style="fill:#D80027;" points="89.043,89.045 0,0.001 0,25.181 63.863,89.045 "/>
<g>
	<polygon style="fill:#0052B4;" points="215.849,89.045 256,48.894 256,89.045  "/>
	<polygon style="fill:#0052B4;" points="166.959,77.722 166.959,0.002 244.67,0.002  "/>
</g>
<polygon style="fill:#D80027;" points="192.138,89.042 256,25.18 256,0.001 256,0.001 166.959,89.042 "/>
<circle style="fill:#2E52B2;" cx="128" cy="128" r="31.499"/>
<g>
	<polygon style="fill:#FFDA44;" points="128,105.726 133.528,122.742 151.422,122.742 136.947,133.259 142.475,150.276 128,139.759    113.524,150.276 119.053,133.259 104.578,122.742 122.47,122.742  "/>
	<polygon style="fill:#FFDA44;" points="128,181.521 131.291,191.653 141.946,191.653 133.327,197.915 136.618,208.047 128,201.785    119.381,208.047 122.673,197.915 114.054,191.653 124.708,191.653  "/>
	<polygon style="fill:#FFDA44;" points="128,47.955 131.291,58.088 141.946,58.088 133.327,64.349 136.618,74.482 128,68.22    119.381,74.482 122.673,64.349 114.054,58.088 124.708,58.088  "/>
	<polygon style="fill:#FFDA44;" points="209.545,114.738 212.836,124.87 223.491,124.87 214.872,131.132 218.164,141.264    209.545,135.002 200.925,141.264 204.218,131.132 195.598,124.87 206.253,124.87  "/>
	<polygon style="fill:#FFDA44;" points="46.455,114.738 49.746,124.87 60.402,124.87 51.782,131.132 55.073,141.264 46.455,135.002    37.836,141.264 41.128,131.132 32.509,124.87 43.163,124.87  "/>
</g>
<g>
</g>
<g>
</g>
<g>
</g>
<g>
</g>
<g>
</g>
<g>
</g>
<g>
</g>
<g>
</g>
<g>
</g>
<g>
</g>
<g>
</g>
<g>
</g>
<g>
</g>
<g>
</g>
<g>
</g>
</svg>
