<?xml version="1.0" encoding="iso-8859-1"?>
<!-- Generator: Adobe Illustrator 19.0.0, SVG Export Plug-In . SVG Version: 6.00 Build 0)  -->
<svg xmlns="http://www.w3.org/2000/svg" xmlns:xlink="http://www.w3.org/1999/xlink" version="1.1" id="Capa_1" x="0px" y="0px" viewBox="0 0 512 512" style="enable-background:new 0 0 512 512;" xml:space="preserve">
<rect x="0.002" y="0.002" style="fill:#2E52B2;" width="511.998" height="511.998"/>
<path style="fill:#F3F3F3;" d="M319.999,196.57v73.141c0,48.99,64,64.001,64,64.001s64-15.01,64-64.001V196.57l-64-18.285  L319.999,196.57z"/>
<path style="fill:#D80027;" d="M447.998,201.142v-27.429H319.999v27.429h54.856V256h-54.856v18.284v0.001h54.856v61.194  c5.518,1.953,9.144,2.805,9.144,2.805s3.624-0.852,9.141-2.805v-61.195h54.858v-0.002v-18.284H393.14v-54.858h54.858V201.142z"/>
<polygon style="fill:#F0F0F0;" points="255.999,0 255.999,48.896 215.852,89.043 255.999,89.043 255.999,166.956 203.463,166.956   255.999,219.491 255.999,255.999 232.28,255.999 166.956,190.664 166.956,255.999 89.043,255.999 89.043,178.275 11.331,255.999   0,255.999 0,207.103 40.147,166.956 0,166.956 0,89.043 52.535,89.043 0,36.508 0,0 23.719,0 89.043,65.335 89.043,0 166.956,0   166.956,77.723 244.668,0 "/>
<polygon style="fill:#D80027;" points="0,152 104,152 104,255.999 152,255.999 152,152 255.999,152 255.999,104 152,104 152,0   104,0 104,104 0,104 "/>
<polygon style="fill:#0052B4;" points="166.956,166.956 255.999,255.999 255.999,230.819 192.136,166.956 "/>
<polygon style="fill:#F0F0F0;" points="166.956,166.956 255.999,255.999 255.999,230.819 192.136,166.956 "/>
<g>
	<polygon style="fill:#D80027;" points="166.956,166.956 255.999,255.999 255.999,230.819 192.136,166.956  "/>
	<polygon style="fill:#D80027;" points="63.862,166.958 0,230.82 0,255.999 0,255.999 89.041,166.958  "/>
</g>
<polygon style="fill:#0052B4;" points="89.043,89.043 0,0 0,25.18 63.863,89.043 "/>
<polygon style="fill:#F0F0F0;" points="89.043,89.043 0,0 0,25.18 63.863,89.043 "/>
<g>
	<polygon style="fill:#D80027;" points="89.043,89.043 0,0 0,25.18 63.863,89.043  "/>
	<polygon style="fill:#D80027;" points="192.137,89.041 255.999,25.179 255.999,0 255.999,0 166.958,89.041  "/>
</g>
<g>
</g>
<g>
</g>
<g>
</g>
<g>
</g>
<g>
</g>
<g>
</g>
<g>
</g>
<g>
</g>
<g>
</g>
<g>
</g>
<g>
</g>
<g>
</g>
<g>
</g>
<g>
</g>
<g>
</g>
</svg>
