<?xml version="1.0" encoding="iso-8859-1"?>
<!-- Generator: Adobe Illustrator 19.0.0, SVG Export Plug-In . SVG Version: 6.00 Build 0)  -->
<svg xmlns="http://www.w3.org/2000/svg" xmlns:xlink="http://www.w3.org/1999/xlink" version="1.1" id="Capa_1" x="0px" y="0px" viewBox="0 0 512 512" style="enable-background:new 0 0 512 512;" xml:space="preserve">
<rect width="512" height="512"/>
<polygon style="fill:#6DA544;" points="512,256 512,512 0,512 215.185,256 "/>
<polygon style="fill:#D80027;" points="512,0 512,256 215.185,256 0,0 "/>
<polygon points="221.001,230.957 26.868,0 8.956,0 217.124,247.652 512,247.652 512,230.957 "/>
<polygon points="8.956,512 26.868,512 221.001,281.043 512,281.043 512,264.348 217.124,264.348 "/>
<polygon points="0,10.655 0,31.964 188.317,256 0,480.036 0,501.345 206.229,256 "/>
<g>
	<polygon style="fill:#FFDA44;" points="8.956,0 0,0 0,10.655 206.229,256 0,501.345 0,512 8.956,512 217.124,264.348 512,264.348    512,247.652 217.124,247.652  "/>
	<path style="fill:#FFDA44;" d="M55.76,320v-25.147c25.095,0,45.509-20.417,45.509-45.509c0-17.754-14.444-32.198-32.198-32.198   c-12.094,0-21.935,9.839-21.935,21.936c0,7.733,6.292,14.027,14.028,14.027c4.372,0,7.929-3.56,7.929-7.93h25.146   c0,18.239-14.838,33.077-33.075,33.077c-21.602,0-39.174-17.574-39.174-39.174c0-25.962,21.121-47.083,47.081-47.083   c31.619,0,57.345,25.725,57.345,57.345C126.416,288.303,94.72,320,55.76,320z"/>
</g>
<g>
</g>
<g>
</g>
<g>
</g>
<g>
</g>
<g>
</g>
<g>
</g>
<g>
</g>
<g>
</g>
<g>
</g>
<g>
</g>
<g>
</g>
<g>
</g>
<g>
</g>
<g>
</g>
<g>
</g>
</svg>
