<?xml version="1.0" encoding="iso-8859-1"?>
<!-- Generator: Adobe Illustrator 19.0.0, SVG Export Plug-In . SVG Version: 6.00 Build 0)  -->
<svg xmlns="http://www.w3.org/2000/svg" xmlns:xlink="http://www.w3.org/1999/xlink" version="1.1" id="Capa_1" x="0px" y="0px" viewBox="0 0 512 512" style="enable-background:new 0 0 512 512;" xml:space="preserve">
<rect style="fill:#0052B4;" width="512" height="512"/>
<path style="fill:#FFDA44;" d="M332.058,189.217v81.623c0,39.76,51.942,51.942,51.942,51.942s51.942-12.182,51.942-51.942v-81.623  H332.058z"/>
<path style="fill:#FF9811;" d="M376.579,218.899c0,8.196-6.644,29.682-14.84,29.682s-14.84-21.485-14.84-29.682  c0-8.196,14.84-14.84,14.84-14.84S376.579,210.702,376.579,218.899z"/>
<path style="fill:#A2001D;" d="M415.961,235.063c2.394-5.843,4.257-14.385,4.257-18.637c0-6.831-8.904-12.367-8.904-12.367  s-8.904,5.537-8.904,12.367c0,4.252,1.862,12.793,4.257,18.637l-5.14,11.607c3.022,1.229,6.324,1.911,9.788,1.911  c3.463,0,6.766-0.682,9.788-1.911L415.961,235.063z"/>
<path style="fill:#6DA544;" d="M372.87,270.84c0,0-7.421,14.84-7.421,29.682c0,0,22.261,0,37.101,0  c0-14.84-7.421-29.682-7.421-29.682l-11.13-7.421L372.87,270.84z"/>
<path style="fill:#D80027;" d="M395.13,270.84v-3.71c0-6.147-4.983-11.13-11.13-11.13c-6.147,0-11.13,4.983-11.13,11.13v3.71H395.13  z"/>
<polygon style="fill:#F0F0F0;" points="256,0 256,48.896 215.853,89.043 256,89.043 256,166.957 203.464,166.957 256,219.492   256,256 232.281,256 166.957,190.664 166.957,256 89.043,256 89.043,178.276 11.331,256 0,256 0,207.104 40.147,166.957 0,166.957   0,89.043 52.536,89.043 0,36.508 0,0 23.719,0 89.043,65.336 89.043,0 166.957,0 166.957,77.724 244.669,0 "/>
<polygon style="fill:#D80027;" points="0,152.001 103.999,152.001 103.999,256 151.999,256 151.999,152.001 256,152.001   256,104.001 151.999,104.001 151.999,0 103.999,0 103.999,104.001 0,104.001 "/>
<polygon style="fill:#0052B4;" points="166.957,166.957 256,256 256,230.82 192.137,166.957 "/>
<polygon style="fill:#F0F0F0;" points="166.957,166.957 256,256 256,230.82 192.137,166.957 "/>
<g>
	<polygon style="fill:#D80027;" points="166.957,166.957 256,256 256,230.82 192.137,166.957  "/>
	<polygon style="fill:#D80027;" points="63.862,166.959 0,230.821 0,256 0,256 89.041,166.959  "/>
</g>
<polygon style="fill:#0052B4;" points="89.043,89.043 0,0 0,25.18 63.863,89.043 "/>
<polygon style="fill:#F0F0F0;" points="89.043,89.043 0,0 0,25.18 63.863,89.043 "/>
<g>
	<polygon style="fill:#D80027;" points="89.043,89.043 0,0 0,25.18 63.863,89.043  "/>
	<polygon style="fill:#D80027;" points="192.138,89.041 256,25.179 256,0 256,0 166.959,89.041  "/>
</g>
<g>
</g>
<g>
</g>
<g>
</g>
<g>
</g>
<g>
</g>
<g>
</g>
<g>
</g>
<g>
</g>
<g>
</g>
<g>
</g>
<g>
</g>
<g>
</g>
<g>
</g>
<g>
</g>
<g>
</g>
</svg>
