<?xml version="1.0" encoding="iso-8859-1"?>
<!-- Generator: Adobe Illustrator 19.0.0, SVG Export Plug-In . SVG Version: 6.00 Build 0)  -->
<svg xmlns="http://www.w3.org/2000/svg" xmlns:xlink="http://www.w3.org/1999/xlink" version="1.1" id="Capa_1" x="0px" y="0px" viewBox="0 0 512.006 512.006" style="enable-background:new 0 0 512.006 512.006;" xml:space="preserve">
<rect x="0.003" y="0.017" style="fill:#0052B4;" width="512" height="511.989"/>
<polygon style="fill:#D80027;" points="512.003,0 512.003,250.031 0.003,256.258 0.003,0 "/>
<polygon style="fill:#F0F0F0;" points="256.003,256.008 0.003,512 0.003,0 "/>
<g>
	<path style="fill:#FFDA44;" d="M44.815,256.001c-0.144,1.888-0.24,3.789-0.24,5.713c0,41.027,33.259,74.287,74.287,74.287   c41.027,0,74.286-33.259,74.286-74.287c0-1.924-0.097-3.826-0.242-5.713H44.815z"/>
	<circle style="fill:#FFDA44;" cx="118.865" cy="198.856" r="22.857"/>
</g>
<path style="fill:#D80027;" d="M67.432,193.142v74.287c0,39.367,51.429,51.429,51.429,51.429s51.429-12.061,51.429-51.429v-74.287  H67.432z"/>
<path style="fill:#338AF3;" d="M118.886,294.936c-9.54-3.433-28.596-12.209-28.596-27.508v-51.429h57.144v51.429  C147.432,282.776,128.379,291.531,118.886,294.936z"/>
<polygon style="fill:#F3F3F3;" points="130.289,244.571 130.289,233.143 118.86,227.428 107.433,233.143 107.433,244.571   101.718,250.286 101.718,273.142 136.003,273.142 136.003,250.286 "/>
<g>
</g>
<g>
</g>
<g>
</g>
<g>
</g>
<g>
</g>
<g>
</g>
<g>
</g>
<g>
</g>
<g>
</g>
<g>
</g>
<g>
</g>
<g>
</g>
<g>
</g>
<g>
</g>
<g>
</g>
</svg>
