<?xml version="1.0" encoding="iso-8859-1"?>
<!-- Generator: Adobe Illustrator 19.0.0, SVG Export Plug-In . SVG Version: 6.00 Build 0)  -->
<svg xmlns="http://www.w3.org/2000/svg" xmlns:xlink="http://www.w3.org/1999/xlink" version="1.1" id="Capa_1" x="0px" y="0px" viewBox="0 0 512 512" style="enable-background:new 0 0 512 512;" xml:space="preserve">
<rect style="fill:#D80027;" width="512" height="512"/>
<polyline style="fill:#6DA544;" points="512,0 0,0 0,512 "/>
<polygon style="fill:#FFDA44;" points="512,0 512,110.191 110.202,511.989 0,511.989 0,401.809 401.798,0.011 449.013,0.011   449.024,0 "/>
<polygon points="62.967,511.991 512,62.974 512,0 449.025,0 449.016,0.009 0,449.04 0,511.991 "/>
<g>
	<polygon style="fill:#F0F0F0;" points="178.452,288.791 197.629,298.562 212.846,283.343 209.48,304.601 228.657,314.371    207.399,317.738 204.032,338.995 194.262,319.819 173.005,323.186 188.222,307.968  "/>
	<polygon style="fill:#F0F0F0;" points="288.791,178.452 307.968,188.222 323.186,173.005 319.819,194.262 338.995,204.032    317.738,207.399 314.371,228.657 304.601,209.48 283.343,212.847 298.562,197.629  "/>
</g>
<g>
</g>
<g>
</g>
<g>
</g>
<g>
</g>
<g>
</g>
<g>
</g>
<g>
</g>
<g>
</g>
<g>
</g>
<g>
</g>
<g>
</g>
<g>
</g>
<g>
</g>
<g>
</g>
<g>
</g>
</svg>
