<?xml version="1.0" encoding="iso-8859-1"?>
<!-- Generator: Adobe Illustrator 19.0.0, SVG Export Plug-In . SVG Version: 6.00 Build 0)  -->
<svg xmlns="http://www.w3.org/2000/svg" xmlns:xlink="http://www.w3.org/1999/xlink" version="1.1" id="Capa_1" x="0px" y="0px" viewBox="0 0 512 512" style="enable-background:new 0 0 512 512;" xml:space="preserve">
<rect style="fill:#0052B4;" width="512" height="512"/>
<polygon style="fill:#ACABB1;" points="409.043,201.739 384,210.087 358.957,201.739 350.609,180.87 358.957,160 409.043,160   400.696,180.87 "/>
<path style="fill:#338AF3;" d="M325.565,201.739v91.825C325.565,338.294,384,352,384,352s58.435-13.706,58.435-58.436v-91.825  H325.565z"/>
<path style="fill:#6DA544;" d="M330.832,315.319C345.196,342.895,384,352,384,352s38.804-9.105,53.168-36.681L384,226.783  L330.832,315.319z"/>
<path style="fill:#FFDA44;" d="M442.435,292.637L384,201.739l-58.435,90.899v0.927c0,8.279,2.006,15.491,5.267,21.754L384,232.613  l53.168,82.706c3.262-6.263,5.267-13.476,5.267-21.754V292.637z"/>
<polygon style="fill:#F0F0F0;" points="256,0 256,48.896 215.853,89.043 256,89.043 256,166.957 203.464,166.957 256,219.492   256,256 232.281,256 166.957,190.664 166.957,256 89.043,256 89.043,178.276 11.331,256 0,256 0,207.104 40.147,166.957 0,166.957   0,89.043 52.536,89.043 0,36.508 0,0 23.719,0 89.043,65.336 89.043,0 166.957,0 166.957,77.724 244.669,0 "/>
<polygon style="fill:#D80027;" points="0,152.001 104.001,152.001 104.001,256 152.001,256 152.001,152.001 256,152.001   256,104.001 152.001,104.001 152.001,0 104.001,0 104.001,104.001 0,104.001 "/>
<polygon style="fill:#0052B4;" points="166.957,166.957 256,256 256,230.82 192.137,166.957 "/>
<polygon style="fill:#F0F0F0;" points="166.957,166.957 256,256 256,230.82 192.137,166.957 "/>
<g>
	<polygon style="fill:#D80027;" points="166.957,166.957 256,256 256,230.82 192.137,166.957  "/>
	<polygon style="fill:#D80027;" points="63.862,166.959 0,230.821 0,256 0,256 89.041,166.959  "/>
</g>
<polygon style="fill:#0052B4;" points="89.043,89.043 0,0 0,25.18 63.863,89.043 "/>
<polygon style="fill:#F0F0F0;" points="89.043,89.043 0,0 0,25.18 63.863,89.043 "/>
<g>
	<polygon style="fill:#D80027;" points="89.043,89.043 0,0 0,25.18 63.863,89.043  "/>
	<polygon style="fill:#D80027;" points="192.138,89.041 256,25.179 256,0 256,0 166.959,89.041  "/>
</g>
<g>
</g>
<g>
</g>
<g>
</g>
<g>
</g>
<g>
</g>
<g>
</g>
<g>
</g>
<g>
</g>
<g>
</g>
<g>
</g>
<g>
</g>
<g>
</g>
<g>
</g>
<g>
</g>
<g>
</g>
</svg>
