<?xml version="1.0" encoding="iso-8859-1"?>
<!-- Generator: Adobe Illustrator 19.0.0, SVG Export Plug-In . SVG Version: 6.00 Build 0)  -->
<svg xmlns="http://www.w3.org/2000/svg" xmlns:xlink="http://www.w3.org/1999/xlink" version="1.1" id="Capa_1" x="0px" y="0px" viewBox="0 0 512 512" style="enable-background:new 0 0 512 512;" xml:space="preserve">
<rect style="fill:#338AF3;" width="512" height="512"/>
<path style="fill:#F3F3F3;" d="M249.88,376.882c-5.207-0.252-9.515-3.636-11.204-8.23l0,0c-2.981,3.889-8.104,5.846-13.152,4.543  l0,0c-5.055-1.301-8.592-5.484-9.322-10.338l0,0c-3.712,3.208-9.12,4.082-13.798,1.789l0,0c-4.686-2.302-7.306-7.113-7.038-12.01  l0,0c-4.274,2.402-9.75,2.167-13.874-1.024l0,0c-4.115-3.191-5.719-8.423-4.477-13.168l0,0c-4.669,1.495-9.977,0.168-13.379-3.788  l0,0c-3.401-3.947-3.922-9.399-1.755-13.789l0,0c-4.871,0.52-9.809-1.848-12.346-6.4l0,0c-2.544-4.552-1.957-10.003,1.059-13.874  l0,0c-4.88-0.47-9.246-3.788-10.809-8.76l0,0c-1.57-4.972,0.109-10.195,3.847-13.379l0,0c-4.686-1.445-8.281-5.577-8.81-10.759l0,0  c-0.53-5.182,2.158-9.944,6.45-12.312l0,0c-4.292-2.352-6.995-7.113-6.483-12.287l0,0c0,0,0,0,0.008,0l0,0  c0.512-5.19,4.107-9.33,8.785-10.792l0,0c-3.736-3.174-5.434-8.39-3.88-13.362l0,0c1.554-4.98,5.912-8.306,10.792-8.793l0,0  c-3.015-3.863-3.62-9.314-1.092-13.874l0,0c2.528-4.552,7.466-6.929,12.346-6.416l0,0c-2.184-4.393-1.672-9.843,1.722-13.807l0,0  c3.385-3.956,8.693-5.291,13.37-3.813l0,0c-1.26-4.736,0.336-9.977,4.451-13.176l0,0c4.107-3.2,9.582-3.444,13.857-1.059l0,0  c-0.277-4.895,2.335-9.708,7.013-12.018l0,0c4.669-2.302,10.086-1.445,13.807,1.763l0,0c0.713-4.854,4.25-9.052,9.297-10.364l0,0  l0,0l0,0c5.039-1.31,10.162,0.63,13.152,4.51l0,0c1.688-4.594,5.988-7.986,11.195-8.248l0,0c5.199-0.268,9.818,2.654,11.967,7.047  l0,0c2.57-4.166,7.459-6.635,12.606-5.854l0,0c5.157,0.772,9.112,4.568,10.338,9.314l0,0c3.359-3.578,8.651-4.998,13.538-3.2l0,0  c4.896,1.806,8.004,6.324,8.239,11.228l0,0c4.006-2.822,9.482-3.149,13.907-0.394l0,0c4.427,2.746,6.551,7.794,5.794,12.64l0,0  c4.493-1.957,9.918-1.176,13.698,2.402l0,0c3.779,3.585,4.855,8.952,3.141,13.547l0,0c4.795-1.016,9.952,0.831,12.941,5.107l0,0l0,0  l0,0c2.99,4.266,2.965,9.741,0.37,13.899l0,0c4.896-0.033,9.574,2.823,11.648,7.601l0,0c2.066,4.787,0.933,10.153-2.452,13.706l0,0  c4.813,0.957,8.819,4.695,9.877,9.8l0,0c1.05,5.107-1.143,10.12-5.166,12.917l0,0c4.502,1.907,7.677,6.367,7.684,11.573l0,0  c0,0.058,0,0.109,0,0.168l0,0c0,0.033,0,0.076,0,0.109l0,0c0,5.207-3.158,9.675-7.659,11.598l0,0c4.031,2.78,6.24,7.794,5.19,12.9  l0,0c-1.042,5.107-5.039,8.852-9.852,9.826l0,0c3.393,3.544,4.543,8.902,2.487,13.697l0,0l0,0l0,0  c-2.058,4.787-6.735,7.651-11.64,7.625l0,0c2.603,4.157,2.646,9.632-0.336,13.907l0,0c-2.981,4.275-8.13,6.14-12.926,5.132l0,0  c1.722,4.586,0.656,9.961-3.115,13.555l0,0l0,0l0,0c-3.779,3.586-9.196,4.375-13.689,2.435l0,0c0.765,4.837-1.352,9.894-5.77,12.656  l0,0c-4.418,2.764-9.893,2.443-13.907-0.37l0,0c-0.227,4.904-3.317,9.432-8.205,11.245l0,0c0,0,0,0-0.008,0l0,0  c-4.888,1.806-10.179,0.395-13.547-3.174l0,0c-1.21,4.754-5.157,8.557-10.313,9.347l0,0l0,0l0,0  c-5.148,0.781-10.044-1.672-12.623-5.837l0,0c-2.049,4.225-6.383,7.097-11.321,7.097l0,0C250.3,376.9,250.09,376.891,249.88,376.882  z"/>
<circle style="fill:#338AF3;" cx="255.967" cy="255.254" r="83.979"/>
<path style="fill:#BDBCC1;" d="M274.352,226.75c4.126-3.06,6.812-7.953,6.812-13.485v-8.398c0-9.277-7.52-16.797-16.797-16.797  H247.57c-9.276,0-16.797,7.52-16.797,16.797v8.398c0,5.532,2.686,10.424,6.812,13.485l-15.21,154.482c0,0,8.399,8.399,33.594,8.399  s33.594-8.399,33.594-8.399L274.352,226.75z"/>
<polygon style="fill:#F0F0F0;" points="255.968,188.071 270.559,232.98 317.783,232.98 279.58,260.738 294.171,305.647   255.968,277.892 217.764,305.647 232.358,260.738 194.155,232.98 241.376,232.98 "/>
<g>
</g>
<g>
</g>
<g>
</g>
<g>
</g>
<g>
</g>
<g>
</g>
<g>
</g>
<g>
</g>
<g>
</g>
<g>
</g>
<g>
</g>
<g>
</g>
<g>
</g>
<g>
</g>
<g>
</g>
</svg>
