<?xml version="1.0" encoding="iso-8859-1"?>
<!-- Generator: Adobe Illustrator 19.0.0, SVG Export Plug-In . SVG Version: 6.00 Build 0)  -->
<svg xmlns="http://www.w3.org/2000/svg" xmlns:xlink="http://www.w3.org/1999/xlink" version="1.1" id="Capa_1" x="0px" y="0px" viewBox="0 0 512 512" style="enable-background:new 0 0 512 512;" xml:space="preserve">
<rect style="fill:#D80027;" width="512" height="512"/>
<rect x="11.13" y="11.13" style="fill:#0052B4;" width="489.739" height="489.739"/>
<path style="fill:#D80027;" d="M245.344,374.865c-2.573-2.206-63.028-54.762-63.028-118.865s60.455-116.659,63.028-118.865L256,128  l10.656,9.134c2.573,2.206,63.028,54.762,63.028,118.866s-60.455,116.66-63.028,118.866L256,384L245.344,374.865z"/>
<path style="fill:#338AF3;" d="M313.311,256c0-57.311-57.311-106.434-57.311-106.434S198.689,198.692,198.689,256  c0,17.532,5.367,34.295,12.813,49.123h88.994C307.942,290.295,313.311,273.532,313.311,256z"/>
<path style="fill:#0052B4;" d="M313.311,256c0,17.532-5.368,34.295-12.813,49.123L256,313.311l-44.497-8.188  c-7.445-14.828-12.813-31.591-12.813-49.123H313.311z"/>
<path style="fill:#FFDA44;" d="M256,362.434c0,0,27.605-23.669,44.497-57.311h-88.994C228.395,338.765,256,362.434,256,362.434z"/>
<polygon style="fill:#6DA544;" points="219.157,223.251 292.842,223.251 256,260.094 "/>
<rect x="243.723" y="247.808" style="fill:#A2001D;" width="24.565" height="73.683"/>
<g>
</g>
<g>
</g>
<g>
</g>
<g>
</g>
<g>
</g>
<g>
</g>
<g>
</g>
<g>
</g>
<g>
</g>
<g>
</g>
<g>
</g>
<g>
</g>
<g>
</g>
<g>
</g>
<g>
</g>
</svg>
