<?xml version="1.0" encoding="iso-8859-1"?>
<!-- Generator: Adobe Illustrator 19.0.0, SVG Export Plug-In . SVG Version: 6.00 Build 0)  -->
<svg xmlns="http://www.w3.org/2000/svg" xmlns:xlink="http://www.w3.org/1999/xlink" version="1.1" id="Capa_1" x="0px" y="0px" viewBox="0 0 512 512" style="enable-background:new 0 0 512 512;" xml:space="preserve">
<rect style="fill:#A2001D;" width="512" height="512"/>
<polygon style="fill:#496E2D;" points="256,256 44.522,467.478 44.522,44.522 "/>
<g>
	<polygon style="fill:#FFDA44;" points="256,256 467.478,467.478 44.522,467.478  "/>
	<polygon style="fill:#FFDA44;" points="467.478,44.522 256,256 44.522,44.522  "/>
</g>
<polygon style="fill:#496E2D;" points="467.478,44.522 467.478,467.478 256,256 "/>
<circle style="fill:#A2001D;" cx="256" cy="256" r="64"/>
<g>
	<polygon style="fill:#FFDA44;" points="255.999,192 270.345,236.153 316.774,236.153 279.215,263.445 293.56,307.6    255.999,280.311 218.437,307.6 232.785,263.445 195.226,236.153 241.652,236.153  "/>
	<path style="fill:#FFDA44;" d="M122.607,251.481c7.027,11.104,3.724,25.798-7.379,32.827c-11.103,7.028-25.798,3.725-32.827-7.378   C69.677,256.828,77.055,224,77.055,224S109.882,231.379,122.607,251.481z"/>
</g>
<circle style="fill:#A2001D;" cx="108.867" cy="274.254" r="11.895"/>
<g>
	<polygon style="fill:#FFDA44;" points="256,8.904 259.316,19.108 270.044,19.108 261.365,25.414 264.681,35.617 256,29.311    247.32,35.617 250.636,25.414 241.956,19.108 252.684,19.108  "/>
	<polygon style="fill:#FFDA44;" points="170.094,8.904 173.41,19.108 184.137,19.108 175.458,25.414 178.774,35.617 170.094,29.311    161.415,35.617 164.73,25.414 156.05,19.108 166.778,19.108  "/>
	<polygon style="fill:#FFDA44;" points="341.906,8.904 345.222,19.108 355.95,19.108 347.271,25.414 350.586,35.617 341.906,29.311    333.227,35.617 336.542,25.414 327.863,19.108 338.59,19.108  "/>
	<polygon style="fill:#FFDA44;" points="256,476.383 259.316,486.586 270.044,486.586 261.365,492.892 264.681,503.096 256,496.789    247.32,503.096 250.636,492.892 241.956,486.586 252.684,486.586  "/>
	<polygon style="fill:#FFDA44;" points="170.094,476.383 173.41,486.586 184.137,486.586 175.458,492.892 178.774,503.096    170.094,496.789 161.415,503.096 164.73,492.892 156.05,486.586 166.778,486.586  "/>
	<polygon style="fill:#FFDA44;" points="341.906,476.383 345.222,486.586 355.95,486.586 347.271,492.892 350.586,503.096    341.906,496.789 333.227,503.096 336.542,492.892 327.863,486.586 338.59,486.586  "/>
</g>
<g>
</g>
<g>
</g>
<g>
</g>
<g>
</g>
<g>
</g>
<g>
</g>
<g>
</g>
<g>
</g>
<g>
</g>
<g>
</g>
<g>
</g>
<g>
</g>
<g>
</g>
<g>
</g>
<g>
</g>
</svg>
