<?xml version="1.0" encoding="iso-8859-1"?>
<!-- Generator: Adobe Illustrator 19.0.0, SVG Export Plug-In . SVG Version: 6.00 Build 0)  -->
<svg xmlns="http://www.w3.org/2000/svg" xmlns:xlink="http://www.w3.org/1999/xlink" version="1.1" id="Capa_1" x="0px" y="0px" viewBox="0 0 512 512" style="enable-background:new 0 0 512 512;" xml:space="preserve">
<rect style="fill:#0052B4;" width="512" height="512"/>
<polygon style="fill:#FFDA44;" points="413.681,293.101 413.681,300.522 354.318,300.522 354.318,293.101 332.058,293.101   332.058,322.783 346.899,322.783 346.899,330.203 421.101,330.203 421.101,322.783 435.942,322.783 435.942,293.101 "/>
<path style="fill:#338AF3;" d="M332.058,181.797v81.623c0,39.759,51.942,51.942,51.942,51.942s51.942-12.182,51.942-51.942v-81.623  L332.058,181.797L332.058,181.797z"/>
<g>
	<path style="fill:#F3F3F3;" d="M383.997,242.68c-12.985,0-12.985,11.873-25.97,11.873s-12.985-11.873-25.97-11.873v20.777   c12.985,0,12.985,11.873,25.97,11.873s12.985-11.873,25.97-11.873c12.986,0,12.986,11.873,25.973,11.873   c12.986,0,12.986-11.873,25.973-11.873V242.68c-12.986,0-12.986,11.873-25.973,11.873   C396.984,254.552,396.984,242.68,383.997,242.68z"/>
	<path style="fill:#F3F3F3;" d="M383.997,201.09c-12.985,0-12.985,11.873-25.97,11.873s-12.985-11.873-25.97-11.873v20.777   c12.985,0,12.985,11.873,25.97,11.873s12.985-11.873,25.97-11.873c12.986,0,12.986,11.873,25.973,11.873   c12.986,0,12.986-11.873,25.973-11.873V201.09c-12.986,0-12.986,11.873-25.973,11.873   C396.984,212.962,396.984,201.09,383.997,201.09z"/>
</g>
<polygon style="fill:#F0F0F0;" points="256,0 256,48.896 215.853,89.043 256,89.043 256,166.957 203.464,166.957 256,219.492   256,256 232.281,256 166.957,190.664 166.957,256 89.043,256 89.043,178.276 11.331,256 0,256 0,207.104 40.147,166.957 0,166.957   0,89.043 52.536,89.043 0,36.508 0,0 23.719,0 89.043,65.336 89.043,0 166.957,0 166.957,77.724 244.669,0 "/>
<polygon style="fill:#D80027;" points="0,152.001 103.999,152.001 103.999,256 151.999,256 151.999,152.001 256,152.001   256,104.001 151.999,104.001 151.999,0 103.999,0 103.999,104.001 0,104.001 "/>
<polygon style="fill:#0052B4;" points="166.957,166.957 256,256 256,230.82 192.137,166.957 "/>
<polygon style="fill:#F0F0F0;" points="166.957,166.957 256,256 256,230.82 192.137,166.957 "/>
<g>
	<polygon style="fill:#D80027;" points="166.957,166.957 256,256 256,230.82 192.137,166.957  "/>
	<polygon style="fill:#D80027;" points="63.862,166.959 0,230.821 0,256 0,256 89.041,166.959  "/>
</g>
<polygon style="fill:#0052B4;" points="89.043,89.043 0,0 0,25.18 63.863,89.043 "/>
<polygon style="fill:#F0F0F0;" points="89.043,89.043 0,0 0,25.18 63.863,89.043 "/>
<g>
	<polygon style="fill:#D80027;" points="89.043,89.043 0,0 0,25.18 63.863,89.043  "/>
	<polygon style="fill:#D80027;" points="192.138,89.041 256,25.179 256,0 256,0 166.959,89.041  "/>
</g>
<g>
</g>
<g>
</g>
<g>
</g>
<g>
</g>
<g>
</g>
<g>
</g>
<g>
</g>
<g>
</g>
<g>
</g>
<g>
</g>
<g>
</g>
<g>
</g>
<g>
</g>
<g>
</g>
<g>
</g>
</svg>
