<?xml version="1.0" encoding="iso-8859-1"?>
<!-- Generator: Adobe Illustrator 19.0.0, SVG Export Plug-In . SVG Version: 6.00 Build 0)  -->
<svg xmlns="http://www.w3.org/2000/svg" xmlns:xlink="http://www.w3.org/1999/xlink" version="1.1" id="Capa_1" x="0px" y="0px" viewBox="0 0 512.006 512.006" style="enable-background:new 0 0 512.006 512.006;" xml:space="preserve">
<rect x="0.003" y="0.017" style="fill:#FFDA44;" width="512" height="511.989"/>
<rect x="256.003" style="fill:#F0F0F0;" width="256" height="512"/>
<path style="fill:#ACABB1;" d="M362.259,230.125l37.455,49.55c-5.901,8.936-5.87,20.975,0.955,30.004  c8.657,11.453,24.96,13.719,36.414,5.062c11.453-8.657,13.719-24.96,5.061-36.414c-6.824-9.028-18.4-12.343-28.605-9.102  L355.165,192l-13.825,10.45l-20.738,15.676l20.902,27.649L362.259,230.125z M416.181,287.09c3.818-2.886,9.253-2.13,12.138,1.686  c2.885,3.818,2.13,9.253-1.687,12.139c-3.818,2.885-9.252,2.13-12.138-1.689C411.61,295.411,412.364,289.976,416.181,287.09z"/>
<path style="fill:#FFDA44;" d="M426.503,245.777l20.902-27.649l-20.738-15.676l-13.825-10.45l-58.375,77.225  c-10.206-3.24-21.781,0.073-28.605,9.102c-8.658,11.453-6.391,27.756,5.061,36.414c11.453,8.657,27.756,6.391,36.414-5.062  c6.825-9.028,6.856-21.069,0.955-30.004l37.455-49.55L426.503,245.777z M353.511,299.227c-2.885,3.819-8.32,4.574-12.138,1.688  c-3.818-2.886-4.572-8.321-1.687-12.139c2.886-3.817,8.32-4.573,12.138-1.686C355.641,289.976,356.396,295.411,353.511,299.227z"/>
<g>
</g>
<g>
</g>
<g>
</g>
<g>
</g>
<g>
</g>
<g>
</g>
<g>
</g>
<g>
</g>
<g>
</g>
<g>
</g>
<g>
</g>
<g>
</g>
<g>
</g>
<g>
</g>
<g>
</g>
</svg>
