<?xml version="1.0" encoding="iso-8859-1"?>
<!-- Generator: Adobe Illustrator 19.0.0, SVG Export Plug-In . SVG Version: 6.00 Build 0)  -->
<svg xmlns="http://www.w3.org/2000/svg" xmlns:xlink="http://www.w3.org/1999/xlink" version="1.1" id="Capa_1" x="0px" y="0px" viewBox="0 0 512 512" style="enable-background:new 0 0 512 512;" xml:space="preserve">
<rect style="fill:#338AF3;" width="512" height="512"/>
<g>
	<polygon style="fill:#FFDA44;" points="309.875,348.69 314.257,362.178 328.438,362.178 316.966,370.513 321.348,384    309.875,375.664 298.401,384 302.785,370.513 291.31,362.178 305.491,362.178  "/>
	<polygon style="fill:#FFDA44;" points="422.815,260.414 427.198,273.902 441.38,273.902 429.907,282.237 434.29,295.725    422.815,287.389 411.343,295.725 415.726,282.237 404.252,273.902 418.433,273.902  "/>
	<polygon style="fill:#FFDA44;" points="451.115,128 455.499,141.488 469.68,141.488 458.207,149.823 462.59,163.31    451.115,154.975 439.643,163.31 444.026,149.823 432.552,141.488 446.733,141.488  "/>
	<polygon style="fill:#FFDA44;" points="458.126,225.103 462.509,238.591 476.69,238.591 465.218,246.926 469.6,260.414    458.126,252.079 446.653,260.414 451.036,246.926 439.562,238.591 453.743,238.591  "/>
	<polygon style="fill:#FFDA44;" points="330.21,316.968 342.846,323.407 352.874,313.38 350.657,327.385 363.292,333.823    349.284,336.042 347.066,350.049 340.629,337.412 326.62,339.633 336.648,329.606  "/>
	<polygon style="fill:#FFDA44;" points="330.21,264.003 342.846,270.442 352.874,260.414 350.657,274.42 363.292,280.858    349.284,283.077 347.066,297.084 340.629,284.447 326.62,286.668 336.648,276.639  "/>
	<polygon style="fill:#FFDA44;" points="374.348,297.954 386.984,304.392 397.013,294.364 394.794,308.371 407.43,314.809    393.422,317.027 391.204,331.035 384.767,318.398 370.759,320.618 380.787,310.59  "/>
	<polygon style="fill:#FFDA44;" points="374.348,184.555 386.984,190.993 397.013,180.965 394.794,194.972 407.43,201.41    393.422,203.629 391.204,217.636 384.767,204.999 370.759,207.219 380.787,197.191  "/>
	<polygon style="fill:#FFDA44;" points="417.125,183.195 429.763,189.634 439.79,179.606 437.572,193.612 450.207,200.05    436.199,202.269 433.981,216.275 427.543,203.639 413.537,205.86 423.564,195.832  "/>
</g>
<rect y="0" style="fill:#F0F0F0;" width="256" height="256"/>
<polygon style="fill:#D80027;" points="0,152.001 104.001,152.001 104.001,256.001 152.001,256.001 152.001,152.001 256,152.001   256,104.001 152.001,104.001 152.001,0.001 104.001,0.001 104.001,104.001 0,104.001 "/>
<g>
	<polygon style="fill:#0052B4;" points="203.46,166.958 256,219.498 256,166.958  "/>
	<polygon style="fill:#0052B4;" points="166.957,166.958 256,256.001 256,230.821 192.137,166.958  "/>
	<polygon style="fill:#0052B4;" points="232.282,256.001 166.957,190.67 166.957,256.001  "/>
</g>
<polygon style="fill:#F0F0F0;" points="166.957,166.958 256,256.001 256,230.821 192.137,166.958 "/>
<polygon style="fill:#D80027;" points="166.957,166.958 256,256.001 256,230.821 192.137,166.958 "/>
<g>
	<polygon style="fill:#0052B4;" points="40.151,166.958 0,207.108 0,166.958  "/>
	<polygon style="fill:#0052B4;" points="89.041,178.281 89.041,255.999 11.33,255.999  "/>
</g>
<polygon style="fill:#D80027;" points="63.862,166.96 0,230.822 0,256.001 0,256.001 89.041,166.96 "/>
<g>
	<polygon style="fill:#0052B4;" points="52.54,89.045 0,36.504 0,89.045  "/>
	<polygon style="fill:#0052B4;" points="89.043,89.045 0,0.001 0,25.181 63.863,89.045  "/>
	<polygon style="fill:#0052B4;" points="23.718,0.001 89.043,65.332 89.043,0.001  "/>
</g>
<polygon style="fill:#F0F0F0;" points="89.043,89.045 0,0.001 0,25.181 63.863,89.045 "/>
<polygon style="fill:#D80027;" points="89.043,89.045 0,0.001 0,25.181 63.863,89.045 "/>
<g>
	<polygon style="fill:#0052B4;" points="215.849,89.045 256,48.894 256,89.045  "/>
	<polygon style="fill:#0052B4;" points="166.959,77.722 166.959,0.002 244.67,0.002  "/>
</g>
<polygon style="fill:#D80027;" points="192.138,89.042 256,25.18 256,0.001 256,0.001 166.959,89.042 "/>
<g>
</g>
<g>
</g>
<g>
</g>
<g>
</g>
<g>
</g>
<g>
</g>
<g>
</g>
<g>
</g>
<g>
</g>
<g>
</g>
<g>
</g>
<g>
</g>
<g>
</g>
<g>
</g>
<g>
</g>
</svg>
