<?xml version="1.0" encoding="iso-8859-1"?>
<!-- Generator: Adobe Illustrator 19.0.0, SVG Export Plug-In . SVG Version: 6.00 Build 0)  -->
<svg xmlns="http://www.w3.org/2000/svg" xmlns:xlink="http://www.w3.org/1999/xlink" version="1.1" id="Capa_1" x="0px" y="0px" viewBox="0 0 512 512" style="enable-background:new 0 0 512 512;" xml:space="preserve">
<rect style="fill:#496E2D;" width="512" height="512"/>
<g>
	<path style="fill:#F0F0F0;" d="M407.816,147.517c12.596-35.108-1.555-73.288-31.922-92.305c5.462,0.711,10.93,1.997,16.327,3.932   c40.505,14.532,61.558,59.145,47.026,99.649c-14.532,40.505-59.145,61.558-99.649,47.026c-5.397-1.936-10.436-4.421-15.104-7.344   C360.024,203.1,395.221,182.624,407.816,147.517z"/>
	<polygon style="fill:#F0F0F0;" points="337.957,45.589 327.012,59.73 310.182,53.692 320.249,68.47 309.306,82.61 326.471,77.604    336.539,92.38 337.08,74.508 354.245,69.501 337.416,63.464  "/>
	<polygon style="fill:#F0F0F0;" points="367.509,91.668 356.565,105.809 339.734,99.77 349.802,114.549 338.857,128.689    356.024,123.681 366.091,138.46 366.632,120.587 383.799,115.58 366.967,109.541  "/>
	<polygon style="fill:#F0F0F0;" points="285.852,62.371 274.907,76.511 258.077,70.473 268.144,85.251 257.2,99.391 274.365,94.385    284.434,109.163 284.975,91.29 302.14,86.283 285.311,80.244  "/>
	<polygon style="fill:#F0F0F0;" points="284.652,115.154 273.707,129.296 256.877,123.257 266.945,138.035 256,152.175    273.166,147.169 283.234,161.947 283.775,144.073 300.941,139.067 284.11,133.028  "/>
	<polygon style="fill:#F0F0F0;" points="334.879,133.175 323.935,147.316 307.104,141.277 317.172,156.055 306.227,170.195    323.394,165.189 333.461,179.967 334.002,162.093 351.169,157.086 334.337,151.048  "/>
</g>
<rect x="41.74" style="fill:#D80027;" width="133.565" height="512"/>
<polygon style="fill:#F0F0F0;" points="92.712,134.783 70.35,118.125 70.35,94.569 92.712,77.911 124.337,77.911 146.699,94.569   146.699,118.125 124.337,134.783 "/>
<g>
	<polygon style="fill:#FF9811;" points="108.524,77.911 92.712,77.911 70.35,94.569 70.35,106.085 108.524,106.085  "/>
	<polygon style="fill:#FF9811;" points="108.524,134.783 124.337,134.783 146.699,118.125 146.699,106.109 108.524,106.109  "/>
</g>
<polygon style="fill:#F0F0F0;" points="92.712,434.091 70.35,417.434 70.35,393.876 92.712,377.218 124.337,377.218   146.699,393.876 146.699,417.434 124.337,434.091 "/>
<g>
	<polygon style="fill:#FF9811;" points="108.524,377.218 92.712,377.218 70.35,393.876 70.35,405.393 108.524,405.393  "/>
	<polygon style="fill:#FF9811;" points="108.524,434.091 124.337,434.091 146.699,417.434 146.699,405.416 108.524,405.416  "/>
</g>
<g>
	<polygon style="fill:#496E2D;" points="92.712,284.437 70.35,267.779 70.35,244.223 92.712,227.564 124.337,227.564    146.699,244.223 146.699,267.779 124.337,284.437  "/>
	<polygon style="fill:#496E2D;" points="147.482,321.087 137.742,321.087 137.742,311.348 120.626,311.348 108.523,299.246    96.422,311.348 79.307,311.348 79.307,321.087 69.567,321.087 69.567,340.567 79.307,340.567 79.307,350.306 96.421,350.306    108.524,362.409 120.626,350.306 137.742,350.306 137.742,340.567 147.482,340.567  "/>
	<polygon style="fill:#496E2D;" points="147.482,171.434 137.742,171.434 137.742,161.695 120.626,161.695 108.523,149.592    96.422,161.695 79.307,161.695 79.307,171.434 69.567,171.434 69.567,190.913 79.307,190.913 79.307,200.652 96.421,200.652    108.524,212.755 120.626,200.652 137.742,200.652 137.742,190.913 147.482,190.913  "/>
</g>
<g>
	<rect x="97.391" y="244.87" style="fill:#D80027;" width="22.261" height="22.261"/>
	<circle style="fill:#D80027;" cx="108.522" cy="181.17" r="11.13"/>
	<circle style="fill:#D80027;" cx="108.522" cy="330.83" r="11.13"/>
</g>
<g>
</g>
<g>
</g>
<g>
</g>
<g>
</g>
<g>
</g>
<g>
</g>
<g>
</g>
<g>
</g>
<g>
</g>
<g>
</g>
<g>
</g>
<g>
</g>
<g>
</g>
<g>
</g>
<g>
</g>
</svg>
