<?xml version="1.0" encoding="iso-8859-1"?>
<!-- Generator: Adobe Illustrator 19.0.0, SVG Export Plug-In . SVG Version: 6.00 Build 0)  -->
<svg xmlns="http://www.w3.org/2000/svg" xmlns:xlink="http://www.w3.org/1999/xlink" version="1.1" id="Capa_1" x="0px" y="0px" viewBox="0 0 512 512" style="enable-background:new 0 0 512 512;" xml:space="preserve">
<rect style="fill:#338AF3;" width="512" height="512"/>
<g>
	<polygon style="fill:#F0F0F0;" points="255.999,128 265.775,158.087 297.412,158.087 271.817,176.682 281.593,206.769    255.999,188.176 230.406,206.769 240.183,176.682 214.588,158.087 246.224,158.087  "/>
	<polygon style="fill:#F0F0F0;" points="128,256.002 158.087,246.225 158.087,214.588 176.682,240.183 206.769,230.407    188.174,256.002 206.769,281.594 176.682,271.817 158.087,297.412 158.087,265.776  "/>
	<polygon style="fill:#F0F0F0;" points="256.001,384 246.225,353.913 214.588,353.913 240.183,335.318 230.407,305.231    256.001,323.824 281.594,305.231 271.817,335.318 297.412,353.913 265.776,353.913  "/>
	<polygon style="fill:#F0F0F0;" points="384,255.999 353.913,265.775 353.913,297.412 335.318,271.817 305.231,281.593    323.824,255.999 305.231,230.406 335.318,240.183 353.913,214.588 353.913,246.224  "/>
</g>
<g>
</g>
<g>
</g>
<g>
</g>
<g>
</g>
<g>
</g>
<g>
</g>
<g>
</g>
<g>
</g>
<g>
</g>
<g>
</g>
<g>
</g>
<g>
</g>
<g>
</g>
<g>
</g>
<g>
</g>
</svg>
