<?xml version="1.0" encoding="iso-8859-1"?>
<!-- Generator: Adobe Illustrator 19.0.0, SVG Export Plug-In . SVG Version: 6.00 Build 0)  -->
<svg xmlns="http://www.w3.org/2000/svg" xmlns:xlink="http://www.w3.org/1999/xlink" version="1.1" id="Capa_1" x="0px" y="0px" viewBox="0 0 512 512" style="enable-background:new 0 0 512 512;" xml:space="preserve">
<rect style="fill:#0052B4;" width="512" height="512"/>
<g>
	<polygon style="fill:#F0F0F0;" points="200.348,121.764 170.785,135.669 186.527,164.299 154.427,158.158 150.359,190.586    128,166.736 105.64,190.586 101.573,158.158 69.473,164.297 85.213,135.668 55.652,121.764 85.215,107.858 69.473,79.229    101.572,85.368 105.641,52.941 128,76.791 150.36,52.941 154.427,85.368 186.528,79.229 170.786,107.858  "/>
	<polygon style="fill:#F0F0F0;" points="404.656,0 0,504.285 0,509.927 503.756,0  "/>
</g>
<polygon style="fill:#FF9811;" points="512,0 503.756,0 0,509.927 0,512 3.723,512 512,99.754 "/>
<g>
</g>
<g>
</g>
<g>
</g>
<g>
</g>
<g>
</g>
<g>
</g>
<g>
</g>
<g>
</g>
<g>
</g>
<g>
</g>
<g>
</g>
<g>
</g>
<g>
</g>
<g>
</g>
<g>
</g>
</svg>
