<?xml version="1.0" encoding="iso-8859-1"?>
<!-- Generator: Adobe Illustrator 19.0.0, SVG Export Plug-In . SVG Version: 6.00 Build 0)  -->
<svg xmlns="http://www.w3.org/2000/svg" xmlns:xlink="http://www.w3.org/1999/xlink" version="1.1" id="Capa_1" x="0px" y="0px" viewBox="0 0 512.006 512.006" style="enable-background:new 0 0 512.006 512.006;" xml:space="preserve">
<rect x="0.003" y="0.017" style="fill:#338AF3;" width="512" height="511.989"/>
<polygon style="fill:#F0F0F0;" points="512.003,0 512.003,250.031 0.003,256.258 0.003,0 "/>
<path style="fill:#6DA544;" d="M338.566,191.524l-82.563,82.563l-82.563-82.563c-10.676,15.85-16.915,34.926-16.915,55.433v27.13  c0,43.563,28.149,80.672,67.212,94.103c-5.214,10.218-4.334,22.971,3.306,32.505c10.146-8.132,20.653-16.551,29.564-23.691  c8.912,7.141,19.417,15.559,29.564,23.691c7.73-9.646,8.545-22.589,3.125-32.867c38.529-13.724,66.187-50.56,66.187-93.742v-27.13  C355.481,226.45,349.242,207.373,338.566,191.524z"/>
<path style="fill:#FFDA44;" d="M256.003,346.435c-39.893,0-72.348-32.455-72.348-72.348v-27.13  c0-39.893,32.455-72.348,72.348-72.348s72.348,32.455,72.348,72.348v27.13C328.351,313.98,295.895,346.435,256.003,346.435z"/>
<path style="fill:#338AF3;" d="M301.22,274.087v-27.13c0-24.933-20.284-45.217-45.217-45.217s-45.217,20.284-45.217,45.217v27.13  l45.217,9.043L301.22,274.087z"/>
<path style="fill:#6DA544;" d="M210.785,274.087L210.785,274.087c0,24.933,20.284,45.217,45.217,45.217s45.217-20.284,45.217-45.217  l0,0H210.785z"/>
<path style="fill:#FFDA44;" d="M310.264,174.609c0-14.984-12.147-27.13-27.13-27.13c-6.951,0-13.286,2.616-18.087,6.913v-15.957  h9.043v-18.087h-9.043v-9.043h-18.087v9.043h-9.043v18.087h9.043v15.957c-4.801-4.297-11.136-6.913-18.087-6.913  c-14.984,0-27.13,12.147-27.13,27.13c0,8.033,3.495,15.249,9.043,20.217v15.957h90.435v-15.957  C306.769,189.857,310.264,182.642,310.264,174.609z"/>
<g>
</g>
<g>
</g>
<g>
</g>
<g>
</g>
<g>
</g>
<g>
</g>
<g>
</g>
<g>
</g>
<g>
</g>
<g>
</g>
<g>
</g>
<g>
</g>
<g>
</g>
<g>
</g>
<g>
</g>
</svg>
