<?xml version="1.0" encoding="iso-8859-1"?>
<!-- Generator: Adobe Illustrator 19.0.0, SVG Export Plug-In . SVG Version: 6.00 Build 0)  -->
<svg xmlns="http://www.w3.org/2000/svg" xmlns:xlink="http://www.w3.org/1999/xlink" version="1.1" id="Capa_1" x="0px" y="0px" viewBox="0 0 512 512" style="enable-background:new 0 0 512 512;" xml:space="preserve">
<rect y="0.019" style="fill:#D80027;" width="512" height="511.978"/>
<polygon style="fill:#0052B4;" points="512,0.003 512,250.029 0,256.257 0,0.003 "/>
<path style="fill:#FFDA44;" d="M192,177.857c0-17.673-14.327-32-32-32c-8.198,0-15.671,3.085-21.334,8.154v-18.82h10.666v-21.334  h-10.666v-10.666h-21.334v10.666h-10.666v21.334h10.666v18.82c-5.662-5.069-13.135-8.154-21.334-8.154c-17.673,0-32,14.327-32,32  c0,9.475,4.122,17.986,10.666,23.846v18.82h106.666v-18.82C187.878,195.843,192,187.332,192,177.857z"/>
<g>
</g>
<g>
</g>
<g>
</g>
<g>
</g>
<g>
</g>
<g>
</g>
<g>
</g>
<g>
</g>
<g>
</g>
<g>
</g>
<g>
</g>
<g>
</g>
<g>
</g>
<g>
</g>
<g>
</g>
</svg>
