<?xml version="1.0" encoding="iso-8859-1"?>
<!-- Generator: Adobe Illustrator 19.0.0, SVG Export Plug-In . SVG Version: 6.00 Build 0)  -->
<svg xmlns="http://www.w3.org/2000/svg" xmlns:xlink="http://www.w3.org/1999/xlink" version="1.1" id="Capa_1" x="0px" y="0px" viewBox="0 0 512 512" style="enable-background:new 0 0 512 512;" xml:space="preserve">
<rect y="0.008" style="fill:#F0F0F0;" width="512" height="511.989"/>
<rect y="0.002" width="512" height="170.663"/>
<rect y="341.337" style="fill:#496E2D;" width="512" height="170.663"/>
<g>
	<polygon style="fill:#D80027;" points="256,256.008 0,512 0,0  "/>
	<path style="fill:#D80027;" d="M354.034,256c0-28.691,20.164-52.659,47.091-58.539c-4.138-0.904-8.432-1.394-12.842-1.394   c-33.102,0-59.934,26.832-59.934,59.933s26.832,59.933,59.933,59.933c4.411,0,8.704-0.49,12.842-1.394   C374.197,308.659,354.034,284.691,354.034,256z"/>
	<polygon style="fill:#D80027;" points="403.642,217.472 412.143,243.635 439.652,243.635 417.396,259.804 425.898,285.966    403.642,269.797 381.387,285.966 389.889,259.804 367.632,243.635 395.14,243.635  "/>
</g>
<g>
</g>
<g>
</g>
<g>
</g>
<g>
</g>
<g>
</g>
<g>
</g>
<g>
</g>
<g>
</g>
<g>
</g>
<g>
</g>
<g>
</g>
<g>
</g>
<g>
</g>
<g>
</g>
<g>
</g>
</svg>
