<?xml version="1.0" encoding="iso-8859-1"?>
<!-- Generator: Adobe Illustrator 19.0.0, SVG Export Plug-In . SVG Version: 6.00 Build 0)  -->
<svg xmlns="http://www.w3.org/2000/svg" xmlns:xlink="http://www.w3.org/1999/xlink" version="1.1" id="Capa_1" x="0px" y="0px" viewBox="0 0 512 512" style="enable-background:new 0 0 512 512;" xml:space="preserve">
<rect y="0.006" style="fill:#FFDA44;" width="512" height="511.989"/>
<rect x="22.261" y="22.259" style="fill:#A2001D;" width="467.478" height="467.478"/>
<g>
	<polygon style="fill:#FFDA44;" points="194.164,182.931 317.836,182.931 317.836,133.462 293.101,145.829 256,108.728    218.899,145.829 194.164,133.462  "/>
	<path style="fill:#FFDA44;" d="M367.304,257.133h-61.813c2.424-4.193,3.833-9.046,3.833-14.237c0-15.763-12.779-28.54-28.54-28.54   c-10.89,0-20.348,6.102-25.16,15.068c-4.812-8.968-14.27-15.068-25.16-15.068c-15.761,0-28.54,12.777-28.54,28.54   c0,5.191,1.41,10.044,3.833,14.237h-61.063c0,18.914,16.474,34.247,35.388,34.247h-1.14c0,15.515,10.319,28.613,24.467,32.824   l-27.797,27.797l26.234,26.234l37.213-37.215c1.458,0.533,2.966,0.962,4.523,1.253l-22.487,50.773   c10.777,4.381,22.552,6.814,34.902,6.814c12.349,0,24.125-2.433,34.902-6.814l-22.487-50.773c1.558-0.293,3.065-0.72,4.522-1.253   l37.214,37.215l26.234-26.234l-27.797-27.797c14.148-4.21,24.468-17.308,24.468-32.824h-1.141   C350.828,291.381,367.304,276.048,367.304,257.133z"/>
</g>
<polygon style="fill:#6DA544;" points="256,275.684 215.807,294.235 215.807,331.336 256,356.07 296.193,331.336 296.193,294.235   "/>
<rect x="215.808" y="257.133" style="fill:#0052B4;" width="80.384" height="49.464"/>
<g>
</g>
<g>
</g>
<g>
</g>
<g>
</g>
<g>
</g>
<g>
</g>
<g>
</g>
<g>
</g>
<g>
</g>
<g>
</g>
<g>
</g>
<g>
</g>
<g>
</g>
<g>
</g>
<g>
</g>
</svg>
