<?xml version="1.0" encoding="iso-8859-1"?>
<!-- Generator: Adobe Illustrator 19.0.0, SVG Export Plug-In . SVG Version: 6.00 Build 0)  -->
<svg xmlns="http://www.w3.org/2000/svg" xmlns:xlink="http://www.w3.org/1999/xlink" version="1.1" id="Capa_1" x="0px" y="0px" viewBox="0 0 512 512" style="enable-background:new 0 0 512 512;" xml:space="preserve">
<path style="fill:#FFDA44;" d="M0,0v512h512V0H0z M489.739,478.609h-267.13V33.391h267.13V478.609z"/>
<rect x="222.609" y="33.391" style="fill:#A2001D;" width="267.13" height="445.217"/>
<rect x="22.261" y="107.598" style="fill:#D80027;" width="200.348" height="296.815"/>
<rect x="200.348" y="85.337" style="fill:#FFDA44;" width="22.261" height="341.337"/>
<rect x="22.261" y="33.391" style="fill:#6DA544;" width="89.043" height="445.217"/>
<rect x="111.304" y="33.391" style="fill:#FF9811;" width="89.043" height="445.217"/>
<g>
	<path style="fill:#FFDA44;" d="M358.675,250.44v-44.522c0-7.424-11.13-14.848-11.13-14.848s-11.13,7.424-11.13,14.848h-44.522   v44.522h22.261v22.261c0,4.875,0.979,9.539,2.76,13.768l-10.184,8.493h-29.674V157.679c-12.299,0-22.261,9.973-22.261,22.261   v96.467c0,6.589,2.861,12.511,7.413,16.584v35.361h14.848v-18.554h66.783v29.685H328.99v14.837h29.685v-29.685l13.601-14.837   h44.288v29.685h-14.848v14.837h29.685v-29.685l13.601-14.837l12.552-40.259l-11.038-19.1h-38.945   C393.402,250.318,366.934,250.529,358.675,250.44z"/>
	<polygon style="fill:#FFDA44;" points="370.551,211.847 370.551,237.077 442.064,237.077 442.064,250.44 446.516,250.44    446.516,232.625 375.003,232.625 375.003,216.299 450.968,216.299 450.968,211.847  "/>
	<rect x="222.609" y="33.391" style="fill:#FFDA44;" width="22.261" height="22.261"/>
	<rect x="467.478" y="33.391" style="fill:#FFDA44;" width="22.261" height="22.261"/>
	<rect x="222.609" y="456.348" style="fill:#FFDA44;" width="22.261" height="22.261"/>
	<rect x="467.478" y="456.348" style="fill:#FFDA44;" width="22.261" height="22.261"/>
</g>
<g>
</g>
<g>
</g>
<g>
</g>
<g>
</g>
<g>
</g>
<g>
</g>
<g>
</g>
<g>
</g>
<g>
</g>
<g>
</g>
<g>
</g>
<g>
</g>
<g>
</g>
<g>
</g>
<g>
</g>
</svg>
