<?xml version="1.0" encoding="iso-8859-1"?>
<!-- Generator: Adobe Illustrator 19.0.0, SVG Export Plug-In . SVG Version: 6.00 Build 0)  -->
<svg xmlns="http://www.w3.org/2000/svg" xmlns:xlink="http://www.w3.org/1999/xlink" version="1.1" id="Capa_1" x="0px" y="0px" viewBox="0 0 512 512" style="enable-background:new 0 0 512 512;" xml:space="preserve">
<rect style="fill:#F0F0F0;" width="512" height="512"/>
<rect style="fill:#6DA544;" width="170.663" height="512"/>
<rect x="341.337" style="fill:#D80027;" width="170.663" height="512"/>
<path style="fill:#6DA544;" d="M208,256c0,26.509,21.491,48,48,48s48-21.491,48-48v-16h-96V256z"/>
<path style="fill:#FF9811;" d="M320,224h-48c0-8.836-7.164-16-16-16s-16,7.164-16,16h-48c0,8.836,7.697,16,16.533,16H208  c0,8.836,7.164,16,16,16c0,8.836,7.164,16,16,16h32c8.836,0,16-7.164,16-16c8.836,0,16-7.164,16-16h-0.533  C312.303,240,320,232.836,320,224z"/>
<g>
</g>
<g>
</g>
<g>
</g>
<g>
</g>
<g>
</g>
<g>
</g>
<g>
</g>
<g>
</g>
<g>
</g>
<g>
</g>
<g>
</g>
<g>
</g>
<g>
</g>
<g>
</g>
<g>
</g>
</svg>
