<?xml version="1.0" encoding="iso-8859-1"?>
<!-- Generator: Adobe Illustrator 19.0.0, SVG Export Plug-In . SVG Version: 6.00 Build 0)  -->
<svg xmlns="http://www.w3.org/2000/svg" xmlns:xlink="http://www.w3.org/1999/xlink" version="1.1" id="Capa_1" x="0px" y="0px" viewBox="0 0 512 512" style="enable-background:new 0 0 512 512;" xml:space="preserve">
<rect y="0.008" style="fill:#F0F0F0;" width="512" height="511.989"/>
<rect y="0.002" style="fill:#6DA544;" width="512" height="170.663"/>
<rect y="341.337" style="fill:#D80027;" width="512" height="170.663"/>
<polygon style="fill:#0052B4;" points="256,256.008 0,512 0,0 "/>
<path style="fill:#DEDDE0;" d="M326.492,209.623v55.652c0,34.08,44.522,44.523,44.522,44.523s44.522-10.443,44.522-44.523v-55.652  L326.492,209.623L326.492,209.623z"/>
<rect x="359.88" y="255.254" style="fill:#786145;" width="22.261" height="32.277"/>
<path style="fill:#6DA544;" d="M393.275,243.014c0-12.295-9.966-22.261-22.261-22.261c-12.295,0-22.261,9.966-22.261,22.261  c-6.147,0-11.13,4.983-11.13,11.13c0,6.147,4.983,11.13,11.13,11.13c3.65,0,40.872,0,44.522,0c6.147,0,11.13-4.983,11.13-11.13  C404.405,247.997,399.423,243.014,393.275,243.014z"/>
<g>
</g>
<g>
</g>
<g>
</g>
<g>
</g>
<g>
</g>
<g>
</g>
<g>
</g>
<g>
</g>
<g>
</g>
<g>
</g>
<g>
</g>
<g>
</g>
<g>
</g>
<g>
</g>
<g>
</g>
</svg>
