<?xml version="1.0" encoding="iso-8859-1"?>
<!-- Generator: Adobe Illustrator 19.0.0, SVG Export Plug-In . SVG Version: 6.00 Build 0)  -->
<svg xmlns="http://www.w3.org/2000/svg" xmlns:xlink="http://www.w3.org/1999/xlink" version="1.1" id="Capa_1" x="0px" y="0px" viewBox="0 0 512 512" style="enable-background:new 0 0 512 512;" xml:space="preserve">
<rect x="0" width="512" height="512"/>
<g>
	<rect x="0" y="73.302" style="fill:#FFDA44;" width="512" height="73.301"/>
	<rect x="0" y="366.512" style="fill:#FFDA44;" width="512" height="73.302"/>
</g>
<rect x="0" style="fill:#6DA544;" width="512" height="73.302"/>
<g>
	<rect x="0" y="146.608" style="fill:#D80027;" width="512" height="73.301"/>
	<rect x="0" y="293.207" style="fill:#D80027;" width="512" height="73.301"/>
</g>
<rect x="0" y="439.806" style="fill:#6DA544;" width="512" height="72.188"/>
<polygon style="fill:#F0F0F0;" points="276.992,255.998 106.329,511.989 0,511.989 0,0.006 106.329,0.006 "/>
<polygon points="256,255.998 85.334,511.994 106.321,511.994 276.988,255.998 106.321,0 85.334,0 "/>
<polygon style="fill:#D80027;" points="102.463,171.313 123.482,236.003 191.509,236.003 136.477,275.989 157.496,340.683   102.463,300.7 47.431,340.683 68.453,275.989 13.422,236.003 81.444,236.003 "/>
<path style="fill:#FFDA44;" d="M160.28,261.29l-54.778-19.407c0,0-4.048-37.97-4.292-39.257c-1.859-9.795-10.465-17.2-20.799-17.2  c-11.693,0-21.171,9.479-21.171,21.171c0,1.939,0.283,3.807,0.77,5.592l-15.359,15.462c0,0,18.243,0,27.309,0  c0,28.346-21.152,28.346-21.152,56.574l11.733,28.228h70.571l11.764-28.228h-0.007c1.179-2.708,1.892-5.501,2.189-8.293  C157.197,271.832,160.28,261.29,160.28,261.29z"/>
<g>
</g>
<g>
</g>
<g>
</g>
<g>
</g>
<g>
</g>
<g>
</g>
<g>
</g>
<g>
</g>
<g>
</g>
<g>
</g>
<g>
</g>
<g>
</g>
<g>
</g>
<g>
</g>
<g>
</g>
</svg>
