<?xml version="1.0" encoding="iso-8859-1"?>
<!-- Generator: Adobe Illustrator 19.0.0, SVG Export Plug-In . SVG Version: 6.00 Build 0)  -->
<svg xmlns="http://www.w3.org/2000/svg" xmlns:xlink="http://www.w3.org/1999/xlink" version="1.1" id="Capa_1" x="0px" y="0px" viewBox="0 0 512 512" style="enable-background:new 0 0 512 512;" xml:space="preserve">
<rect style="fill:#F0F0F0;" width="512" height="512"/>
<polygon style="fill:#0052B4;" points="0,512 0,0 280.419,262.131 87.61,262.131 271.186,512 "/>
<polygon style="fill:#D80027;" points="244.769,246.832 10.199,27.56 10.199,246.832 10.199,496.701 244.769,496.701   61.193,246.832 "/>
<g>
	<polygon style="fill:#F0F0F0;" points="106.819,367.304 88.627,358.747 98.314,341.129 78.56,344.908 76.056,324.952    62.297,339.629 48.538,324.952 46.033,344.908 26.28,341.129 35.967,358.747 17.775,367.304 35.967,375.861 26.28,393.48    46.034,389.701 48.536,409.657 62.297,394.98 76.056,409.657 78.56,389.701 98.314,393.48 88.626,375.861  "/>
	<polygon style="fill:#F0F0F0;" points="99.398,162.343 84.238,155.212 92.311,140.53 75.848,143.679 73.764,127.049 62.297,139.28    50.83,127.049 48.745,143.679 32.282,140.53 40.356,155.212 25.195,162.343 62.297,169.762  "/>
	<path style="fill:#F0F0F0;" d="M106.819,162.343c0,24.588-19.933,44.522-44.522,44.522s-44.522-19.933-44.522-44.522"/>
</g>
<g>
</g>
<g>
</g>
<g>
</g>
<g>
</g>
<g>
</g>
<g>
</g>
<g>
</g>
<g>
</g>
<g>
</g>
<g>
</g>
<g>
</g>
<g>
</g>
<g>
</g>
<g>
</g>
<g>
</g>
</svg>
