<?xml version="1.0" encoding="iso-8859-1"?>
<!-- Generator: Adobe Illustrator 19.0.0, SVG Export Plug-In . SVG Version: 6.00 Build 0)  -->
<svg xmlns="http://www.w3.org/2000/svg" xmlns:xlink="http://www.w3.org/1999/xlink" version="1.1" id="Capa_1" x="0px" y="0px" viewBox="0 0 512 512" style="enable-background:new 0 0 512 512;" xml:space="preserve">
<rect id="SVGCleanerId_0" style="fill:#F0F0F0;" width="512" height="512"/>
<g>
	<rect id="SVGCleanerId_0_1_" style="fill:#F0F0F0;" width="512" height="512"/>
</g>
<polygon style="fill:#D80027;" points="301.255,256 512,45.255 512,0 466.745,0 256,210.745 45.255,0 0,0 0,45.255 210.745,256   0,466.745 0,512 45.255,512 256,301.255 466.745,512 512,512 512,466.745 "/>
<polygon style="fill:#FFDA44;" points="211.479,91.827 256,102.958 300.521,91.827 300.521,53.985 282.712,62.889 256,36.176   229.287,62.889 211.479,53.985 "/>
<path style="fill:#D80027;" d="M211.479,91.827v27.827c0,34.079,44.521,44.521,44.521,44.521s44.521-10.443,44.521-44.521V91.827  H211.479z"/>
<g>
</g>
<g>
</g>
<g>
</g>
<g>
</g>
<g>
</g>
<g>
</g>
<g>
</g>
<g>
</g>
<g>
</g>
<g>
</g>
<g>
</g>
<g>
</g>
<g>
</g>
<g>
</g>
<g>
</g>
</svg>
