<?xml version="1.0" encoding="iso-8859-1"?>
<!-- Generator: Adobe Illustrator 19.0.0, SVG Export Plug-In . SVG Version: 6.00 Build 0)  -->
<svg xmlns="http://www.w3.org/2000/svg" xmlns:xlink="http://www.w3.org/1999/xlink" version="1.1" id="Capa_1" x="0px" y="0px" viewBox="0 0 512 512" style="enable-background:new 0 0 512 512;" xml:space="preserve">
<rect style="fill:#F0F0F0;" width="512" height="512"/>
<g>
	<polygon style="fill:#D80027;" points="129.855,92.753 129.855,55.652 92.753,55.652 92.753,92.753 55.652,92.753 55.652,129.855    92.753,129.855 92.753,166.957 129.855,166.957 129.855,129.855 166.957,129.855 166.957,92.753  "/>
	<polygon style="fill:#D80027;" points="419.247,92.753 419.247,55.652 382.145,55.652 382.145,92.753 345.043,92.753    345.043,129.855 382.145,129.855 382.145,166.957 419.247,166.957 419.247,129.855 456.348,129.855 456.348,92.753  "/>
	<polygon style="fill:#D80027;" points="129.855,382.145 129.855,345.043 92.753,345.043 92.753,382.145 55.652,382.145    55.652,419.247 92.753,419.247 92.753,456.348 129.855,456.348 129.855,419.247 166.957,419.247 166.957,382.145  "/>
	<polygon style="fill:#D80027;" points="419.247,382.145 419.247,345.043 382.145,345.043 382.145,382.145 345.043,382.145    345.043,419.247 382.145,419.247 382.145,456.348 419.247,456.348 419.247,419.247 456.348,419.247 456.348,382.145  "/>
	<rect x="224" style="fill:#D80027;" width="64" height="512"/>
	<rect y="224" style="fill:#D80027;" width="512" height="64"/>
</g>
<g>
</g>
<g>
</g>
<g>
</g>
<g>
</g>
<g>
</g>
<g>
</g>
<g>
</g>
<g>
</g>
<g>
</g>
<g>
</g>
<g>
</g>
<g>
</g>
<g>
</g>
<g>
</g>
<g>
</g>
</svg>
