<?xml version="1.0" encoding="iso-8859-1"?>
<!-- Generator: Adobe Illustrator 19.0.0, SVG Export Plug-In . SVG Version: 6.00 Build 0)  -->
<svg xmlns="http://www.w3.org/2000/svg" xmlns:xlink="http://www.w3.org/1999/xlink" version="1.1" id="Capa_1" x="0px" y="0px" viewBox="0 0 512 512" style="enable-background:new 0 0 512 512;" xml:space="preserve">
<rect y="0.001" style="fill:#F0F0F0;" width="512" height="511.978"/>
<rect y="0.005" style="fill:#D80027;" width="512" height="170.663"/>
<rect y="341.336" style="fill:#0052B4;" width="512" height="170.663"/>
<path style="fill:#6DA544;" d="M311.092,190.768l-20.659,20.659c8.812,8.813,14.263,20.986,14.263,34.433  c0,26.894-21.801,48.696-48.696,48.696s-48.696-21.801-48.696-48.696c0-13.447,5.451-25.62,14.263-34.433l-20.659-20.659  c-14.1,14.099-22.821,33.577-22.821,55.092c0,43.03,34.883,77.913,77.913,77.913s77.913-34.883,77.913-77.913  C333.913,224.346,325.192,204.867,311.092,190.768z"/>
<polygon style="fill:#FFDA44;" points="256,216.643 263.253,238.964 286.721,238.964 267.735,252.758 274.987,275.078 256,261.283   237.013,275.078 244.265,252.758 225.279,238.964 248.747,238.964 "/>
<g>
</g>
<g>
</g>
<g>
</g>
<g>
</g>
<g>
</g>
<g>
</g>
<g>
</g>
<g>
</g>
<g>
</g>
<g>
</g>
<g>
</g>
<g>
</g>
<g>
</g>
<g>
</g>
<g>
</g>
</svg>
