<?xml version="1.0" encoding="iso-8859-1"?>
<!-- Generator: Adobe Illustrator 19.0.0, SVG Export Plug-In . SVG Version: 6.00 Build 0)  -->
<svg xmlns="http://www.w3.org/2000/svg" xmlns:xlink="http://www.w3.org/1999/xlink" version="1.1" id="Capa_1" x="0px" y="0px" viewBox="0 0 512 512" style="enable-background:new 0 0 512 512;" xml:space="preserve">
<rect style="fill:#D80027;" width="512" height="512"/>
<g>
	<polygon style="fill:#FFDA44;" points="167.619,167.43 187.16,227.573 250.399,227.573 199.238,264.744 218.78,324.887    167.619,287.717 116.457,324.887 135.999,264.744 84.837,227.573 148.076,227.573  "/>
	<polygon style="fill:#FFDA44;" points="290.787,367.465 271.6,353.525 252.416,367.464 259.743,344.911 240.558,330.971    264.274,330.971 271.6,308.418 278.931,330.971 302.644,330.971 283.459,344.91  "/>
	<polygon style="fill:#FFDA44;" points="340.837,298.576 317.123,298.576 309.794,321.13 302.467,298.577 278.751,298.576    297.938,284.636 290.609,262.084 309.796,276.021 328.981,262.083 321.652,284.636  "/>
	<polygon style="fill:#FFDA44;" points="340.837,213.426 321.652,227.366 328.98,249.917 309.796,235.981 290.609,249.919    297.938,227.364 278.752,213.426 302.467,213.425 309.796,190.87 317.123,213.425  "/>
	<polygon style="fill:#FFDA44;" points="290.787,144.536 283.46,167.091 302.644,181.029 278.932,181.03 271.602,203.586    264.274,181.029 240.56,181.031 259.745,167.09 252.416,144.535 271.6,158.476  "/>
</g>
<g>
</g>
<g>
</g>
<g>
</g>
<g>
</g>
<g>
</g>
<g>
</g>
<g>
</g>
<g>
</g>
<g>
</g>
<g>
</g>
<g>
</g>
<g>
</g>
<g>
</g>
<g>
</g>
<g>
</g>
</svg>
