<svg xmlns="http://www.w3.org/2000/svg" width="111.261" height="178.154" viewBox="0 0 111.261 178.154">
  <g id="_001-simbolo-del-dolar" data-name="001-simbolo-del-dolar" transform="translate(0 0)">
    <g id="Grupo_3148" data-name="Grupo 3148" transform="translate(0 0)">
      <g id="Grupo_3132" data-name="Grupo 3132" transform="translate(51.826 151.856)">
        <path id="Trazado_7982" data-name="Trazado 7982" d="M24.014,54.375l21.442-12.46-.039,13.838L23.975,68.213Z" transform="translate(-23.975 -41.914)" fill="#ecae00"/>
      </g>
      <g id="Grupo_3133" data-name="Grupo 3133" transform="translate(12.284 91.036)">
        <path id="Trazado_7983" data-name="Trazado 7983" d="M13.321,37.988l21.442-12.46Q48.805,47.663,63.689,59L42.247,71.456q-14.9-11.341-28.926-33.467Z" transform="translate(-13.321 -25.528)" fill="#ffec8c"/>
      </g>
      <g id="Grupo_3134" data-name="Grupo 3134" transform="translate(51.924 131.248)">
        <path id="Trazado_7984" data-name="Trazado 7984" d="M24,48.822l21.442-12.46c5.343,2.451,9.589,3.114,12.738,1.951L36.739,50.774C33.59,51.937,29.345,51.274,24,48.822Z" transform="translate(-24.001 -36.362)" fill="#ffec8c"/>
      </g>
      <g id="Grupo_3135" data-name="Grupo 3135" transform="translate(64.662 132.665)">
        <path id="Trazado_7985" data-name="Trazado 7985" d="M50.019,36.744,28.578,49.2a7.255,7.255,0,0,1-1.145.534l21.441-12.46A7.237,7.237,0,0,0,50.019,36.744Z" transform="translate(-27.433 -36.744)" fill="#73bd1e"/>
      </g>
      <g id="Grupo_3136" data-name="Grupo 3136" transform="translate(51.924 96.616)">
        <path id="Trazado_7986" data-name="Trazado 7986" d="M24.1,39.492l21.441-12.46-.1,34.632L24,74.123Z" transform="translate(-24.001 -27.031)" fill="#ecae00"/>
      </g>
      <g id="Grupo_3137" data-name="Grupo 3137" transform="translate(52.089 73.144)">
        <path id="Trazado_7987" data-name="Trazado 7987" d="M24.046,33.167l10.417-7.05,11.024-5.41.485.28L24.532,33.448Z" transform="translate(-24.046 -20.707)" fill="#ecc600"/>
      </g>
      <g id="Grupo_3138" data-name="Grupo 3138" transform="translate(25.343 28.841)">
        <path id="Trazado_7988" data-name="Trazado 7988" d="M20.431,21.231,41.872,8.771c-2.383,1.385-3.58,4.019-3.591,7.959a23.389,23.389,0,0,0,3.305,12.118q3.34,5.673,12.734,14.58L32.88,55.888q-9.41-8.9-12.734-14.58A23.393,23.393,0,0,1,16.84,29.19c.012-3.94,1.208-6.574,3.591-7.959Z" transform="translate(-16.84 -8.771)" fill="#ffec8c"/>
      </g>
      <g id="Grupo_3139" data-name="Grupo 3139" transform="translate(52.574 73.424)">
        <path id="Trazado_7989" data-name="Trazado 7989" d="M24.177,33.243l21.441-12.46Q64.881,37.1,73.872,51.179a30.656,30.656,0,0,1-8.46,7.294A63.823,63.823,0,0,1,52.43,63.639q-9.006-14.086-28.253-30.4Z" transform="translate(-24.177 -20.783)" fill="#ffec8c"/>
      </g>
      <g id="Grupo_3140" data-name="Grupo 3140" transform="translate(80.828 103.82)">
        <path id="Trazado_7990" data-name="Trazado 7990" d="M53.395,80.458,31.953,92.919q8.784-5.1,8.827-20.586a55.577,55.577,0,0,0-8.992-30.9L53.23,28.972a55.58,55.58,0,0,1,8.992,30.9Q62.178,75.34,53.395,80.458Z" transform="translate(-31.789 -28.972)" fill="#ffec8c"/>
      </g>
      <g id="Grupo_3141" data-name="Grupo 3141" transform="translate(52.089 36.987)">
        <path id="Trazado_7991" data-name="Trazado 7991" d="M24.148,23.426,45.59,10.965l-.1,36.157L24.046,59.583Z" transform="translate(-24.046 -10.965)" fill="#ecae00"/>
      </g>
      <g id="Grupo_3142" data-name="Grupo 3142" transform="translate(13.824 4.22)">
        <path id="Trazado_7992" data-name="Trazado 7992" d="M13.736,16.987,35.177,4.527q.626-.364,1.3-.676,10.13-4.77,26.416,3.7L41.448,20.012q-16.27-8.443-26.416-3.7-.67.312-1.3.676Z" transform="translate(-13.736 -2.137)" fill="#ffec8c"/>
      </g>
      <g id="Grupo_3143" data-name="Grupo 3143" transform="translate(41.563)">
        <path id="Trazado_7993" data-name="Trazado 7993" d="M21.21,13.46,42.651,1,53.367,7.186,31.925,19.647Z" transform="translate(-21.21 -1)" fill="#ffec8c"/>
      </g>
      <g id="Grupo_3144" data-name="Grupo 3144" transform="translate(52.251 6.186)">
        <path id="Trazado_7994" data-name="Trazado 7994" d="M24.117,15.127,45.558,2.667l-.028,9.82L24.089,24.948Z" transform="translate(-24.089 -2.667)" fill="#ecae00"/>
      </g>
      <g id="Grupo_3145" data-name="Grupo 3145" transform="translate(52.251 16.007)">
        <path id="Trazado_7995" data-name="Trazado 7995" d="M24.089,17.773,45.531,5.313Q63.93,17.5,80.323,39.856L58.881,52.317Q42.5,29.952,24.089,17.773Z" transform="translate(-24.089 -5.313)" fill="#ffec8c"/>
      </g>
      <g id="Grupo_3146" data-name="Grupo 3146" transform="translate(76.083 50.551)">
        <path id="Trazado_7996" data-name="Trazado 7996" d="M41.47,27.08,62.912,14.62,51.952,26.028,30.51,38.488Z" transform="translate(-30.51 -14.62)" fill="#ecae00"/>
      </g>
      <g id="Grupo_3147" data-name="Grupo 3147" transform="translate(0 12.46)">
        <path id="Trazado_7997" data-name="Trazado 7997" d="M90.839,108.178a55.577,55.577,0,0,1,8.992,30.9q-.047,16.851-10.469,21.416c-6.948,3.068-16.12,1.61-27.485-4.281l-.039,13.838-10.715-6.187.04-14.061Q28.2,133.864,10.012,105.068L22.3,95.393q14.042,22.136,28.926,33.467l.106-37.347Q32.4,75.39,23.656,61.862A54.167,54.167,0,0,1,14.921,31.67q.047-16.628,10.21-21.379,10.13-4.77,26.416,3.7l.027-9.634L62.29,10.544l-.028,9.82q18.4,12.187,34.792,34.544L86.094,66.316A111.2,111.2,0,0,0,62.2,41.344L62.1,77.5l.486.28q19.263,16.319,28.253,30.4ZM74.673,137.556c3.116-1.144,4.713-3.948,4.726-8.449a24.293,24.293,0,0,0-3.66-12.807c-2.453-4.024-7.01-9.152-13.7-15.327l-.1,34.632c5.343,2.452,9.589,3.115,12.738,1.952m-23.279-69.7.095-33.293c-5.052-2.395-8.974-2.945-11.831-1.725-2.857,1.257-4.292,4.005-4.3,8.32A23.393,23.393,0,0,0,38.66,53.275Q42,58.947,51.394,67.855" transform="translate(-10.012 -4.357)" fill="#ffda1a"/>
      </g>
    </g>
  </g>
</svg>
