<svg xmlns="http://www.w3.org/2000/svg" width="142.454" height="178.154" viewBox="0 0 142.454 178.154">
  <g id="_002-simbolo-del-euro" data-name="002-simbolo-del-euro" transform="translate(0)">
    <g id="Grupo_3164" data-name="Grupo 3164" transform="translate(0 0)">
      <g id="Grupo_3149" data-name="Grupo 3149" transform="translate(0.052 49.923)">
        <path id="Trazado_7998" data-name="Trazado 7998" d="M5.823,26.315,26.238,14.451l16.491,9.521L22.314,35.835Z" transform="translate(-5.823 -14.451)" fill="#ffec8c"/>
      </g>
      <g id="Grupo_3150" data-name="Grupo 3150" transform="translate(0.153 14.292)">
        <path id="Trazado_7999" data-name="Trazado 7999" d="M5.85,16.715,26.266,4.851l19.08,11.015L24.93,27.73Z" transform="translate(-5.85 -4.851)" fill="#ffec8c"/>
      </g>
      <g id="Grupo_3151" data-name="Grupo 3151" transform="translate(39.687 55.401)">
        <path id="Trazado_8000" data-name="Trazado 8000" d="M16.709,27.79,37.125,15.926c-.128,1.629-.2,4.143-.207,7.614a90.276,90.276,0,0,0,.527,10.1L17.03,45.5a90.2,90.2,0,0,1-.527-10.1C16.512,31.934,16.581,29.419,16.709,27.79Z" transform="translate(-16.502 -15.926)" fill="#ecae00"/>
      </g>
      <g id="Grupo_3152" data-name="Grupo 3152" transform="translate(115.651 159.508)">
        <path id="Trazado_8001" data-name="Trazado 8001" d="M57.384,47,36.969,58.861a30.483,30.483,0,0,0,4.281-3.02L61.665,43.976A30.485,30.485,0,0,1,57.384,47Z" transform="translate(-36.969 -43.976)" fill="#ff5766"/>
      </g>
      <g id="Grupo_3153" data-name="Grupo 3153" transform="translate(45.125 94.145)">
        <path id="Trazado_8002" data-name="Trazado 8002" d="M99.72,66.351,79.3,78.215A31.461,31.461,0,0,1,64.8,82.9c-4.724.146-10.369-1.658-16.965-5.466q-20.02-11.559-29.867-39.2L38.382,26.365q9.832,27.6,29.868,39.2c6.6,3.808,12.241,5.613,16.965,5.467a31.462,31.462,0,0,0,14.5-4.685Z" transform="translate(-17.967 -26.365)" fill="#ffec8c"/>
      </g>
      <g id="Grupo_3154" data-name="Grupo 3154" transform="translate(87.322 100.338)">
        <path id="Trazado_8003" data-name="Trazado 8003" d="M29.388,39.9,49.8,28.034,49.752,46.2,29.337,58.068Z" transform="translate(-29.337 -28.034)" fill="#ecae00"/>
      </g>
      <g id="Grupo_3155" data-name="Grupo 3155" transform="translate(40.214 73.111)">
        <path id="Trazado_8004" data-name="Trazado 8004" d="M16.644,32.562,37.06,20.7l47.16,27.228L63.8,59.79Z" transform="translate(-16.644 -20.698)" fill="#ffec8c"/>
      </g>
      <g id="Grupo_3156" data-name="Grupo 3156" transform="translate(106.945 133.846)">
        <path id="Trazado_8005" data-name="Trazado 8005" d="M34.623,48.926,55.039,37.062,68.026,62.724,47.611,74.588Z" transform="translate(-34.623 -37.062)" fill="#ecae00"/>
      </g>
      <g id="Grupo_3157" data-name="Grupo 3157" transform="translate(43.798 30.501)">
        <path id="Trazado_8006" data-name="Trazado 8006" d="M25.213,21.082,45.628,9.218a19.227,19.227,0,0,0-7.6,8.99L17.61,30.072A19.227,19.227,0,0,1,25.213,21.082Z" transform="translate(-17.61 -9.218)" fill="#ecae00"/>
      </g>
      <g id="Grupo_3158" data-name="Grupo 3158" transform="translate(87.423 64.708)">
        <path id="Trazado_8007" data-name="Trazado 8007" d="M29.415,30.3,49.831,18.434l-.052,18.134L29.364,48.432Z" transform="translate(-29.364 -18.434)" fill="#ecae00"/>
      </g>
      <g id="Grupo_3159" data-name="Grupo 3159" transform="translate(43.798 39.491)">
        <path id="Trazado_8008" data-name="Trazado 8008" d="M17.61,23.5,38.025,11.64,81.7,36.857,61.286,48.721Z" transform="translate(-17.61 -11.64)" fill="#ffec8c"/>
      </g>
      <g id="Grupo_3160" data-name="Grupo 3160" transform="translate(34.698)">
        <path id="Trazado_8009" data-name="Trazado 8009" d="M15.158,16.954,35.573,5.09a29.678,29.678,0,0,1,6.09-2.665Q57.145-2.366,76.748,8.952L56.333,20.816Q36.729,9.5,21.248,14.289a29.66,29.66,0,0,0-6.09,2.665Z" transform="translate(-15.158 -1)" fill="#ffec8c"/>
      </g>
      <g id="Grupo_3161" data-name="Grupo 3161" transform="translate(108.978 58.907)">
        <path id="Trazado_8010" data-name="Trazado 8010" d="M48.232,28.735,68.648,16.871,55.586,28.346,35.171,40.21Z" transform="translate(-35.171 -16.871)" fill="#ecae00"/>
      </g>
      <g id="Grupo_3162" data-name="Grupo 3162" transform="translate(0 11.864)">
        <path id="Trazado_8011" data-name="Trazado 8011" d="M81.682,12.149Q110.856,28.992,127.848,63.1L114.787,74.578q-8.063-14.606-15.28-22.764a71.346,71.346,0,0,0-17.9-14.341q-10.634-6.14-19.19-4.658-8.525,1.517-12.813,10.873L93.284,68.9l-.052,18.134L45.7,59.6c-.128,1.629-.2,4.144-.207,7.615a90.2,90.2,0,0,0,.527,10.1l47.16,27.228L93.132,122.7l-42.2-24.363q9.832,27.6,29.867,39.2c6.6,3.808,12.241,5.613,16.965,5.466q7.086-.272,14.988-4.969L125.741,163.7q-17.13,14.376-45.009-1.72-19.095-11.024-33.839-32.1a139.394,139.394,0,0,1-21.08-46.05l-20-11.55.052-18.169,16.49,9.521c-.33-3.56-.536-7.05-.526-10.415s.078-5.808.237-7.278L5.91,36.623l.052-18.134L25.041,29.5Q31.162,10.475,46.6,5.621,62.078.83,81.682,12.149Z" transform="translate(-5.809 -4.196)" fill="#ffda1a"/>
      </g>
      <g id="Grupo_3163" data-name="Grupo 3163" transform="translate(75.873 7.952)">
        <path id="Trazado_8012" data-name="Trazado 8012" d="M26.252,15.006,46.667,3.142Q75.841,19.986,92.833,54.1L72.418,65.962Q55.472,31.912,26.252,15.006Z" transform="translate(-26.252 -3.142)" fill="#ffec8c"/>
      </g>
    </g>
  </g>
</svg>
