<svg id="_007-simbolo-del-yen" data-name="007-simbolo-del-yen" xmlns="http://www.w3.org/2000/svg" width="122.774" height="178.154" viewBox="0 0 122.774 178.154">
  <g id="Grupo_3243" data-name="Grupo 3243" transform="translate(0 0)">
    <g id="Grupo_3228" data-name="Grupo 3228" transform="translate(10.792 98.732)">
      <path id="Trazado_8070" data-name="Trazado 8070" d="M11.368,36.811,27.215,27.6l31.368,18.11L42.736,54.921Z" transform="translate(-11.368 -27.601)" fill="#ffec8c"/>
    </g>
    <g id="Grupo_3229" data-name="Grupo 3229" transform="translate(62.67 145.438)">
      <path id="Trazado_8071" data-name="Trazado 8071" d="M25.413,49.395,41.26,40.185l-.067,23.507L25.346,72.9Z" transform="translate(-25.346 -40.185)" fill="#ecae00"/>
    </g>
    <g id="Grupo_3230" data-name="Grupo 3230" transform="translate(10.872 70.662)">
      <path id="Trazado_8072" data-name="Trazado 8072" d="M11.39,29.248l15.847-9.209L49.369,32.816,33.522,42.025Z" transform="translate(-11.39 -20.038)" fill="#ffec8c"/>
    </g>
    <g id="Grupo_3231" data-name="Grupo 3231" transform="translate(62.952 118.619)">
      <path id="Trazado_8073" data-name="Trazado 8073" d="M25.451,42.169,41.3,32.959l-.029,10.228L25.422,52.4Z" transform="translate(-25.422 -32.959)" fill="#ecae00"/>
    </g>
    <g id="Grupo_3232" data-name="Grupo 3232" transform="translate(62.981 117.741)">
      <path id="Trazado_8074" data-name="Trazado 8074" d="M25.429,41.674l16.329-8.951-.482.879L25.429,42.974Z" transform="translate(-25.429 -32.723)" fill="#ecae00"/>
    </g>
    <g id="Grupo_3233" data-name="Grupo 3233" transform="translate(52.298 91.164)">
      <path id="Trazado_8075" data-name="Trazado 8075" d="M22.551,34.772l1.172-1.119L38.4,25.562l1.172.677L23.724,35.449Z" transform="translate(-22.551 -25.562)" fill="#ffec8c"/>
    </g>
    <g id="Grupo_3234" data-name="Grupo 3234" transform="translate(62.952 128.847)">
      <path id="Trazado_8076" data-name="Trazado 8076" d="M25.422,44.925l15.847-9.209,31.008,17.9L56.43,62.827Z" transform="translate(-25.422 -35.715)" fill="#ffec8c"/>
    </g>
    <g id="Grupo_3235" data-name="Grupo 3235" transform="translate(93.913 146.749)">
      <path id="Trazado_8077" data-name="Trazado 8077" d="M33.811,49.748l15.847-9.209-.047,16.689L33.764,66.437Z" transform="translate(-33.764 -40.539)" fill="#ecae00"/>
    </g>
    <g id="Grupo_3236" data-name="Grupo 3236" transform="translate(21.295 12.294)">
      <path id="Trazado_8078" data-name="Trazado 8078" d="M14.2,13.522,30.045,4.313l31,78.87L45.2,92.392Z" transform="translate(-14.198 -4.313)" fill="#ffec8c"/>
    </g>
    <g id="Grupo_3237" data-name="Grupo 3237">
      <path id="Trazado_8079" data-name="Trazado 8079" d="M8.46,10.209,24.308,1,45.6,13.294,29.755,22.5Z" transform="translate(-8.46 -1)" fill="#ffec8c"/>
    </g>
    <g id="Grupo_3238" data-name="Grupo 3238" transform="translate(72.434 106.205)">
      <path id="Trazado_8080" data-name="Trazado 8080" d="M27.977,38.824l15.847-9.209L65.429,42.088,49.582,51.3Z" transform="translate(-27.977 -29.615)" fill="#ffec8c"/>
    </g>
    <g id="Grupo_3239" data-name="Grupo 3239" transform="translate(93.993 118.679)">
      <path id="Trazado_8081" data-name="Trazado 8081" d="M33.832,42.185,49.68,32.975l-.048,16.689L33.785,58.874Z" transform="translate(-33.785 -32.975)" fill="#ecae00"/>
    </g>
    <g id="Grupo_3240" data-name="Grupo 3240" transform="translate(0 9.209)">
      <path id="Trazado_8082" data-name="Trazado 8082" d="M115.387,65.216l-34.492,44.47L102.5,122.16l-.047,16.689-30.53-17.626-.482.879-.029,10.228,31.008,17.9-.047,16.689-31.176-18-.067,23.507L50.506,160.519l.066-23.507L19.205,118.9l.047-16.688,31.368,18.11.029-10.228-.667-1.541-30.7-17.723.048-16.688L41.464,86.921,8.46,3.481,29.755,15.776l31,78.87,1.172.677L94.452,53.129Z" transform="translate(-8.46 -3.481)" fill="#ffda1a"/>
    </g>
    <g id="Grupo_3241" data-name="Grupo 3241" transform="translate(72.434 61.735)">
      <path id="Trazado_8083" data-name="Trazado 8083" d="M62.469,26.843l15.847-9.209L43.824,62.1,27.977,71.313Z" transform="translate(-27.977 -17.633)" fill="#ecae00"/>
    </g>
    <g id="Grupo_3242" data-name="Grupo 3242" transform="translate(85.991 49.647)">
      <path id="Trazado_8084" data-name="Trazado 8084" d="M31.629,23.586l15.848-9.209L68.412,26.464,52.565,35.673Z" transform="translate(-31.629 -14.376)" fill="#ffec8c"/>
    </g>
  </g>
</svg>
