<svg xmlns="http://www.w3.org/2000/svg" width="261.998" height="285.422" viewBox="0 0 261.998 285.422">
  <g id="Grupo_3046" data-name="Grupo 3046" transform="translate(-829.355 -1903.273)">
    <g id="Grupo_3044" data-name="Grupo 3044" transform="matrix(0.848, -0.53, 0.53, 0.848, 689.721, 1946.836)">
      <g id="Grupo_3043" data-name="Grupo 3043" transform="translate(96.519 110.255)">
        <g id="Grupo_3042" data-name="Grupo 3042">
          <g id="Grupo_3041" data-name="Grupo 3041">
            <path id="Trazado_7851" data-name="Trazado 7851" d="M245.7,334.743l-99.911,8.274c-2.875.239-5.732-2.155-6.381-5.347L97.624,128.247c-.656-4.46,1.513-10.854,13.117-11.412l98.467-8.108c2.875-.239,5.732,2.156,6.381,5.347l42.72,210.832C258.935,327.717,254.615,334.518,245.7,334.743Z" transform="translate(-97.519 -108.604)" stroke="#fff" stroke-linecap="round" stroke-linejoin="round" stroke-width="1"/>
            <path id="Trazado_7852" data-name="Trazado 7852" d="M254.873,330.928l-99.91,8.274c-2.876.238-5.733-2.156-6.381-5.348l-42.5-209.1c-.648-3.192,1.157-5.972,4.033-6.209l99.91-8.274c2.876-.238,5.733,2.156,6.382,5.347l42.5,209.1C259.554,327.909,257.749,330.69,254.873,330.928Z" transform="translate(-98.218 -110.255)" fill="none" stroke="#fff" stroke-linecap="round" stroke-linejoin="round" stroke-width="1"/>
            <path id="Trazado_7853" data-name="Trazado 7853" d="M181.129,129.94,167.4,131.077a1.743,1.743,0,0,1-1.727-1.446h0a1.312,1.312,0,0,1,1.09-1.68l13.734-1.138a1.745,1.745,0,0,1,1.727,1.447h0A1.313,1.313,0,0,1,181.129,129.94Z" transform="translate(-108.972 -113.238)"/>
            <path id="Trazado_7854" data-name="Trazado 7854" d="M245.212,314.932l-84.029,6.959a7.108,7.108,0,0,1-7.552-5.668L118.117,141.487a6.026,6.026,0,0,1,5.409-7.207l13.817-1.144a6.257,6.257,0,0,1,4.125,1.124l1.192.842a5.282,5.282,0,0,0,3.456,1.015l40.318-3.339a4.213,4.213,0,0,0,3.01-1.654l.164-.216a6.3,6.3,0,0,1,4.5-2.473l12.843-1.064a7,7,0,0,1,7.432,5.578l35.675,175.525A5.4,5.4,0,0,1,245.212,314.932Z" transform="translate(-100.388 -113.335)" fill="#ffda1a" stroke="#000" stroke-linecap="round" stroke-linejoin="round" stroke-width="1"/>
            <path id="Trazado_7855" data-name="Trazado 7855" d="M225.992,366.659a2.71,2.71,0,0,0-2.684-2.25,2.041,2.041,0,0,0-1.7,2.612,2.711,2.711,0,0,0,2.684,2.25A2.04,2.04,0,0,0,225.992,366.659Z" transform="translate(-119.048 -156.047)"/>
          </g>
        </g>
      </g>
      <path id="Trazado_7856" data-name="Trazado 7856" d="M169.089,340.468l-2.173-11.1a5.029,5.029,0,0,1,4.467-5.974l67.7-6.328a5.03,5.03,0,0,1,5.411,4.075l2.039,10.813a5.029,5.029,0,0,1-4.452,5.937l-67.568,6.613A5.03,5.03,0,0,1,169.089,340.468Z" transform="translate(-10.208 -36.44)"/>
      <path id="Trazado_7857" data-name="Trazado 7857" d="M147.894,231.731l-2.173-11.1a5.029,5.029,0,0,1,4.467-5.974l67.7-6.328a5.03,5.03,0,0,1,5.411,4.075l2.039,10.812a5.029,5.029,0,0,1-4.452,5.938L153.32,235.77A5.03,5.03,0,0,1,147.894,231.731Z" transform="translate(-8.848 -17.667)" fill="#fff" stroke="#000" stroke-miterlimit="10" stroke-width="1"/>
      <path id="Trazado_7858" data-name="Trazado 7858" d="M140.507,197.974l-2.174-11.1A5.029,5.029,0,0,1,142.8,180.9l67.7-6.328a5.029,5.029,0,0,1,5.41,4.075l2.039,10.813A5.029,5.029,0,0,1,213.5,195.4l-67.569,6.614A5.028,5.028,0,0,1,140.507,197.974Z" transform="translate(-7.517 -11.585)" fill="#fff" stroke="#000" stroke-miterlimit="10" stroke-width="1"/>
      <path id="Trazado_7859" data-name="Trazado 7859" d="M205.837,208.51l-2.173-11.1a5.029,5.029,0,0,1,4.467-5.974l10.782-.9a5.029,5.029,0,0,1,5.41,4.075l2.04,10.813a5.03,5.03,0,0,1-4.452,5.937l-10.648,1.185A5.029,5.029,0,0,1,205.837,208.51Z" transform="translate(-19.288 -14.461)" fill="#fff" stroke="#000" stroke-miterlimit="10" stroke-width="1"/>
    </g>
    <g id="objects-exchange" transform="matrix(0.966, -0.259, 0.259, 0.966, 846.702, 1975.226)">
      <path id="Trazado_7861" data-name="Trazado 7861" d="M16.929,162.738q1.564.863,3.243,1.622l-1.823.527a2.662,2.662,0,0,0-1.815,3.3A2.723,2.723,0,0,0,19.83,170l8.835-2.559a2.653,2.653,0,0,0,1.815-3.3l-2.557-8.839a2.724,2.724,0,0,0-3.294-1.816,2.665,2.665,0,0,0-1.815,3.3l.967,3.34A40.989,40.989,0,0,1,19.5,158.1C-1.486,146.535.274,121.672.3,121.42a2.665,2.665,0,0,0-1.368-2.55,2.629,2.629,0,0,0-1.065-.322,2.665,2.665,0,0,0-2.869,2.429C-5.032,121.261-7.021,149.543,16.929,162.738Z" transform="translate(0)" fill="none" stroke="#fff" stroke-width="1"/>
    </g>
    <g id="objects-exchange-2" data-name="objects-exchange" transform="matrix(-0.966, 0.259, -0.259, -0.966, 1077.066, 2122.418)">
      <path id="Trazado_7861-2" data-name="Trazado 7861" d="M16.929,162.738q1.564.863,3.243,1.622l-1.823.527a2.662,2.662,0,0,0-1.815,3.3A2.723,2.723,0,0,0,19.83,170l8.835-2.559a2.653,2.653,0,0,0,1.815-3.3l-2.557-8.839a2.724,2.724,0,0,0-3.294-1.816,2.665,2.665,0,0,0-1.815,3.3l.967,3.34A40.989,40.989,0,0,1,19.5,158.1C-1.486,146.535.274,121.672.3,121.42a2.665,2.665,0,0,0-1.368-2.55,2.629,2.629,0,0,0-1.065-.322,2.665,2.665,0,0,0-2.869,2.429C-5.032,121.261-7.021,149.543,16.929,162.738Z" transform="translate(0)" fill="none" stroke="#fff" stroke-width="1"/>
    </g>
  </g>
</svg>
