<svg xmlns="http://www.w3.org/2000/svg" width="261.202" height="278.901" viewBox="0 0 261.202 278.901">
  <g id="Grupo_3082" data-name="Grupo 3082" transform="translate(-1306.211 -1903.286)">
    <g id="Grupo_3081" data-name="Grupo 3081">
      <g id="Grupo_2979" data-name="Grupo 2979" transform="translate(1485.964 1988.467)">
        <g id="Grupo_2976" data-name="Grupo 2976">
          <path id="Trazado_7820" data-name="Trazado 7820" d="M335.365,179.349a40.345,40.345,0,0,1-31.257,39.3c-.043.014-.073.014-.118.03-1.058.234-2.117.441-3.2.6a41.422,41.422,0,0,1-5.763.411,40.34,40.34,0,0,1-1.484-80.653c.367-.03.749-.03,1.131-.03a2.893,2.893,0,0,1,.353-.014,3.913,3.913,0,0,1,.411.014,39.721,39.721,0,0,1,15.805,3.4A40.341,40.341,0,0,1,335.365,179.349Z" transform="translate(-254.667 -138.993)" fill="none" stroke="#fff" stroke-width="1.5"/>
          <path id="Trazado_7822" data-name="Trazado 7822" d="M335.365,179.349a40.349,40.349,0,1,1-41.826-40.312c.484-.03.984-.044,1.484-.044A40.354,40.354,0,0,1,335.365,179.349Z" transform="translate(-254.667 -138.993)" fill="none" stroke="#fff" stroke-linecap="round" stroke-linejoin="round" stroke-width="1.5"/>
          <path id="Trazado_7823" data-name="Trazado 7823" d="M334.616,179.349a40.346,40.346,0,0,1-31.375,39.328c-.484.029-.984.043-1.484.043a40.347,40.347,0,0,1-8.967-79.683c.484-.03.984-.044,1.484-.044A40.354,40.354,0,0,1,334.616,179.349Z" transform="translate(-253.918 -138.993)" fill="none" stroke="#fff" stroke-linecap="round" stroke-linejoin="round" stroke-width="1.5"/>
          <g id="Grupo_2975" data-name="Grupo 2975" transform="translate(28.261 9.436)">
            <path id="Trazado_7824" data-name="Trazado 7824" d="M306.1,203.655l1.046,4.261-6.973,1.71-1.046-4.261c-6.25-.027-11.262-4.055-12.858-10.563l-.473-1.937,7.692-2.791.494,2.014c.969,3.952,3.572,5.859,6.826,5.061s4.774-3.307,4-6.484c-.931-3.794-5.293-6.175-10.333-8.635-5.965-2.89-12.12-6.555-13.812-13.45-1.652-6.741.422-12.343,5.738-15.124l-1.045-4.261,6.972-1.71,1.046,4.261c6.055-.09,10.565,3.9,12.256,10.792l.342,1.394-7.693,2.79-.38-1.549c-1.027-4.184-3.187-5.954-6.052-5.251s-4.057,2.883-3.22,6.293c.93,3.8,5.351,6.08,10.331,8.635,5.909,2.989,12.122,6.558,13.814,13.452C314.38,194.888,311.722,200.8,306.1,203.655Z" transform="translate(-280.103 -147.486)" fill="none" stroke="#fff" stroke-miterlimit="10" stroke-width="1.5"/>
            <path id="Trazado_7825" data-name="Trazado 7825" d="M306.1,203.655l1.046,4.261-6.973,1.71-1.046-4.261c-6.25-.027-11.262-4.055-12.858-10.563l-.473-1.937,7.692-2.791.494,2.014c.969,3.952,3.572,5.859,6.826,5.061s4.774-3.307,4-6.484c-.931-3.794-5.293-6.175-10.333-8.635-5.965-2.89-12.12-6.555-13.812-13.45-1.652-6.741.422-12.343,5.738-15.124l-1.045-4.261,6.972-1.71,1.046,4.261c6.055-.09,10.565,3.9,12.256,10.792l.342,1.394-7.693,2.79-.38-1.549c-1.027-4.184-3.187-5.954-6.052-5.251s-4.057,2.883-3.22,6.293c.93,3.8,5.351,6.08,10.331,8.635,5.909,2.989,12.122,6.558,13.814,13.452C314.38,194.888,311.722,200.8,306.1,203.655Z" transform="translate(-280.103 -147.486)" fill="none" stroke="#fff" stroke-width="1.5" opacity="0.3"/>
          </g>
          <line id="Línea_80" data-name="Línea 80" y1="0.391" x2="8.523" transform="translate(19.738 74.647)" fill="none" stroke="#fff" stroke-linecap="round" stroke-linejoin="round" stroke-width="1.5"/>
          <line id="Línea_81" data-name="Línea 81" y1="0.631" x2="7.439" transform="translate(15.636 71.577)" fill="none" stroke="#fff" stroke-linecap="round" stroke-linejoin="round" stroke-width="1.5"/>
          <line id="Línea_82" data-name="Línea 82" y1="0.631" x2="7.439" transform="translate(12.299 68.585)" fill="none" stroke="#fff" stroke-linecap="round" stroke-linejoin="round" stroke-width="1.5"/>
          <line id="Línea_83" data-name="Línea 83" x2="6.369" transform="translate(11.282 12.373)" fill="none" stroke="#fff" stroke-linecap="round" stroke-linejoin="round" stroke-width="1.5"/>
          <line id="Línea_84" data-name="Línea 84" y1="0.288" x2="6.341" transform="translate(14.428 9.148)" fill="none" stroke="#fff" stroke-linecap="round" stroke-linejoin="round" stroke-width="1.5"/>
          <line id="Línea_85" data-name="Línea 85" y1="0.631" x2="6.692" transform="translate(18.398 5.868)" fill="none" stroke="#fff" stroke-linecap="round" stroke-linejoin="round" stroke-width="1.5"/>
        </g>
      </g>
      <g id="Grupo_3067" data-name="Grupo 3067" transform="translate(1383.875 2066.156) rotate(-124)">
        <rect id="Rectángulo_2160" data-name="Rectángulo 2160" width="65.275" height="33.954" transform="translate(0 27.175) rotate(-24.602)" fill="none" stroke="#fff" stroke-miterlimit="10" stroke-width="1.2"/>
        <path id="Trazado_6603" data-name="Trazado 6603" d="M414.049,125.479l-8.982-19.614a3.48,3.48,0,0,1-4.613-1.715l-47.97,21.964a3.481,3.481,0,0,1-1.716,4.614l8.982,19.615a3.48,3.48,0,0,1,4.614,1.715l47.97-21.965A3.48,3.48,0,0,1,414.049,125.479Z" transform="translate(-345.667 -99.081)" fill="none" stroke="#fff" stroke-miterlimit="10" stroke-width="1.2"/>
        <circle id="Elipse_132" data-name="Elipse 132" cx="8.924" cy="8.924" r="8.924" transform="matrix(0.793, -0.609, 0.609, 0.793, 24.23, 27.383)" fill="none" stroke="#fff" stroke-miterlimit="10" stroke-width="1.2"/>
        <g id="Grupo_2345" data-name="Grupo 2345" transform="translate(32.471 22.901)">
          <path id="Trazado_6604" data-name="Trazado 6604" d="M384.155,132l.667,1.457-.634.29-.661-1.445a5.226,5.226,0,0,1-3.558.234l.037-.891a4.751,4.751,0,0,0,3.15-.154l-1.527-3.333c-1.551.3-3.167.516-3.934-1.158-.557-1.217-.164-2.67,1.706-3.71l-.667-1.457.634-.29.661,1.445a5.466,5.466,0,0,1,2.932-.392l.026.892a5.178,5.178,0,0,0-2.592.3l1.538,3.359c1.588-.313,3.283-.6,4.06,1.1C386.557,129.473,386.119,130.961,384.155,132Zm-2.931-4.729-1.451-3.169c-1.253.713-1.529,1.651-1.164,2.449C379.05,127.513,380.062,127.478,381.224,127.269Zm3.867,1.449c-.458-1-1.54-.92-2.752-.687l1.451,3.168C385.138,130.46,385.462,129.529,385.091,128.718Z" transform="translate(-377.463 -121.542)" fill="none"/>
        </g>
      </g>
      <g id="Grupo_3068" data-name="Grupo 3068" transform="translate(1368.646 1993.67) rotate(-169)">
        <rect id="Rectángulo_2160-2" data-name="Rectángulo 2160" width="51.86" height="26.976" transform="translate(0 21.59) rotate(-24.602)" fill="none" stroke="#fff" stroke-miterlimit="10" stroke-width="1.2"/>
        <path id="Trazado_6603-2" data-name="Trazado 6603" d="M401.044,121.1l-7.136-15.583a2.765,2.765,0,0,1-3.665-1.363L352.133,121.6a2.766,2.766,0,0,1-1.364,3.666L357.9,140.85a2.765,2.765,0,0,1,3.666,1.363l38.111-17.451A2.765,2.765,0,0,1,401.044,121.1Z" transform="translate(-346.715 -100.122)" fill="none" stroke="#fff" stroke-miterlimit="10" stroke-width="1.2"/>
        <circle id="Elipse_132-2" data-name="Elipse 132" cx="7.09" cy="7.09" r="7.09" transform="matrix(0.793, -0.609, 0.609, 0.793, 19.25, 21.756)" fill="none" stroke="#fff" stroke-miterlimit="10" stroke-width="1.2"/>
        <g id="Grupo_2345-2" data-name="Grupo 2345" transform="translate(25.798 18.195)">
          <path id="Trazado_6604-2" data-name="Trazado 6604" d="M382.78,129.849l.53,1.158-.5.231-.525-1.148a4.152,4.152,0,0,1-2.827.186l.029-.708a3.774,3.774,0,0,0,2.5-.122l-1.213-2.648c-1.233.235-2.516.41-3.126-.92-.442-.967-.13-2.121,1.355-2.947l-.53-1.158.5-.231.525,1.148a4.343,4.343,0,0,1,2.33-.311l.02.709a4.114,4.114,0,0,0-2.059.236l1.222,2.669c1.262-.248,2.608-.475,3.226.874C384.688,127.843,384.34,129.026,382.78,129.849Zm-2.329-3.757-1.153-2.518c-1,.566-1.215,1.311-.924,1.946C378.724,126.286,379.528,126.258,380.451,126.092Zm3.073,1.151c-.364-.8-1.224-.731-2.186-.546l1.153,2.517C383.56,128.627,383.818,127.888,383.524,127.243Z" transform="translate(-377.463 -121.542)" fill="none"/>
        </g>
      </g>
      <g id="Grupo_3066" data-name="Grupo 3066" transform="translate(1113.937 1736.887)">
        <g id="Grupo_3057" data-name="Grupo 3057" transform="translate(315.535 166.911)">
          <path id="Trazado_7873" data-name="Trazado 7873" d="M254.135,230.842s-.416-10.818-.416-22.051,5.825-13.731,9.57-13.731a25.12,25.12,0,0,1,5.408.416s2.082-17.892,15.4-20.8,23.3,7.906,27.876,4.161-10.816-3.329-4.159-8.739,25.8-5.824,27.876,14.147-11.649,29.125-18.306,30.79-15.81-10.4-24.549-9.986-7.49,10.4-12.9,14.561-9.569,2.082-9.569,7.49-2.5,8.323-9.153,8.739S254.135,230.842,254.135,230.842Z" transform="translate(-253.719 -166.911)" stroke="#fff" stroke-linecap="round" stroke-linejoin="round" stroke-width="1"/>
          <path id="Trazado_7874" data-name="Trazado 7874" d="M284.431,193.19s6.475,2.989,14.945-2.49,2.989-17.934,1.494-18.432" transform="translate(-222.362 -161.439)" fill="none" stroke="#fff" stroke-linecap="round" stroke-linejoin="round" stroke-width="1"/>
          <path id="Trazado_7875" data-name="Trazado 7875" d="M265.7,187.44s2.989-12.951,13.45-12.453,8.967,9.964,17.934,12.953" transform="translate(-241.488 -158.679)" fill="none" stroke="#fff" stroke-linecap="round" stroke-linejoin="round" stroke-width="1"/>
          <path id="Trazado_7876" data-name="Trazado 7876" d="M271.787,187.623s-5.97-6.132-11.449-4.636-2.989,10.958-2.492,13.947-3.486,11.457-3.486,11.457" transform="translate(-253.065 -150.737)" fill="none" stroke="#fff" stroke-linecap="round" stroke-linejoin="round" stroke-width="1"/>
        </g>
        <g id="Grupo_3060" data-name="Grupo 3060" transform="translate(193.175 236.429)">
          <path id="Trazado_7877" data-name="Trazado 7877" d="M193.465,202.813l15.046,53.665,24.074-1-14.043-54.166Z" transform="translate(-192.878 -201.308)" fill="#ffda1a" stroke="#000" stroke-linecap="round" stroke-linejoin="round" stroke-width="1"/>
          <g id="Grupo_3059" data-name="Grupo 3059" transform="translate(0 17.806)">
            <g id="Grupo_3058" data-name="Grupo 3058">
              <path id="Trazado_7878" data-name="Trazado 7878" d="M233.383,294.124l-6.52,3.513s-8.025-25.077-11.536-34.608-4.513-13.541-4.513-13.541l.166-.1a9.255,9.255,0,0,0,4.365-10.024l-1.148-5.105s1.609,3.6,4.935,1.409c1.673-1.1-.109-12.2-2.116-16.21s-8.711-1.067-10.717-.065a18.79,18.79,0,0,0-4.012,3.009l-1.506-6.019s7.524-.5,9.028-.5,7.023-5.016,4.515-5.517-16.552-.5-20.062,2.508.178,15.224,1.181,17.732,6.257,27.215,8.264,34.236,4.057,39.595,10.491,55.19,13.277,10.515,17.336,7.885c7.317-4.739,17.328-14.083,17.328-14.083Z" transform="translate(-193.175 -210.119)" fill="#fff" stroke="#000" stroke-linecap="round" stroke-linejoin="round" stroke-width="1"/>
              <path id="Trazado_7879" data-name="Trazado 7879" d="M198.52,220.477s7.049-5.992,13.393-4.582" transform="translate(-187.717 -204.441)" fill="none" stroke="#000" stroke-linecap="round" stroke-linejoin="round" stroke-width="1"/>
              <path id="Trazado_7880" data-name="Trazado 7880" d="M199.566,223.519s4.935-5.285,11.631-4.933" transform="translate(-186.649 -201.492)" fill="none" stroke="#000" stroke-linecap="round" stroke-linejoin="round" stroke-width="1"/>
            </g>
            <path id="Trazado_7881" data-name="Trazado 7881" d="M272.278,219.74c-7.689,4.445-18.071,16.409-18.071,16.409l-35.244,37.169a89.141,89.141,0,0,0-6.52,8.258c-2.2,3.4-.987,2.568,1.12,10.742s7.307,21.952,7.307,21.952,1.576,4.945,4.493,4.848,2.192.27,8.4-4.8S250.2,298.84,250.2,298.84s15.046-29.088,19.058-47.645c3.073-14.214,18.934-28.323,15.71-32.827C284.225,217.315,279.967,215.294,272.278,219.74Z" transform="translate(-173.875 -200.29)" fill="#ffda1a" stroke="#000" stroke-linecap="round" stroke-linejoin="round" stroke-width="1"/>
          </g>
        </g>
        <path id="Trazado_7882" data-name="Trazado 7882" d="M355.351,230.974s-33.707-3.469-50.35-5.965-21.366-17.134-37.593,5.022-14.585,57.417-27.314,83.6c-16.849,34.662-28.454,53.029-28.454,53.029a67.961,67.961,0,0,1,36.7-3.383c20.8,3.745,31.833,36.182,53.177,25.851s15.556-33.472,32.2-67.174,25.38-84.048,25.38-86.96S355.351,230.974,355.351,230.974Z" transform="translate(18.854 53.682)" fill="#ffda1a" stroke="#000" stroke-linecap="round" stroke-linejoin="round" stroke-width="1"/>
        <path id="Trazado_7883" data-name="Trazado 7883" d="M295.4,226.4c-10.04-.962-23.933-2.4-33.539-3.842-1.4-.21-2.809-.439-4.22-.673a66.612,66.612,0,0,0-3.684,17.316c-.833,12.065,6.241,25.38,11.649,25.38s22.053-22.468,25.8-28.708A31.706,31.706,0,0,0,295.4,226.4Z" transform="translate(61.993 56.131)" stroke="#000" stroke-linecap="round" stroke-linejoin="round" stroke-width="1"/>
        <path id="Trazado_7884" data-name="Trazado 7884" d="M265.354,210.691s-4.159,21.219-7.488,29.957.416,24.133,4.576,24.547,20.8-21.219,20.8-21.219l5.825-24.133S267.852,214.02,265.354,210.691Z" transform="translate(64.743 44.7)" fill="#fff" stroke="#000" stroke-linecap="round" stroke-linejoin="round" stroke-width="1"/>
        <g id="Grupo_3061" data-name="Grupo 3061" transform="translate(285.511 284.576)">
          <path id="Trazado_7885" data-name="Trazado 7885" d="M289.509,225.132a14.418,14.418,0,0,1,10.531,7.524c4.012,7.021,44.135,73.726,44.135,73.726L317.094,313.4l-37.617-33.6s-9.028-11.536,1-32.1" transform="translate(-201.205 -225.132)" fill="#ffda1a" stroke="#000" stroke-linecap="round" stroke-linejoin="round" stroke-width="1"/>
          <path id="Trazado_7886" data-name="Trazado 7886" d="M249,256.4s-9.6,8.591-10.109,10.614,5.055,10.109,6.571,10.616,2.023-4.045,1.517-6.068-1.517-5.053-1.517-5.053l5.561-6.571S253.049,257.411,249,256.4Z" transform="translate(-127.758 -271.958) rotate(20)" fill="#fff" stroke="#000" stroke-linecap="round" stroke-linejoin="round" stroke-width="1"/>
          <path id="Trazado_7887" data-name="Trazado 7887" d="M368.065,263.221a49.254,49.254,0,0,0-19.058-3.009c-10.533.5-32.6,6.019-46.643,6.52s-13.543,1-21.065-1-23.072-14.044-26.582-14.044-14.042,17.554-12.538,19.561,14.044,11.536,17.554,12.037,11.033-4.012,11.033-4.012,37.617,5.515,55.169,7.522,39.121,4.513,47.647-1S379.6,268.237,368.065,263.221Z" transform="translate(-235.627 -198.021)" fill="#fff" stroke="#000" stroke-linecap="round" stroke-linejoin="round" stroke-width="1"/>
          <line id="Línea_116" data-name="Línea 116" x1="9.529" y2="15.046" transform="translate(9.561 59.683)" fill="none" stroke="#000" stroke-linecap="round" stroke-linejoin="round" stroke-width="1"/>
          <line id="Línea_117" data-name="Línea 117" x1="11.034" y2="15.046" transform="translate(15.078 65.2)" fill="none" stroke="#000" stroke-linecap="round" stroke-linejoin="round" stroke-width="1"/>
          <line id="Línea_118" data-name="Línea 118" x1="9.529" y2="11.535" transform="translate(21.598 71.72)" fill="none" stroke="#000" stroke-linecap="round" stroke-linejoin="round" stroke-width="1"/>
          <path id="Trazado_7888" data-name="Trazado 7888" d="M259.291,267.108l-1-3.511-5.015,3.009" transform="translate(-224.151 -185.859)" fill="none" stroke="#000" stroke-linecap="round" stroke-linejoin="round" stroke-width="1"/>
        </g>
        <g id="Grupo_3062" data-name="Grupo 3062" transform="translate(308.01 192.978)">
          <path id="Trazado_7889" data-name="Trazado 7889" d="M287.522,197.986s4.159-2.914,4.992,4.992-2.08,13.314-4.161,14.563-4.576-.833-4.576-.833Z" transform="translate(-215.505 -161.786)" fill="#fff" stroke="#000" stroke-linecap="round" stroke-linejoin="round" stroke-width="1"/>
          <path id="Trazado_7890" data-name="Trazado 7890" d="M262.1,217.256s-6.657-8.737-10.4-1.247-.833,17.059,4.159,20.8,9.986-1.663,9.986-1.663,10.818,22.051,19.972,22.884,26.214-5.825,32.455-18.723,5.408-33.7,6.241-41.608-7.906-17.892-24.133-17.892-24.133,10.818-24.133,10.818,4.578,2.5,1.249,7.074-7.49,7.49-8.739,10.4,0,5.824-1.663,8.32S262.1,217.256,262.1,217.256Z" transform="translate(-249.996 -179.809)" fill="#fff" stroke="#000" stroke-linecap="round" stroke-linejoin="round" stroke-width="1"/>
          <path id="Trazado_7891" data-name="Trazado 7891" d="M276.685,194.059c-.362,2.332-1.532,4.089-2.615,3.921s-1.667-2.195-1.306-4.527,1.532-4.086,2.615-3.919S277.047,191.726,276.685,194.059Z" transform="translate(-226.858 -169.891)"/>
          <path id="Trazado_7892" data-name="Trazado 7892" d="M284.916,196.326c-.36,2.332-1.532,4.086-2.613,3.919s-1.669-2.195-1.308-4.527,1.532-4.086,2.615-3.919S285.278,193.993,284.916,196.326Z" transform="translate(-218.454 -167.579)"/>
          <path id="Trazado_7893" data-name="Trazado 7893" d="M270.584,188.832s5.188-6.105,11.9-2.747" transform="translate(-228.975 -174.431)" fill="none" stroke="#000" stroke-linecap="round" stroke-linejoin="round" stroke-width="1"/>
          <path id="Trazado_7894" data-name="Trazado 7894" d="M281.458,188.158s7.631-2.747,9.157,7.631" transform="translate(-217.872 -171.62)" fill="none" stroke="#000" stroke-linecap="round" stroke-linejoin="round" stroke-width="1"/>
          <path id="Trazado_7895" data-name="Trazado 7895" d="M283.19,191.919s-2.747,5.19-2.136,6.716,8.24,3.357,5.8,5.493-8.547,4.58-10.378,3.359" transform="translate(-222.961 -167.445)" fill="none" stroke="#000" stroke-linecap="round" stroke-linejoin="round" stroke-width="1"/>
          <path id="Trazado_7896" data-name="Trazado 7896" d="M268.469,200.075s2.138,7.326,11.906,8.852" transform="translate(-231.134 -159.117)" fill="none" stroke="#000" stroke-linecap="round" stroke-linejoin="round" stroke-width="1"/>
        </g>
      </g>
    </g>
  </g>
</svg>
