<svg xmlns="http://www.w3.org/2000/svg" width="612.719" height="602.878" viewBox="0 0 612.719 602.878">
  <g id="Grupo_3032" data-name="Grupo 3032" transform="translate(661.584 486.235) rotate(158)">
    <g id="Grupo_2697" data-name="Grupo 2697" transform="translate(152.695 365.647)">
      <path id="Trazado_7076" data-name="Trazado 7076" d="M74.224,49.67s-26.292-1.082-41.419,5.4S5.434,54.35,1.111,42.827s3.961-23.771,24.851-35.3,34.576-8.642,42.859.722S87.91,40.664,74.224,49.67Z" transform="translate(67.44 0)" fill="#fff" stroke="#000" stroke-linecap="round" stroke-miterlimit="10" stroke-width="1"/>
      <path id="Trazado_7077" data-name="Trazado 7077" d="M44.419,29.177s-15.343-1.337-19.591-1.337-5.949,3.4-8.5.851-9.348,4.249-9.348,4.249,1.7-6.8-5.1-12.748S6.13-3.6,44.375.647,44.419,29.177,44.419,29.177Z" transform="translate(88.175 11.761)" opacity="0.17"/>
      <path id="Trazado_7078" data-name="Trazado 7078" d="M34.586,34.8a25.032,25.032,0,0,1-15.846,4.68C9.016,39.117-.351,24.351.01,18.949.45,12.353,9.735,2.742,18.74.222S40.71,17.147,34.586,34.8Z" transform="translate(57.376 21.716)" fill="#ffda1a" stroke="#000" stroke-linecap="round" stroke-miterlimit="10" stroke-width="1"/>
      <path id="Trazado_7079" data-name="Trazado 7079" d="M13.362.857S4.359,6.259.756,14.9s6.485,23.05,12.967,23.05,10.083-6.124,7.2-12.245S14.083,9.5,15.522,6.259,15.882-2.024,13.362.857Z" transform="translate(5.848 58.176)" fill="#fff" stroke="#000" stroke-linecap="round" stroke-miterlimit="10" stroke-width="1"/>
      <path id="Trazado_7080" data-name="Trazado 7080" d="M62.436,24.6a120.4,120.4,0,0,0-5.13,12.708c-.16.449-.588,1.718-1.018,3.056l-.5,3.6-1.274,2.6c-3.242,12.6-7.565,14.044-12.606,14.044S33.623,53.056,29.3,51.255s-15.488,1.08-21.97-1.08S-2.032,32.888,1.568,24.244,16.7,6.6,28.94,3.354,45.508-.246,46.59.112,64.957,5.514,62.436,24.6Z" transform="translate(21.242 33.349)" fill="#fff" stroke="#000" stroke-linecap="round" stroke-miterlimit="10" stroke-width="1"/>
      <path id="Trazado_7081" data-name="Trazado 7081" d="M20.971,62.931,1.222,51.435a2.457,2.457,0,0,1-.635-3.717L40.461.866A2.458,2.458,0,0,1,43.728.434l16.9,11.653a2.461,2.461,0,0,1,.531,3.552L24.134,62.334A2.458,2.458,0,0,1,20.971,62.931Z" transform="translate(0 64.4)" fill="#ffda1a" stroke="#000" stroke-linecap="round" stroke-miterlimit="10" stroke-width="1"/>
      <path id="Trazado_7082" data-name="Trazado 7082" d="M20.011,14.768S9.206,6.124,2,12.248,8.485,32.416,20.011,32.777,34.416,5.763,34.057,0" transform="translate(43.139 74.518)" fill="#fff" stroke="#000" stroke-linecap="round" stroke-miterlimit="10" stroke-width="1"/>
      <path id="Trazado_7083" data-name="Trazado 7083" d="M17.193,1.1S3.148,8.3.625,15.862s2.881,26.65,10.807,28.813,9-5.044,8.281-11.165-2.521-10.8-1.438-15.487,7.2-8.642,7.2-13.686S19.355-.706,17.193,1.1Z" transform="translate(15.342 44.613)" fill="#fff" stroke="#000" stroke-linecap="round" stroke-miterlimit="10" stroke-width="1"/>
      <path id="Trazado_7084" data-name="Trazado 7084" d="M21.12,0S-2.031,4.242.144,22.8c.844,7.191,5.4,19.81,13.325,19.81s3.6-18.369,3.6-18.369,3.961,6.121,13.686-1.441" transform="translate(27.35 37.314)" fill="#fff" stroke="#000" stroke-linecap="round" stroke-miterlimit="10" stroke-width="1"/>
    </g>
    <g id="Grupo_2698" data-name="Grupo 2698" transform="translate(255.618 471.71)">
      <ellipse id="Elipse_145" data-name="Elipse 145" cx="79.202" cy="77.642" rx="79.202" ry="77.642" transform="translate(0 0)" fill="#fff" stroke="#000" stroke-linecap="round" stroke-miterlimit="10" stroke-width="1"/>
      <ellipse id="Elipse_146" data-name="Elipse 146" cx="63.585" cy="62.333" rx="63.585" ry="62.333" transform="translate(15.617 15.31)" opacity="0.08"/>
      <path id="Trazado_7085" data-name="Trazado 7085" d="M154.921,77.643A76.956,76.956,0,0,1,124.5,138.79c7.283-76.152-36.471-48.78-88.542-63.968C18.273,69.665,7.084,62.352,0,54.828,9.94,23.083,40.077,0,75.72,0,119.461,0,154.921,34.761,154.921,77.643Z" transform="translate(3.482 0)" fill="#d4d4d4" stroke="#000" stroke-linecap="round" stroke-miterlimit="10" stroke-width="1"/>
      <path id="Trazado_7086" data-name="Trazado 7086" d="M20.765,20.754a12.161,12.161,0,1,0-17.2.013A12.16,12.16,0,0,0,20.765,20.754Z" transform="translate(21.204 102.899)" fill="#fff" stroke="#000" stroke-linecap="round" stroke-miterlimit="10" stroke-width="1"/>
    </g>
    <g id="Grupo_2699" data-name="Grupo 2699" transform="translate(0 132.357)">
      <path id="Trazado_7087" data-name="Trazado 7087" d="M120.322,86.754S67.667,83.924,38.793,74.3,1.425,58.445.294,44.858-.272,17.682,32,7.49,98.807-.436,124.284,2.395s31.707,27.176,31.707,45.86S136.173,87.885,120.322,86.754Z" transform="translate(153.226 142.105)" fill="#fff" stroke="#000" stroke-linecap="round" stroke-miterlimit="10" stroke-width="1"/>
      <path id="Trazado_7088" data-name="Trazado 7088" d="M74.787,55.507l-6.8-20.4s-17,22.1-18.7,13.6,0-14.448-2.549-14.448-9.348,6.8-9.348,3.4-3.4-5.949-3.4-5.949-5.948,2.549-8.5,2.549H16.148c-3.4,0-11.9,5.951-11.9,5.951S0,35.11,0,31.711,1.7,6.216,10.2,2.817s45.891-3.4,56.088-1.7,26.345,1.7,27.2,9.348S81.585,64.856,74.787,55.507Z" transform="translate(191.761 146.001)" opacity="0.17"/>
      <path id="Trazado_7089" data-name="Trazado 7089" d="M0,2.267S22.666,0,41.932,0,84.995,1.133,84.995,1.133" transform="translate(193.062 163.723)" fill="none" stroke="#000" stroke-linecap="round" stroke-miterlimit="10" stroke-width="1"/>
      <path id="Trazado_7090" data-name="Trazado 7090" d="M115.123,30.157S102.667,7.511,97.006,2.416,74.358-.414,48.881,16,4.154,60.164.757,73.186,5.852,96.965,17.174,98.1s21.515-16.42,33.4-21.515a64.157,64.157,0,0,1,32.838-5.095C93.042,72.62,120.218,47.143,115.123,30.157Z" transform="translate(0 0)" fill="#fff" stroke="#000" stroke-linecap="round" stroke-miterlimit="10" stroke-width="1"/>
      <path id="Trazado_7091" data-name="Trazado 7091" d="M52.831,136.778s-24.691-25.222-36.581-50.7S-4.55,40.778,2.5,26.622C4.666,22.262,21.3,0,34.887,0S93.9,35.053,107.209,72.322c6.866,19.225,4.658,32.1,4.658,32.1S70.3,160.252,52.831,136.778Z" transform="translate(83.837 45.71)" fill="#fff" stroke="#000" stroke-linecap="round" stroke-miterlimit="10" stroke-width="1"/>
      <path id="Trazado_7092" data-name="Trazado 7092" d="M61.6,121.664s-19.548,17-16.148.849S54.8,90.218,51.4,81.721c-2.976-7.445-16.146-10.2-12.746-11.9s12.746,7.646-.851-4.251-17.846-11.9-17-17,1.7-5.1,2.551-7.649-6.8-12.748-11.048-20.4S-3.883,9.76,1.265,1.837s27.194,11.9,36.542,19.545,21.245,13.6,26.345,24.645S76.9,71.522,78.6,85.97C78.6,85.97,84.55,114.015,61.6,121.664Z" transform="translate(112.311 51.799)" opacity="0.17"/>
      <path id="Trazado_7093" data-name="Trazado 7093" d="M70.262,112.194s-4.533-30.6-13.6-44.2S37.4,52.132,31.73,43.065,21.53,24.933,13.6,20.4,0,0,0,0" transform="translate(116 49.263)" fill="none" stroke="#000" stroke-linecap="round" stroke-miterlimit="10" stroke-width="1"/>
      <path id="Trazado_7094" data-name="Trazado 7094" d="M68.7,41.482c-16.984,6.228-32.271,18.682-35.1,27.74-2.259,7.232-8.833,22.366-11.4,28.193a11.8,11.8,0,0,1-5.019.683C5.852,96.965-2.64,86.209.757,73.186S23.4,32.423,48.881,16,91.344-2.681,97.006,2.416c3.423,3.08,9.323,12.565,13.457,19.594C100.5,33.821,84.364,35.737,68.7,41.482Z" transform="translate(0 0)" fill="#fff" stroke="#000" stroke-linecap="round" stroke-miterlimit="10" stroke-width="1"/>
      <path id="Trazado_7095" data-name="Trazado 7095" d="M103.959,11.48c-5.931,9.3-19.271,13.213-33.564,18.676C51.144,37.518,22.837,60.73,20.57,76.584,18.939,88.006,13.5,93.822,10.581,96.193,2.849,92.381-1.936,83.506.755,73.186,4.153,60.164,23.4,32.423,48.88,16S91.343-2.681,97,2.416C98.831,4.06,101.365,7.531,103.959,11.48Z" transform="translate(0.002 0)" fill="#fff" stroke="#000" stroke-linecap="round" stroke-miterlimit="10" stroke-width="1"/>
      <path id="Trazado_7096" data-name="Trazado 7096" d="M.088,38.6S29.371,22.63,41.351,0c0,0,6.21,1.776,8.431,9.763S36.025,34.609,20.5,42.6-.8,47.032.088,38.6Z" transform="translate(74.71 31.511)" stroke="#000" stroke-linecap="round" stroke-miterlimit="10" stroke-width="1"/>
      <path id="Trazado_7097" data-name="Trazado 7097" d="M0,41.564S3.723,62.037,31.638,65.139,67,14.268,58.316,0C58.316,0,30.4,40.324,0,41.564Z" transform="translate(138.008 143.926)" stroke="#000" stroke-linecap="round" stroke-miterlimit="10" stroke-width="1"/>
    </g>
    <g id="Grupo_2702" data-name="Grupo 2702" transform="translate(265.621 254.702)">
      <g id="Grupo_2700" data-name="Grupo 2700" transform="translate(126.33 60.362)">
        <path id="Trazado_7098" data-name="Trazado 7098" d="M26.673,198.065s16.971,15.386,40.613,7.051S95.776,134.608,86.682,75,59.5.01,36.372,0,0,8.972,0,30.767,26.673,198.065,26.673,198.065Z" transform="translate(0 0)" fill="#fff" stroke="#000" stroke-linecap="round" stroke-miterlimit="10" stroke-width="1"/>
        <path id="Trazado_7099" data-name="Trazado 7099" d="M17.811,178.514s10.23,15,33.422,7.5S67.6,142.36,67.6,113.031,49.868,17.537,41,7.988,6.214-2.925.758,5.943,21.221,153.957,17.811,178.514Z" transform="translate(13.894 7.682)" opacity="0.17"/>
      </g>
      <g id="Grupo_2701" data-name="Grupo 2701" transform="translate(0 0)">
        <path id="Trazado_7100" data-name="Trazado 7100" d="M168.719,183.886c0,39.632-16.418,82.662-26.61,82.1,0,0-77.565-44.727-92.852-61.147-14.507-15.582-34.6-69.881-33.234-86.514-1.273-1.507-5.219-6.569-4.785-10.779C7.094,99.189,0,83.081,0,70.653,0,53.1,3.964,20.265,20.948,12.337S87.757-6.912,110.969,5.542c21.174,11.363,31.471,37.31,28.825,58.111a15.739,15.739,0,0,1,2.882,1.906c4.678,3.9,4.256,8.866,2.061,12.324C167.535,96.721,168.719,151.119,168.719,183.886Z" transform="translate(0 14.913)" fill="#fff" stroke="#000" stroke-linecap="round" stroke-miterlimit="10" stroke-width="1"/>
        <path id="Trazado_7101" data-name="Trazado 7101" d="M58.843,221.935s-10.2-14.448-3.4-30.594,26.345-28.045,15.3-39.094-10.2-15.3-5.1-16.146,7.648-3.4,0-4.251-17.846.851-11.048-3.4,21.248-4.251,12.748-6.8S17.2,124.2,19.749,119.1s2.549-5.951,23.8-11.9,32.294-1.7,27.194-6.8-20.4-3.4-19.546-5.949,5.1-5.949,5.1-5.949,3.4-.851-11.048-2.551S-5.745,102.108,3.6,95.308s21.248-10.2,22.948-13.6-.851-11.9-5.1-14.448S-8.3,34.969,2.753,13.724,55.443.127,67.34,8.624s22.1,33.994,24.645,44.193-4.249,13.6,0,14.446,6.8-1.7,5.949,4.251-5.949,10.2-5.949,13.6,3.4,3.4,10.2,9.348,9.348,7.648,9.348,14.446-.849,11.048,4.251,15.3,6.8,4.251,6.8,10.2-1.7,11.9,0,17.846,1.7,4.249,4.249,15.3,1.53,28.726-6.884,41.558S73.289,236.38,58.843,221.935Z" transform="translate(33.018 0)" opacity="0.17"/>
        <path id="Trazado_7102" data-name="Trazado 7102" d="M31.73,133.726s6.8-37.4-1.133-52.132S3.4,55.529,11.33,48.732,26.063,39.665,20.4,36.265,6.8,28.332,6.8,22.666,10.2,10.2,0,0" transform="translate(104.233 61.777)" fill="none" stroke="#000" stroke-linecap="round" stroke-miterlimit="10" stroke-width="1"/>
      </g>
      <path id="Trazado_7103" data-name="Trazado 7103" d="M11.051,45.894c1.974,1.517,12.764-.694,14.961-1.057,14.862-2.442,21.075-5.928,16.842-17.406C40.16,20.125,39.142,6.538,31.4,1.266,26.459-2.094,5.913,1.593,1.217,8.1s5.7,32.766,5.7,32.766S7.541,43.088,11.051,45.894Z" transform="translate(18.451 143.788)" fill="#fedc00" stroke="#000" stroke-linecap="round" stroke-miterlimit="10" stroke-width="1"/>
    </g>
    <g id="Grupo_2705" data-name="Grupo 2705" transform="translate(287.86 331.405)">
      <path id="Trazado_7104" data-name="Trazado 7104" d="M22.488,11.241A11.244,11.244,0,1,0,11.244,22.486,11.243,11.243,0,0,0,22.488,11.241Z" transform="translate(16.189 38.522)" stroke="#000" stroke-linecap="round" stroke-miterlimit="10" stroke-width="1"/>
      <path id="Trazado_7105" data-name="Trazado 7105" d="M22.486,11.244A11.243,11.243,0,1,0,11.241,22.488,11.243,11.243,0,0,0,22.486,11.244Z" transform="translate(0 15.134)" stroke="#000" stroke-linecap="round" stroke-miterlimit="10" stroke-width="1"/>
      <g id="Grupo_2703" data-name="Grupo 2703" transform="translate(20.631 36.047)">
        <path id="Trazado_7106" data-name="Trazado 7106" d="M47.868,0C21.444,0,5.265,6.96,4.035,7.506A6.8,6.8,0,0,0,9.552,19.937c.691-.3,51.791-21.713,122.127,17.266a6.8,6.8,0,1,0,6.591-11.895C102.342,5.4,71.133,0,47.868,0Z" transform="translate(0)" fill="#fedc00" stroke="#000" stroke-linecap="round" stroke-miterlimit="10" stroke-width="1"/>
      </g>
      <g id="Grupo_2704" data-name="Grupo 2704" transform="translate(4.442 0)">
        <path id="Trazado_7107" data-name="Trazado 7107" d="M77.969,0C36.278,0,5.039,19.441,3.151,20.643a6.8,6.8,0,0,0,7.3,11.475c.75-.473,61.915-38.2,123.931-3.842a6.8,6.8,0,1,0,6.591-11.894A128.449,128.449,0,0,0,77.969,0Z" transform="translate(0 0)" fill="#fedc00" stroke="#000" stroke-linecap="round" stroke-miterlimit="10" stroke-width="1"/>
      </g>
    </g>
    <g id="Grupo_2706" data-name="Grupo 2706" transform="translate(191.951 0)">
      <ellipse id="Elipse_147" data-name="Elipse 147" cx="42.18" cy="39.066" rx="42.18" ry="39.066" transform="translate(107.64 250.813)" fill="#fedc00" stroke="#000" stroke-linecap="round" stroke-miterlimit="10" stroke-width="1"/>
      <path id="Trazado_7108" data-name="Trazado 7108" d="M51.024,79.829s2.264-16.984-2.831-23.212-26.61-17.551-38.5-26.609S-.5,17.551,1.2,10.756,19.883,0,50.457,0,111.6,23.212,116.7,31.14s-10.756,35.1-11.89,45.294-1.7,13.587-1.7,13.587S74.8,69.639,51.024,79.829Z" transform="translate(0)" fill="#fff" stroke="#000" stroke-linecap="round" stroke-miterlimit="10" stroke-width="1"/>
      <path id="Trazado_7109" data-name="Trazado 7109" d="M37.924,49A39.246,39.246,0,0,0,33.4,28.056C27.735,17.864,3.953,12.769.558,5.974s9.059-9.059,27.74,0,28.31,28.876,29.443,38.5S44.152,55.232,37.924,49Z" transform="translate(21.591 26.297)" fill="#fff" stroke="#000" stroke-linecap="round" stroke-miterlimit="10" stroke-width="1"/>
      <path id="Trazado_7110" data-name="Trazado 7110" d="M116.7,31.14c1.362,2.117,1.2,5.631.254,9.806C100.36,28.627,77.008,14.113,56.682,11.89,29.859,8.957,9.876,17.187,1.3,21.662-.908,17.891.142,14.979,1.2,10.756,2.9,3.964,19.88,0,50.454,0S111.6,23.212,116.7,31.14Z" transform="translate(0.003 0)" fill="#fff" stroke="#000" stroke-linecap="round" stroke-miterlimit="10" stroke-width="1"/>
      <ellipse id="Elipse_148" data-name="Elipse 148" cx="32.222" cy="22.447" rx="32.222" ry="22.447" transform="translate(46.365 53.563) rotate(6.794)" fill="#fedc00" stroke="#000" stroke-linecap="round" stroke-miterlimit="10" stroke-width="1"/>
      <path id="Trazado_7111" data-name="Trazado 7111" d="M8.829,120.167S-5.541,97.618,2.385,47.229C6.554,20.729,12.03,2.7,28.448.436s42,4.343,45.619,18.826c3.039,12.159,19.863,68.953-1.448,86.166C60.4,115.293,30.91,137.72,8.829,120.167Z" transform="translate(33.136 68.367)" fill="#fff" stroke="#000" stroke-linecap="round" stroke-miterlimit="10" stroke-width="1"/>
      <path id="Trazado_7112" data-name="Trazado 7112" d="M21.437,84.538s-23.8,6.8-21.246.849,11.9-7.648,20.394-9.348S48.989,68.7,40.312,64.3s-16.326-9.5-10.378-12.9,14.807-9.044,10.378-10.9-3.578-10.349-1.878-14.6,3.4-7.649.849-13.6.851-22.945,5.1-2.551a407.691,407.691,0,0,1,6.8,49.29c.851,10.2,0,17.848-2.549,18.7s-11.435,3.415-14.448,3.4S21.437,84.538,21.437,84.538Z" transform="translate(51.46 81.058)" opacity="0.17"/>
      <path id="Trazado_7113" data-name="Trazado 7113" d="M138.749,82.737s8.492,30.573-11.889,54.919S53.823,126.331,29.478,90.1-.529,27.818.038,19.326,11.36-1.056,47.6.075,127.991,35.179,138.749,82.737Z" transform="translate(45.325 173.172)" fill="#fff" stroke="#000" stroke-linecap="round" stroke-miterlimit="10" stroke-width="1"/>
      <path id="Trazado_7114" data-name="Trazado 7114" d="M100.281,113.916s-18.7,30.594-22.094,27.194,12.746-28.045,3.4-31.445-22.094,9.348-23.794,5.948,17.846-17.846,8.5-28.043-27.194-13.6-28.894-27.2-5.1-23.794-9.348-24.645S17,35.729,17,30.631s5.1-5.949,5.1-8.5-2.757-3.926-11.153-3.237S0,18.732,0,15.334s1.7-8.5,1.7-8.5,18.976-12.494,24.361-3.7,7.933,11.346,11.333,16.445,22.1,26.345,30.594,35.694,7.649,14.446,11.9,13.6,4.251,5.1,4.251,9.348a4.942,4.942,0,0,0,3.4,5.1,21.2,21.2,0,0,1,3.4,8.5C91.784,96.919,106.23,101.167,100.281,113.916Z" transform="translate(79.694 170.658)" opacity="0.17"/>
      <path id="Trazado_7115" data-name="Trazado 7115" d="M3.115,97.25c-.742-1.006-1.487-2.071-2.152-3.189-3.474-5.839,3.4-12.466,5.667-22.666s-1.133-14.73,0-23.8S12.3,32.866,12.3,22.666,6.629,0,6.629,0" transform="translate(87.683 73.959)" fill="none" stroke="#000" stroke-linecap="round" stroke-miterlimit="10" stroke-width="1"/>
      <path id="Trazado_7116" data-name="Trazado 7116" d="M89.883,132.865S82.222,90.872,60.689,64.809s-43.065-34-40.8-41.932-7.933-4.533-15.866-4.533-2.267-6.8,1.133-9.066C7.907,7.445,4.779,4.243,1.643,0" transform="translate(86.614 171.209)" fill="none" stroke="#000" stroke-linecap="round" stroke-miterlimit="10" stroke-width="1"/>
      <path id="Trazado_7117" data-name="Trazado 7117" d="M9.492,43.761S22.232,16.735,74.743,14.8c0,0,3.476-1.931.386-10.812-.295-.846-8.06-1.471-8.883-1.6A191.09,191.09,0,0,0,45.1.218C32.414-.331,12.49-.757,4.163,11.018-3.483,21.827.052,35.564,9.492,43.761Z" transform="translate(37.532 161.962)" stroke="#000" stroke-linecap="round" stroke-miterlimit="10" stroke-width="1"/>
    </g>
    <g id="Grupo_2707" data-name="Grupo 2707" transform="translate(302.415 463.119)">
      <path id="Trazado_7118" data-name="Trazado 7118" d="M9.071,0A9.067,9.067,0,0,0,3.235,16.008C5.593,17.99,61.571,64.75,111.64,84.319a9.066,9.066,0,1,0,6.6-16.888C70.976,48.958,15.452,2.589,14.9,2.124A9.015,9.015,0,0,0,9.071,0Z" transform="translate(0 0)" fill="#fedc00" stroke="#000" stroke-linecap="round" stroke-miterlimit="10" stroke-width="1"/>
    </g>
    <g id="Grupo_2710" data-name="Grupo 2710" transform="translate(353.378 243.949)">
      <ellipse id="Elipse_149" data-name="Elipse 149" cx="46.143" cy="44.727" rx="46.143" ry="44.727" transform="translate(0 183.508)" fill="#fedc00" stroke="#000" stroke-linecap="round" stroke-miterlimit="10" stroke-width="1"/>
      <g id="Grupo_2709" data-name="Grupo 2709" transform="translate(14.706 0)">
        <g id="Grupo_2708" data-name="Grupo 2708" transform="translate(0 0)">
          <path id="Trazado_7119" data-name="Trazado 7119" d="M58.381,104.042S37.445,116.73,14.607,97.065s-16.494-53.29,2.538-66.61S76.778,9.519,81.217,6.348s15.861-11.419,39.332-1.9,19.032,30.449,8.883,48.213S79.317,97.7,58.381,104.042Z" transform="translate(0 160.561)" fill="#fff" stroke="#000" stroke-linecap="round" stroke-miterlimit="10" stroke-width="1"/>
          <path id="Trazado_7120" data-name="Trazado 7120" d="M13.666,62.753S-.657,51.158.024,37.516,11.618,17.736,22.532,17.736s20.463-4.775,23.192-9.549S50.5,3.413,55.957,3.413,58,0,67.551,0,79.829.684,82.559,2.048s-3.41,2.046,7.5,1.365,28.65-1.365,24.557,8.185S78.465,47.065,62.777,55.933,23.9,70.257,13.666,62.753Z" transform="translate(9.163 195.919)" opacity="0.17"/>
          <path id="Trazado_7121" data-name="Trazado 7121" d="M0,32.151S18.911,20.928,38.4,16.344,69.355,10.611,70.5,6.024,76.234-.854,80.821.292s10.319,0,10.319,0" transform="translate(2.19 180.806)" fill="none" stroke="#000" stroke-linecap="round" stroke-miterlimit="10" stroke-width="1"/>
          <path id="Trazado_7135" data-name="Trazado 7135" d="M13.6,24.932c7.511,0,13.6-5.581,13.6-12.466S21.11,0,13.6,0,0,5.581,0,12.466,6.089,24.932,13.6,24.932Z" transform="translate(73.165 207.389)" fill="#fedc00" stroke="#000" stroke-linecap="round" stroke-width="1"/>
          <path id="Trazado_7122" data-name="Trazado 7122" d="M36.168,57.142S2.789,39.482.01,5.122C-.862-5.646,57.493,2.886,65.987,9.564c15,11.785,3.664,33.318-2,40.118C54.514,61.048,43.781,63.487,36.168,57.142Z" transform="translate(80.575 155.441)" stroke="#000" stroke-linecap="round" stroke-miterlimit="10" stroke-width="1"/>
          <path id="Trazado_7123" data-name="Trazado 7123" d="M42.517,76.824S24.753,69.211,17.775,62.866-3.16,39.4.646,33.685s13.323-.635,15.859,1.9,12.69,13.955,12.69,13.955-5.077-34.255-3.806-39.332,3.806-6.342,8.881-6.342,9.516,6.978,10.151,12.052,3.171,19.667,3.171,19.667,6.342-11.419,5.71-22.2S57.108-1.841,63.45.7,71.063,12.75,71.063,12.75s9.516,1.9,15.226,10.149c3.329,4.81,9.516,8.248,5.71,25.377s-8.246,22.839-8.246,22.839S57.74,74.286,42.517,76.824Z" transform="translate(31.09 0)" fill="#fff" stroke="#000" stroke-linecap="round" stroke-miterlimit="10" stroke-width="1"/>
          <path id="Trazado_7124" data-name="Trazado 7124" d="M19.139,43.288S-2.521,31.307.244,29s7.834-3.227,9.679-12.9,3.225-10.6,7.371-4.609,8.3,1.845,11.983-6.912S37.111.891,38.954,9.185s9.219.922,11.061-4.607,1.845,5.529,2.765,10.6S62,5.5,63.381,9.648,55.547,38.219,52.779,39.6,19.139,43.288,19.139,43.288Z" transform="translate(56.628 29.247)" opacity="0.17"/>
          <path id="Trazado_7125" data-name="Trazado 7125" d="M4.351,27.678s-8.881-9.514-1.268-18.4S34.168-1.5,43.684,1.035s8.246,18.4,3.806,22.2S4.351,27.678,4.351,27.678Z" transform="translate(68.62 64.37)" stroke="#000" stroke-linecap="round" stroke-miterlimit="10" stroke-width="1"/>
          <path id="Trazado_7126" data-name="Trazado 7126" d="M9.413,87.008S-2.641,24.2.532,14.688,23.369-2.441,37.326.731,70.314,34.989,76.659,69.879s5.71,30.452-9.516,32.988S25.272,99.7,9.413,87.008Z" transform="translate(71.171 73.555)" fill="#fff" stroke="#000" stroke-linecap="round" stroke-miterlimit="10" stroke-width="1"/>
          <path id="Trazado_7127" data-name="Trazado 7127" d="M11.192,90.908c4.863-1.748,11.912-8.645,8.017-14.766-4.775-7.5-10.914-9.549-11.595-15.688S10.34,40.674,10.34,37.264s2.048-12.278-4.091-15.688-4.775-9.549-4.775-11.6S1.475,8.617.11,5.2,10.34-2.981,18.528,2.477,45.811,26.35,51.269,54.317c3.146,16.125,5.771,32.1,4.775,41.607A106.146,106.146,0,0,1,11.192,90.908Z" transform="translate(88.882 76.123)" opacity="0.17"/>
          <path id="Trazado_7128" data-name="Trazado 7128" d="M16.2,85.045s1.311-8.561-5.522-23.931C4.787,47.86.1,34.629,1.245,23.164A88.561,88.561,0,0,0,0,0" transform="translate(76.033 82.267)" fill="none" stroke="#000" stroke-linecap="round" stroke-miterlimit="10" stroke-width="1"/>
          <path id="Trazado_7129" data-name="Trazado 7129" d="M1.268,0S1.9,15.861,0,25.375" transform="translate(100.885 12.75)" fill="#fff" stroke="#000" stroke-linecap="round" stroke-miterlimit="10" stroke-width="1"/>
          <path id="Trazado_7130" data-name="Trazado 7130" d="M0,0S3.8,13.323.633,23.471" transform="translate(112.939 18.46)" fill="#fff" stroke="#000" stroke-linecap="round" stroke-miterlimit="10" stroke-width="1"/>
        </g>
        <path id="Trazado_7131" data-name="Trazado 7131" d="M27.16,45.392C17.271,45.387-1.728,28.822.126,18.058,1.344,10.981,31.765-4.384,37.36,1.2c3.4,3.4,20.4,18.133,28.332,23.8S41.909,45.387,27.16,45.392Z" transform="translate(13.138 218.66)" fill="#fff" stroke="#000" stroke-linecap="round" stroke-miterlimit="10" stroke-width="1"/>
      </g>
    </g>
  </g>
</svg>
