<svg xmlns="http://www.w3.org/2000/svg" width="62.489" height="101.146" viewBox="0 0 62.489 101.146">
  <g id="Grupo_2948" data-name="Grupo 2948" transform="matrix(0.995, 0.105, -0.105, 0.995, -761.047, -544.854)">
    <path id="Trazado_7634" data-name="Trazado 7634" d="M829.1,707.05s-9.225,2.559-7.636,13.262.962,16.023,12.683,15.969c7.019-.032,11.82-15,8.127-23.4C839.8,707.251,829.1,707.05,829.1,707.05Z" transform="translate(0 -213.651)" fill="#fcfdfd" stroke="#e6e8e8" stroke-linecap="round" stroke-linejoin="round" stroke-width="2"/>
    <g id="Grupo_2937" data-name="Grupo 2937" transform="translate(846.927 491.776)">
      <g id="Grupo_2935" data-name="Grupo 2935" transform="translate(0 0)">
        <path id="Trazado_7635" data-name="Trazado 7635" d="M1037.378,703.626c-5.9-5.4-6.564-10.15-10.069-9.263-4.425,1.118-4.859,5.772-2.474,8.564a65.213,65.213,0,0,0,7.968,7.492c3.5,2.027,9.149,4.81,10.884,4.1l2.984-5.843C1045.27,707.414,1038.266,704.438,1037.378,703.626Z" transform="translate(-1023.4 -694.256)" fill="#fcfdfd" stroke="#e6e8e8" stroke-linecap="round" stroke-linejoin="round" stroke-width="2"/>
        <path id="Trazado_7636" data-name="Trazado 7636" d="M1183.277,813.793l2.654.9,2.995-5.835-2.665-.908Z" transform="translate(-1162.992 -793.524)" fill="#fcfdfd" stroke="#e6e8e8" stroke-linecap="round" stroke-linejoin="round" stroke-width="2"/>
      </g>
      <g id="Grupo_2936" data-name="Grupo 2936" transform="translate(23.122 15.508)">
        <path id="Trazado_7637" data-name="Trazado 7637" d="M1205.631,821.586s.837.427,3.082,1.707,4.314,1.369,6.038-.636,1.465-3.358-.893-4.047a8.252,8.252,0,0,0-2.289-.152s2.034-.232,1.906-1.333c-.175-1.516-4,.1-5.622.128Z" transform="translate(-1205.631 -816.478)" fill="#fcfdfd" stroke="#e6e8e8" stroke-linecap="round" stroke-linejoin="round" stroke-width="2"/>
        <path id="Trazado_7638" data-name="Trazado 7638" d="M1246.632,845.013a18.079,18.079,0,0,0,5.023.172" transform="translate(-1241.43 -841.392)" fill="#fcfdfd" stroke="#e6e8e8" stroke-linecap="round" stroke-linejoin="round" stroke-width="2"/>
        <path id="Trazado_7639" data-name="Trazado 7639" d="M1248.073,855.225s-1.63.673-4.954-.555" transform="translate(-1238.363 -849.824)" fill="#fcfdfd" stroke="#e6e8e8" stroke-linecap="round" stroke-linejoin="round" stroke-width="2"/>
        <path id="Trazado_7640" data-name="Trazado 7640" d="M1242.381,863.368a7.591,7.591,0,0,1-4.333-1.023" transform="translate(-1233.935 -856.525)" fill="#fcfdfd" stroke="#e6e8e8" stroke-linecap="round" stroke-linejoin="round" stroke-width="2"/>
      </g>
    </g>
    <path id="Trazado_7641" data-name="Trazado 7641" d="M903.319,699.689c.006-8.511-.342-21.585-5.861-23.223-3.155-.937-17.977.951-17.977.951a35.572,35.572,0,0,1-2.931,2.391c-5.616,4.227.415,21.71,3.059,31.337,2.749,10.927,2.9,24.6,2.9,24.6l5.241.857a26.651,26.651,0,0,0,2.318-7.191c1.144-5.415,3.713-18.973,3.713-18.973s5.489,1.5,6.382,2.278,2.635,9.252,4.173,16.651l6.192-.773s-.561-17.841-1.413-20.081S903.317,701.917,903.319,699.689Z" transform="translate(-46.234 -186.72)" fill="#fcfdfd" stroke="#e6e8e8" stroke-linecap="round" stroke-linejoin="round" stroke-width="2"/>
    <g id="Grupo_2938" data-name="Grupo 2938" transform="translate(855.843 532.948)">
      <path id="Trazado_7642" data-name="Trazado 7642" d="M1102.364,1027.651l-.377-8.9s-.613.978-3.786,1.374a16.415,16.415,0,0,1-4.536-.326s1.324,6.956,1.374,7.829a64.608,64.608,0,0,0,.471,6.947l14.7-1.835C1111.2,1028.92,1108.264,1025.5,1102.364,1027.651Z" transform="translate(-1093.665 -1018.748)" fill="#fcfdfd" stroke="#e6e8e8" stroke-linecap="round" stroke-linejoin="round" stroke-width="2"/>
      <path id="Trazado_7643" data-name="Trazado 7643" d="M1123.041,1129.95c-.335.042-.3.344-.633.386s-.372-.26-.707-.219-.3.344-.632.385-.372-.26-.707-.219-.3.344-.631.385-.372-.26-.707-.218-.3.343-.631.386-.373-.26-.708-.219-.3.344-.631.385-.371-.259-.705-.218-.3.343-.631.386-.372-.261-.706-.219-.3.344-.631.385-.372-.26-.707-.218-.3.343-.631.384-.373-.259-.707-.218-.3.344-.631.386-.373-.26-.707-.218-.3.343-.63.386-.373-.261-.707-.219-.3.344-.631.386-.372-.261-.706-.219l-.122-.98,14.716-1.837Z" transform="translate(-1106.358 -1114.984)" fill="#fcfdfd" stroke="#e6e8e8" stroke-linecap="round" stroke-linejoin="round" stroke-width="2"/>
    </g>
    <g id="Grupo_2939" data-name="Grupo 2939" transform="translate(834.607 542.249)">
      <path id="Trazado_7644" data-name="Trazado 7644" d="M934.693,1101.318l1.207-8.829s-.776.853-3.97.68a16.361,16.361,0,0,1-4.406-1.125s.07,7.082-.035,7.948a64.424,64.424,0,0,0-.767,6.92l14.791.8C943.167,1104.131,940.881,1100.246,934.693,1101.318Z" transform="translate(-926.668 -1092.044)" fill="#fcfdfd" stroke="#e6e8e8" stroke-linecap="round" stroke-linejoin="round" stroke-width="2"/>
      <path id="Trazado_7645" data-name="Trazado 7645" d="M941.108,1211.01c-.337-.018-.353.285-.691.267s-.32-.321-.657-.339-.353.285-.69.267-.321-.323-.658-.34-.352.286-.69.268-.319-.323-.657-.341-.353.285-.689.267-.321-.321-.657-.339-.353.285-.689.267-.319-.322-.656-.34-.353.285-.689.268-.32-.323-.656-.341-.354.286-.689.268-.32-.322-.657-.34-.354.286-.69.267-.32-.322-.656-.341-.353.286-.689.269-.32-.323-.656-.341-.353.286-.689.269-.32-.323-.656-.341-.353.285-.689.266-.32-.32-.656-.339l.053-.987,14.808.8Z" transform="translate(-926.3 -1194.356)" fill="#fcfdfd" stroke="#e6e8e8" stroke-linecap="round" stroke-linejoin="round" stroke-width="2"/>
    </g>
    <g id="Grupo_2942" data-name="Grupo 2942" transform="translate(823.506 494.628)">
      <g id="Grupo_2940" data-name="Grupo 2940" transform="translate(0 0)">
        <path id="Trazado_7646" data-name="Trazado 7646" d="M847,731.6c.753-7.965,1.321-13.618,1.321-13.618-3.56-2.856-7.535-.4-8.326,3.188a65.249,65.249,0,0,0-1.174,10.874c.491,4.011,1.677,10.2,3.287,11.159l6.459-1.142C848.737,740.184,846.888,732.8,847,731.6Z" transform="translate(-838.809 -716.738)" fill="#fcfdfd" stroke="#e6e8e8" stroke-linecap="round" stroke-linejoin="round" stroke-width="2"/>
        <path id="Trazado_7647" data-name="Trazado 7647" d="M864.82,917.49l.881,2.661,6.462-1.129-.883-2.674Z" transform="translate(-861.52 -891.021)" fill="#fcfdfd" stroke="#e6e8e8" stroke-linecap="round" stroke-linejoin="round" stroke-width="2"/>
      </g>
      <g id="Grupo_2941" data-name="Grupo 2941" transform="translate(4.733 28.104)">
        <path id="Trazado_7648" data-name="Trazado 7648" d="M876.108,939.07s.165.926.5,3.49,1.508,4.266,4.148,4.434,3.562-.855,2.69-3.152a8.24,8.24,0,0,0-1.258-1.917s1.41,1.482,2.213.717c1.1-1.054-2.5-3.131-3.492-4.407Z" transform="translate(-876.108 -938.234)" fill="#fcfdfd" stroke="#e6e8e8" stroke-linecap="round" stroke-linejoin="round" stroke-width="2"/>
        <path id="Trazado_7649" data-name="Trazado 7649" d="M910.177,970.478a18.079,18.079,0,0,0,2.892,4.111" transform="translate(-905.854 -966.387)" fill="#fcfdfd" stroke="#e6e8e8" stroke-linecap="round" stroke-linejoin="round" stroke-width="2"/>
        <path id="Trazado_7650" data-name="Trazado 7650" d="M902.9,977.789s-1.52-.9-2.543-4.287" transform="translate(-897.281 -969.027)" fill="#fcfdfd" stroke="#e6e8e8" stroke-linecap="round" stroke-linejoin="round" stroke-width="2"/>
        <path id="Trazado_7651" data-name="Trazado 7651" d="M892.969,978.156a7.594,7.594,0,0,1-1.8-4.075" transform="translate(-889.262 -969.533)" fill="#fcfdfd" stroke="#e6e8e8" stroke-linecap="round" stroke-linejoin="round" stroke-width="2"/>
      </g>
    </g>
    <g id="Grupo_2945" data-name="Grupo 2945" transform="translate(822.685 462.35)">
      <path id="Trazado_7652" data-name="Trazado 7652" d="M859.773,642.16s1.269,4.7,3.17,6.466-2.133,2.013-1.9,3.226c.35,1.793,7.483,5.062,13.014,4.585,11.095-.959,13.863-7.2,13.863-7.2-.064-1.47-2.021-2-2.021-2s.437-1.908-.361-2.9Z" transform="translate(-856.293 -619.345)" fill="#fcfdfd" stroke="#e6e8e8" stroke-linecap="round" stroke-linejoin="round" stroke-width="2"/>
      <path id="Trazado_7653" data-name="Trazado 7653" d="M875.058,475.27a15.353,15.353,0,1,1-17.594-12.723A15.352,15.352,0,0,1,875.058,475.27Z" transform="translate(-842.996 -462.35)" fill="#fcfdfd" stroke="#e6e8e8" stroke-linecap="round" stroke-linejoin="round" stroke-width="2"/>
      <path id="Trazado_7655" data-name="Trazado 7655" d="M914.709,490.834c-11.088,9.446-21.716-2.456-21.716-2.456s-1.107-16.737,13.506-21.157" transform="translate(-885.281 -466.603)" fill="#fcfdfd" stroke="#e6e8e8" stroke-linecap="round" stroke-linejoin="round" stroke-width="2"/>
      <g id="Grupo_2943" data-name="Grupo 2943" transform="translate(11.87 8.039)">
        <path id="Trazado_7656" data-name="Trazado 7656" d="M926.981,552.65c-1.425,2.431-1.413,6.712-.182,7.169s.918-4.349,2.507-6.207C930.974,551.661,928.42,550.195,926.981,552.65Z" transform="translate(-925.893 -548.105)" fill="#fcfdfd" stroke="#e6e8e8" stroke-width="2"/>
        <path id="Trazado_7657" data-name="Trazado 7657" d="M946.622,525.9a1.218,1.218,0,0,0-.353,1.671l.07.108a1.208,1.208,0,1,0,2.025-1.319l-.07-.108A1.218,1.218,0,0,0,946.622,525.9Z" transform="translate(-943.516 -525.704)" fill="#fcfdfd" stroke="#e6e8e8" stroke-width="2"/>
      </g>
      <path id="Trazado_7658" data-name="Trazado 7658" d="M1034.382,612.076a.586.586,0,0,0-.911-.088c-.745.777-3.847,2.668-2.758,4.047.833,1.055,2.006.3,2.821-.776C1034.515,614.4,1035.165,613.154,1034.382,612.076Z" transform="translate(-1005.343 -592.845)" fill="#fcfdfd" stroke="#e6e8e8" stroke-width="2"/>
      <path id="Trazado_7659" data-name="Trazado 7659" d="M837.453,569.1a8.48,8.48,0,0,1-4.9-5.457c-.629-2.037.237-4.109,1.628-3.841,0,0-.965,5.546,4.407,7.238Z" transform="translate(-832.344 -547.413)" fill="#fcfdfd" stroke="#e6e8e8" stroke-linecap="round" stroke-linejoin="round" stroke-width="2"/>
      <g id="Grupo_2944" data-name="Grupo 2944" transform="translate(5.105 19.169)">
        <path id="Trazado_7660" data-name="Trazado 7660" d="M877.683,615.287a2.606,2.606,0,1,1-3.241-1.754A2.607,2.607,0,0,1,877.683,615.287Z" transform="translate(-872.578 -613.424)" fill="#fcfdfd" stroke="#e6e8e8" stroke-linecap="round" stroke-linejoin="round" stroke-width="2"/>
        <path id="Trazado_7661" data-name="Trazado 7661" d="M886.555,626.013a1.109,1.109,0,1,1-1.379-.747A1.11,1.11,0,0,1,886.555,626.013Z" transform="translate(-882.885 -623.723)" fill="#fcfdfd" stroke="#e6e8e8" stroke-linecap="round" stroke-linejoin="round" stroke-width="2"/>
      </g>
      <path id="Trazado_7662" data-name="Trazado 7662" d="M887.173,695.95s5.419,5.46,13.257,4.243" transform="translate(-880.216 -666.31)" fill="#fcfdfd" stroke="#e6e8e8" stroke-linecap="round" stroke-linejoin="round" stroke-width="2"/>
      <path id="Trazado_7663" data-name="Trazado 7663" d="M1031.819,682.17s-2.363,3.319-4.924,4.492" transform="translate(-1002.21 -654.278)" fill="#fcfdfd" stroke="#e6e8e8" stroke-linecap="round" stroke-linejoin="round" stroke-width="2"/>
    </g>
    <g id="Grupo_2947" data-name="Grupo 2947" transform="translate(838.42 498.77)">
      <path id="Trazado_7664" data-name="Trazado 7664" d="M971.641,749.958a2.966,2.966,0,0,0-2.813-.424l-11.234,3.2a1.415,1.415,0,0,0-1.229,1.579l1.595,12.769a1.414,1.414,0,0,0,1.579,1.229l12.523-3.566c.384-.048,1.441-1.6,1.441-1.6Z" transform="translate(-956.354 -749.379)" fill="#fcfdfd" stroke="#e6e8e8" stroke-linecap="round" stroke-linejoin="round" stroke-width="2"/>
      <g id="Grupo_2946" data-name="Grupo 2946" transform="translate(0.279 0.437)">
        <path id="Trazado_7665" data-name="Trazado 7665" d="M989.679,765.272a1.258,1.258,0,0,1-1.091,1.4l-11.13,3.168a1.257,1.257,0,0,1-1.4-1.091L974.639,757.4a1.254,1.254,0,0,1,1.091-1.4l11.13-3.17a1.256,1.256,0,0,1,1.4,1.09Z" transform="translate(-972.589 -752.823)" fill="#fcfdfd" stroke="#e6e8e8" stroke-linecap="round" stroke-linejoin="round" stroke-width="2"/>
        <line id="Línea_75" data-name="Línea 75" y1="1.339" x2="1.715" transform="translate(2.168 16.715)" fill="#fff" stroke="#e6e8e8" stroke-linecap="round" stroke-linejoin="round" stroke-width="2"/>
        <line id="Línea_76" data-name="Línea 76" x2="2.126" y2="0.491" transform="translate(0 3.479)" fill="#fff" stroke="#e6e8e8" stroke-linecap="round" stroke-linejoin="round" stroke-width="2"/>
      </g>
    </g>
  </g>
</svg>
