<svg xmlns="http://www.w3.org/2000/svg" width="201.282" height="155.544" viewBox="0 0 201.282 155.544">
  <g id="Grupo_3114" data-name="Grupo 3114" transform="matrix(-0.999, -0.035, 0.035, -0.999, 197.405, 159.85)">
    <rect id="Rectángulo_2160" data-name="Rectángulo 2160" width="176.89" height="92.011" transform="translate(0 73.643) rotate(-24.602)" fill="none" stroke="#d1d2d2" stroke-miterlimit="10" stroke-width="2"/>
    <path id="Trazado_6603" data-name="Trazado 6603" d="M522.253,161.951,497.914,108.8a9.43,9.43,0,0,1-12.5-4.648L355.42,163.67a9.433,9.433,0,0,1-4.651,12.5l24.339,53.155a9.431,9.431,0,0,1,12.5,4.648L517.6,174.454A9.431,9.431,0,0,1,522.253,161.951Z" transform="translate(-336.943 -90.412)" fill="none" stroke="#d1d2d2" stroke-miterlimit="10" stroke-width="2"/>
    <circle id="Elipse_132" data-name="Elipse 132" cx="24.182" cy="24.182" r="24.182" transform="matrix(0.793, -0.609, 0.609, 0.793, 65.661, 74.206)" fill="none" stroke="#d1d2d2" stroke-miterlimit="10" stroke-width="2"/>
    <g id="Grupo_2345" data-name="Grupo 2345" transform="translate(87.994 62.061)">
      <path id="Trazado_6604" data-name="Trazado 6604" d="M395.6,149.877l1.809,3.948-1.717.786L393.9,150.7c-3.445,1.37-7.169,1.581-9.641.633l.1-2.415a12.873,12.873,0,0,0,8.535-.417l-4.137-9.033c-4.2.8-8.583,1.4-10.661-3.137-1.509-3.3-.445-7.235,4.623-10.052l-1.809-3.948,1.717-.786,1.792,3.915a14.813,14.813,0,0,1,7.946-1.061l.07,2.417a14.033,14.033,0,0,0-7.024.806l4.168,9.1c4.3-.847,8.9-1.62,11,2.981C402.106,143.033,400.919,147.068,395.6,149.877Zm-7.943-12.814-3.932-8.588c-3.4,1.931-4.143,4.473-3.153,6.638C381.765,137.724,384.507,137.629,387.655,137.063Zm10.48,3.926c-1.242-2.712-4.173-2.492-7.458-1.862l3.932,8.585C398.26,145.709,399.141,143.186,398.135,140.988Z" transform="translate(-377.463 -121.542)" fill="none"/>
    </g>
  </g>
</svg>
