<svg xmlns="http://www.w3.org/2000/svg" viewBox="0 0 2963.211 2244.576">
  <g id="Grupo_3081" data-name="Grupo 3081" transform="translate(530.763 -700.853)">
    <g id="Grupo_3036" data-name="Grupo 3036" transform="translate(24 -1501)">
      <g id="Grupo_3034" data-name="Grupo 3034" transform="translate(2603.864 4433.2) rotate(180)">
        <g id="Grupo_2381" data-name="Grupo 2381">
          <path id="Trazado_6695" data-name="Trazado 6695" d="M658.308,1667.875c-93.939-116.97-316.226-374.684-172.121-518.788,144.121-144.122,16.9-81.854,72.322-214.883,55.44-133.031,110.864-376.925,521.046-521.03,410.165-144.122,807.008-55.42,1071.008,13.38s586.055,68.583,785.6,46.4c199.546-22.166,371.646,461.25,404.9,638.628,33.258,177.363-272.379,393.945-239.122,427.2s-165.782,94.545-165.782,94.545L847.4,1619.39S752.248,1784.845,658.308,1667.875Z" transform="translate(-197.899 -348.554)" stroke="#000" stroke-miterlimit="10" stroke-width="1"/>
          <path id="Trazado_6696" data-name="Trazado 6696" d="M495.808,383.886s94.751,142.127,35.52,260.573C472.112,762.906,365.5,762.906,365.5,762.906" transform="translate(2421.575 203.641)" stroke="#fff" stroke-miterlimit="10" stroke-width="1"/>
          <path id="Trazado_6697" data-name="Trazado 6697" d="M518.506,402.4s0,47.392-165.822,106.607" transform="translate(2221.198 493.071)" stroke="#fff" stroke-miterlimit="10" stroke-width="1"/>
          <path id="Trazado_6698" data-name="Trazado 6698" d="M352.727,411.646c-52.414,14.851-89.081,24.012-89.081,24.012" transform="matrix(0.995, -0.105, 0.105, 0.995, 1087.137, 549.816)" stroke="#fff" stroke-miterlimit="10" stroke-width="1"/>
          <path id="Trazado_6699" data-name="Trazado 6699" d="M755.206,379.879C700.431,425.775,641.2,487.966,623.439,553.1,587.9,683.388,647.12,707.083,552.369,778.154,499.705,817.648,373.875,860.8,272.456,891.363" transform="translate(670.381 -395.944) rotate(29)" stroke="#fff" stroke-miterlimit="10" stroke-width="2" opacity="0.2"/>
          <path id="Trazado_7841" data-name="Trazado 7841" d="M755.206,379.879C700.431,425.775,641.2,487.966,623.439,553.1,587.9,683.388,647.12,707.083,552.369,778.154,499.705,817.648,373.875,860.8,272.456,891.363" transform="translate(592.568 -315.13) rotate(25)" stroke="#fff" stroke-miterlimit="10" stroke-width="2" opacity="0.2"/>
          <path id="Trazado_6700" data-name="Trazado 6700" d="M358.524,375.338s-22.582,13.286-53.96,35.851" transform="matrix(0.978, 0.208, -0.208, 0.978, 2217.151, 597.709)" stroke="#fff" stroke-miterlimit="10" stroke-width="1"/>
          <path id="Trazado_6701" data-name="Trazado 6701" d="M1000.791,400.268S834.97,506.875,692.827,554.251C550.684,601.642,230.88,518.715,230.88,518.715" transform="translate(317.552 459.672)" stroke="#fff" stroke-miterlimit="10" stroke-width="1"/>
          <path id="Trazado_6702" data-name="Trazado 6702" d="M363.405,515.242c-50.9-24.644-104.029-62.358-143.922-119.96" transform="translate(139.431 381.748)" stroke="#fff" stroke-miterlimit="10" stroke-width="1"/>
          <path id="Trazado_6703" data-name="Trazado 6703" d="M326.149,422.745s-39.992-2.362-93.786-18.608" transform="translate(340.73 520.124)" stroke="#fff" stroke-miterlimit="10" stroke-width="1"/>
        </g>
      </g>
      <g id="Grupo_3035" data-name="Grupo 3035" transform="translate(-765.849 2735.053)">
        <g id="Grupo_2381-2" data-name="Grupo 2381">
          <path id="Trazado_6695-2" data-name="Trazado 6695" d="M376.546,1339.432s-262.893-432.3-118.788-576.4C514.728,260.644,305.186,718.68,360.61,585.65,416.05,452.619,471.474,208.725,881.656,64.62c228.47-80.279,442.279-111.538,663.393-81.273,33.63,4.6.15,49.4,149.8,113.6s206.844,58.969,448.8,143.2,456.455,102.183,656,80c199.546-22.166,310.261,265.5,343.518,442.881,33.257,177.363,26.106,151.555,33.378,306.707S3022.671,1529.29,2352.3,1673.372c-129.381,27.808,234.807-399.674,46.061-378.182-786.616,89.571-1803.636,276.97-1803.636,276.97S454.153,1394.855,376.546,1339.432Z" transform="translate(-3)" stroke="#000" stroke-miterlimit="10" stroke-width="1"/>
          <path id="Trazado_6696-2" data-name="Trazado 6696" d="M130.3,0s94.751,142.127,35.52,260.573C106.607,379.021,0,379.021,0,379.021" transform="translate(2787.08 587.527)" stroke="#fff" stroke-miterlimit="10" stroke-width="1"/>
          <path id="Trazado_6697-2" data-name="Trazado 6697" d="M165.822,0S165.822,47.392,0,106.607" transform="translate(2573.882 895.476)" stroke="#fff" stroke-miterlimit="10" stroke-width="2" opacity="0.2"/>
          <path id="Trazado_6698-2" data-name="Trazado 6698" d="M89.081,0C36.667,14.851,0,24.012,0,24.012" transform="translate(1093.29 1049.142)" stroke="#fff" stroke-miterlimit="10" stroke-width="1"/>
          <path id="Trazado_6699-2" data-name="Trazado 6699" d="M482.75,0C427.975,45.9,368.743,108.087,350.983,173.221c-35.535,130.288,23.68,153.983-71.071,225.054C227.249,437.769,101.419,480.92,0,511.484" transform="translate(2090.789 467.896)" stroke="#fff" stroke-miterlimit="10" stroke-width="2" opacity="0.2"/>
          <path id="Trazado_6701-2" data-name="Trazado 6701" d="M769.911,0S604.09,106.607,461.947,153.983C319.8,201.374,0,118.447,0,118.447" transform="translate(548.432 859.94)" stroke="#fff" stroke-miterlimit="10" stroke-width="2" opacity="0.2"/>
          <path id="Trazado_6702-2" data-name="Trazado 6702" d="M143.922,119.96C93.021,95.316,39.893,57.6,0,0" transform="translate(358.914 777.03)" stroke="#fff" stroke-miterlimit="10" stroke-width="1"/>
          <path id="Trazado_6703-2" data-name="Trazado 6703" d="M93.786,18.608S53.794,16.247,0,0" transform="translate(573.093 924.26)" stroke="#fff" stroke-miterlimit="10" stroke-width="1"/>
        </g>
      </g>
    </g>
    <g id="Grupo_3033" data-name="Grupo 3033" transform="translate(-615 34.366)">
      <path id="Trazado_7506" data-name="Trazado 7506" d="M110.865,442.3S76.73,416.982,82.494,403.928c3.465-7.852,43.362-1.979,53.232-10.081,25.371-20.827,43.5-8.838,63.839-13.347s23.445-11.845,36.9-13.4,16.541,3.831,21,7.986,12.372,6,22.327,8.293c25.723,5.939,82.552-2.534,82.966,1.539,1,9.809-112.117,19.728-112.117,19.728s57.191-20.093,110.8-17.569.347,58.955.347,58.955L247.188,419.58,248.7,442.3Z" transform="translate(712.157 845.979) rotate(-13)"/>
      <path id="Trazado_7507" data-name="Trazado 7507" d="M74.306,422.752,139.438,375.8s10.6-1.516,9.086,9.088-16.661,22.72-16.661,22.72l1.516,12.118,2.369,6.558H59.159Z" transform="translate(752.814 820.301)"/>
      <path id="Trazado_7504" data-name="Trazado 7504" d="M19.937,0h134.67a19.937,19.937,0,0,1,19.937,19.937V169.205a19.937,19.937,0,0,1-19.937,19.937H19.937A19.937,19.937,0,0,1,0,169.205V19.937A19.937,19.937,0,0,1,19.937,0Z" transform="translate(1209.029 736.236) rotate(3.479)" fill="#fedc00" stroke="#000" stroke-width="1"/>
      <g id="Grupo_2841" data-name="Grupo 2841" transform="translate(1083.208 779.156)">
        <path id="Trazado_6654" data-name="Trazado 6654" d="M310.737,197.523s-10.791,13.329-42.526,22.849-39.35,14.6-39.35,14.6-18.407,6.348-24.753,22.215-2.54,24.119,34.274,21.579,112.977-32.37,112.977-32.37,13.963-25.388,10.791-46.967S317.083,188.636,310.737,197.523Z" transform="translate(-201.606 -157.251)" fill="#fff" stroke="#000" stroke-miterlimit="10" stroke-width="1"/>
        <path id="Trazado_6655" data-name="Trazado 6655" d="M216.61,245.475s75.8-11.775,113.331-33.116" transform="translate(-188.04 -134.159)" fill="none" stroke="#263238" stroke-miterlimit="10" stroke-width="0.5"/>
        <path id="Trazado_6656" data-name="Trazado 6656" d="M214.333,257.8s.727,7.268,1.4,14.61c3.327-.019,7.013-.16,11.137-.446,36.812-2.538,112.977-32.37,112.977-32.37s8.675-15.783,10.792-33.038l-4.29-12.228s-21.581,24.119-41.891,38.082S214.333,257.8,214.333,257.8Z" transform="translate(-190.098 -150.457)" fill="#fedc00" opacity="0.49" style="mix-blend-mode: multiply;isolation: isolate"/>
        <path id="Trazado_6657" data-name="Trazado 6657" d="M263.74,252.175c2.234-7.342,4.64-20.286-.369-33.233a31.673,31.673,0,0,0-14.2-16.5c-3.4,1.308-7.118,2.592-11.185,3.812q-1.505.451-2.94.889c6.657,4.107,17.307,12.923,18.173,27.673.594,10.088.213,16.537-.356,20.58C256.493,254.358,260.133,253.278,263.74,252.175Z" transform="translate(-171.376 -143.129)" stroke="#000" stroke-miterlimit="10" stroke-width="1"/>
        <path id="Trazado_6658" data-name="Trazado 6658" d="M312.829,180.415a32.9,32.9,0,0,0-10.861-7.118c-27.25-10.341-40.787,21.534-45.938,42.822,0,0,5.325,4.323,21.192,1.785s38.714-13.327,41.258-22.221C320.065,190.139,317.13,184.67,312.829,180.415Z" transform="translate(-152.223 -171.287)" stroke="#000" stroke-miterlimit="10" stroke-width="1"/>
        <path id="Trazado_6659" data-name="Trazado 6659" d="M233.074,224.822s0,14.6-10.155,18.407-19.675-3.174-19.675-3.174-1.9-27.928.634-33S228.632,212.763,233.074,224.822Z" transform="translate(-200.743 -140.122)" fill="#fff" stroke="#000" stroke-miterlimit="10" stroke-width="1"/>
      </g>
      <g id="Grupo_2838" data-name="Grupo 2838" transform="translate(1189.002 781.073)">
        <path id="Trazado_6660" data-name="Trazado 6660" d="M318.525,174.074s-17.177,2.369-21.324,7.7-27.248,130.318-28.432,133.873,3.553,14.808,18.361,30.8,33.172,20.732,50.943,21.916,59.827-7.7,69.9-17.177,8.885-34.356,8.885-47.98,5.331-107.217,1.776-115.509-26.656-15.4-30.209-15.4S322.672,173.481,318.525,174.074Z" transform="translate(-246.834 -172.297)" fill="#fff" stroke="#000" stroke-miterlimit="10" stroke-width="1"/>
        <path id="Trazado_6661" data-name="Trazado 6661" d="M397.545,303.207c0-13.626,5.331-107.217,1.776-115.509s-26.656-15.4-30.209-15.4-65.751,1.184-69.9,1.777a88.19,88.19,0,0,0-9.262,1.895c7.66,13.346,24.283,32.823,56.579,34.48a111.719,111.719,0,0,0,37.418-4L377,284.074,323.147,279l39.886,21.576,2.54,33,28.762,7.9C398.2,329.849,397.545,313.388,397.545,303.207Z" transform="translate(-227.523 -172.297)" fill="#fedc00" opacity="0.49" style="mix-blend-mode: multiply;isolation: isolate"/>
        <g id="Grupo_2371" data-name="Grupo 2371" transform="translate(0 38.802)">
          <g id="Grupo_2370" data-name="Grupo 2370" transform="translate(37.275 47.287)">
            <path id="Trazado_6662" data-name="Trazado 6662" d="M338.645,264.663c-27.094,0-60.494-41.828-61.9-43.608l4.48-3.545c.328.415,33.084,41.441,57.422,41.441,7.064,0,11.785-1.7,14.033-5.046,3.427-5.1.36-12.973.328-13.051l5.288-2.165c.177.434,4.288,10.711-.872,18.4C354.047,262.113,347.729,264.663,338.645,264.663Z" transform="translate(-276.742 -217.509)" stroke="#000" stroke-miterlimit="10" stroke-width="1"/>
          </g>
          <path id="Trazado_6663" data-name="Trazado 6663" d="M269.824,289.063c1.641-1.474,3.795-3.351,5.676-4.823-1.514-.179-9.692-1.4-11.994-7.14-2.194-5.467,1.293-14.14,10.08-25.085,26.787-33.362,69.481-40.386,69.911-40.453l-.844-5.907c-1.834.286-45.23,7.382-73.444,42.523-10.412,12.967-14.1,23.484-10.962,31.26C260.517,285.057,265.74,287.764,269.824,289.063Z" transform="translate(-257.166 -180.939)" stroke="#000" stroke-miterlimit="10" stroke-width="1"/>
          <rect id="Rect치ngulo_2167" data-name="Rect치ngulo 2167" width="8.885" height="13.624" transform="matrix(0.999, 0.054, -0.054, 0.999, 83.911, 20.796)" fill="#fff" stroke="#000" stroke-miterlimit="10" stroke-width="1"/>
          <rect id="Rect치ngulo_2168" data-name="Rect치ngulo 2168" width="8.885" height="13.624" transform="translate(109.113 73.573) rotate(-86.537)" fill="#fff" stroke="#000" stroke-miterlimit="10" stroke-width="1"/>
          <path id="Trazado_6664" data-name="Trazado 6664" d="M306.785,200.7l-3.555,50.665a8.633,8.633,0,0,0,7.932,9.21l49.918,3.94a8.63,8.63,0,0,0,9.307-8.388l1.333-52.854a8.634,8.634,0,0,0-8.313-8.845l-47.694-1.75A8.636,8.636,0,0,0,306.785,200.7Z" transform="translate(-215.538 -192.675)" fill="#fff" stroke="#000" stroke-miterlimit="10" stroke-width="1"/>
          <path id="Trazado_6665" data-name="Trazado 6665" d="M317.753,192.945,316.282,225.3l15.993,1.185,2.058-32.933Z" transform="translate(-203.718 -192.43)" fill="#fedc00" stroke="#000" stroke-miterlimit="10" stroke-width="1"/>
          <path id="Trazado_6666" data-name="Trazado 6666" d="M346.377,223.119a10.07,10.07,0,1,1-10.069-10.069A10.069,10.069,0,0,1,346.377,223.119Z" transform="translate(-194.718 -174.253)" fill="#fedc00" stroke="#000" stroke-miterlimit="10" stroke-width="1"/>
        </g>
      </g>
      <g id="Grupo_2844" data-name="Grupo 2844" transform="translate(858.483 667)">
        <path id="Trazado_6667" data-name="Trazado 6667" d="M210.376,257.942s14.281,2.538,24.118-4.76,4.444-20.311-4.442-27.61-26.976-9.521-34.274-6.03-3.49,17.137-1.27,24.436S200.537,256.672,210.376,257.942Z" transform="translate(13.994 -16.973)" fill="#fff" stroke="#000" stroke-miterlimit="10" stroke-width="1"/>
        <g id="Grupo_2373" data-name="Grupo 2373">
          <path id="Trazado_6668" data-name="Trazado 6668" d="M235.825,115.624s8.976,28.211-22.76,44.712-37.367,8.833-74.181,32.952S123.1,203.072,128.5,225.025,155.7,287.5,155.7,287.5s62.464-39.974,78.944-40.84c24.118-1.27,36.812-15.233,36.812-15.233Z" transform="translate(-83.585 -109.463)" fill="#fedc00" stroke="#000" stroke-miterlimit="10" stroke-width="1"/>
          <path id="Trazado_6669" data-name="Trazado 6669" d="M307.694,587.36,163.638,118.549a4.761,4.761,0,0,1,3.167-5.954h0a4.76,4.76,0,0,1,5.933,3.157L316.8,584.591Z" transform="translate(-11.399 -112.389)" stroke="#000" stroke-miterlimit="10" stroke-width="1"/>
        </g>
        <path id="Trazado_6670" data-name="Trazado 6670" d="M193.158,242.476s-1.586,5.712,5.4,7.3,19.041-1.9,18.405-7.934-5.394-7.3-10.473-6.664S193.158,239.62,193.158,242.476Z" transform="translate(15.342 -1.508)" fill="#fff" stroke="#000" stroke-miterlimit="10" stroke-width="1"/>
        <path id="Trazado_6671" data-name="Trazado 6671" d="M205.1,228.97s-17.7,2.78-18.443,6.6.646,12.672,5.379,14,20.345-.213,23.175-5.271-1.08-14.669-4.7-15.715S205.1,228.97,205.1,228.97Z" transform="translate(9.432 -7.678)" fill="#fff" stroke="#000" stroke-miterlimit="10" stroke-width="1"/>
        <path id="Trazado_6672" data-name="Trazado 6672" d="M202.484,222.578s-17.7,2.78-18.443,6.6.647,12.672,5.379,14,20.345-.213,23.175-5.269-1.078-14.669-4.7-15.715S202.484,222.578,202.484,222.578Z" transform="translate(7.068 -13.457)" fill="#fff" stroke="#000" stroke-miterlimit="10" stroke-width="1"/>
        <path id="Trazado_6673" data-name="Trazado 6673" d="M202.237,212.648s-19.363-1.108-21.023,2.765S179,228.969,183.7,231.457s21.576,4.427,25.725-.276,2.639-14.179-.956-16.116A23.533,23.533,0,0,0,202.237,212.648Z" transform="translate(3.599 -21.846)" fill="#fff" stroke="#000" stroke-miterlimit="10" stroke-width="1"/>
        <path id="Trazado_6674" data-name="Trazado 6674" d="M214.11,227.342s4.758-9.745,1.359-17-10.876-5.665-14.049-3.4a16.794,16.794,0,0,0-4.836,5.83s8.009-.166,11.408,3.233S214.11,227.342,214.11,227.342Z" transform="translate(18.58 -28.617)" stroke="#000" stroke-miterlimit="10" stroke-width="1"/>
        <path id="Trazado_6675" data-name="Trazado 6675" d="M213.52,212.8a5.706,5.706,0,0,0-3.776-4.061c-3.785-1.253-10.092-2.54-12.259,1.792-3.172,6.348-3.172,22.849,6.348,26.023s12.059-4.442,11.425-12.695A70.336,70.336,0,0,0,213.52,212.8Z" transform="translate(17.679 -26.367)" fill="#fff" stroke="#000" stroke-miterlimit="10" stroke-width="1"/>
      </g>
      <g id="Grupo_2842" data-name="Grupo 2842" transform="translate(1287.1 920.846)">
        <path id="Trazado_6676" data-name="Trazado 6676" d="M380.444,255.668c-11.366-8.112-32.657-15.873-52.272-3.484-19.69,12.438-19.923,40.093-19.342,49.833,20.008-.885,53.98-8.807,62.895-17.2C377.989,278.923,379.9,267.068,380.444,255.668Z" transform="translate(-308.685 -245.703)" stroke="#000" stroke-miterlimit="10" stroke-width="1"/>
        <g id="Grupo_2375" data-name="Grupo 2375" transform="translate(6.15 11.161)">
          <path id="Trazado_6677" data-name="Trazado 6677" d="M319.387,321.691a14.765,14.765,0,0,0-3.555,13.032c1.779,7.7,0,74.638,0,74.638s.592,15.993,28.434,20.14,37.317-3.555,37.317-3.555-.592-84.114-1.184-93.591a29.346,29.346,0,0,0-5.331-15.4Z" transform="translate(-308.701 -192.444)" fill="#fff" stroke="#000" stroke-miterlimit="10" stroke-width="1"/>
          <path id="Trazado_6678" data-name="Trazado 6678" d="M375.067,316.954l-55.68,4.737a14.765,14.765,0,0,0-3.555,13.032c.64,2.767.817,13.186.786,25.389A61.658,61.658,0,0,1,347.87,381.85C361.241,399.3,370.1,429.918,370.1,429.918c8.216-1.361,11.48-3.972,11.48-3.972s-.592-84.114-1.184-93.591A29.346,29.346,0,0,0,375.067,316.954Z" transform="translate(-308.701 -192.444)" fill="#fedc00" opacity="0.49" style="mix-blend-mode: multiply;isolation: isolate"/>
          <path id="Trazado_6679" data-name="Trazado 6679" d="M377.1,258.788s-6.516-8.292-30.8-7.108-34.948,30.209-34.356,36.133,4.147,85.3,6.516,91.815,29.619,12.44,49.758,8.887,21.916-21.326,19.548-33.766-5.924-85.3-5.924-87.667S380.06,262.341,377.1,258.788Z" transform="translate(-311.915 -251.564)" fill="#fff" stroke="#000" stroke-miterlimit="10" stroke-width="1"/>
          <path id="Trazado_6681" data-name="Trazado 6681" d="M387.037,352.806c-2.371-12.44-5.924-85.3-5.924-87.667s-1.776-4.739-4.739-8.292a14.071,14.071,0,0,0-4.421-3.134l-2.841,1.182s1.27,12.695,1.27,29.2,5.762,65.541-8.518,68.714-48.605-56.021-48.605-56.021l-.545,15.408c1.4,25.671,3.466,61.223,5.017,65.492,2.371,6.516,29.619,12.44,49.758,8.886S389.406,365.246,387.037,352.806Z" transform="translate(-311.192 -249.622)" fill="#fedc00" opacity="0.49" style="mix-blend-mode: multiply;isolation: isolate"/>
          <path id="Trazado_6680" data-name="Trazado 6680" d="M316.282,325.911s17.179,15.4,37.319,14.216,25.471-14.216,25.471-14.216,1.777-5.924-21.324-11.255S316.282,325.911,316.282,325.911Z" transform="translate(-307.966 -195.477)" stroke="#000" stroke-miterlimit="10" stroke-width="1"/>
        </g>
      </g>
      <g id="Grupo_2839" data-name="Grupo 2839" transform="translate(1221.319 676.058)">
        <ellipse id="Elipse_136" data-name="Elipse 136" cx="56.415" cy="60.928" rx="56.415" ry="60.928" transform="translate(15.232 6.77)" stroke="#000" stroke-miterlimit="10" stroke-width="1"/>
        <ellipse id="Elipse_137" data-name="Elipse 137" cx="63.749" cy="60.928" rx="63.749" ry="60.928" transform="translate(7.898)" fill="#fff" stroke="#000" stroke-miterlimit="10" stroke-width="1"/>
        <path id="Trazado_6682" data-name="Trazado 6682" d="M356.66,119.576c2.175,27.952-4.785,74.944-67.571,101.112a65.16,65.16,0,0,0,43.18,16.116c35.207,0,63.748-27.278,63.748-60.928C396.017,150.486,379.763,128.729,356.66,119.576Z" transform="translate(-260.621 -114.948)" fill="#fedc00" opacity="0.49" style="mix-blend-mode: multiply;isolation: isolate"/>
        <circle id="Elipse_138" data-name="Elipse 138" cx="7.052" cy="7.052" r="7.052" transform="translate(0 43.44)" fill="#fff" stroke="#000" stroke-miterlimit="10" stroke-width="1"/>
        <g id="Grupo_2377" data-name="Grupo 2377" transform="translate(18.617 24.823)">
          <ellipse id="Elipse_140" data-name="Elipse 140" cx="52.184" cy="43.722" rx="52.184" ry="43.722" stroke="#000" stroke-miterlimit="10" stroke-width="1"/>
          <path id="Trazado_6683" data-name="Trazado 6683" d="M289.228,149.828v20.311l3.25-15.437,8.938,18.687V152.265l34.937,50.375-24.375-56.063h11.375l-8.125-7.314,14.626-4.061-18.689-1.624S296.542,137.639,289.228,149.828Z" transform="translate(-279.113 -127.111)" fill="#fedc00"/>
        </g>
      </g>
      <g id="Grupo_2840" data-name="Grupo 2840" transform="translate(1339.538 779.119)">
        <path id="Trazado_6684" data-name="Trazado 6684" d="M389.966,201.138s.55.307,1.54.866c8.112,4.572,45.805,26.079,54.728,35.853,10.014,10.966-13.352,27.179-33.379,31.947s-58.653-29.087-64.376-35.763-10.968-42.439,2.386-49.115S389.966,201.138,389.966,201.138Z" transform="translate(-330.569 -160.028)" fill="#fff" stroke="#000" stroke-miterlimit="10" stroke-width="1"/>
        <path id="Trazado_6685" data-name="Trazado 6685" d="M446.234,237.857c-8.923-9.774-46.617-31.281-54.728-35.853-.992-.56-1.54-.866-1.54-.866s-25.749-22.887-39.1-16.212-8.108,42.439-2.386,49.115c2.3,2.687,9.936,9.772,19.536,16.973L404.4,219.174l43.26,28.607C449.208,244.308,449,240.883,446.234,237.857Z" transform="translate(-330.569 -160.028)" fill="#fedc00" opacity="0.49" style="mix-blend-mode: multiply;isolation: isolate"/>
        <path id="Trazado_6686" data-name="Trazado 6686" d="M342.311,180.436a32.9,32.9,0,0,1,10.861-7.118c27.25-10.341,41.811,20.782,46.961,42.07,0,0-6.348,5.076-22.215,2.538S339.2,204.6,336.66,195.7C335.075,190.16,338.008,184.691,342.311,180.436Z" transform="translate(-336.224 -171.271)" stroke="#000" stroke-miterlimit="10" stroke-width="1"/>
        <path id="Trazado_6687" data-name="Trazado 6687" d="M367.168,238.865s26.225-31,44.823-31.473,27.181,13.83,25.273,25.273-16.214,24.319-16.214,24.319,10.014-34.333-4.768-34.333S367.168,238.865,367.168,238.865Z" transform="translate(-308.247 -138.624)" stroke="#000" stroke-miterlimit="10" stroke-width="1"/>
        <path id="Trazado_6688" data-name="Trazado 6688" d="M364.763,241.616s31.471-25.749,53.885-29.087,30.517,23.843,9.536,40.055-34.809,22.889-49.593,20.981S351.888,256.875,364.763,241.616Z" transform="translate(-315.381 -134.223)" fill="#fff" stroke="#000" stroke-miterlimit="10" stroke-width="1"/>
        <path id="Trazado_6689" data-name="Trazado 6689" d="M373.911,263.746s45.626-19.134,53.721-46.363" transform="translate(-302.151 -129.58)" fill="none" stroke="#000" stroke-miterlimit="10" stroke-width="0.5"/>
        <path id="Trazado_6690" data-name="Trazado 6690" d="M426.442,213.382c.322,5.547-1.342,19.725-24.375,29.738-29.2,12.695-35.07,12.729-35.07,12.729s1.63,7.54-2.279,13.774a25.377,25.377,0,0,0,8.955,2.915c14.784,1.908,28.611-4.768,49.593-20.981C439.559,238.97,438.3,219.774,426.442,213.382Z" transform="translate(-310.463 -133.197)" fill="#fedc00" opacity="0.49" style="mix-blend-mode: multiply;isolation: isolate"/>
        <path id="Trazado_6691" data-name="Trazado 6691" d="M356.149,237.031s5.722-7.63,13.828-8.582,16.69,10.49,19.551,20.027-.954,14.306-5.246,15.736S356.149,237.031,356.149,237.031Z" transform="translate(-318.21 -119.625)" stroke="#000" stroke-miterlimit="10" stroke-width="1"/>
        <path id="Trazado_6692" data-name="Trazado 6692" d="M394.3,261.031s2.862-9.06-9.538-21.935-16.69-5.722-27.657.478-14.782,17.166-10.014,24.8,6.676,12.4,20.981,14.782,22.413-12.4,22.413-12.4S393.822,264.369,394.3,261.031Z" transform="translate(-328.226 -116.443)" fill="#fff" stroke="#000" stroke-miterlimit="10" stroke-width="1"/>
        <path id="Trazado_6693" data-name="Trazado 6693" d="M377.3,250.21s-10.968,6.676-17.643,7.154" transform="translate(-315.04 -99.9)" fill="#fff" stroke="#000" stroke-linecap="round" stroke-miterlimit="10" stroke-width="1"/>
        <path id="Trazado_6694" data-name="Trazado 6694" d="M372.8,255.96c-8.091,2.942-18.731,5.031-26.256,6.268,4.237,6.891,6.7,11.263,20.2,13.512,14.306,2.386,22.413-12.4,22.413-12.4s3.338-2.384,3.814-5.722c0,0,2.862-9.06-9.538-21.935C383.429,235.685,386.765,250.884,372.8,255.96Z" transform="translate(-326.894 -113.033)" fill="#fedc00" opacity="0.49" style="mix-blend-mode: multiply;isolation: isolate"/>
      </g>
      <g id="Grupo_2846" data-name="Grupo 2846" transform="translate(1076.151 1116.687)">
        <g id="Grupo_2381-3" data-name="Grupo 2381">
          <path id="Trazado_6695-3" data-name="Trazado 6695" d="M206.187,472.739s-17.771-12.695-1.27-29.2-95.715,15.233-89.369,0c4.006-9.612,61.373-26.342,107.2-48.239s58.775-33.261,76.107-39.35c46.967-16.5,93.936-2.54,116.785,13.963s64.74,27.928,87.589,25.388,50.777,20.311,54.585,40.622,11.425,22.849,15.233,26.658,7.616,13.963,7.616,13.963H235.383S215.074,479.085,206.187,472.739Z" transform="translate(-197.899 -348.554)" stroke="#000" stroke-miterlimit="10" stroke-width="1"/>
          <path id="Trazado_6696-3" data-name="Trazado 6696" d="M380.426,383.886s10.85,16.275,4.067,29.838S365.5,427.287,365.5,427.287" transform="translate(-46.364 -316.61)" stroke="#fff" stroke-miterlimit="10" stroke-width="1"/>
          <path id="Trazado_6697-3" data-name="Trazado 6697" d="M371.672,402.4s0,5.427-18.988,12.207" transform="translate(-57.956 -299.866)" stroke="#fff" stroke-miterlimit="10" stroke-width="1"/>
          <path id="Trazado_6698-3" data-name="Trazado 6698" d="M273.846,411.646c-6,1.7-10.2,2.75-10.2,2.75" transform="translate(-138.456 -291.511)" stroke="#fff" stroke-miterlimit="10" stroke-width="1"/>
          <path id="Trazado_6699-3" data-name="Trazado 6699" d="M327.734,379.879c-6.272,5.255-13.055,12.377-15.088,19.835-4.069,14.919,2.712,17.632-8.138,25.77-6.03,4.522-20.439,9.463-32.052,12.963" transform="translate(-130.491 -320.233)" stroke="#fff" stroke-miterlimit="10" stroke-width="1"/>
          <path id="Trazado_6700-2" data-name="Trazado 6700" d="M310.743,375.338s-2.586,1.521-6.179,4.105" transform="translate(-101.462 -324.338)" stroke="#fff" stroke-miterlimit="10" stroke-width="1"/>
          <path id="Trazado_6701-3" data-name="Trazado 6701" d="M319.04,400.268s-18.988,12.207-35.264,17.632-52.9-4.069-52.9-4.069" transform="translate(-168.08 -301.798)" stroke="#fff" stroke-miterlimit="10" stroke-width="1"/>
          <path id="Trazado_6702-3" data-name="Trazado 6702" d="M235.963,409.018a41.992,41.992,0,0,1-16.48-13.736" transform="translate(-178.385 -306.306)" stroke="#fff" stroke-miterlimit="10" stroke-width="1"/>
          <path id="Trazado_6703-3" data-name="Trazado 6703" d="M243.1,406.267a51.722,51.722,0,0,1-10.739-2.131" transform="translate(-166.74 -298.301)" stroke="#fff" stroke-miterlimit="10" stroke-width="1"/>
        </g>
      </g>
      <path id="Trazado_7505" data-name="Trazado 7505" d="M307.295,251.454C291.934,238.52,278.645,240,271.01,242.783c-1.232,6.251-2.043,10.25-2.241,10.844-1.186,3.553,3.553,14.808,18.361,30.8,10.539,11.381,22.878,17.048,35.521,19.8C326.359,289.935,327.1,268.131,307.295,251.454Z" transform="translate(942.168 670.795)" stroke="#000" stroke-miterlimit="10" stroke-width="1"/>
      <g id="Grupo_2843" data-name="Grupo 2843" transform="translate(1154.736 919.043)">
        <path id="Trazado_6705" data-name="Trazado 6705" d="M273.483,364.021s-27.84,14.81-28.432,30.8,15.993,15.995,34.356,11.255,42.056-24.287,46.2-26.064,18.363-10.071,15.4-21.918S322.057,335,322.057,335Z" transform="translate(-233.869 -163.168)" fill="#fff" stroke="#000" stroke-miterlimit="10" stroke-width="1"/>
        <path id="Trazado_6706" data-name="Trazado 6706" d="M341.192,347.76c-15.956,11.552-51.337,36.342-67.135,40.857-14.071,4.02-24.043-.962-29-4.579-.023,15.2,16.276,15.162,34.333,10.5,18.363-4.739,42.056-24.287,46.2-26.064C329.6,366.761,342.94,358.958,341.192,347.76Z" transform="translate(-233.851 -151.629)" fill="#fedc00" stroke="#000" stroke-miterlimit="10" stroke-width="1"/>
        <path id="Trazado_6707" data-name="Trazado 6707" d="M243.192,325.99S262.148,387,269.256,392.926s37.319,1.186,37.319,1.186,6.516,11.847,11.255,17.177,18.956,1.186,19.548-13.624-8.294-35.54-8.294-35.54l-20.14-55.682s-23.693-4.737-45.611,0S243.192,325.99,243.192,325.99Z" transform="translate(-235.566 -190.888)" fill="#fff" stroke="#000" stroke-miterlimit="10" stroke-width="1"/>
        <path id="Trazado_6708" data-name="Trazado 6708" d="M288.585,350.093a40.178,40.178,0,0,1,.568,10.027" transform="translate(-194.495 -149.519)" fill="none" stroke="#000" stroke-linecap="round" stroke-miterlimit="10" stroke-width="0.5"/>
        <path id="Trazado_6709" data-name="Trazado 6709" d="M274.2,312.846s19.751,38.058,26.124,64.671" transform="translate(-207.503 -183.195)" fill="none" stroke="#000" stroke-linecap="round" stroke-miterlimit="10" stroke-width="0.5"/>
        <path id="Trazado_6710" data-name="Trazado 6710" d="M335.848,397.663c.592-14.808-8.294-35.54-8.294-35.54l-20.14-55.682s-18.626-3.719-38.126-1.26a89.862,89.862,0,0,1-14.7,3.486,22.613,22.613,0,0,0-9.738,7.23c5.055,1.611,10.794,3.336,16.789,4.934,19.041,5.078,25.388-2.538,29.2,12.695s8.11,46.274,14.21,60.585c0,0,6.516,11.847,11.255,17.177S335.255,412.473,335.848,397.663Z" transform="translate(-234.036 -190.886)" fill="#fedc00" opacity="0.49" style="mix-blend-mode: multiply;isolation: isolate"/>
        <path id="Trazado_6711" data-name="Trazado 6711" d="M244.428,301.137s-8.885,11.255-3.555,24.879,26.656,17.177,45.019,10.661,28.434-22.509,26.063-30.8S244.428,301.137,244.428,301.137Z" transform="translate(-239.171 -194.467)" stroke="#000" stroke-miterlimit="10" stroke-width="1"/>
        <path id="Trazado_6712" data-name="Trazado 6712" d="M346.364,296.336s-23.695,54.5-39.1,65.753-49.758,11.845-62.2-1.778,2.369-45.611,17.771-70.488,23.1-46.205,40.28-45.019S348.733,267.312,346.364,296.336Z" transform="translate(-238.037 -244.756)" fill="#fff" stroke="#000" stroke-miterlimit="10" stroke-width="1"/>
        <path id="Trazado_6713" data-name="Trazado 6713" d="M271.356,307.6a35.434,35.434,0,0,1-6.822,3.361" transform="translate(-213.939 -190.237)" fill="none" stroke="#000" stroke-linecap="round" stroke-miterlimit="10" stroke-width="0.5"/>
        <path id="Trazado_6714" data-name="Trazado 6714" d="M309.773,274.424c-7.354,15.669-21.134,41.8-37.279,56.706" transform="translate(-209.043 -217.933)" fill="none" stroke="#000" stroke-linecap="round" stroke-miterlimit="10" stroke-width="0.5"/>
        <path id="Trazado_6716" data-name="Trazado 6716" d="M289.557,332.281c-13.321,11.219-31.281,14.686-44.7,15.547,14.582,10.151,44.364,8.757,58.4-1.5,15.4-11.255,39.1-65.753,39.1-65.753a41.948,41.948,0,0,0-2.654-18.386C333.024,274.413,309.933,315.123,289.557,332.281Z" transform="translate(-234.029 -228.995)" fill="#fedc00" opacity="0.49" style="mix-blend-mode: multiply;isolation: isolate"/>
      </g>
      <g id="Grupo_2845" data-name="Grupo 2845" transform="translate(929.455 760.921) rotate(-20)">
        <path id="Trazado_2701" data-name="Trazado 2701" d="M0,25.346,25.543,50.89H50.1L25.543,25.346,50.1,0H25.543Z" transform="translate(27.128)"/>
        <path id="Trazado_2702" data-name="Trazado 2702" d="M7.524,15.643h20.99l-7.921-7.92L28.514,0H7.524L0,7.723Z" transform="translate(0 17.425)"/>
        <path id="Trazado_2703" data-name="Trazado 2703" d="M0,0,8.911,8.911h20.4L20.792,0Z" transform="translate(12.079 37.227)"/>
        <path id="Trazado_2704" data-name="Trazado 2704" d="M29.306,0,20.4,8.911H0L8.514,0Z" transform="translate(12.079 4.752)"/>
      </g>
    </g>
  </g>
</svg>
