<svg xmlns="http://www.w3.org/2000/svg" width="270.586" height="270.585" viewBox="0 0 270.586 270.585">
  <g id="Grupo_3115" data-name="Grupo 3115" transform="translate(-403.872 -93.151) rotate(-30)">
    <g id="Grupo_2976" data-name="Grupo 2976" transform="translate(254.667 369.38)">
      <path id="Trazado_7820" data-name="Trazado 7820" d="M450.751,237.052A98.031,98.031,0,0,1,374.8,332.539c-.105.035-.178.035-.286.073-2.57.57-5.143,1.072-7.786,1.463a100.648,100.648,0,0,1-14,1A98.019,98.019,0,0,1,349.12,139.1c.891-.073,1.82-.073,2.748-.073a7.031,7.031,0,0,1,.859-.035,9.509,9.509,0,0,1,1,.035,96.517,96.517,0,0,1,38.4,8.253A98.022,98.022,0,0,1,450.751,237.052Z" transform="translate(-254.667 -138.993)" fill="none" stroke="#d1d2d2" stroke-width="2"/>
      <path id="Trazado_7822" data-name="Trazado 7822" d="M450.751,237.052A98.042,98.042,0,1,1,349.12,139.1c1.177-.073,2.392-.108,3.607-.108A98.054,98.054,0,0,1,450.751,237.052Z" transform="translate(-254.667 -138.993)" fill="none" stroke="#d1d2d2" stroke-linecap="round" stroke-linejoin="round" stroke-width="2"/>
      <path id="Trazado_7823" data-name="Trazado 7823" d="M439.281,237.052a98.034,98.034,0,0,1-76.235,95.559c-1.177.07-2.392.105-3.607.105A98.035,98.035,0,0,1,337.65,139.1c1.177-.073,2.392-.108,3.607-.108A98.054,98.054,0,0,1,439.281,237.052Z" transform="translate(-243.197 -138.993)" fill="none" stroke="#d1d2d2" stroke-linecap="round" stroke-linejoin="round" stroke-width="2"/>
      <g id="Grupo_2975" data-name="Grupo 2975" transform="translate(68.669 22.929)">
        <path id="Trazado_7824" data-name="Trazado 7824" d="M343.269,283.968l2.54,10.353-16.943,4.155-2.54-10.353c-15.186-.065-27.364-9.854-31.244-25.666l-1.15-4.706,18.69-6.782,1.2,4.895c2.354,9.6,8.68,14.236,16.587,12.3s11.6-8.034,9.708-15.756c-2.262-9.22-12.861-15.005-25.107-20.982-14.495-7.022-29.449-15.928-33.56-32.68-4.015-16.379,1.026-29.991,13.941-36.749l-2.54-10.353,16.941-4.155,2.54,10.353c14.714-.219,25.672,9.471,29.781,26.222l.832,3.388-18.693,6.779-.923-3.763c-2.495-10.167-7.743-14.468-14.705-12.759S298.767,184.712,300.8,193c2.26,9.222,13,14.773,25.1,20.982,14.357,7.262,29.454,15.934,33.566,32.686C363.39,262.664,356.932,277.021,343.269,283.968Z" transform="translate(-280.103 -147.486)" fill="none" stroke="#d1d2d2" stroke-miterlimit="10" stroke-width="2"/>
        <path id="Trazado_7825" data-name="Trazado 7825" d="M343.269,283.968l2.54,10.353-16.943,4.155-2.54-10.353c-15.186-.065-27.364-9.854-31.244-25.666l-1.15-4.706,18.69-6.782,1.2,4.895c2.354,9.6,8.68,14.236,16.587,12.3s11.6-8.034,9.708-15.756c-2.262-9.22-12.861-15.005-25.107-20.982-14.495-7.022-29.449-15.928-33.56-32.68-4.015-16.379,1.026-29.991,13.941-36.749l-2.54-10.353,16.941-4.155,2.54,10.353c14.714-.219,25.672,9.471,29.781,26.222l.832,3.388-18.693,6.779-.923-3.763c-2.495-10.167-7.743-14.468-14.705-12.759S298.767,184.712,300.8,193c2.26,9.222,13,14.773,25.1,20.982,14.357,7.262,29.454,15.934,33.566,32.686C363.39,262.664,356.932,277.021,343.269,283.968Z" transform="translate(-280.103 -147.486)" fill="none" stroke="#d1d2d2" stroke-width="2" opacity="0.3"/>
      </g>
      <line id="Línea_80" data-name="Línea 80" y1="0.949" x2="20.711" transform="translate(47.959 181.379)" fill="none" stroke="#d1d2d2" stroke-linecap="round" stroke-linejoin="round" stroke-width="2"/>
      <line id="Línea_81" data-name="Línea 81" y1="1.532" x2="18.075" transform="translate(37.993 173.92)" fill="none" stroke="#d1d2d2" stroke-linecap="round" stroke-linejoin="round" stroke-width="2"/>
      <line id="Línea_82" data-name="Línea 82" y1="1.532" x2="18.075" transform="translate(29.885 166.651)" fill="none" stroke="#d1d2d2" stroke-linecap="round" stroke-linejoin="round" stroke-width="2"/>
      <line id="Línea_83" data-name="Línea 83" x2="15.475" transform="translate(27.415 30.065)" fill="none" stroke="#d1d2d2" stroke-linecap="round" stroke-linejoin="round" stroke-width="2"/>
      <line id="Línea_84" data-name="Línea 84" y1="0.7" x2="15.407" transform="translate(35.057 22.229)" fill="none" stroke="#d1d2d2" stroke-linecap="round" stroke-linejoin="round" stroke-width="2"/>
      <line id="Línea_85" data-name="Línea 85" y1="1.532" x2="16.261" transform="translate(44.704 14.259)" fill="none" stroke="#d1d2d2" stroke-linecap="round" stroke-linejoin="round" stroke-width="2"/>
    </g>
  </g>
</svg>
