<svg xmlns="http://www.w3.org/2000/svg" width="929.688" height="359.873" viewBox="0 0 929.688 359.873">
  <g id="Group_1" data-name="Group 1" transform="translate(-111.654 -285.744)">
    <g id="Grupo_3081" data-name="Grupo 3081" transform="translate(561.256 -415.072)">
      <g id="Grupo_3033" data-name="Grupo 3033" transform="translate(-288.03 701.365)">
        <path id="Trazado_7506" data-name="Trazado 7506" d="M9.668,25.139S-1.7,16.706.218,12.358C1.373,9.743,14.661,11.7,17.949,9,26.4,2.063,32.438,6.056,39.213,4.555S47.022.609,51.5.091s5.509,1.276,6.995,2.66,4.121,2,7.437,2.762c8.568,1.978,27.5-.844,27.634.513C93.9,9.293,56.225,12.6,56.225,12.6S75.274,5.9,93.13,6.745s.116,19.637.116,19.637L55.075,17.571l.5,7.568Z" transform="translate(20.798 172.534) rotate(-13)"/>
        <path id="Trazado_7507" data-name="Trazado 7507" d="M64.2,391.389,85.9,375.75s3.531-.5,3.026,3.027-5.549,7.568-5.549,7.568l.5,4.036.789,2.184H59.159Z" transform="translate(-59.159 -199.516)"/>
        <path id="Trazado_7504" data-name="Trazado 7504" d="M6.641,0H51.5a6.641,6.641,0,0,1,6.641,6.641V56.359A6.641,6.641,0,0,1,51.5,63H6.641A6.641,6.641,0,0,1,0,56.359V6.641A6.641,6.641,0,0,1,6.641,0Z" transform="matrix(0.998, 0.061, -0.061, 0.998, 132.252, 23.061)" fill="#fedc00" stroke="#000" stroke-width="1"/>
        <g id="Grupo_2841" data-name="Grupo 2841" transform="translate(90.344 37.357)">
          <path id="Trazado_6654" data-name="Trazado 6654" d="M237.957,190.385s-3.594,4.44-14.165,7.611-13.107,4.863-13.107,4.863-6.131,2.114-8.245,7.4-.846,8.034,11.416,7.188,37.63-10.782,37.63-10.782,4.651-8.456,3.594-15.644S240.07,187.425,237.957,190.385Z" transform="translate(-201.608 -176.971)" fill="#fff" stroke="#000" stroke-miterlimit="10" stroke-width="1"/>
          <path id="Trazado_6655" data-name="Trazado 6655" d="M216.61,223.389s25.248-3.922,37.748-11.03" transform="translate(-207.095 -186.312)" fill="none" stroke="#263238" stroke-miterlimit="10" stroke-width="0.5"/>
          <path id="Trazado_6656" data-name="Trazado 6656" d="M214.333,215.469s.242,2.421.466,4.866c1.108-.006,2.336-.053,3.71-.149,12.261-.845,37.63-10.782,37.63-10.782a34.931,34.931,0,0,0,3.595-11l-1.429-4.073s-7.188,8.034-13.953,12.684S214.333,215.469,214.333,215.469Z" transform="translate(-206.261 -179.715)" fill="#fedc00" opacity="0.49"/>
          <path id="Trazado_6657" data-name="Trazado 6657" d="M244.6,219.007a17.261,17.261,0,0,0-.123-11.069,10.55,10.55,0,0,0-4.73-5.5c-1.132.436-2.371.863-3.726,1.27l-.979.3c2.217,1.368,5.765,4.3,6.053,9.217a35.414,35.414,0,0,1-.119,6.855C242.19,219.734,243.4,219.375,244.6,219.007Z" transform="translate(-213.839 -182.686)" stroke="#000" stroke-miterlimit="10" stroke-width="1"/>
          <path id="Trazado_6658" data-name="Trazado 6658" d="M274.949,174.327a10.959,10.959,0,0,0-3.618-2.371c-9.076-3.444-13.585,7.173-15.3,14.263,0,0,1.774,1.44,7.059.595s12.895-4.439,13.742-7.4C277.359,177.566,276.381,175.745,274.949,174.327Z" transform="translate(-221.455 -171.287)" stroke="#000" stroke-miterlimit="10" stroke-width="1"/>
          <path id="Trazado_6659" data-name="Trazado 6659" d="M212.724,212.116s0,4.863-3.382,6.131-6.553-1.057-6.553-1.057-.633-9.3.211-10.992S211.244,208.1,212.724,212.116Z" transform="translate(-201.956 -183.904)" fill="#fff" stroke="#000" stroke-miterlimit="10" stroke-width="1"/>
        </g>
        <g id="Grupo_2838" data-name="Grupo 2838" transform="translate(125.58 37.996)">
          <path id="Trazado_6660" data-name="Trazado 6660" d="M285.226,172.889s-5.721.789-7.1,2.565-9.076,43.406-9.47,44.591,1.183,4.932,6.116,10.259,11.049,6.905,16.968,7.3,19.927-2.565,23.282-5.721,2.959-11.443,2.959-15.981,1.776-35.712.592-38.474-8.879-5.129-10.062-5.129S286.607,172.691,285.226,172.889Z" transform="translate(-261.346 -172.297)" fill="#fff" stroke="#000" stroke-miterlimit="10" stroke-width="1"/>
          <path id="Trazado_6661" data-name="Trazado 6661" d="M325.788,215.9c0-4.539,1.776-35.712.592-38.474S317.5,172.3,316.317,172.3s-21.9.394-23.282.592a29.369,29.369,0,0,0-3.085.631A22.266,22.266,0,0,0,308.8,185.006a37.211,37.211,0,0,0,12.463-1.332l-2.314,25.855-17.937-1.69,13.285,7.187.846,10.992,9.58,2.631C326.006,224.775,325.788,219.292,325.788,215.9Z" transform="translate(-269.156 -172.298)" fill="#fedc00" opacity="0.49"/>
          <g id="Grupo_2371" data-name="Grupo 2371" transform="translate(0 12.923)">
            <g id="Grupo_2370" data-name="Grupo 2370" transform="translate(12.417 15.752)">
              <path id="Trazado_6662" data-name="Trazado 6662" d="M297.363,233.216c-9.025,0-20.149-13.932-20.618-14.525l1.492-1.181c.109.138,11.02,13.8,19.126,13.8,2.353,0,3.925-.566,4.674-1.681,1.141-1.7.12-4.321.109-4.347l1.761-.721c.059.145,1.428,3.568-.29,6.129C302.493,232.366,300.388,233.216,297.363,233.216Z" transform="translate(-276.745 -217.51)" stroke="#000" stroke-miterlimit="10" stroke-width="1"/>
            </g>
            <path id="Trazado_6663" data-name="Trazado 6663" d="M261.381,233.437c.547-.491,1.264-1.116,1.891-1.606-.5-.06-3.228-.466-3.995-2.378-.731-1.821.431-4.71,3.357-8.355,8.922-11.112,23.143-13.452,23.286-13.474l-.281-1.967c-.611.1-15.065,2.459-24.463,14.164-3.468,4.319-4.7,7.822-3.651,10.412A5.872,5.872,0,0,0,261.381,233.437Z" transform="translate(-257.164 -197.422)" stroke="#000" stroke-miterlimit="10" stroke-width="1"/>
            <rect id="Rect치ngulo_2167" data-name="Rect치ngulo 2167" width="2.959" height="4.538" transform="translate(27.95 6.928) rotate(3.094)" fill="#fff" stroke="#000" stroke-miterlimit="10" stroke-width="1"/>
            <rect id="Rect치ngulo_2168" data-name="Rect치ngulo 2168" width="2.959" height="4.538" transform="translate(36.344 24.507) rotate(-86.537)" fill="#fff" stroke="#000" stroke-miterlimit="10" stroke-width="1"/>
            <path id="Trazado_6664" data-name="Trazado 6664" d="M304.4,195.346l-1.184,16.876a2.876,2.876,0,0,0,2.642,3.068l16.627,1.312a2.874,2.874,0,0,0,3.1-2.794l.444-17.6a2.876,2.876,0,0,0-2.769-2.946l-15.886-.583a2.877,2.877,0,0,0-2.974,2.672Z" transform="translate(-274.006 -192.672)" fill="#fff" stroke="#000" stroke-miterlimit="10" stroke-width="1"/>
            <path id="Trazado_6665" data-name="Trazado 6665" d="M316.772,192.945l-.49,10.777,5.327.395.685-10.969Z" transform="translate(-278.788 -192.773)" fill="#fedc00" stroke="#000" stroke-miterlimit="10" stroke-width="1"/>
            <path id="Trazado_6666" data-name="Trazado 6666" d="M332.945,216.4a3.354,3.354,0,1,1-3.354-3.354,3.354,3.354,0,0,1,3.354,3.354Z" transform="translate(-282.43 -200.127)" fill="#fedc00" stroke="#000" stroke-miterlimit="10" stroke-width="1"/>
          </g>
        </g>
        <g id="Grupo_2844" data-name="Grupo 2844" transform="translate(26.83 0)">
          <path id="Trazado_6667" data-name="Trazado 6667" d="M197.8,231.253s4.757.845,8.033-1.585,1.48-6.765-1.48-9.2-8.985-3.171-11.416-2.008-1.162,5.708-.423,8.139S194.519,230.83,197.8,231.253Z" transform="translate(-134.401 -150.991)" fill="#fff" stroke="#000" stroke-miterlimit="10" stroke-width="1"/>
          <g id="Grupo_2373" data-name="Grupo 2373" transform="translate(0 0)">
            <path id="Trazado_6668" data-name="Trazado 6668" d="M157,115.624s2.99,9.4-7.581,14.893-12.446,2.942-24.708,10.976-5.257,3.259-3.459,10.571,9.06,20.809,9.06,20.809,20.806-13.315,26.295-13.6a18.593,18.593,0,0,0,12.261-5.074Z" transform="translate(-117.626 -113.572)" fill="#fedc00" stroke="#000" stroke-miterlimit="10" stroke-width="1"/>
            <path id="Trazado_6669" data-name="Trazado 6669" d="M211.48,270.592,163.5,114.44a1.586,1.586,0,0,1,1.055-1.983h0a1.585,1.585,0,0,1,1.976,1.052L214.513,269.67Z" transform="translate(-124.128 -112.388)" stroke="#000" stroke-miterlimit="10" stroke-width="1"/>
          </g>
          <path id="Trazado_6670" data-name="Trazado 6670" d="M193.055,237.51s-.528,1.9,1.8,2.431,6.342-.633,6.13-2.643-1.8-2.432-3.488-2.22S193.055,236.559,193.055,237.51Z" transform="translate(-134.946 -157.248)" fill="#fff" stroke="#000" stroke-miterlimit="10" stroke-width="1"/>
          <path id="Trazado_6671" data-name="Trazado 6671" d="M192.674,228.458s-5.9.926-6.143,2.2.215,4.221,1.792,4.663,6.777-.071,7.719-1.756-.36-4.886-1.565-5.234A2.041,2.041,0,0,0,192.674,228.458Z" transform="translate(-132.556 -154.749)" fill="#fff" stroke="#000" stroke-miterlimit="10" stroke-width="1"/>
          <path id="Trazado_6672" data-name="Trazado 6672" d="M190.059,222.067s-5.9.926-6.143,2.2.216,4.221,1.792,4.663,6.777-.071,7.719-1.755-.359-4.886-1.565-5.234A2.041,2.041,0,0,0,190.059,222.067Z" transform="translate(-131.599 -152.412)" fill="#fff" stroke="#000" stroke-miterlimit="10" stroke-width="1"/>
          <path id="Trazado_6673" data-name="Trazado 6673" d="M187.417,212.55s-6.449-.369-7,.921-.737,4.515.828,5.344,7.187,1.475,8.569-.092.879-4.723-.318-5.368A7.838,7.838,0,0,0,187.417,212.55Z" transform="translate(-130.195 -148.997)" fill="#fff" stroke="#000" stroke-miterlimit="10" stroke-width="1"/>
          <path id="Trazado_6674" data-name="Trazado 6674" d="M202.422,212.468s1.585-3.246.453-5.662a3.07,3.07,0,0,0-4.679-1.132,5.594,5.594,0,0,0-1.611,1.942s2.668-.055,3.8,1.077A12.518,12.518,0,0,1,202.422,212.468Z" transform="translate(-136.255 -146.276)" stroke="#000" stroke-miterlimit="10" stroke-width="1"/>
          <path id="Trazado_6675" data-name="Trazado 6675" d="M201.561,209.29a1.9,1.9,0,0,0-1.258-1.353c-1.261-.417-3.361-.846-4.083.6-1.057,2.114-1.057,7.611,2.114,8.668s4.017-1.48,3.805-4.228A23.429,23.429,0,0,0,201.561,209.29Z" transform="translate(-135.891 -147.192)" fill="#fff" stroke="#000" stroke-miterlimit="10" stroke-width="1"/>
        </g>
        <g id="Grupo_2842" data-name="Grupo 2842" transform="translate(158.256 84.551)">
          <path id="Trazado_6676" data-name="Trazado 6676" d="M332.587,249.022c-3.786-2.7-10.877-5.287-17.411-1.16-6.558,4.143-6.636,13.354-6.442,16.6,6.664-.295,17.98-2.933,20.949-5.729C331.769,256.768,332.405,252.819,332.587,249.022Z" transform="translate(-308.685 -245.703)" stroke="#000" stroke-miterlimit="10" stroke-width="1"/>
          <g id="Grupo_2375" data-name="Grupo 2375" transform="translate(2.05 3.718)">
            <path id="Trazado_6677" data-name="Trazado 6677" d="M316.8,318.533a4.918,4.918,0,0,0-1.184,4.341c.593,2.565,0,24.861,0,24.861s.2,5.327,9.471,6.708,12.43-1.184,12.43-1.184-.2-28.017-.394-31.173a9.774,9.774,0,0,0-1.776-5.129Z" transform="translate(-313.245 -275.483)" fill="#fff" stroke="#000" stroke-miterlimit="10" stroke-width="1"/>
            <path id="Trazado_6678" data-name="Trazado 6678" d="M335.348,316.954,316.8,318.532a4.918,4.918,0,0,0-1.184,4.341,68.739,68.739,0,0,1,.262,8.457,20.538,20.538,0,0,1,10.409,7.241c4.454,5.812,7.4,16.011,7.4,16.011a8.842,8.842,0,0,0,3.824-1.323s-.2-28.017-.394-31.173A9.775,9.775,0,0,0,335.348,316.954Z" transform="translate(-313.245 -275.482)" fill="#fedc00" opacity="0.49"/>
            <path id="Trazado_6679" data-name="Trazado 6679" d="M333.631,253.97s-2.17-2.762-10.259-2.368-11.641,10.062-11.443,12.035,1.381,28.412,2.17,30.582,9.866,4.144,16.573,2.96,7.3-7.1,6.511-11.247-1.973-28.412-1.973-29.2S334.617,255.154,333.631,253.97Z" transform="translate(-311.921 -251.564)" fill="#fff" stroke="#000" stroke-miterlimit="10" stroke-width="1"/>
            <path id="Trazado_6681" data-name="Trazado 6681" d="M337.47,286.719c-.79-4.144-1.973-28.412-1.973-29.2s-.592-1.578-1.578-2.762a4.687,4.687,0,0,0-1.473-1.044l-.946.394s.423,4.228.423,9.726,1.919,21.83-2.837,22.887S312.9,268.06,312.9,268.06l-.182,5.132c.466,8.551,1.154,20.392,1.671,21.814.79,2.17,9.866,4.144,16.573,2.96S338.259,290.863,337.47,286.719Z" transform="translate(-312.209 -252.35)" fill="#fedc00" opacity="0.49"/>
            <path id="Trazado_6680" data-name="Trazado 6680" d="M316.282,317.7s5.722,5.129,12.43,4.735S337.2,317.7,337.2,317.7s.592-1.973-7.1-3.749S316.282,317.7,316.282,317.7Z" transform="translate(-313.514 -274.256)" stroke="#000" stroke-miterlimit="10" stroke-width="1"/>
          </g>
        </g>
        <g id="Grupo_2839" data-name="Grupo 2839" transform="translate(136.345 3.017)">
          <ellipse id="Elipse_136" data-name="Elipse 136" cx="18.791" cy="20.294" rx="18.791" ry="20.294" transform="translate(5.073 2.255)" stroke="#000" stroke-miterlimit="10" stroke-width="1"/>
          <ellipse id="Elipse_137" data-name="Elipse 137" cx="21.234" cy="20.294" rx="21.234" ry="20.294" transform="translate(2.631 0)" fill="#fff" stroke="#000" stroke-miterlimit="10" stroke-width="1"/>
          <path id="Trazado_6682" data-name="Trazado 6682" d="M311.6,119.576c.724,9.31-1.594,24.962-22.507,33.678a21.7,21.7,0,0,0,14.382,5.368c11.727,0,21.233-9.086,21.233-20.294A20.316,20.316,0,0,0,311.6,119.576Z" transform="translate(-279.607 -118.035)" fill="#fedc00" opacity="0.49"/>
          <circle id="Elipse_138" data-name="Elipse 138" cx="2.349" cy="2.349" r="2.349" transform="translate(0 14.469)" fill="#fff" stroke="#000" stroke-miterlimit="10" stroke-width="1"/>
          <g id="Grupo_2377" data-name="Grupo 2377" transform="translate(6.201 8.268)">
            <ellipse id="Elipse_140" data-name="Elipse 140" cx="17.381" cy="14.563" rx="17.381" ry="14.563" transform="translate(0 0)" stroke="#000" stroke-miterlimit="10" stroke-width="1"/>
            <path id="Trazado_6683" data-name="Trazado 6683" d="M289.228,138.991v6.765l1.083-5.142,2.977,6.224V139.8l11.637,16.779-8.119-18.674h3.789l-2.706-2.436,4.872-1.353-6.225-.541S291.664,134.931,289.228,138.991Z" transform="translate(-285.859 -131.424)" fill="#fedc00"/>
          </g>
        </g>
        <g id="Grupo_2840" data-name="Grupo 2840" transform="translate(175.722 37.345)">
          <path id="Trazado_6684" data-name="Trazado 6684" d="M358.3,189.512l.513.288c2.7,1.523,15.257,8.686,18.229,11.942,3.335,3.653-4.447,9.053-11.118,10.641s-19.536-9.688-21.442-11.912-3.653-14.136.795-16.359S358.3,189.512,358.3,189.512Z" transform="translate(-338.512 -175.819)" fill="#fff" stroke="#000" stroke-miterlimit="10" stroke-width="1"/>
          <path id="Trazado_6685" data-name="Trazado 6685" d="M377.039,201.743c-2.972-3.256-15.527-10.419-18.229-11.942l-.513-.288s-8.577-7.623-13.023-5.4-2.7,14.136-.795,16.359a50.728,50.728,0,0,0,6.507,5.653l12.119-10.605,14.409,9.528A2.846,2.846,0,0,0,377.039,201.743Z" transform="translate(-338.514 -175.819)" fill="#fedc00" opacity="0.49"/>
          <path id="Trazado_6686" data-name="Trazado 6686" d="M338.252,174.323a10.958,10.958,0,0,1,3.618-2.371c9.076-3.444,13.926,6.922,15.642,14.013,0,0-2.114,1.691-7.4.845s-12.9-4.439-13.742-7.4C335.841,177.562,336.818,175.741,338.252,174.323Z" transform="translate(-336.224 -171.271)" stroke="#000" stroke-miterlimit="10" stroke-width="1"/>
          <path id="Trazado_6687" data-name="Trazado 6687" d="M367.168,217.867s8.735-10.326,14.93-10.483,9.053,4.607,8.418,8.418-5.4,8.1-5.4,8.1,3.336-11.436-1.588-11.436S367.168,217.867,367.168,217.867Z" transform="translate(-347.543 -184.479)" stroke="#000" stroke-miterlimit="10" stroke-width="1"/>
          <path id="Trazado_6688" data-name="Trazado 6688" d="M361.1,222.03s10.482-8.577,17.948-9.688,10.165,7.942,3.176,13.342-11.594,7.624-16.518,6.988S356.816,227.112,361.1,222.03Z" transform="translate(-344.657 -186.259)" fill="#fff" stroke="#000" stroke-miterlimit="10" stroke-width="1"/>
          <path id="Trazado_6689" data-name="Trazado 6689" d="M373.911,232.826s15.2-6.373,17.893-15.443" transform="translate(-350.009 -188.137)" fill="none" stroke="#000" stroke-miterlimit="10" stroke-width="0.5"/>
          <path id="Trazado_6690" data-name="Trazado 6690" d="M385.277,213.382c.107,1.848-.447,6.57-8.119,9.905-9.726,4.228-11.681,4.24-11.681,4.24a6.839,6.839,0,0,1-.759,4.588,8.452,8.452,0,0,0,2.983.971c4.924.636,9.53-1.588,16.519-6.988C389.646,221.9,389.227,215.511,385.277,213.382Z" transform="translate(-346.647 -186.674)" fill="#fedc00" opacity="0.49"/>
          <path id="Trazado_6691" data-name="Trazado 6691" d="M356.149,231.27a7.773,7.773,0,0,1,4.606-2.858c2.7-.317,5.559,3.494,6.512,6.671s-.318,4.765-1.747,5.241S356.149,231.27,356.149,231.27Z" transform="translate(-343.512 -192.165)" stroke="#000" stroke-miterlimit="10" stroke-width="1"/>
          <path id="Trazado_6692" data-name="Trazado 6692" d="M361.469,241.612s.953-3.018-3.177-7.306-5.559-1.906-9.212.159-4.924,5.718-3.335,8.26,2.224,4.13,6.988,4.924,7.465-4.13,7.465-4.13A3.331,3.331,0,0,0,361.469,241.612Z" transform="translate(-339.461 -193.453)" fill="#fff" stroke="#000" stroke-miterlimit="10" stroke-width="1"/>
          <path id="Trazado_6693" data-name="Trazado 6693" d="M365.534,250.21s-3.653,2.224-5.877,2.383" transform="translate(-344.796 -200.144)" fill="#fff" stroke="#000" stroke-linecap="round" stroke-miterlimit="10" stroke-width="1"/>
          <path id="Trazado_6694" data-name="Trazado 6694" d="M355.289,242.437a53.039,53.039,0,0,1-8.745,2.088c1.411,2.3,2.232,3.751,6.728,4.5,4.765.795,7.465-4.13,7.465-4.13a3.323,3.323,0,0,0,1.27-1.906s.953-3.018-3.177-7.306C358.83,235.684,359.941,240.746,355.289,242.437Z" transform="translate(-339.999 -194.83)" fill="#fedc00" opacity="0.49"/>
        </g>
        <g id="Grupo_2846" data-name="Grupo 2846" transform="translate(60.477 149.782)">
          <g id="Grupo_2381" data-name="Grupo 2381" transform="translate(0 0)">
            <path id="Trazado_6695" data-name="Trazado 6695" d="M145.565,389.916s-5.919-4.228-.423-9.726-31.881,5.074-29.767,0c1.334-3.2,20.442-8.774,35.706-16.068s19.577-11.079,25.35-13.107c15.644-5.5,31.288-.846,38.9,4.651s21.564,9.3,29.174,8.456,16.913,6.765,18.181,13.53,3.805,7.611,5.074,8.879,2.537,4.651,2.537,4.651H155.29S148.525,392.03,145.565,389.916Z" transform="translate(-115.288 -348.552)" stroke="#000" stroke-miterlimit="10" stroke-width="1"/>
            <path id="Trazado_6696" data-name="Trazado 6696" d="M370.472,383.886s3.614,5.421,1.355,9.938a7.572,7.572,0,0,1-6.326,4.518" transform="translate(-231.686 -361.477)" stroke="#fff" stroke-miterlimit="10" stroke-width="1"/>
            <path id="Trazado_6697" data-name="Trazado 6697" d="M359.009,402.4s0,1.808-6.325,4.066" transform="translate(-227 -368.247)" stroke="#fff" stroke-miterlimit="10" stroke-width="1"/>
            <path id="Trazado_6698" data-name="Trazado 6698" d="M267.043,411.646c-2,.566-3.4.916-3.4.916" transform="translate(-194.432 -371.631)" stroke="#fff" stroke-miterlimit="10" stroke-width="1"/>
            <path id="Trazado_6699" data-name="Trazado 6699" d="M290.868,379.879c-2.089,1.75-4.348,4.123-5.026,6.607-1.355,4.969.9,5.873-2.711,8.583-2.008,1.506-6.808,3.152-10.676,4.318" transform="translate(-197.654 -360.011)" stroke="#fff" stroke-miterlimit="10" stroke-width="1"/>
            <path id="Trazado_6700" data-name="Trazado 6700" d="M306.622,375.338s-.861.507-2.058,1.367" transform="translate(-209.399 -358.35)" stroke="#fff" stroke-miterlimit="10" stroke-width="1"/>
            <path id="Trazado_6701" data-name="Trazado 6701" d="M260.242,400.268a63.885,63.885,0,0,1-11.746,5.873c-5.421,1.807-17.62-1.355-17.62-1.355" transform="translate(-182.444 -367.469)" stroke="#fff" stroke-miterlimit="10" stroke-width="1"/>
            <path id="Trazado_6702" data-name="Trazado 6702" d="M224.972,399.857a13.987,13.987,0,0,1-5.489-4.575" transform="translate(-178.278 -365.645)" stroke="#fff" stroke-miterlimit="10" stroke-width="1"/>
            <path id="Trazado_6703" data-name="Trazado 6703" d="M235.938,404.846a17.227,17.227,0,0,1-3.577-.71" transform="translate(-182.988 -368.884)" stroke="#fff" stroke-miterlimit="10" stroke-width="1"/>
          </g>
        </g>
        <path id="Trazado_7505" data-name="Trazado 7505" d="M281.485,244.411c-5.116-4.308-9.543-3.815-12.086-2.888-.41,2.082-.68,3.414-.746,3.612-.4,1.183,1.183,4.932,6.116,10.259a21.943,21.943,0,0,0,11.831,6.6C287.835,257.228,288.082,249.966,281.485,244.411Z" transform="translate(-135.766 -159.392)" stroke="#000" stroke-miterlimit="10" stroke-width="1"/>
        <g id="Grupo_2843" data-name="Grupo 2843" transform="translate(114.168 83.951)">
          <path id="Trazado_6705" data-name="Trazado 6705" d="M254.511,344.666s-9.273,4.933-9.47,10.259,5.327,5.328,11.443,3.749,14.008-8.09,15.388-8.681,6.116-3.354,5.129-7.3S270.69,335,270.69,335Z" transform="translate(-241.316 -277.766)" fill="#fff" stroke="#000" stroke-miterlimit="10" stroke-width="1"/>
          <path id="Trazado_6706" data-name="Trazado 6706" d="M277.078,347.76c-5.315,3.848-17.1,12.1-22.361,13.609a10.854,10.854,0,0,1-9.659-1.525c-.008,5.063,5.421,5.05,11.436,3.5,6.116-1.578,14.008-8.09,15.388-8.681C273.217,354.089,277.66,351.49,277.078,347.76Z" transform="translate(-241.324 -282.433)" fill="#fedc00" stroke="#000" stroke-miterlimit="10" stroke-width="1"/>
          <path id="Trazado_6707" data-name="Trazado 6707" d="M243.169,311.55s6.314,20.321,8.681,22.3,12.43.4,12.43.4a42,42,0,0,0,3.749,5.721c1.578,1.775,6.314.4,6.511-4.538s-2.763-11.838-2.763-11.838l-6.708-18.547a42.81,42.81,0,0,0-15.192,0C242.577,306.617,243.169,311.55,243.169,311.55Z" transform="translate(-240.629 -266.55)" fill="#fff" stroke="#000" stroke-miterlimit="10" stroke-width="1"/>
          <path id="Trazado_6708" data-name="Trazado 6708" d="M288.585,350.093a13.382,13.382,0,0,1,.189,3.34" transform="translate(-257.245 -283.286)" fill="none" stroke="#000" stroke-linecap="round" stroke-miterlimit="10" stroke-width="0.5"/>
          <path id="Trazado_6709" data-name="Trazado 6709" d="M274.2,312.846s6.579,12.676,8.7,21.541" transform="translate(-251.984 -269.662)" fill="none" stroke="#000" stroke-linecap="round" stroke-miterlimit="10" stroke-width="0.5"/>
          <path id="Trazado_6710" data-name="Trazado 6710" d="M275.16,335.424c.2-4.932-2.763-11.838-2.763-11.838l-6.708-18.547a44.763,44.763,0,0,0-12.7-.42,29.932,29.932,0,0,1-4.9,1.161,7.532,7.532,0,0,0-3.244,2.408c1.684.537,3.6,1.111,5.592,1.643,6.342,1.691,8.456-.845,9.726,4.228s2.7,15.413,4.733,20.18a42,42,0,0,0,3.749,5.721C270.228,341.738,274.962,340.357,275.16,335.424Z" transform="translate(-241.248 -266.551)" fill="#fedc00" opacity="0.49"/>
          <path id="Trazado_6711" data-name="Trazado 6711" d="M240.921,300.633a8.922,8.922,0,0,0-1.184,8.287c1.775,4.538,8.879,5.721,14.995,3.551s9.471-7.5,8.681-10.259S240.921,300.633,240.921,300.633Z" transform="translate(-239.17 -265.103)" stroke="#000" stroke-miterlimit="10" stroke-width="1"/>
          <path id="Trazado_6712" data-name="Trazado 6712" d="M275.706,261.937s-7.892,18.153-13.023,21.9-16.573,3.945-20.718-.592.789-15.192,5.919-23.478,7.694-15.39,13.417-14.995S276.5,252.27,275.706,261.937Z" transform="translate(-239.624 -244.757)" fill="#fff" stroke="#000" stroke-miterlimit="10" stroke-width="1"/>
          <path id="Trazado_6713" data-name="Trazado 6713" d="M266.806,307.6a11.8,11.8,0,0,1-2.272,1.119" transform="translate(-247.681 -268.509)" fill="none" stroke="#000" stroke-linecap="round" stroke-miterlimit="10" stroke-width="0.5"/>
          <path id="Trazado_6714" data-name="Trazado 6714" d="M284.911,274.424c-2.45,5.219-7.039,13.923-12.417,18.888" transform="translate(-251.359 -255.608)" fill="none" stroke="#000" stroke-linecap="round" stroke-miterlimit="10" stroke-width="0.5"/>
          <path id="Trazado_6716" data-name="Trazado 6716" d="M259.746,285.535c-4.437,3.737-10.419,4.892-14.889,5.178,4.857,3.381,14.777,2.917,19.452-.5,5.129-3.749,13.023-21.9,13.023-21.9a13.972,13.972,0,0,0-.884-6.124C274.224,266.261,266.533,279.82,259.746,285.535Z" transform="translate(-241.25 -251.133)" fill="#fedc00" opacity="0.49"/>
        </g>
        <g id="Grupo_2845" data-name="Grupo 2845" transform="matrix(0.94, -0.342, 0.342, 0.94, 39.131, 31.283)">
          <path id="Trazado_2701" data-name="Trazado 2701" d="M0,8.442,8.508,16.95h8.179L8.508,8.442,16.687,0H8.508Z" transform="translate(9.036 0)"/>
          <path id="Trazado_2702" data-name="Trazado 2702" d="M2.506,5.21H9.5L6.859,2.572,9.5,0H2.506L0,2.572Z" transform="translate(0 5.804)"/>
          <path id="Trazado_2703" data-name="Trazado 2703" d="M0,0,2.968,2.968H9.763L6.925,0Z" transform="translate(4.023 12.4)"/>
          <path id="Trazado_2704" data-name="Trazado 2704" d="M9.761,0,6.795,2.968H0L2.836,0Z" transform="translate(4.023 1.583)"/>
        </g>
      </g>
    </g>
    <path id="Path_1" data-name="Path 1" d="M488.761,477.431s12.892,14.164,28.99,23.242,35.4,13.068,35.4,13.068l108.414,33.893s35.889,13.1,87.348,17.47,45.383,0,118.49,0h173.937v80.512H111.654V565.1a434.259,434.259,0,0,0,62.283-17.47c31.9-11.773,40.235-12.544,65.321-29.622s19.539-27.485,33.92-39.322,13.14-14.674,26.751-16.68,15.185-4.564,31.629-4.564,34.147,4.564,34.147,4.564l10.7,12.589,30.056,2.832Z"/>
  </g>
</svg>
