<svg xmlns="http://www.w3.org/2000/svg" width="763.449" height="886.236" viewBox="0 0 763.449 886.236">
  <g id="Grupo_2930" data-name="Grupo 2930" transform="translate(-13.635 16.333) rotate(-21)">
    <g id="Grupo_2920" data-name="Grupo 2920" transform="translate(-58.263 174.198) rotate(-9)">
      <path id="Trazado_7542" data-name="Trazado 7542" d="M55.959,0c-83.61,138.41-68.368,369.826,11.534,503.5" transform="translate(29.978 0)" fill="none" stroke="#e6e8e8" stroke-linecap="round" stroke-linejoin="round" stroke-width="2"/>
      <path id="Trazado_7543" data-name="Trazado 7543" d="M1.994,0C-16.25,195.312,92.867,362.757,240.918,479.4" transform="translate(107.705 5.25)" fill="none" stroke="#e6e8e8" stroke-linecap="round" stroke-linejoin="round" stroke-width="2"/>
      <path id="Trazado_7544" data-name="Trazado 7544" d="M23.124,0C23.415,50.1-.213,99.3,0,151.57c.085,113.248,49.785,239.254,129.558,318.48" transform="translate(59.983 17.319)" fill="none" stroke="#e6e8e8" stroke-linecap="round" stroke-linejoin="round" stroke-width="2"/>
      <path id="Trazado_7545" data-name="Trazado 7545" d="M6.833,0c-19.263,125.875.072,276.936,85.34,376.867,2.237,2.622,24.794,33.058,53.72,60.4a466.974,466.974,0,0,0,51.581,42.03" transform="translate(91.251 24.414)" fill="none" stroke="#e6e8e8" stroke-linecap="round" stroke-linejoin="round" stroke-width="2"/>
      <path id="Trazado_7546" data-name="Trazado 7546" d="M15.323,99.047c-45.116-32.7,18.49-132.066,73.236-87.935" transform="translate(27.294 516.294)" fill="none" stroke="#e6e8e8" stroke-linecap="round" stroke-linejoin="round" stroke-width="2"/>
      <path id="Trazado_7547" data-name="Trazado 7547" d="M1.134,32.923C-7.842,2.85,38.721-7.9,61.763,6.009" transform="translate(106.573 528.408)" fill="none" stroke="#e6e8e8" stroke-linecap="round" stroke-linejoin="round" stroke-width="2"/>
      <path id="Trazado_7548" data-name="Trazado 7548" d="M4.13,41.431C-8.678,23.833,10.668,3.215,29.863,0" transform="translate(132.522 487.061)" fill="none" stroke="#e6e8e8" stroke-linecap="round" stroke-linejoin="round" stroke-width="2"/>
      <path id="Trazado_7549" data-name="Trazado 7549" d="M.9,27.022C-8.083-3.056,52.973-14.7,65.15,27.528" transform="translate(183.594 491.871)" fill="none" stroke="#e6e8e8" stroke-linecap="round" stroke-linejoin="round" stroke-width="2"/>
      <path id="Trazado_7550" data-name="Trazado 7550" d="M70.679,2.485C33.873-11.1-15.906,33.813,4.917,69.8" transform="translate(329.633 470.854)" fill="none" stroke="#e6e8e8" stroke-linecap="round" stroke-linejoin="round" stroke-width="2"/>
      <path id="Trazado_7551" data-name="Trazado 7551" d="M63.255,4.566C20.924-16.12-9.261,38.164,2.6,73.677" transform="translate(268.637 503.723)" fill="none" stroke="#e6e8e8" stroke-linecap="round" stroke-linejoin="round" stroke-width="2"/>
      <path id="Trazado_7552" data-name="Trazado 7552" d="M0,24.967C8.475,4.8,35.618-8.452,53.867,6.259" transform="translate(224.975 517.744)" fill="none" stroke="#e6e8e8" stroke-linecap="round" stroke-linejoin="round" stroke-width="2"/>
      <path id="Trazado_7553" data-name="Trazado 7553" d="M0,24.513C3.025,7.23,21.26-7.656,38.068,4.339" transform="translate(321.152 538.624)" fill="none" stroke="#e6e8e8" stroke-linecap="round" stroke-linejoin="round" stroke-width="2"/>
      <path id="Trazado_7554" data-name="Trazado 7554" d="M29.147,1.077C11.065-6.753-9.4,30.217,4.687,43.649" transform="translate(408.446 453.647) rotate(20)" fill="none" stroke="#e6e8e8" stroke-linecap="round" stroke-linejoin="round" stroke-width="2"/>
      <path id="Trazado_7555" data-name="Trazado 7555" d="M73.546,6.119C38.494-20.581-12.446,42.872.852,81.111" transform="translate(14.665 603.861)" fill="none" stroke="#e6e8e8" stroke-linecap="round" stroke-linejoin="round" stroke-width="2"/>
      <path id="Trazado_7556" data-name="Trazado 7556" d="M2.4,60.35C-9.433,30.125,24.741-22.127,55.794,10.181" transform="translate(114.956 588.178)" fill="none" stroke="#e6e8e8" stroke-linecap="round" stroke-linejoin="round" stroke-width="2"/>
      <path id="Trazado_7557" data-name="Trazado 7557" d="M0,16.6C4.471,2.033,22.229-3.9,36.151,2.651" transform="translate(157.815 596.551)" fill="none" stroke="#e6e8e8" stroke-linecap="round" stroke-linejoin="round" stroke-width="2"/>
      <path id="Trazado_7558" data-name="Trazado 7558" d="M.974,34.525C-4.957,16.766,17.268-3.728,38.713.581" transform="translate(177.796 562.291)" fill="none" stroke="#e6e8e8" stroke-linecap="round" stroke-linejoin="round" stroke-width="2"/>
      <path id="Trazado_7559" data-name="Trazado 7559" d="M60.9,2.076C2.64-15.811-35.541,82.235,21.414,112.117" transform="translate(0 674.641)" fill="none" stroke="#e6e8e8" stroke-linecap="round" stroke-linejoin="round" stroke-width="2"/>
      <path id="Trazado_7560" data-name="Trazado 7560" d="M0,17.192C11.08-9.854,52.405-3.855,69.454,27.236s-2.825,72.847-2.825,72.847" transform="translate(427.76 473.662) rotate(20)" fill="none" stroke="#e6e8e8" stroke-linecap="round" stroke-linejoin="round" stroke-width="2"/>
      <path id="Trazado_7666" data-name="Trazado 7666" d="M50.373-21.164C37.561-22.554,18.051-22.708,4.617-8.14S.066,35.794.066,35.794" transform="matrix(-0.342, 0.94, -0.94, -0.342, 526.384, 563.735)" fill="none" stroke="#e6e8e8" stroke-linecap="round" stroke-linejoin="round" stroke-width="2"/>
    </g>
    <g id="Grupo_2929" data-name="Grupo 2929" transform="translate(-15.663 24.535)">
      <g id="Grupo_2927" data-name="Grupo 2927">
        <path id="Trazado_7561" data-name="Trazado 7561" d="M56.92,0,9.306,34.139C-5.051,44.364-2.627,58.1,15.41,63.7l20.041,6.219Z" transform="translate(0 58.007)" fill="#fcfdfd" stroke="#e6e8e8" stroke-linecap="round" stroke-linejoin="round" stroke-width="2"/>
        <path id="Trazado_7562" data-name="Trazado 7562" d="M21.469,0,41.72,54.979C47.867,71.5,38.146,81.507,20.075,76.019L0,69.915Z" transform="translate(89.79 74.696)" fill="#fcfdfd" stroke="#e6e8e8" stroke-linecap="round" stroke-linejoin="round" stroke-width="2"/>
        <path id="Trazado_7563" data-name="Trazado 7563" d="M33.3,0c-6.617,11.077-7.14,15.454-7.14,15.454L0,100.616l63.542,19.512L89.7,34.969s2.758-5.911,3-16.728Z" transform="translate(28.775 32.42)" fill="#fcfdfd" stroke="#e6e8e8" stroke-linecap="round" stroke-linejoin="round" stroke-width="2"/>
        <path id="Trazado_7564" data-name="Trazado 7564" d="M.238,32.42l59.4,18.241c-.006.323.04-2.614-.047-4.593C58.953,31.185,47.255,1.54,42.54.092S11.494,14.639,2.616,28.567C.776,31.46-.566,33.764.238,32.42Z" transform="translate(61.833 0)" fill="#fcfdfd" stroke="#e6e8e8" stroke-linecap="round" stroke-linejoin="round" stroke-width="2"/>
        <g id="Grupo_2921" data-name="Grupo 2921" transform="translate(65.421 58.453)">
          <path id="Trazado_7566" data-name="Trazado 7566" d="M31.884,21.091A16.3,16.3,0,1,1,21.09.724,16.294,16.294,0,0,1,31.884,21.091Z" fill="#fcfdfd" stroke="#e6e8e8" stroke-linecap="round" stroke-linejoin="round" stroke-width="2"/>
        </g>
        <g id="Grupo_2926" data-name="Grupo 2926" transform="translate(26.363 135.669)">
          <g id="Grupo_2923" data-name="Grupo 2923">
            <g id="Grupo_2922" data-name="Grupo 2922" transform="translate(0 13.339)">
              <path id="Trazado_7567" data-name="Trazado 7567" d="M8.469,0,25.294,5.169c1.425,27.077-19.45,36.883-19.45,36.883C-8.693,19.751,8.469,0,8.469,0Z" fill="#fcfdfd" stroke="#e6e8e8" stroke-linecap="round" stroke-linejoin="round" stroke-width="2"/>
              <path id="Trazado_7568" data-name="Trazado 7568" d="M15.823,3.545,4.282,0C1.3,6.752-2.317,18.575,1.966,30.116,1.966,30.116,12.594,21.87,15.823,3.545Z" transform="translate(6.821 0.809)" fill="#fcfdfd" stroke="#e6e8e8" stroke-linecap="round" stroke-linejoin="round" stroke-width="2"/>
            </g>
            <path id="Trazado_7569" data-name="Trazado 7569" d="M20.888,10.695,0,4.281,1.908,0,21.713,6.082Z" transform="translate(6.187 8.357)" fill="#fcfdfd" stroke="#e6e8e8" stroke-linecap="round" stroke-linejoin="round" stroke-width="2"/>
            <path id="Trazado_7570" data-name="Trazado 7570" d="M22.1,14.8l2.075-6.745a1.786,1.786,0,0,0-1.185-2.232L4.3.08A1.788,1.788,0,0,0,2.065,1.263L0,8Z" transform="translate(6.945 0)" fill="#fcfdfd" stroke="#e6e8e8" stroke-linecap="round" stroke-linejoin="round" stroke-width="2"/>
          </g>
          <g id="Grupo_2925" data-name="Grupo 2925" transform="translate(26.961 8.278)">
            <g id="Grupo_2924" data-name="Grupo 2924" transform="translate(0 13.342)">
              <path id="Trazado_7571" data-name="Trazado 7571" d="M8.469,0,25.29,5.166c1.432,27.08-19.45,36.885-19.45,36.885C-8.69,19.75,8.469,0,8.469,0Z" fill="#fcfdfd" stroke="#e6e8e8" stroke-linecap="round" stroke-linejoin="round" stroke-width="2"/>
              <path id="Trazado_7572" data-name="Trazado 7572" d="M15.826,3.546,4.283,0C1.3,6.752-2.316,18.575,1.966,30.117,1.966,30.117,12.594,21.868,15.826,3.546Z" transform="translate(6.821 0.809)" fill="#fcfdfd" stroke="#e6e8e8" stroke-linecap="round" stroke-linejoin="round" stroke-width="2"/>
            </g>
            <path id="Trazado_7573" data-name="Trazado 7573" d="M20.888,10.695,0,4.28,1.908,0,21.714,6.081Z" transform="translate(6.187 8.362)" fill="#fcfdfd" stroke="#e6e8e8" stroke-linecap="round" stroke-linejoin="round" stroke-width="2"/>
            <path id="Trazado_7574" data-name="Trazado 7574" d="M22.109,14.8l2.072-6.743A1.789,1.789,0,0,0,23,5.82L4.3.08A1.788,1.788,0,0,0,2.071,1.265L0,8.006Z" transform="translate(6.941 0)" fill="#fcfdfd" stroke="#e6e8e8" stroke-linecap="round" stroke-linejoin="round" stroke-width="2"/>
          </g>
        </g>
      </g>
      <g id="Grupo_2928" data-name="Grupo 2928" transform="translate(103.519 5.071)">
        <path id="Trazado_7575" data-name="Trazado 7575" d="M0,0C2.882,12.3,8.64,24.531,10.953,37.133" fill="#fcfdfd" stroke="#e6e8e8" stroke-linecap="round" stroke-linejoin="round" stroke-width="2"/>
      </g>
    </g>
  </g>
</svg>
