<svg xmlns="http://www.w3.org/2000/svg" width="1095.014" height="639.772" viewBox="0 0 1095.014 639.772">
  <g id="Grupo_2958" data-name="Grupo 2958" transform="matrix(0.998, -0.07, 0.07, 0.998, -17.131, 67.637)">
    <path id="Trazado_7669" data-name="Trazado 7669" d="M538.472,226.041C500.472,59.826,353.265-23.609,226.3,5.826,85.829,37.087-26.413,174.441,5.453,325.355c37.4,155.785,185.207,285.234,341.61,222.672C469.746,498.979,576.5,392.269,538.472,226.041Z" transform="translate(270.038 0)" fill="rgba(0,0,0,0)" stroke="#d1d2d2" stroke-linecap="round" stroke-linejoin="round" stroke-width="2"/>
    <g id="Grupo_2953" data-name="Grupo 2953" transform="translate(405.188 252.209)">
      <path id="Trazado_7670" data-name="Trazado 7670" d="M63.825,0C50.252,51.6,31.247,95.075,0,141.253" transform="translate(342.242 0)" fill="rgba(0,0,0,0)" stroke="#d1d2d2" stroke-linecap="round" stroke-linejoin="round" stroke-width="2"/>
      <path id="Trazado_7671" data-name="Trazado 7671" d="M65.184,0C48.881,42.077,24.44,81.462,0,120.847" transform="translate(328.669 8.165)" fill="rgba(0,0,0,0)" stroke="#d1d2d2" stroke-linecap="round" stroke-linejoin="round" stroke-width="2"/>
      <path id="Trazado_7672" data-name="Trazado 7672" d="M50.255,0C33.953,28.491,20.366,62.44,0,89.613" transform="translate(317.799 27.187)" fill="rgba(0,0,0,0)" stroke="#d1d2d2" stroke-linecap="round" stroke-linejoin="round" stroke-width="2"/>
      <path id="Trazado_7673" data-name="Trazado 7673" d="M67.916,0A604.932,604.932,0,0,1,0,118.2" transform="translate(278.414 43.435)" fill="rgba(0,0,0,0)" stroke="#d1d2d2" stroke-linecap="round" stroke-linejoin="round" stroke-width="2"/>
      <path id="Trazado_7674" data-name="Trazado 7674" d="M78.756,0C55.66,44.793,27.157,89.627,0,133.086" transform="translate(245.835 58.407)" fill="rgba(0,0,0,0)" stroke="#d1d2d2" stroke-linecap="round" stroke-linejoin="round" stroke-width="2"/>
      <path id="Trazado_7675" data-name="Trazado 7675" d="M46.178,0C33.966,28.528,17.647,57.033,0,82.847" transform="translate(253.973 71.98)" fill="rgba(0,0,0,0)" stroke="#d1d2d2" stroke-linecap="round" stroke-linejoin="round" stroke-width="2"/>
      <path id="Trazado_7676" data-name="Trazado 7676" d="M86.924,0C62.483,48.908,24.443,95.1,0,145.341" transform="translate(190.132 88.269)" fill="rgba(0,0,0,0)" stroke="#d1d2d2" stroke-linecap="round" stroke-linejoin="round" stroke-width="2"/>
      <path id="Trazado_7677" data-name="Trazado 7677" d="M77.414,0c-1.361,1.359-10.87,14.972-13.586,20.38C43.448,55.715,23.069,89.654,0,120.887" transform="translate(172.484 105.916)" fill="rgba(0,0,0,0)" stroke="#d1d2d2" stroke-linecap="round" stroke-linejoin="round" stroke-width="2"/>
      <path id="Trazado_7678" data-name="Trazado 7678" d="M78.8,0C48.911,32.578,23.1,78.77,0,118.171" transform="translate(156.168 112.723)" fill="rgba(0,0,0,0)" stroke="#d1d2d2" stroke-linecap="round" stroke-linejoin="round" stroke-width="2"/>
      <path id="Trazado_7679" data-name="Trazado 7679" d="M42.1,0C25.8,20.379,13.573,43.475,0,63.839" transform="translate(162.975 129.012)" fill="rgba(0,0,0,0)" stroke="#d1d2d2" stroke-linecap="round" stroke-linejoin="round" stroke-width="2"/>
      <path id="Trazado_7680" data-name="Trazado 7680" d="M63.815,0C38.03,24.468,23.069,63.855,0,92.357" transform="translate(112.733 145.301)" fill="rgba(0,0,0,0)" stroke="#d1d2d2" stroke-linecap="round" stroke-linejoin="round" stroke-width="2"/>
      <path id="Trazado_7681" data-name="Trazado 7681" d="M32.605,0C21.738,16.316,12.226,35.321,0,51.626" transform="translate(115.439 157.529)" fill="rgba(0,0,0,0)" stroke="#d1d2d2" stroke-linecap="round" stroke-linejoin="round" stroke-width="2"/>
      <path id="Trazado_7682" data-name="Trazado 7682" d="M47.509,0C32.578,24.457,18.992,55.69,0,80.117" transform="translate(67.929 175.203)" fill="rgba(0,0,0,0)" stroke="#d1d2d2" stroke-linecap="round" stroke-linejoin="round" stroke-width="2"/>
      <path id="Trazado_7683" data-name="Trazado 7683" d="M36.669,0C23.1,19.021,12.228,40.759,0,59.738" transform="translate(50.252 190.134)" fill="rgba(0,0,0,0)" stroke="#d1d2d2" stroke-linecap="round" stroke-linejoin="round" stroke-width="2"/>
      <path id="Trazado_7684" data-name="Trazado 7684" d="M25.812,0C16.3,12.212,8.151,31.233,0,44.793" transform="translate(32.592 209.156)" fill="rgba(0,0,0,0)" stroke="#d1d2d2" stroke-linecap="round" stroke-linejoin="round" stroke-width="2"/>
      <path id="Trazado_7685" data-name="Trazado 7685" d="M20.363,0C12.215,8.151,6.78,19.022,0,28.5" transform="translate(16.303 221.368)" fill="rgba(0,0,0,0)" stroke="#d1d2d2" stroke-linecap="round" stroke-linejoin="round" stroke-width="2"/>
      <path id="Trazado_7686" data-name="Trazado 7686" d="M12.226,0A204.952,204.952,0,0,1,0,17.647" transform="translate(0 230.894)" fill="rgba(0,0,0,0)" stroke="#d1d2d2" stroke-linecap="round" stroke-linejoin="round" stroke-width="2"/>
      <path id="Trazado_7687" data-name="Trazado 7687" d="M70.619,0c0,50.282-42.1,99.149-70.619,137.176" transform="translate(335.449 31.22)" fill="rgba(0,0,0,0)" stroke="#d1d2d2" stroke-linecap="round" stroke-linejoin="round" stroke-width="2"/>
      <path id="Trazado_7688" data-name="Trazado 7688" d="M61.109,0C48.883,35.335,28.517,67.916,0,92.37" transform="translate(339.536 86.911)" fill="rgba(0,0,0,0)" stroke="#d1d2d2" stroke-linecap="round" stroke-linejoin="round" stroke-width="2"/>
      <path id="Trazado_7689" data-name="Trazado 7689" d="M62.481,0C48.908,19.046,21.738,32.619,0,43.459" transform="translate(313.711 164.323)" fill="rgba(0,0,0,0)" stroke="#d1d2d2" stroke-linecap="round" stroke-linejoin="round" stroke-width="2"/>
      <path id="Trazado_7690" data-name="Trazado 7690" d="M0,39.371C31.234,36.639,59.765,14.931,86.935,0" transform="translate(259.395 201.018)" fill="rgba(0,0,0,0)" stroke="#d1d2d2" stroke-linecap="round" stroke-linejoin="round" stroke-width="2"/>
      <path id="Trazado_7691" data-name="Trazado 7691" d="M0,43.462C33.966,38.027,66.544,16.289,96.433,0" transform="translate(232.236 220.01)" fill="rgba(0,0,0,0)" stroke="#d1d2d2" stroke-linecap="round" stroke-linejoin="round" stroke-width="2"/>
      <path id="Trazado_7692" data-name="Trazado 7692" d="M0,14.931C27.173,16.3,54.329,9.523,80.144,0" transform="translate(194.209 263.472)" fill="rgba(0,0,0,0)" stroke="#d1d2d2" stroke-linecap="round" stroke-linejoin="round" stroke-width="2"/>
      <path id="Trazado_7693" data-name="Trazado 7693" d="M0,0C13.584,4.09,33.95,5.449,48.881,0" transform="translate(168.41 290.615)" fill="rgba(0,0,0,0)" stroke="#d1d2d2" stroke-linecap="round" stroke-linejoin="round" stroke-width="2"/>
      <path id="Trazado_7694" data-name="Trazado 7694" d="M0,0C6.793,4.077,16.289,5.435,25.785,4.077" transform="translate(145.328 298.78)" fill="rgba(0,0,0,0)" stroke="#d1d2d2" stroke-linecap="round" stroke-linejoin="round" stroke-width="2"/>
    </g>
    <g id="Grupo_2954" data-name="Grupo 2954" transform="translate(285.331 1.584)">
      <path id="Trazado_7695" data-name="Trazado 7695" d="M58.668,0C20.531,43.994,2.938,96.831,0,154.027" transform="translate(17.975 74.807)" fill="rgba(0,0,0,0)" stroke="#d1d2d2" stroke-linecap="round" stroke-linejoin="round" stroke-width="2"/>
      <path id="Trazado_7696" data-name="Trazado 7696" d="M39.6,0C10.263,23.482,4.4,90.958,0,126.158" transform="translate(59.05 60.135)" fill="rgba(0,0,0,0)" stroke="#d1d2d2" stroke-linecap="round" stroke-linejoin="round" stroke-width="2"/>
      <path id="Trazado_7697" data-name="Trazado 7697" d="M35.216,0C14.669,14.672,5.862,70.4,0,93.882" transform="translate(97.185 33.745)" fill="rgba(0,0,0,0)" stroke="#d1d2d2" stroke-linecap="round" stroke-linejoin="round" stroke-width="2"/>
      <path id="Trazado_7698" data-name="Trazado 7698" d="M45.479,0C13.2,26.4,7.314,105.61,0,142.279" transform="translate(127.995 16.141)" fill="rgba(0,0,0,0)" stroke="#d1d2d2" stroke-linecap="round" stroke-linejoin="round" stroke-width="2"/>
      <path id="Trazado_7699" data-name="Trazado 7699" d="M36.669,0C16.141,13.189,5.862,89.492,0,112.941" transform="translate(166.13 7.341)" fill="rgba(0,0,0,0)" stroke="#d1d2d2" stroke-linecap="round" stroke-linejoin="round" stroke-width="2"/>
      <path id="Trazado_7700" data-name="Trazado 7700" d="M19.059,0C7.341,16.124,4.4,42.528,0,61.6" transform="translate(216.001 1.469)" fill="rgba(0,0,0,0)" stroke="#d1d2d2" stroke-linecap="round" stroke-linejoin="round" stroke-width="2"/>
      <path id="Trazado_7701" data-name="Trazado 7701" d="M0,0C10.265,29.341,13.187,63.072,11.718,93.9" transform="translate(260.012 0)" fill="rgba(0,0,0,0)" stroke="#d1d2d2" stroke-linecap="round" stroke-linejoin="round" stroke-width="2"/>
      <path id="Trazado_7702" data-name="Trazado 7702" d="M0,0C20.542,33.745,36.669,80.666,30.807,121.752" transform="translate(283.477 0)" fill="rgba(0,0,0,0)" stroke="#d1d2d2" stroke-linecap="round" stroke-linejoin="round" stroke-width="2"/>
      <path id="Trazado_7703" data-name="Trazado 7703" d="M0,0C26.4,46.959,41.072,108.562,41.072,161.368" transform="translate(311.349 2.924)" fill="rgba(0,0,0,0)" stroke="#d1d2d2" stroke-linecap="round" stroke-linejoin="round" stroke-width="2"/>
      <path id="Trazado_7704" data-name="Trazado 7704" d="M0,0C42.541,22.023,42.541,117.331,44.007,158.4" transform="translate(348.018 16.141)" fill="rgba(0,0,0,0)" stroke="#d1d2d2" stroke-linecap="round" stroke-linejoin="round" stroke-width="2"/>
      <path id="Trazado_7705" data-name="Trazado 7705" d="M0,0C30.807,29.314,60.148,107.055,58.679,148.128" transform="translate(390.559 38.165)" fill="rgba(0,0,0,0)" stroke="#d1d2d2" stroke-linecap="round" stroke-linejoin="round" stroke-width="2"/>
      <path id="Trazado_7706" data-name="Trazado 7706" d="M0,0C27.87,32.292,43.994,104.158,36.68,149.637" transform="translate(437.507 71.855)" fill="rgba(0,0,0,0)" stroke="#d1d2d2" stroke-linecap="round" stroke-linejoin="round" stroke-width="2"/>
      <path id="Trazado_7707" data-name="Trazado 7707" d="M0,0C11.734,30.794,16.138,70.427,10.265,104.159" transform="translate(491.78 142.282)" fill="rgba(0,0,0,0)" stroke="#d1d2d2" stroke-linecap="round" stroke-linejoin="round" stroke-width="2"/>
      <path id="Trazado_7708" data-name="Trazado 7708" d="M9.165,0C-5.5,24.935,1.837,76.272,1.837,105.613" transform="translate(0 168.699)" fill="rgba(0,0,0,0)" stroke="#d1d2d2" stroke-linecap="round" stroke-linejoin="round" stroke-width="2"/>
      <path id="Trazado_7709" data-name="Trazado 7709" d="M23.482,0C7.357,35.2,4.42,86.554,0,124.692" transform="translate(41.427 85.083)" fill="rgba(0,0,0,0)" stroke="#d1d2d2" stroke-linecap="round" stroke-linejoin="round" stroke-width="2"/>
      <path id="Trazado_7710" data-name="Trazado 7710" d="M20.517,0C10.236,30.794,4.39,64.511,0,96.8" transform="translate(82.529 54.289)" fill="rgba(0,0,0,0)" stroke="#d1d2d2" stroke-linecap="round" stroke-linejoin="round" stroke-width="2"/>
      <path id="Trazado_7711" data-name="Trazado 7711" d="M29.354,0C11.748,14.656,5.889,67.476,0,89.46" transform="translate(116.247 30.823)" fill="rgba(0,0,0,0)" stroke="#d1d2d2" stroke-linecap="round" stroke-linejoin="round" stroke-width="2"/>
      <path id="Trazado_7712" data-name="Trazado 7712" d="M22.024,0C10.292,14.7,5.886,39.631,0,58.706" transform="translate(163.181 13.19)" fill="rgba(0,0,0,0)" stroke="#d1d2d2" stroke-linecap="round" stroke-linejoin="round" stroke-width="2"/>
      <path id="Trazado_7713" data-name="Trazado 7713" d="M26.417,0C8.824,14.7,7.341,58.68,0,79.251" transform="translate(195.457 2.924)" fill="rgba(0,0,0,0)" stroke="#d1d2d2" stroke-linecap="round" stroke-linejoin="round" stroke-width="2"/>
      <path id="Trazado_7714" data-name="Trazado 7714" d="M4.393,0C4.393,27.886,5.848,55.758,0,83.643" transform="translate(243.884 0)" fill="rgba(0,0,0,0)" stroke="#d1d2d2" stroke-linecap="round" stroke-linejoin="round" stroke-width="2"/>
      <path id="Trazado_7715" data-name="Trazado 7715" d="M0,0C13.2,30.823,23.479,63.072,20.558,98.3" transform="translate(268.808 0)" fill="rgba(0,0,0,0)" stroke="#d1d2d2" stroke-linecap="round" stroke-linejoin="round" stroke-width="2"/>
      <path id="Trazado_7716" data-name="Trazado 7716" d="M0,0C13.2,20.531,26.4,46.948,32.262,71.9" transform="translate(296.68 1.469)" fill="rgba(0,0,0,0)" stroke="#d1d2d2" stroke-linecap="round" stroke-linejoin="round" stroke-width="2"/>
      <path id="Trazado_7717" data-name="Trazado 7717" d="M0,0C22.027,23.469,33.758,71.9,39.617,101.21" transform="translate(328.943 8.81)" fill="rgba(0,0,0,0)" stroke="#d1d2d2" stroke-linecap="round" stroke-linejoin="round" stroke-width="2"/>
      <path id="Trazado_7718" data-name="Trazado 7718" d="M0,0C27.9,16.125,45.492,87.977,48.416,117.332" transform="translate(375.874 30.823)" fill="rgba(0,0,0,0)" stroke="#d1d2d2" stroke-linecap="round" stroke-linejoin="round" stroke-width="2"/>
      <path id="Trazado_7719" data-name="Trazado 7719" d="M0,0C14.669,23.466,33.731,64.54,32.276,93.879" transform="translate(424.291 64.555)" fill="rgba(0,0,0,0)" stroke="#d1d2d2" stroke-linecap="round" stroke-linejoin="round" stroke-width="2"/>
      <path id="Trazado_7720" data-name="Trazado 7720" d="M0,0C8.8,5.873,16.138,54.262,17.593,70.413" transform="translate(475.642 124.689)" fill="rgba(0,0,0,0)" stroke="#d1d2d2" stroke-linecap="round" stroke-linejoin="round" stroke-width="2"/>
    </g>
    <path id="Trazado_7721" data-name="Trazado 7721" d="M970.1,12.854c-21.778-40.88-187.556,25.031-295.8,68.286l15.56,20.544c36.01-12.46,154.964-44.847,165.132-29.751C865.12,87.011,716.619,230.639,531.852,334.248,378.5,420.225,138.959,482.1,127.859,467.774s53.93-70.289,97.227-102.8l-9.1-27.734C124.276,400.779-18.322,511.812,1.947,559.885c20.242,48.057,318.981-64.061,543.492-184.907C875.315,197.442,991.893,53.72,970.1,12.854Z" transform="translate(63.51 5.611)" fill="#fcfdfd" stroke="#d1d2d2" stroke-miterlimit="10" stroke-width="2"/>
    <g id="Grupo_2955" data-name="Grupo 2955" transform="translate(0 140.433)">
      <path id="Trazado_7722" data-name="Trazado 7722" d="M0,6.313,8.85,30.494c9.056-.33,22.931-.357,38.85.027C60.161,19.775,71.509,9.526,81.624,0,53.1,1.909,25.113,4.215,0,6.313Z" transform="translate(783.164 3.817)" fill="#fcfdfd" stroke="#d1d2d2" stroke-miterlimit="10" stroke-width="2"/>
      <path id="Trazado_7723" data-name="Trazado 7723" d="M495.624,31.4C490.861,7,437.452-.12,371.018,0q-19.74,19.063-45.082,40.265c23.082,3.156,40.4,7.644,42.3,13.927,3.734,12.242-86.427,62.4-212.364,106.739Q94.5,199.076,18.568,240.156,9.366,245.118,0,250.038C355.54,177.057,504.353,76.166,495.624,31.4Z" transform="translate(590.381 0)" fill="#fcfdfd" stroke="#d1d2d2" stroke-miterlimit="10" stroke-width="2"/>
      <path id="Trazado_7724" data-name="Trazado 7724" d="M576.452,88.79c-1.193.273-2.387.548-3.58.807C401.07,126.924,153.89,115.96,147.48,99.038,141.044,82.091,219.622,47.6,270.549,29.189L269.974,0C163.662,33.909-5.189,98.34.122,150.228c4.185,41.032,204.091,37.241,411.2,9.247C467.037,139.744,525.47,115.6,576.452,88.79Z" transform="translate(0 120.835)" fill="#fcfdfd" stroke="#d1d2d2" stroke-miterlimit="10" stroke-width="2"/>
    </g>
    <g id="Grupo_2956" data-name="Grupo 2956" transform="translate(45.51 162.229)">
      <path id="Trazado_7725" data-name="Trazado 7725" d="M129.265,0C89.635,19.829,45.033,44.612,13.662,75.97c-49.553,49.556,49.526,34.706,77.62,28.093" transform="translate(0 143.681)" fill="rgba(0,0,0,0)" stroke="#d1d2d2" stroke-linecap="round" stroke-linejoin="round" stroke-width="2"/>
      <path id="Trazado_7726" data-name="Trazado 7726" d="M3.527,0C-19.6,28.063,77.853,29.724,96.021,31.344c62.753,4.995,125.539-4.941,189.94-4.941" transform="translate(53.076 208.124)" fill="rgba(0,0,0,0)" stroke="#d1d2d2" stroke-linecap="round" stroke-linejoin="round" stroke-width="2"/>
      <path id="Trazado_7727" data-name="Trazado 7727" d="M0,123.879c49.553-3.294,95.8-26.447,140.387-42.954C194.911,61.123,256.006,41.291,298.958,0" transform="translate(659.46 56.168)" fill="rgba(0,0,0,0)" stroke="#d1d2d2" stroke-linecap="round" stroke-linejoin="round" stroke-width="2"/>
      <path id="Trazado_7728" data-name="Trazado 7728" d="M0,0C23.123,0,112.312,8.259,84.246,49.567" transform="translate(917.124 0)" fill="rgba(0,0,0,0)" stroke="#d1d2d2" stroke-linecap="round" stroke-linejoin="round" stroke-width="2"/>
      <path id="Trazado_7729" data-name="Trazado 7729" d="M0,0C9.9,3.321,11.556,16.548,6.588,26.444" transform="translate(925.4 14.847)" fill="rgba(0,0,0,0)" stroke="#d1d2d2" stroke-linecap="round" stroke-linejoin="round" stroke-width="2"/>
    </g>
    <g id="Grupo_2957" data-name="Grupo 2957" transform="translate(97.158 24.658)">
      <path id="Trazado_7730" data-name="Trazado 7730" d="M0,235.118C42.938,197.1,90.834,162.425,133.785,124.455,148.662,111.239,264.266-9.319,181.681.577" transform="translate(642.504 16.436)" fill="rgba(0,0,0,0)" stroke="#d1d2d2" stroke-linecap="round" stroke-linejoin="round" stroke-width="2"/>
      <path id="Trazado_7731" data-name="Trazado 7731" d="M0,34.676C36.326,11.567,84.232,9.893,125.513,0" transform="translate(700.319 23.628)" fill="rgba(0,0,0,0)" stroke="#d1d2d2" stroke-linecap="round" stroke-linejoin="round" stroke-width="2"/>
      <path id="Trazado_7732" data-name="Trazado 7732" d="M0,7.118C14.888,3.8,59.46-6.11,71.029,5.457,90.861,23.628,54.521,61.6,42.965,73.154" transform="translate(830.786 0)" fill="rgba(0,0,0,0)" stroke="#d1d2d2" stroke-linecap="round" stroke-linejoin="round" stroke-width="2"/>
      <path id="Trazado_7733" data-name="Trazado 7733" d="M22.128,0C8.912,19.832-17.519,59.49,17.174,69.385,56.8,82.612,114.622,42.679,201.352,14.726" transform="translate(47.243 426.606)" fill="rgba(0,0,0,0)" stroke="#d1d2d2" stroke-linecap="round" stroke-linejoin="round" stroke-width="2"/>
      <path id="Trazado_7734" data-name="Trazado 7734" d="M0,0C1.647,23.136,24.783,19.842,41.307,16.521" transform="translate(0 499.285)" fill="rgba(0,0,0,0)" stroke="#d1d2d2" stroke-linecap="round" stroke-linejoin="round" stroke-width="2"/>
      <path id="Trazado_7735" data-name="Trazado 7735" d="M0,138.713C31.371,122.192,67.708,112.3,100.753,99.082,183.328,67.7,265.926,31.345,348.5,0" transform="translate(100.756 373.799)" fill="rgba(0,0,0,0)" stroke="#d1d2d2" stroke-linecap="round" stroke-linejoin="round" stroke-width="2"/>
    </g>
  </g>
</svg>
