<svg xmlns="http://www.w3.org/2000/svg" width="164.06" height="172.331" viewBox="0 0 164.06 172.331">
  <g id="_001-simbolo-del-dolar" data-name="001-simbolo-del-dolar" transform="translate(92.179 -9.208) rotate(35)">
    <g id="Grupo_3148" data-name="Grupo 3148" transform="translate(0 0)">
      <g id="Grupo_3132" data-name="Grupo 3132" transform="translate(46.751 136.986)">
        <path id="Trazado_7982" data-name="Trazado 7982" d="M24.01,53.155l19.342-11.24L43.317,54.4,23.975,65.638Z" transform="translate(-23.975 -41.914)" fill="#ecae00"/>
      </g>
      <g id="Grupo_3133" data-name="Grupo 3133" transform="translate(11.081 82.122)">
        <path id="Trazado_7983" data-name="Trazado 7983" d="M13.321,36.768l19.342-11.24Q45.331,45.5,58.757,55.718L39.415,66.958Q25.974,56.728,13.321,36.768Z" transform="translate(-13.321 -25.528)" fill="#ffec8c"/>
      </g>
      <g id="Grupo_3134" data-name="Grupo 3134" transform="translate(46.839 118.396)">
        <path id="Trazado_7984" data-name="Trazado 7984" d="M24,47.6l19.342-11.24c4.82,2.211,8.65,2.809,11.49,1.76L35.492,49.362C32.651,50.412,28.822,49.814,24,47.6Z" transform="translate(-24.001 -36.362)" fill="#ffec8c"/>
      </g>
      <g id="Grupo_3135" data-name="Grupo 3135" transform="translate(58.33 119.675)">
        <path id="Trazado_7985" data-name="Trazado 7985" d="M47.808,36.744,28.466,47.984a6.546,6.546,0,0,1-1.033.482l19.342-11.24A6.528,6.528,0,0,0,47.808,36.744Z" transform="translate(-27.433 -36.744)" fill="#73bd1e"/>
      </g>
      <g id="Grupo_3136" data-name="Grupo 3136" transform="translate(46.839 87.155)">
        <path id="Trazado_7986" data-name="Trazado 7986" d="M24.09,38.271l19.342-11.24-.088,31.241L24,69.512Z" transform="translate(-24.001 -27.031)" fill="#ecae00"/>
      </g>
      <g id="Grupo_3137" data-name="Grupo 3137" transform="translate(46.988 65.982)">
        <path id="Trazado_7987" data-name="Trazado 7987" d="M24.046,31.947l9.4-6.36,9.945-4.881.438.253L24.484,32.2Z" transform="translate(-24.046 -20.707)" fill="#ecc600"/>
      </g>
      <g id="Grupo_3138" data-name="Grupo 3138" transform="translate(22.861 26.017)">
        <path id="Trazado_7988" data-name="Trazado 7988" d="M20.079,20.011,39.421,8.771c-2.149,1.249-3.229,3.625-3.239,7.179a21.1,21.1,0,0,0,2.982,10.931Q42.176,32,50.651,40.034L31.309,51.274Q22.82,43.247,19.822,38.122A21.1,21.1,0,0,1,16.84,27.19c.01-3.554,1.09-5.93,3.24-7.179Z" transform="translate(-16.84 -8.771)" fill="#ffec8c"/>
      </g>
      <path id="Unión_4" data-name="Unión 4" d="M-10767.464,1870.807a50.134,50.134,0,0,0-8.113-27.874h0q-8.128-12.706-25.488-27.42l19.344-11.239q17.375,14.719,25.486,27.419a50.138,50.138,0,0,1,8.11,27.874q-.041,13.955-7.964,18.571l-19.341,11.241Q-10767.5,1884.771-10767.464,1870.807Z" transform="translate(10848.489 -1738.038)" fill="#ffec8c"/>
      <g id="Grupo_3141" data-name="Grupo 3141" transform="translate(46.988 33.365)">
        <path id="Trazado_7991" data-name="Trazado 7991" d="M24.138,22.206,43.48,10.965l-.092,32.617L24.046,54.822Z" transform="translate(-24.046 -10.965)" fill="#ecae00"/>
      </g>
      <g id="Grupo_3142" data-name="Grupo 3142" transform="translate(12.47 3.806)">
        <path id="Trazado_7992" data-name="Trazado 7992" d="M13.736,15.533,33.078,4.293q.564-.328,1.169-.61,9.138-4.3,23.83,3.339L38.734,18.262Q24.058,10.645,14.9,14.923q-.6.281-1.169.61Z" transform="translate(-13.736 -2.137)" fill="#ffec8c"/>
      </g>
      <g id="Grupo_3143" data-name="Grupo 3143" transform="translate(37.493)">
        <path id="Trazado_7993" data-name="Trazado 7993" d="M21.21,12.24,40.552,1l9.666,5.581L30.876,17.821Z" transform="translate(-21.21 -1)" fill="#ffec8c"/>
      </g>
      <g id="Grupo_3144" data-name="Grupo 3144" transform="translate(47.134 5.581)">
        <path id="Trazado_7994" data-name="Trazado 7994" d="M24.115,13.907,43.456,2.667l-.025,8.859L24.089,22.766Z" transform="translate(-24.089 -2.667)" fill="#ecae00"/>
      </g>
      <g id="Grupo_3145" data-name="Grupo 3145" transform="translate(47.134 14.439)">
        <path id="Trazado_7995" data-name="Trazado 7995" d="M24.089,16.553,43.431,5.313q16.6,10.994,31.385,31.161L55.474,47.714Q40.7,27.539,24.089,16.553Z" transform="translate(-24.089 -5.313)" fill="#ffec8c"/>
      </g>
      <g id="Grupo_3146" data-name="Grupo 3146" transform="translate(68.633 45.601)">
        <path id="Trazado_7996" data-name="Trazado 7996" d="M40.4,25.86,59.739,14.62,49.852,24.911,30.51,36.151Z" transform="translate(-30.51 -14.62)" fill="#ecae00"/>
      </g>
      <g id="Grupo_3147" data-name="Grupo 3147" transform="translate(0 11.24)">
        <path id="Trazado_7997" data-name="Trazado 7997" d="M82.925,98.012a50.135,50.135,0,0,1,8.111,27.874q-.043,15.2-9.444,19.319c-6.267,2.768-14.542,1.452-24.793-3.862l-.035,12.483L47.1,148.245l.036-12.684Q26.42,121.183,10.012,95.206l11.081-8.727q12.667,19.968,26.094,30.19l.1-33.69Q30.212,68.435,22.32,56.232A48.863,48.863,0,0,1,14.44,29q.043-15,9.21-19.286,9.138-4.3,23.83,3.339L47.5,4.357l9.666,5.581L57.146,18.8q16.6,10.994,31.385,31.161L78.644,60.249A100.308,100.308,0,0,0,57.092,37.722L57,70.339l.438.253q17.377,14.721,25.487,27.42Zm-14.583,26.5c2.811-1.032,4.251-3.562,4.263-7.622a21.914,21.914,0,0,0-3.3-11.553c-2.213-3.63-6.324-8.256-12.363-13.826l-.089,31.241c4.82,2.212,8.65,2.81,11.491,1.76m-21-62.876L47.428,31.6c-4.557-2.16-8.1-2.657-10.672-1.557-2.577,1.134-3.871,3.613-3.882,7.505a21.1,21.1,0,0,0,2.982,10.931Q38.868,53.6,47.342,61.637" transform="translate(-10.012 -4.357)" fill="#ffda1a"/>
      </g>
    </g>
  </g>
</svg>
