<svg xmlns="http://www.w3.org/2000/svg" width="151.146" height="168.277" viewBox="0 0 151.146 168.277">
  <g id="_002-simbolo-del-euro" data-name="002-simbolo-del-euro" transform="translate(-3.343 53.604) rotate(-30)">
    <g id="Grupo_3164" data-name="Grupo 3164" transform="translate(0 0)">
      <g id="Grupo_3149" data-name="Grupo 3149" transform="translate(0.038 36.771)">
        <path id="Trazado_7998" data-name="Trazado 7998" d="M5.823,23.189,20.86,14.451l12.146,7.013L17.969,30.2Z" transform="translate(-5.823 -14.451)" fill="#ffec8c"  stroke-width="1.5"/>
      </g>
      <g id="Grupo_3150" data-name="Grupo 3150" transform="translate(0.112 10.527)">
        <path id="Trazado_7999" data-name="Trazado 7999" d="M5.85,13.589,20.887,4.851,34.94,12.964,19.9,21.7Z" transform="translate(-5.85 -4.851)" fill="#ffec8c"  stroke-width="1.5"/>
      </g>
      <g id="Grupo_3151" data-name="Grupo 3151" transform="translate(29.231 40.805)">
        <path id="Trazado_8000" data-name="Trazado 8000" d="M16.655,24.665l15.037-8.738c-.094,1.2-.145,3.052-.153,5.608a66.494,66.494,0,0,0,.388,7.436L16.891,37.709a66.436,66.436,0,0,1-.388-7.436C16.509,27.717,16.56,25.865,16.655,24.665Z" transform="translate(-16.502 -15.926)" fill="#ecae00"  stroke-width="1.5"/>
      </g>
      <g id="Grupo_3152" data-name="Grupo 3152" transform="translate(85.183 117.486)">
        <path id="Trazado_8001" data-name="Trazado 8001" d="M52.006,46.2,36.969,54.939a22.452,22.452,0,0,0,3.153-2.225l15.037-8.738A22.454,22.454,0,0,1,52.006,46.2Z" transform="translate(-36.969 -43.976)" fill="#ff5766"  stroke-width="1.5"/>
      </g>
      <g id="Grupo_3153" data-name="Grupo 3153" transform="translate(33.237 69.343)">
        <path id="Trazado_8002" data-name="Trazado 8002" d="M78.182,55.817,63.145,64.555a23.172,23.172,0,0,1-10.683,3.451c-3.479.108-7.637-1.221-12.5-4.026q-14.746-8.514-22-28.876L33,26.365Q40.246,46.7,55,55.241c4.858,2.805,9.016,4.134,12.5,4.027a23.174,23.174,0,0,0,10.683-3.451Z" transform="translate(-17.967 -26.365)" fill="#ffec8c"  stroke-width="1.5"/>
      </g>
      <g id="Grupo_3154" data-name="Grupo 3154" transform="translate(64.317 73.904)">
        <path id="Trazado_8003" data-name="Trazado 8003" d="M29.374,36.773l15.037-8.739-.038,13.383L29.337,50.155Z" transform="translate(-29.337 -28.034)" fill="#ecae00"  stroke-width="1.5"/>
      </g>
      <g id="Grupo_3155" data-name="Grupo 3155" transform="translate(29.62 53.85)">
        <path id="Trazado_8004" data-name="Trazado 8004" d="M16.644,29.437,31.681,20.7,66.417,40.753,51.38,49.491Z" transform="translate(-16.644 -20.698)" fill="#ffec8c"  stroke-width="1.5"/>
      </g>
      <g id="Grupo_3156" data-name="Grupo 3156" transform="translate(78.77 98.584)">
        <path id="Trazado_8005" data-name="Trazado 8005" d="M34.623,45.8,49.66,37.062l9.566,18.9L44.189,64.7Z" transform="translate(-34.623 -37.062)" fill="#ecae00"  stroke-width="1.5"/>
      </g>
      <g id="Grupo_3157" data-name="Grupo 3157" transform="translate(32.259 22.465)">
        <path id="Trazado_8006" data-name="Trazado 8006" d="M23.21,17.956,38.247,9.218a14.162,14.162,0,0,0-5.6,6.621L17.61,24.578A14.161,14.161,0,0,1,23.21,17.956Z" transform="translate(-17.61 -9.218)" fill="#ecae00"  stroke-width="1.5"/>
      </g>
      <g id="Grupo_3158" data-name="Grupo 3158" transform="translate(64.392 47.66)">
        <path id="Trazado_8007" data-name="Trazado 8007" d="M29.4,27.172l15.037-8.738L44.4,31.791,29.364,40.529Z" transform="translate(-29.364 -18.434)" fill="#ecae00"  stroke-width="1.5"/>
      </g>
      <g id="Grupo_3159" data-name="Grupo 3159" transform="translate(32.259 29.087)">
        <path id="Trazado_8008" data-name="Trazado 8008" d="M17.61,20.379,32.647,11.64l32.17,18.574L49.78,38.952Z" transform="translate(-17.61 -11.64)" fill="#ffec8c"  stroke-width="1.5"/>
      </g>
      <path id="Exclusión_1" data-name="Exclusión 1" d="M64.322,52.127c-8.294-16.665-19.734-29.293-34-37.532h0c-6.731-3.886-13.053-5.857-18.79-5.857a23.824,23.824,0,0,0-7.051,1.05A21.924,21.924,0,0,0,0,11.746L15.028,3.012A21.957,21.957,0,0,1,19.514,1.05,23.824,23.824,0,0,1,26.565,0a30.424,30.424,0,0,1,9.021,1.464,48.825,48.825,0,0,1,9.77,4.393,78.893,78.893,0,0,1,10.186,7,81.57,81.57,0,0,1,9.067,8.6A96.86,96.86,0,0,1,79.36,43.388L64.323,52.126Z" transform="translate(25.566 0)" fill="#ffec8c"  stroke-width="1.5"/>
      <g id="Grupo_3161" data-name="Grupo 3161" transform="translate(80.267 43.388)">
        <path id="Trazado_8010" data-name="Trazado 8010" d="M44.791,25.61l15.037-8.738-9.62,8.452L35.171,34.061Z" transform="translate(-35.171 -16.871)" fill="#ecae00"  stroke-width="1.5"/>
      </g>
      <g id="Grupo_3162" data-name="Grupo 3162" transform="translate(0 8.738)">
        <path id="Trazado_8011" data-name="Trazado 8011" d="M61.693,10.054q21.488,12.406,34,37.531l-9.62,8.452A95.19,95.19,0,0,0,74.822,39.269,52.55,52.55,0,0,0,61.64,28.706q-7.833-4.522-14.135-3.431-6.279,1.117-9.437,8.008l32.17,18.573L70.2,65.214,35.193,45c-.094,1.2-.145,3.052-.152,5.609a66.437,66.437,0,0,0,.388,7.436L70.164,78.1l-.038,13.383L39.046,73.539q7.242,20.33,22,28.876c4.858,2.8,9.016,4.134,12.5,4.026a23.466,23.466,0,0,0,11.039-3.66l9.566,18.9q-12.617,10.589-33.151-1.267-14.064-8.12-24.924-23.64A102.67,102.67,0,0,1,20.543,62.857L5.809,54.35l.038-13.383L17.993,47.98c-.243-2.622-.395-5.192-.388-7.671s.058-4.278.174-5.36L5.884,28.08l.038-13.357,14.053,8.114Q24.483,8.821,35.852,5.246q11.4-3.529,25.842,4.808Z" transform="translate(-5.809 -4.196)" fill="#ffda1a"  stroke-width="1.5"/>
      </g>
    </g>
  </g>
</svg>
