<svg xmlns="http://www.w3.org/2000/svg" width="104.748" height="166.686" viewBox="0 0 104.748 166.686">
  <g id="_001-simbolo-del-dolar" data-name="001-simbolo-del-dolar" transform="translate(1.659 1.444)">
    <g id="Grupo_3148" data-name="Grupo 3148" transform="translate(0 0)">
      <g id="Grupo_3132" data-name="Grupo 3132" transform="translate(47.437 138.995)">
        <path id="Trazado_7982" data-name="Trazado 7982" d="M24.011,53.319,43.637,41.914,43.6,54.581,23.975,65.986Z" transform="translate(-23.975 -41.914)" fill="#fcfdfd" stroke="#000" stroke-width="2.5"/>
      </g>
      <g id="Grupo_3133" data-name="Grupo 3133" transform="translate(11.244 83.326)">
        <path id="Trazado_7983" data-name="Trazado 7983" d="M13.321,36.933,32.947,25.528Q45.8,45.789,59.423,56.161L39.8,67.566Q26.159,57.185,13.321,36.933Z" transform="translate(-13.321 -25.528)" fill="#fcfdfd" stroke="#000" stroke-width="2.5"/>
      </g>
      <g id="Grupo_3134" data-name="Grupo 3134" transform="translate(47.526 120.132)">
        <path id="Trazado_7984" data-name="Trazado 7984" d="M24,47.767l19.626-11.4c4.891,2.244,8.777,2.851,11.659,1.786L35.661,49.553C32.778,50.618,28.892,50.011,24,47.767Z" transform="translate(-24.001 -36.362)" fill="#fcfdfd" stroke="#000" stroke-width="2.5"/>
      </g>
      <g id="Grupo_3135" data-name="Grupo 3135" transform="translate(59.185 121.429)">
        <path id="Trazado_7985" data-name="Trazado 7985" d="M48.106,36.744,28.481,48.149a6.641,6.641,0,0,1-1.048.489L47.059,37.233A6.624,6.624,0,0,0,48.106,36.744Z" transform="translate(-27.433 -36.744)" fill="#fcfdfd" stroke="#000" stroke-width="2.5"/>
      </g>
      <g id="Grupo_3136" data-name="Grupo 3136" transform="translate(47.526 88.433)">
        <path id="Trazado_7986" data-name="Trazado 7986" d="M24.091,38.436,43.717,27.031l-.09,31.7L24,70.135Z" transform="translate(-24.001 -27.031)" fill="#fcfdfd" stroke="#000" stroke-width="2.5"/>
      </g>
      <g id="Grupo_3137" data-name="Grupo 3137" transform="translate(47.677 66.949)">
        <path id="Trazado_7987" data-name="Trazado 7987" d="M24.046,32.112l9.535-6.453,10.091-4.952.444.256L24.49,32.369Z" transform="translate(-24.046 -20.707)" fill="#fcfdfd" stroke="#000" stroke-width="2.5"/>
      </g>
      <g id="Grupo_3138" data-name="Grupo 3138" transform="translate(23.197 26.398)">
        <path id="Trazado_7988" data-name="Trazado 7988" d="M20.127,20.176,39.752,8.771c-2.181,1.267-3.277,3.678-3.287,7.285a21.409,21.409,0,0,0,3.026,11.092q3.057,5.192,11.656,13.346L31.521,51.9q-8.613-8.145-11.656-13.346A21.412,21.412,0,0,1,16.84,27.46c.011-3.606,1.106-6.017,3.287-7.285Z" transform="translate(-16.84 -8.771)" fill="#fcfdfd" stroke="#000" stroke-width="2.5"/>
      </g>
      <path id="Unión_6" data-name="Unión 6" d="M34.091,67.511a50.875,50.875,0,0,0-8.23-28.283h0Q17.618,26.333,0,11.405L19.625,0Q37.257,14.937,45.486,27.822h0a50.883,50.883,0,0,1,8.23,28.283q-.04,14.157-8.08,18.842L26.011,86.353Q34.051,81.68,34.091,67.511Z" transform="translate(48.122 67.205)" fill="#fcfdfd" stroke="#000" stroke-width="2.5"/>
      <g id="Grupo_3141" data-name="Grupo 3141" transform="translate(47.677 33.854)">
        <path id="Trazado_7991" data-name="Trazado 7991" d="M24.139,22.37,43.765,10.965,43.671,44.06,24.046,55.465Z" transform="translate(-24.046 -10.965)" fill="#fcfdfd" stroke="#000" stroke-width="2.5"/>
      </g>
      <g id="Grupo_3142" data-name="Grupo 3142" transform="translate(12.653 3.862)">
        <path id="Trazado_7992" data-name="Trazado 7992" d="M13.736,15.729,33.361,4.324q.573-.333,1.186-.619Q43.82-.661,58.726,7.093L39.1,18.5Q24.209,10.77,14.922,15.111q-.614.285-1.186.619Z" transform="translate(-13.736 -2.137)" fill="#fcfdfd" stroke="#000" stroke-width="2.5"/>
      </g>
      <g id="Grupo_3143" data-name="Grupo 3143" transform="translate(38.043)">
        <path id="Trazado_7993" data-name="Trazado 7993" d="M21.21,12.405,40.835,1l9.808,5.662L31.018,18.068Z" transform="translate(-21.21 -1)" fill="#fcfdfd" stroke="#000" stroke-width="2.5"/>
      </g>
      <g id="Grupo_3144" data-name="Grupo 3144" transform="translate(47.826 5.662)">
        <path id="Trazado_7994" data-name="Trazado 7994" d="M24.115,14.072,43.74,2.667l-.025,8.989L24.089,23.061Z" transform="translate(-24.089 -2.667)" fill="#fcfdfd" stroke="#000" stroke-width="2.5"/>
      </g>
      <g id="Grupo_3145" data-name="Grupo 3145" transform="translate(47.826 14.651)">
        <path id="Trazado_7995" data-name="Trazado 7995" d="M24.089,16.718,43.715,5.313Q60.556,16.468,75.56,36.931L55.934,48.336Q40.945,27.865,24.089,16.718Z" transform="translate(-24.089 -5.313)" fill="#fcfdfd" stroke="#000" stroke-width="2.5"/>
      </g>
      <g id="Grupo_3146" data-name="Grupo 3146" transform="translate(69.639 46.269)">
        <path id="Trazado_7996" data-name="Trazado 7996" d="M40.542,26.025,60.167,14.62,50.136,25.061,30.511,36.467Z" transform="translate(-30.511 -14.62)" fill="#fcfdfd" stroke="#000" stroke-width="2.5"/>
      </g>
      <g id="Grupo_3147" data-name="Grupo 3147" transform="translate(0 11.405)">
        <path id="Trazado_7997" data-name="Trazado 7997" d="M83.994,99.385a50.87,50.87,0,0,1,8.23,28.283q-.043,15.424-9.583,19.6c-6.359,2.808-14.755,1.474-25.157-3.918l-.036,12.666-9.808-5.663.036-12.87Q26.661,122.9,10.012,96.538l11.244-8.855q12.853,20.261,26.476,30.633l.1-34.184Q30.508,69.374,22.5,56.992a49.58,49.58,0,0,1-7.995-27.636q.043-15.22,9.345-19.569,9.272-4.366,24.179,3.388l.025-8.818,9.808,5.662-.025,8.989Q74.678,30.164,89.682,50.626L79.651,61.068A101.779,101.779,0,0,0,57.782,38.211l-.094,33.095.445.256Q75.765,86.5,83.994,99.385ZM69.2,126.276c2.852-1.047,4.313-3.614,4.325-7.734a22.235,22.235,0,0,0-3.35-11.722c-2.245-3.684-6.417-8.377-12.544-14.029l-.09,31.7c4.891,2.244,8.777,2.851,11.659,1.786M47.89,62.477,47.976,32c-4.624-2.192-8.214-2.7-10.829-1.579-2.615,1.15-3.928,3.666-3.939,7.616a21.412,21.412,0,0,0,3.026,11.092q3.057,5.192,11.656,13.346" transform="translate(-10.012 -4.357)" fill="#fcfdfd" stroke="#000" stroke-width="2.5"/>
      </g>
    </g>
  </g>
</svg>
