<svg xmlns="http://www.w3.org/2000/svg" width="127.125" height="155.847" viewBox="0 0 127.125 155.847">
  <g id="_002-simbolo-del-euro" data-name="002-simbolo-del-euro" transform="translate(3.927 0.744) rotate(1)">
    <g id="Grupo_3164" data-name="Grupo 3164" transform="translate(0 0)">
      <g id="Grupo_3149" data-name="Grupo 3149" transform="translate(0.044 42.598)">
        <path id="Trazado_7998" data-name="Trazado 7998" d="M5.823,24.574l17.42-10.123,14.071,8.124L19.894,32.7Z" transform="translate(-5.823 -14.451)" fill="#fcfdfd" stroke="#000" stroke-width="2.5"/>
      </g>
      <g id="Grupo_3150" data-name="Grupo 3150" transform="translate(0.13 12.195)">
        <path id="Trazado_7999" data-name="Trazado 7999" d="M5.85,14.974,23.27,4.851l16.28,9.4L22.131,24.374Z" transform="translate(-5.85 -4.851)" fill="#fcfdfd" stroke="#000" stroke-width="2.5"/>
      </g>
      <g id="Grupo_3151" data-name="Grupo 3151" transform="translate(33.864 47.272)">
        <path id="Trazado_8000" data-name="Trazado 8000" d="M16.679,26.05,34.1,15.926c-.109,1.39-.168,3.535-.177,6.5a77.031,77.031,0,0,0,.45,8.615L16.952,41.162a76.965,76.965,0,0,1-.45-8.615C16.511,29.585,16.57,27.44,16.679,26.05Z" transform="translate(-16.502 -15.926)" fill="#fcfdfd" stroke="#000" stroke-width="2.5"/>
      </g>
      <g id="Grupo_3152" data-name="Grupo 3152" transform="translate(98.683 136.105)">
        <path id="Trazado_8001" data-name="Trazado 8001" d="M54.389,46.553,36.969,56.677A26.012,26.012,0,0,0,40.622,54.1l17.42-10.123A26.012,26.012,0,0,1,54.389,46.553Z" transform="translate(-36.969 -43.976)" fill="#fcfdfd" stroke="#000" stroke-width="2.5"/>
      </g>
      <g id="Grupo_3153" data-name="Grupo 3153" transform="translate(38.505 80.333)">
        <path id="Trazado_8002" data-name="Trazado 8002" d="M87.725,60.484,70.305,70.607a26.845,26.845,0,0,1-12.377,4c-4.031.125-8.848-1.415-14.476-4.664Q26.37,60.078,17.967,36.489l17.42-10.123q8.39,23.551,25.485,33.452c5.628,3.25,10.445,4.789,14.476,4.665a26.846,26.846,0,0,0,12.377-4Z" transform="translate(-17.967 -26.365)" fill="#fcfdfd" stroke="#000" stroke-width="2.5"/>
      </g>
      <g id="Grupo_3154" data-name="Grupo 3154" transform="translate(74.51 85.617)">
        <path id="Trazado_8003" data-name="Trazado 8003" d="M29.381,38.158,46.8,28.034l-.044,15.5L29.336,53.661Z" transform="translate(-29.336 -28.034)" fill="#fcfdfd" stroke="#000" stroke-width="2.5"/>
      </g>
      <g id="Grupo_3155" data-name="Grupo 3155" transform="translate(34.314 62.384)">
        <path id="Trazado_8004" data-name="Trazado 8004" d="M16.644,30.822,34.064,20.7,74.3,43.931,56.885,54.054Z" transform="translate(-16.644 -20.698)" fill="#fcfdfd" stroke="#000" stroke-width="2.5"/>
      </g>
      <g id="Grupo_3156" data-name="Grupo 3156" transform="translate(91.254 114.208)">
        <path id="Trazado_8005" data-name="Trazado 8005" d="M34.623,47.186l17.42-10.124,11.082,21.9L45.705,69.082Z" transform="translate(-34.623 -37.062)" fill="#fcfdfd" stroke="#000" stroke-width="2.5"/>
      </g>
      <g id="Grupo_3157" data-name="Grupo 3157" transform="translate(37.372 26.026)">
        <path id="Trazado_8006" data-name="Trazado 8006" d="M24.1,19.341,41.517,9.218a16.406,16.406,0,0,0-6.488,7.671L17.61,27.012A16.406,16.406,0,0,1,24.1,19.341Z" transform="translate(-17.61 -9.218)" fill="#fcfdfd" stroke="#000" stroke-width="2.5"/>
      </g>
      <g id="Grupo_3158" data-name="Grupo 3158" transform="translate(74.597 55.214)">
        <path id="Trazado_8007" data-name="Trazado 8007" d="M29.408,28.557l17.42-10.123-.044,15.473L29.364,44.031Z" transform="translate(-29.364 -18.434)" fill="#fcfdfd" stroke="#000" stroke-width="2.5"/>
      </g>
      <g id="Grupo_3159" data-name="Grupo 3159" transform="translate(37.372 33.697)">
        <path id="Trazado_8008" data-name="Trazado 8008" d="M17.61,21.764,35.03,11.64,72.3,33.157,54.878,43.28Z" transform="translate(-17.61 -11.64)" fill="#fcfdfd" stroke="#000" stroke-width="2.5"/>
      </g>
      <path id="Exclusión_3" data-name="Exclusión 3" d="M74.527,60.388c-9.608-19.306-22.862-33.935-39.393-43.48-7.8-4.5-15.123-6.785-21.769-6.785A27.593,27.593,0,0,0,5.2,11.34,25.432,25.432,0,0,0,0,13.613L17.42,3.489a25.451,25.451,0,0,1,5.2-2.273A27.6,27.6,0,0,1,30.786,0a35.246,35.246,0,0,1,10.45,1.7A56.574,56.574,0,0,1,52.554,6.785,92.511,92.511,0,0,1,74.859,24.854a112.2,112.2,0,0,1,17.088,25.41L74.528,60.388h0Z" transform="translate(29.607)" fill="#fcfdfd" stroke="#000" stroke-width="2.5"/>
      <g id="Grupo_3161" data-name="Grupo 3161" transform="translate(92.989 50.265)">
        <path id="Trazado_8010" data-name="Trazado 8010" d="M46.316,26.995l17.42-10.123L52.591,26.662,35.171,36.786Z" transform="translate(-35.171 -16.871)" fill="#fcfdfd" stroke="#000" stroke-width="2.5"/>
      </g>
      <g id="Grupo_3162" data-name="Grupo 3162" transform="translate(0 10.123)">
        <path id="Trazado_8011" data-name="Trazado 8011" d="M70.55,10.982q24.894,14.373,39.393,43.479L98.8,64.252Q91.918,51.789,85.76,44.828A60.879,60.879,0,0,0,70.489,32.591q-9.074-5.239-16.375-3.975Q46.84,29.91,43.181,37.893L80.45,59.41l-.044,15.474L39.85,51.469c-.109,1.39-.168,3.536-.176,6.5a76.965,76.965,0,0,0,.45,8.615l40.24,23.233-.044,15.5L44.314,84.529Q52.7,108.08,69.8,117.981c5.628,3.249,10.445,4.789,14.476,4.664a27.185,27.185,0,0,0,12.789-4.24l11.082,21.9q-14.616,12.267-38.405-1.468-16.293-9.407-28.874-27.387A118.942,118.942,0,0,1,22.878,72.153L5.809,62.3l.044-15.5,14.071,8.124c-.281-3.038-.457-6.015-.449-8.887s.067-4.956.2-6.21L5.9,31.865l.044-15.474,16.28,9.4Q27.442,9.554,40.613,5.412q13.21-4.088,29.937,5.569Z" transform="translate(-5.809 -4.196)" fill="#fcfdfd" stroke="#000" stroke-width="2.5"/>
      </g>
    </g>
  </g>
</svg>
