<svg xmlns="http://www.w3.org/2000/svg" width="124.466" height="176.991" viewBox="0 0 124.466 176.991">
  <g id="_007-simbolo-del-yen" data-name="007-simbolo-del-yen" transform="translate(2.494 1.445)">
    <g id="Grupo_3243" data-name="Grupo 3243" transform="translate(0 0)">
      <g id="Grupo_3228" data-name="Grupo 3228" transform="translate(10.502 96.082)">
        <path id="Trazado_8070" data-name="Trazado 8070" d="M11.368,36.564,26.79,27.6,57.316,45.225,41.894,54.187Z" transform="translate(-11.368 -27.601)" fill="#fcfdfd" stroke="#000" stroke-width="2.5"/>
      </g>
      <g id="Grupo_3229" data-name="Grupo 3229" transform="translate(60.988 141.533)">
        <path id="Trazado_8071" data-name="Trazado 8071" d="M25.411,49.148l15.422-8.962-.065,22.876L25.346,72.023Z" transform="translate(-25.346 -40.185)" fill="#fcfdfd" stroke="#000" stroke-width="2.5"/>
      </g>
      <g id="Grupo_3230" data-name="Grupo 3230" transform="translate(10.58 68.764)">
        <path id="Trazado_8072" data-name="Trazado 8072" d="M11.39,29l15.422-8.962L48.349,32.473,32.927,41.435Z" transform="translate(-11.39 -20.038)" fill="#fcfdfd" stroke="#000" stroke-width="2.5"/>
      </g>
      <g id="Grupo_3231" data-name="Grupo 3231" transform="translate(61.262 115.435)">
        <path id="Trazado_8073" data-name="Trazado 8073" d="M25.45,41.922l15.422-8.962-.028,9.953L25.422,51.875Z" transform="translate(-25.422 -32.959)" fill="#fcfdfd" stroke="#000" stroke-width="2.5"/>
      </g>
      <g id="Grupo_3232" data-name="Grupo 3232" transform="translate(61.29 114.58)">
        <path id="Trazado_8074" data-name="Trazado 8074" d="M25.429,41.434,41.32,32.723l-.469.855L25.429,42.7Z" transform="translate(-25.429 -32.723)" fill="#fcfdfd" stroke="#000" stroke-width="2.5"/>
      </g>
      <g id="Grupo_3233" data-name="Grupo 3233" transform="translate(50.894 88.717)">
        <path id="Trazado_8075" data-name="Trazado 8075" d="M22.551,34.524l1.141-1.089,14.281-7.873,1.141.659L23.692,35.183Z" transform="translate(-22.551 -25.562)" fill="#fcfdfd" stroke="#000" stroke-width="2.5"/>
      </g>
      <g id="Grupo_3234" data-name="Grupo 3234" transform="translate(61.262 125.387)">
        <path id="Trazado_8076" data-name="Trazado 8076" d="M25.422,44.677l15.422-8.962L71.019,53.137,55.6,62.1Z" transform="translate(-25.422 -35.715)" fill="#fcfdfd" stroke="#000" stroke-width="2.5"/>
      </g>
      <g id="Grupo_3235" data-name="Grupo 3235" transform="translate(91.392 142.809)">
        <path id="Trazado_8077" data-name="Trazado 8077" d="M33.809,49.5l15.422-8.962-.046,16.241L33.764,65.741Z" transform="translate(-33.764 -40.539)" fill="#fcfdfd" stroke="#000" stroke-width="2.5"/>
      </g>
      <g id="Grupo_3236" data-name="Grupo 3236" transform="translate(20.723 11.964)">
        <path id="Trazado_8078" data-name="Trazado 8078" d="M14.2,13.275,29.62,4.313,59.791,81.065,44.369,90.027Z" transform="translate(-14.198 -4.313)" fill="#fcfdfd" stroke="#000" stroke-width="2.5"/>
      </g>
      <g id="Grupo_3237" data-name="Grupo 3237">
        <path id="Trazado_8079" data-name="Trazado 8079" d="M8.46,9.962,23.882,1,44.605,12.964,29.183,21.927Z" transform="translate(-8.46 -1)" fill="#fcfdfd" stroke="#000" stroke-width="2.5"/>
      </g>
      <g id="Grupo_3238" data-name="Grupo 3238" transform="translate(70.49 103.353)">
        <path id="Trazado_8080" data-name="Trazado 8080" d="M27.977,38.577,43.4,29.615,64.424,41.754,49,50.716Z" transform="translate(-27.977 -29.615)" fill="#fcfdfd" stroke="#000" stroke-width="2.5"/>
      </g>
      <g id="Grupo_3239" data-name="Grupo 3239" transform="translate(91.469 115.492)">
        <path id="Trazado_8081" data-name="Trazado 8081" d="M33.831,41.938l15.422-8.962-.046,16.241L33.785,58.178Z" transform="translate(-33.785 -32.975)" fill="#fcfdfd" stroke="#000" stroke-width="2.5"/>
      </g>
      <g id="Grupo_3240" data-name="Grupo 3240" transform="translate(0 8.962)">
        <path id="Trazado_8082" data-name="Trazado 8082" d="M112.517,63.558,78.95,106.835l21.026,12.139-.046,16.241-29.71-17.153-.469.855-.028,9.953L99.9,146.291l-.046,16.241L69.513,145.015l-.065,22.876L49.378,156.3l.065-22.876L18.917,115.8l.046-16.24,30.526,17.624.028-9.953-.649-1.5L18.994,88.486l.046-16.24L40.578,84.68,8.46,3.481,29.183,15.446,59.354,92.2l1.141.659L92.143,51.8Z" transform="translate(-8.46 -3.481)" fill="#fcfdfd" stroke="#000" stroke-width="2.5"/>
      </g>
      <g id="Grupo_3241" data-name="Grupo 3241" transform="translate(70.49 60.077)">
        <path id="Trazado_8083" data-name="Trazado 8083" d="M61.543,26.6l15.422-8.962L43.4,60.909,27.977,69.872Z" transform="translate(-27.977 -17.633)" fill="#fcfdfd" stroke="#000" stroke-width="2.5"/>
      </g>
      <g id="Grupo_3242" data-name="Grupo 3242" transform="translate(83.683 48.315)">
        <path id="Trazado_8084" data-name="Trazado 8084" d="M31.629,23.339l15.422-8.962L67.424,26.139,52,35.1Z" transform="translate(-31.629 -14.376)" fill="#fcfdfd" stroke="#000" stroke-width="2.5"/>
      </g>
    </g>
  </g>
</svg>
