<svg xmlns="http://www.w3.org/2000/svg" width="235.425" height="235.424" viewBox="0 0 235.425 235.424">
  <g id="Grupo_3096" data-name="Grupo 3096" transform="matrix(0.848, 0.53, -0.53, 0.848, 70.626, -446.827)">
    <g id="Grupo_2976" data-name="Grupo 2976" transform="translate(254.667 369.38)">
      <path id="Trazado_7820" data-name="Trazado 7820" d="M423.517,223.433a84.415,84.415,0,0,1-65.4,82.225c-.091.03-.153.03-.246.063-2.213.491-4.429.923-6.7,1.26a86.67,86.67,0,0,1-12.058.86A84.405,84.405,0,0,1,336,139.086c.767-.063,1.567-.063,2.367-.063a6.054,6.054,0,0,1,.739-.03,8.188,8.188,0,0,1,.86.03,83.111,83.111,0,0,1,33.07,7.107A84.408,84.408,0,0,1,423.517,223.433Z" transform="translate(-254.667 -138.993)" fill="none" stroke="#000" stroke-width="2"/>
      <path id="Trazado_7822" data-name="Trazado 7822" d="M423.517,223.433A84.425,84.425,0,1,1,336,139.086c1.014-.063,2.06-.093,3.106-.093A84.435,84.435,0,0,1,423.517,223.433Z" transform="translate(-254.667 -138.993)" fill="none" stroke="#000" stroke-linecap="round" stroke-linejoin="round" stroke-width="2"/>
      <path id="Trazado_7823" data-name="Trazado 7823" d="M414.578,223.433a84.419,84.419,0,0,1-65.647,82.287c-1.014.06-2.06.091-3.106.091a84.419,84.419,0,0,1-18.763-166.725c1.014-.063,2.06-.093,3.106-.093A84.435,84.435,0,0,1,414.578,223.433Z" transform="translate(-245.728 -138.993)" fill="none" stroke="#000" stroke-linecap="round" stroke-linejoin="round" stroke-width="2"/>
      <g id="Grupo_2975" data-name="Grupo 2975" transform="translate(59.132 19.744)">
        <path id="Trazado_7824" data-name="Trazado 7824" d="M334.5,265.012l2.188,8.915-14.59,3.578-2.188-8.916c-13.077-.056-23.564-8.485-26.9-22.1l-.99-4.052,16.094-5.84,1.034,4.215c2.027,8.269,7.474,12.258,14.283,10.589s9.99-6.918,8.36-13.567c-1.948-7.939-11.075-12.921-21.62-18.068-12.482-6.047-25.359-13.716-28.9-28.141-3.457-14.1.883-25.826,12.005-31.645l-2.187-8.915,14.588-3.578,2.188,8.915c12.67-.188,22.106,8.155,25.645,22.58l.716,2.918-16.1,5.837-.8-3.241c-2.148-8.755-6.667-12.458-12.663-10.987s-8.488,6.033-6.737,13.167c1.946,7.941,11.2,12.721,21.616,18.068,12.363,6.254,25.363,13.721,28.9,28.146C351.822,246.667,346.262,259.031,334.5,265.012Z" transform="translate(-280.103 -147.486)" fill="none" stroke="#000" stroke-miterlimit="10" stroke-width="2.5"/>
        <path id="Trazado_7825" data-name="Trazado 7825" d="M334.5,265.012l2.188,8.915-14.59,3.578-2.188-8.916c-13.077-.056-23.564-8.485-26.9-22.1l-.99-4.052,16.094-5.84,1.034,4.215c2.027,8.269,7.474,12.258,14.283,10.589s9.99-6.918,8.36-13.567c-1.948-7.939-11.075-12.921-21.62-18.068-12.482-6.047-25.359-13.716-28.9-28.141-3.457-14.1.883-25.826,12.005-31.645l-2.187-8.915,14.588-3.578,2.188,8.915c12.67-.188,22.106,8.155,25.645,22.58l.716,2.918-16.1,5.837-.8-3.241c-2.148-8.755-6.667-12.458-12.663-10.987s-8.488,6.033-6.737,13.167c1.946,7.941,11.2,12.721,21.616,18.068,12.363,6.254,25.363,13.721,28.9,28.146C351.822,246.667,346.262,259.031,334.5,265.012Z" transform="translate(-280.103 -147.486)" fill="none" stroke="#000" stroke-width="2.5" opacity="0.3"/>
      </g>
      <line id="Línea_80" data-name="Línea 80" y1="0.817" x2="17.834" transform="translate(41.298 156.188)" fill="none" stroke="#000" stroke-linecap="round" stroke-linejoin="round" stroke-width="2"/>
      <line id="Línea_81" data-name="Línea 81" y1="1.32" x2="15.564" transform="translate(32.716 149.765)" fill="none" stroke="#000" stroke-linecap="round" stroke-linejoin="round" stroke-width="2"/>
      <line id="Línea_82" data-name="Línea 82" y1="1.32" x2="15.564" transform="translate(25.734 143.505)" fill="none" stroke="#000" stroke-linecap="round" stroke-linejoin="round" stroke-width="2"/>
    </g>
  </g>
</svg>
