<svg xmlns="http://www.w3.org/2000/svg" width="316.567" height="318.267" viewBox="0 0 316.567 318.267">
  <g id="Grupo_3305" data-name="Grupo 3305" transform="matrix(0.695, -0.719, 0.719, 0.695, -320.731, 219.262)">
    <g id="Grupo_3302" data-name="Grupo 3302" transform="translate(240.67 215.422)">
      <g id="Grupo_3298" data-name="Grupo 3298" transform="translate(180.571 94.305)">
        <path id="Trazado_8106" data-name="Trazado 8106" d="M455.5,280.806l.961,22.688-89.636,57.293-.959-22.689Z" transform="translate(-365.863 -280.806)" fill="#fcfdfd" stroke="#000" stroke-linejoin="round" stroke-width="2"/>
      </g>
      <g id="Grupo_3299" data-name="Grupo 3299" transform="translate(0 57.295)">
        <path id="Trazado_8107" data-name="Trazado 8107" d="M421.24,349.449l.959,22.689-180.57-94.305-.959-22.687Z" transform="translate(-240.67 -255.145)" fill="#fcfdfd" stroke="#000" stroke-linejoin="round" stroke-width="2"/>
      </g>
      <g id="Grupo_3300" data-name="Grupo 3300">
        <path id="Trazado_8108" data-name="Trazado 8108" d="M510.875,309.727,421.24,367.02l-180.571-94.3L330.3,215.422Z" transform="translate(-240.67 -215.422)" fill="#fff" stroke="#000" stroke-linejoin="round" stroke-width="2"/>
      </g>
      <g id="Grupo_3301" data-name="Grupo 3301" transform="translate(13.373 7.745)">
        <path id="Trazado_8111" data-name="Trazado 8111" d="M326.575,220.792l-76.633,48.983L416.767,356.9,493.4,307.918Zm-4.507,7.732a10.936,10.936,0,0,1,9.909-.42c2.817,1.474,2.939,4.036.277,5.739a10.925,10.925,0,0,1-9.909.42C319.537,232.8,319.415,230.222,322.067,228.524Zm-49.078,43.2a10.921,10.921,0,0,1-9.909.423c-2.807-1.467-2.939-4.037-.274-5.742a10.95,10.95,0,0,1,9.906-.418C275.53,267.457,275.646,270.027,272.989,271.722Zm148.286,77.443a10.927,10.927,0,0,1-9.909.421c-2.817-1.473-2.941-4.034-.277-5.739a10.929,10.929,0,0,1,9.909-.418C423.8,344.9,423.929,347.472,421.275,349.165Zm6.734-9.015c-6.831-3.568-17.585-3.113-24.047,1.018L278.316,275.55c6.466-4.131,6.17-10.357-.668-13.926l37.679-24.085c6.837,3.57,17.588,3.113,24.052-1.018L465.021,302.14c-6.465,4.132-6.163,10.36.668,13.93Zm52.53-28.865a10.957,10.957,0,0,1-9.913.423c-2.817-1.471-2.929-4.043-.273-5.74a10.916,10.916,0,0,1,9.909-.418C483.068,307.013,483.2,309.583,480.539,311.285Z" transform="translate(-249.942 -220.792)" fill="#fcfdfd" stroke="#000" stroke-width="2"/>
        <path id="Trazado_8112" data-name="Trazado 8112" d="M372.3,257.995c-15.323-8-39.494-6.98-53.991,2.286s-13.836,23.271,1.487,31.273,39.508,6.974,54.005-2.29S387.631,266,372.3,257.995Zm-14.47,17.862a13.275,13.275,0,0,0-4.979-5.169c-1.473-.769-2.99-.962-4.018-.3-3.682,2.357,10.3,7.226,2.621,12.136-3.764,2.407-9.066,2.176-13.738.268l-4.592,2.935-4.243-2.214,4.712-3.01a10.766,10.766,0,0,1-4.52-6.068l6.39-1.5a9.713,9.713,0,0,0,4.928,6.281c1.8.94,3.571,1.118,4.787.34,3.764-2.406-10.383-7.173-2.841-11.994,3.252-2.077,7.943-2.233,12.525-.655l4.5-2.877,4.243,2.215-4.353,2.778a13.112,13.112,0,0,1,4.967,5.267Z" transform="translate(-224.324 -206.721)" fill="#fcfdfd" stroke="#000" stroke-width="2"/>
      </g>
    </g>
  </g>
</svg>
