<svg xmlns="http://www.w3.org/2000/svg" width="340.662" height="323.588" viewBox="0 0 340.662 323.588">
  <g id="Grupo_3306" data-name="Grupo 3306" transform="translate(-82 -9288.433)">
    <path id="Trazado_8119" data-name="Trazado 8119" d="M21212.857,9232.438s-6.266,3.877,0,19.688,36.992,96.06,36.992,96.06,2.385,14.022,19.391,16.408,181.082,28.341,181.082,28.341,8.057,2.684,10.74-5.072c.5-1.435-19.094-2.983-19.094-2.983s-165.711-26.18-170.937-26.849c-6.414-.82-14.02-8.352-16.109-15.214S21212.857,9232.438,21212.857,9232.438Z" transform="translate(-21084 139)" fill="#fff"/>
    <g id="Grupo_3271" data-name="Grupo 3271" transform="translate(-867.051 8499.437)">
      <path id="Trazado_6200" data-name="Trazado 6200" d="M116.414,170.527a22.7,22.7,0,0,1-11.093-2.8L5.676,109.718C1.78,107.468,0,101.769,0,97.429c0-3.951,1.327-6.982,3.639-8.316L168.02,2.021c5.139-2.966,13.846-2.636,19.771.786L289.71,54.461c2.686,1.55,4.181,4.651,4.181,8.551,0,4.737-2.113,9.265-5.142,11.012l-163.607,94.46a17.7,17.7,0,0,1-8.728,2.044M176.636,3.106a14.6,14.6,0,0,0-7.126,1.6L5.13,91.8c-1.248.721-2.051,2.887-2.051,5.628,0,4.193,1.739,8.242,4.138,9.627l99.65,58.011c4.89,2.825,12.555,3.165,16.736.757l163.607-94.46c2.058-1.188,3.608-4.778,3.608-8.352,0-2.772-.937-4.9-2.571-5.846L186.328,5.509a20.01,20.01,0,0,0-9.692-2.4" transform="translate(1056.368 795.106) rotate(39)"/>
      <path id="Trazado_6201" data-name="Trazado 6201" d="M286.007,71.143,122.4,165.6c-4.686,2.705-12.869,2.365-18.281-.76l-99.642-58c-5.412-3.122-6-7.849-1.313-10.554l163.6-94.458c4.686-2.705,12.871-2.365,18.281.757l99.645,58.006c5.41,3.122,6,7.849,1.313,10.554" transform="translate(1061.87 791.442) rotate(39)" fill="#fff"/>
      <path id="Trazado_6202" data-name="Trazado 6202" d="M115.98,170.527a22.662,22.662,0,0,1-11.091-2.8L5.242,109.718C1.914,107.8,0,105.134,0,102.42c0-2.35,1.4-4.454,3.934-5.916L167.541,2.044c5.19-2.995,13.892-2.662,19.817.757l99.65,58.011c3.328,1.919,5.24,4.583,5.24,7.3,0,2.35-1.4,4.452-3.932,5.913l-163.607,94.46a17.7,17.7,0,0,1-8.728,2.044M176.226,3.1a14.636,14.636,0,0,0-7.147,1.608L5.475,99.166c-1.095.63-2.4,1.706-2.4,3.254s1.385,3.3,3.7,4.639l99.65,58.008c4.89,2.825,12.555,3.165,16.736.757l163.609-94.46c1.093-.633,2.4-1.708,2.4-3.254,0-1.565-1.387-3.3-3.709-4.639L185.817,5.461a19.835,19.835,0,0,0-9.591-2.36" transform="translate(1061.65 789.268) rotate(39)"/>
      <path id="Trazado_6206" data-name="Trazado 6206" d="M21,31.876A9.555,9.555,0,0,1,16.314,30.7l-13.856-8A4.3,4.3,0,0,1,0,19.116a3.563,3.563,0,0,1,1.962-3.057L28.241.887a9.274,9.274,0,0,1,8.462.289l13.856,8a4.307,4.307,0,0,1,2.461,3.58,3.571,3.571,0,0,1-1.959,3.06L24.777,30.984A7.663,7.663,0,0,1,21,31.876M32,3.024a4.563,4.563,0,0,0-2.236.495L3.479,18.69c-.322.187-.44.36-.44.426,0,.109.173.509.937.954l13.86,8a6.241,6.241,0,0,0,5.424.284L49.539,13.181c.322-.185.445-.357.445-.426,0-.1-.177-.509-.944-.951l-13.856-8A6.631,6.631,0,0,0,32,3.024" transform="translate(1027.248 867.84) rotate(39)"/>
      <path id="Trazado_6208" data-name="Trazado 6208" d="M19.29,16.268a10.657,10.657,0,0,1-5.213-1.313L2.661,8.365A4.643,4.643,0,0,1,0,4.529,3.782,3.782,0,0,1,2.091,1.3L2.641.98c2.475-1.426,6.6-1.28,9.4.328L23.45,7.9a4.652,4.652,0,0,1,2.663,3.836,3.794,3.794,0,0,1-2.089,3.233l-.552.317a8.5,8.5,0,0,1-4.182.982M6.8,2.843a5.622,5.622,0,0,0-2.73.6l-.552.319c-.2.118-.67.421-.67.765,0,.326.384.876,1.24,1.373L15.5,12.492c1.892,1.091,4.954,1.248,6.548.328l.55-.317c.2-.115.667-.421.667-.765,0-.328-.384-.878-1.24-1.37L10.613,3.775A7.948,7.948,0,0,0,6.8,2.843" transform="translate(1032.303 882.121) rotate(39)"/>
      <path id="Trazado_6209" data-name="Trazado 6209" d="M1.541,9.744,0,7.085,12.274,0l1.541,2.659Z" transform="translate(1025.184 890.501) rotate(39)"/>
      <rect id="Rectángulo_2159" data-name="Rectángulo 2159" width="14.172" height="3.072" transform="matrix(0.988, 0.156, -0.156, 0.988, 1018.115, 889.209)"/>
      <path id="Trazado_6210" data-name="Trazado 6210" d="M1.541,9.744,0,7.085,12.272,0l1.541,2.659Z" transform="translate(1048.678 894.222) rotate(39)"/>
      <rect id="Rectángulo_2160" data-name="Rectángulo 2160" width="14.169" height="3.073" transform="matrix(0.988, 0.155, -0.155, 0.988, 1041.607, 892.934)"/>
      <path id="Trazado_6212" data-name="Trazado 6212" d="M15.114,18.778a21.162,21.162,0,0,1-10.37-2.513C1.687,14.5,0,12.055,0,9.391S1.687,4.283,4.744,2.519c5.815-3.359,14.924-3.359,20.737,0,3.06,1.763,4.746,4.2,4.746,6.872S28.54,14.5,25.481,16.262a21.128,21.128,0,0,1-10.367,2.516m0-15.672A18.159,18.159,0,0,0,6.282,5.179c-2.068,1.193-3.2,2.691-3.2,4.212s1.136,3.016,3.2,4.212c4.789,2.758,12.873,2.76,17.66,0,2.07-1.193,3.208-2.688,3.208-4.21s-1.138-3.019-3.208-4.212a18.149,18.149,0,0,0-8.829-2.072" transform="translate(1197.554 979.738) rotate(39)"/>
      <path id="Trazado_6214" data-name="Trazado 6214" d="M15.111,18.783A21.123,21.123,0,0,1,4.744,16.265C1.684,14.5,0,12.058,0,9.391S1.684,4.283,4.744,2.519c5.813-3.359,14.922-3.359,20.734,0,3.06,1.763,4.744,4.207,4.744,6.872s-1.684,5.108-4.744,6.874a21.116,21.116,0,0,1-10.367,2.518m0-15.674a18.148,18.148,0,0,0-8.829,2.07c-2.068,1.2-3.206,2.693-3.206,4.212S4.214,12.41,6.282,13.6c4.787,2.763,12.871,2.763,17.66,0,2.068-1.193,3.2-2.691,3.2-4.212s-1.136-3.016-3.2-4.212a18.158,18.158,0,0,0-8.831-2.07" transform="translate(1208.502 981.473) rotate(39)"/>
      <path id="Trazado_6215" data-name="Trazado 6215" d="M11.49,2q2.972,1.718,3.433,3.108T13.347,7.666a7.08,7.08,0,0,1-4.442.86,14.009,14.009,0,0,1-5.36-1.943Q.537,4.85.083,3.463C-.219,2.541.3,1.688,1.646.909A7.134,7.134,0,0,1,6.112.056,14,14,0,0,1,11.49,2M5.932,5.205A14.089,14.089,0,0,0,9.289,6.729a2.8,2.8,0,0,0,2.123-.18c.561-.326.656-.733.295-1.232A9.229,9.229,0,0,0,9.094,3.379,13.751,13.751,0,0,0,5.711,1.86a2.849,2.849,0,0,0-2.12.173c-.565.328-.666.733-.3,1.227A9.5,9.5,0,0,0,5.932,5.205" transform="translate(1033.81 923.436) rotate(39)"/>
      <path id="Trazado_6216" data-name="Trazado 6216" d="M11.49,2Q14.466,3.719,14.924,5.1T13.35,7.664a7.072,7.072,0,0,1-4.444.863,14.023,14.023,0,0,1-5.36-1.943Q.537,4.847.083,3.461C-.219,2.539.3,1.688,1.648.909A7.115,7.115,0,0,1,6.112.056,14.061,14.061,0,0,1,11.49,2M5.932,5.208A14.118,14.118,0,0,0,9.289,6.727a2.788,2.788,0,0,0,2.123-.18q.841-.485.3-1.229A9.214,9.214,0,0,0,9.094,3.38,13.559,13.559,0,0,0,5.711,1.863a2.838,2.838,0,0,0-2.12.17c-.563.326-.664.733-.3,1.227a9.561,9.561,0,0,0,2.64,1.948" transform="translate(1044.171 925.078) rotate(39)"/>
      <path id="Trazado_6217" data-name="Trazado 6217" d="M11.488,2Q14.468,3.719,14.922,5.1T13.35,7.664a7.075,7.075,0,0,1-4.444.86A13.952,13.952,0,0,1,3.548,6.583Q.54,4.847.084,3.461C-.218,2.539.3,1.688,1.648.909A7.111,7.111,0,0,1,6.112.056,14.011,14.011,0,0,1,11.488,2M5.932,5.205A14.2,14.2,0,0,0,9.289,6.727a2.787,2.787,0,0,0,2.123-.18q.841-.485.295-1.229A9.186,9.186,0,0,0,9.095,3.377,13.9,13.9,0,0,0,5.714,1.861a2.854,2.854,0,0,0-2.123.173c-.565.326-.664.736-.3,1.227a9.489,9.489,0,0,0,2.64,1.946" transform="translate(1054.535 926.721) rotate(39)"/>
      <path id="Trazado_6218" data-name="Trazado 6218" d="M11.489,2q2.976,1.718,3.436,3.108T13.348,7.665a7.072,7.072,0,0,1-4.444.86A14.006,14.006,0,0,1,3.546,6.584Q.538,4.848.084,3.462T1.646.911A7.135,7.135,0,0,1,6.112.055,14.059,14.059,0,0,1,11.489,2M5.933,5.207A14.1,14.1,0,0,0,9.287,6.728a2.793,2.793,0,0,0,2.125-.18c.561-.323.656-.733.295-1.229A9.208,9.208,0,0,0,9.093,3.378,13.77,13.77,0,0,0,5.712,1.862a2.849,2.849,0,0,0-2.12.17c-.565.331-.666.736-.3,1.229A9.551,9.551,0,0,0,5.933,5.207" transform="translate(1064.899 928.361) rotate(39)"/>
      <path id="Trazado_6219" data-name="Trazado 6219" d="M11.49,1.995q2.976,1.721,3.433,3.11c.3.925-.223,1.78-1.572,2.559a7.076,7.076,0,0,1-4.444.863,14.009,14.009,0,0,1-5.36-1.943C1.54,5.428.388,4.384.083,3.461S.3,1.688,1.648.909A7.122,7.122,0,0,1,6.114.056,14.043,14.043,0,0,1,11.49,1.995M5.934,5.205A14.273,14.273,0,0,0,9.291,6.729a2.822,2.822,0,0,0,2.123-.18q.841-.489.295-1.232A9.192,9.192,0,0,0,9.1,3.38,13.7,13.7,0,0,0,5.716,1.861a2.848,2.848,0,0,0-2.125.173c-.563.326-.661.733-.3,1.227a9.528,9.528,0,0,0,2.64,1.946" transform="translate(1079.976 930.748) rotate(39)"/>
      <path id="Trazado_6220" data-name="Trazado 6220" d="M11.488,1.995q2.979,1.721,3.436,3.11T13.35,7.664a7.075,7.075,0,0,1-4.444.86A13.992,13.992,0,0,1,3.548,6.583Q.54,4.847.083,3.459C-.219,2.539.3,1.688,1.648.91A7.1,7.1,0,0,1,6.114.057a13.994,13.994,0,0,1,5.374,1.938M5.934,5.206A14.194,14.194,0,0,0,9.289,6.727a2.8,2.8,0,0,0,2.125-.18c.561-.323.656-.733.292-1.229A9.073,9.073,0,0,0,9.094,3.38,13.7,13.7,0,0,0,5.714,1.861a2.836,2.836,0,0,0-2.12.173c-.565.326-.666.733-.3,1.227A9.463,9.463,0,0,0,5.934,5.206" transform="translate(1090.341 932.39) rotate(39)"/>
      <path id="Trazado_6221" data-name="Trazado 6221" d="M11.49,2q2.976,1.721,3.433,3.11c.3.925-.223,1.778-1.577,2.559a7.054,7.054,0,0,1-4.44.86A14.011,14.011,0,0,1,3.545,6.584Q.537,4.849.083,3.46C-.219,2.54.3,1.69,1.646.911A7.119,7.119,0,0,1,6.112.055,14.074,14.074,0,0,1,11.49,2M5.932,5.207A14.126,14.126,0,0,0,9.291,6.728a2.8,2.8,0,0,0,2.12-.18c.561-.323.656-.733.295-1.229A9.155,9.155,0,0,0,9.1,3.379,13.765,13.765,0,0,0,5.714,1.862a2.843,2.843,0,0,0-2.123.173c-.563.326-.664.733-.3,1.227A9.59,9.59,0,0,0,5.932,5.207" transform="translate(1100.705 934.032) rotate(39)"/>
      <path id="Trazado_6222" data-name="Trazado 6222" d="M11.49,2q2.976,1.718,3.433,3.108T13.352,7.666a7.091,7.091,0,0,1-4.444.86A14.065,14.065,0,0,1,3.545,6.585C1.54,5.428.39,4.388.083,3.463S.3,1.688,1.648.912A7.119,7.119,0,0,1,6.114.056,13.993,13.993,0,0,1,11.49,2M5.934,5.205A14.174,14.174,0,0,0,9.291,6.729a2.8,2.8,0,0,0,2.123-.18q.841-.485.3-1.232A9.251,9.251,0,0,0,9.1,3.379,13.674,13.674,0,0,0,5.714,1.86a2.855,2.855,0,0,0-2.123.173c-.563.328-.661.733-.3,1.227a9.479,9.479,0,0,0,2.64,1.946" transform="translate(1111.068 935.671) rotate(39)"/>
      <path id="Trazado_6223" data-name="Trazado 6223" d="M11.489,1.995Q14.469,3.716,14.923,5.1T13.349,7.664a7.1,7.1,0,0,1-4.442.863,13.977,13.977,0,0,1-5.36-1.946C1.541,5.428.387,4.384.082,3.459S.3,1.688,1.647.91A7.1,7.1,0,0,1,6.113.057a13.99,13.99,0,0,1,5.377,1.938M5.933,5.206A14.221,14.221,0,0,0,9.287,6.729a2.827,2.827,0,0,0,2.125-.18c.561-.326.656-.736.295-1.232A9.146,9.146,0,0,0,9.1,3.38,13.66,13.66,0,0,0,5.713,1.861a2.837,2.837,0,0,0-2.12.173c-.563.326-.666.733-.3,1.227A9.512,9.512,0,0,0,5.933,5.206" transform="translate(1126.147 938.063) rotate(39)"/>
      <path id="Trazado_6224" data-name="Trazado 6224" d="M11.49,1.995Q14.465,3.716,14.923,5.1T13.349,7.664a7.08,7.08,0,0,1-4.442.86,14.015,14.015,0,0,1-5.36-1.941Q.539,4.844.082,3.459C-.217,2.539.3,1.686,1.649.91A7.085,7.085,0,0,1,6.111.057,14.013,14.013,0,0,1,11.49,1.995M5.931,5.206A14.126,14.126,0,0,0,9.29,6.727a2.8,2.8,0,0,0,2.12-.18c.561-.323.661-.736.3-1.229A9.177,9.177,0,0,0,9.1,3.377,13.726,13.726,0,0,0,5.713,1.861a2.826,2.826,0,0,0-2.12.173c-.565.326-.664.733-.3,1.227A9.553,9.553,0,0,0,5.931,5.206" transform="translate(1136.512 939.704) rotate(39)"/>
      <path id="Trazado_6225" data-name="Trazado 6225" d="M11.49,2C13.472,3.144,14.62,4.179,14.921,5.1S14.7,6.884,13.35,7.665a7.091,7.091,0,0,1-4.444.86,14.015,14.015,0,0,1-5.36-1.941Q.537,4.849.083,3.46C-.219,2.54.3,1.69,1.648.911A7.112,7.112,0,0,1,6.112.055,14.035,14.035,0,0,1,11.49,2M5.932,5.2A14.173,14.173,0,0,0,9.289,6.728a2.812,2.812,0,0,0,2.123-.18q.841-.485.3-1.229A9.2,9.2,0,0,0,9.094,3.379,13.589,13.589,0,0,0,5.714,1.862a2.831,2.831,0,0,0-2.123.173c-.565.326-.664.733-.3,1.224A9.479,9.479,0,0,0,5.932,5.2" transform="translate(1146.875 941.346) rotate(39)"/>
      <path id="Trazado_6226" data-name="Trazado 6226" d="M11.489,2q2.976,1.718,3.436,3.11T13.348,7.666a7.088,7.088,0,0,1-4.444.86A14,14,0,0,1,3.546,6.583C1.541,5.428.386,4.384.084,3.461S.3,1.688,1.646.909A7.122,7.122,0,0,1,6.112.056,14,14,0,0,1,11.489,2M5.933,5.205A14.123,14.123,0,0,0,9.287,6.729a2.815,2.815,0,0,0,2.125-.18c.561-.326.656-.733.295-1.232A9.177,9.177,0,0,0,9.093,3.38,13.7,13.7,0,0,0,5.712,1.861a2.855,2.855,0,0,0-2.123.173c-.561.328-.664.733-.3,1.227A9.512,9.512,0,0,0,5.933,5.205" transform="translate(1157.24 942.986) rotate(39)"/>
      <path id="Trazado_6227" data-name="Trazado 6227" d="M11.49,1.995Q14.469,3.716,14.923,5.1T13.351,7.664a7.108,7.108,0,0,1-4.444.863,13.991,13.991,0,0,1-5.36-1.946Q.539,4.849.082,3.459C-.217,2.536.3,1.686,1.649.91A7.088,7.088,0,0,1,6.111.057,14.013,14.013,0,0,1,11.49,1.995M5.931,5.206A14.254,14.254,0,0,0,9.29,6.727a2.8,2.8,0,0,0,2.123-.18c.558-.323.659-.736.295-1.229A9.177,9.177,0,0,0,9.1,3.377,13.649,13.649,0,0,0,5.713,1.861a2.826,2.826,0,0,0-2.12.173c-.565.326-.664.733-.3,1.224A9.5,9.5,0,0,0,5.931,5.206" transform="translate(1172.317 945.375) rotate(39)"/>
      <path id="Trazado_6228" data-name="Trazado 6228" d="M11.489,1.995Q14.465,3.716,14.923,5.1T13.348,7.664a7.1,7.1,0,0,1-4.444.86A13.96,13.96,0,0,1,3.547,6.581Q.538,4.845.084,3.459C-.22,2.539.3,1.686,1.647.91A7.1,7.1,0,0,1,6.113.057a14,14,0,0,1,5.376,1.938M5.933,5.2A14.188,14.188,0,0,0,9.29,6.727a2.81,2.81,0,0,0,2.123-.18c.558-.323.656-.736.295-1.229A9.2,9.2,0,0,0,9.093,3.375,13.863,13.863,0,0,0,5.713,1.858a2.843,2.843,0,0,0-2.123.175c-.565.326-.664.733-.3,1.224A9.5,9.5,0,0,0,5.933,5.2" transform="translate(1182.681 947.017) rotate(39)"/>
      <path id="Trazado_6229" data-name="Trazado 6229" d="M11.489,2Q14.468,3.715,14.925,5.1T13.351,7.666a7.1,7.1,0,0,1-4.442.86A13.979,13.979,0,0,1,3.546,6.583Q.538,4.847.084,3.461C-.22,2.541.3,1.686,1.646.912A7.111,7.111,0,0,1,6.115.056,14,14,0,0,1,11.489,2M5.935,5.205A14.123,14.123,0,0,0,9.289,6.729a2.817,2.817,0,0,0,2.125-.18c.561-.323.656-.736.292-1.229A9.113,9.113,0,0,0,9.1,3.377,13.818,13.818,0,0,0,5.715,1.861a2.831,2.831,0,0,0-2.123.175q-.845.489-.3,1.224A9.512,9.512,0,0,0,5.935,5.205" transform="translate(1193.045 948.657) rotate(39)"/>
      <path id="Trazado_6230" data-name="Trazado 6230" d="M11.49,2Q14.469,3.718,14.923,5.1T13.351,7.663a7.092,7.092,0,0,1-4.444.863A13.991,13.991,0,0,1,3.547,6.58C1.542,5.427.387,4.383.082,3.46S.3,1.687,1.649.908A7.121,7.121,0,0,1,6.113.056,14.025,14.025,0,0,1,11.49,2M5.933,5.2A14.187,14.187,0,0,0,9.29,6.728a2.822,2.822,0,0,0,2.123-.18c.561-.323.659-.736.292-1.232A9.139,9.139,0,0,0,9.1,3.381,13.557,13.557,0,0,0,5.713,1.86a2.849,2.849,0,0,0-2.12.173c-.565.326-.664.733-.3,1.229A9.584,9.584,0,0,0,5.933,5.2" transform="translate(1203.408 950.298) rotate(39)"/>
      <path id="Trazado_8088" data-name="Trazado 8088" d="M.769,0,2.819.968l-.7,10.82L0,10.558Z" transform="translate(1000.345 880.936) rotate(39)"/>
      <path id="Trazado_8089" data-name="Trazado 8089" d="M.938,0,2.988.968,2.09,11.8,0,10.578Z" transform="translate(1003.164 888.318) rotate(39)"/>
      <rect id="Rectángulo_2165" data-name="Rectángulo 2165" width="293.893" height="178.39" transform="translate(1061.315 788.997) rotate(39)" fill="none"/>
    </g>
  </g>
</svg>
