<svg xmlns="http://www.w3.org/2000/svg" width="261.998" height="285.423" viewBox="0 0 261.998 285.423">
  <g id="Grupo_3266" data-name="Grupo 3266" transform="translate(-829.355 -2525.273)">
    <g id="Grupo_3046" data-name="Grupo 3046" transform="translate(0 622)">
      <g id="Grupo_3044" data-name="Grupo 3044" transform="matrix(0.848, -0.53, 0.53, 0.848, 689.721, 1946.836)">
        <g id="Grupo_3043" data-name="Grupo 3043" transform="translate(96.519 110.255)">
          <g id="Grupo_3042" data-name="Grupo 3042">
            <g id="Grupo_3041" data-name="Grupo 3041">
              <path id="Trazado_7851" data-name="Trazado 7851" d="M245.7,334.743l-99.911,8.274c-2.875.239-5.732-2.155-6.381-5.347L97.624,128.247c-.656-4.46,1.513-10.854,13.117-11.412l98.467-8.108c2.875-.239,5.732,2.156,6.381,5.347l42.72,210.832C258.935,327.717,254.615,334.518,245.7,334.743Z" transform="translate(-97.519 -108.604)" stroke="#fff" stroke-linecap="round" stroke-linejoin="round" stroke-width="1"/>
              <path id="Trazado_7852" data-name="Trazado 7852" d="M254.873,330.928l-99.91,8.274c-2.876.238-5.733-2.156-6.381-5.348l-42.5-209.1c-.648-3.192,1.157-5.972,4.033-6.209l99.91-8.274c2.876-.238,5.733,2.156,6.382,5.347l42.5,209.1C259.554,327.909,257.749,330.69,254.873,330.928Z" transform="translate(-98.218 -110.255)" fill="none" stroke="#fff" stroke-linecap="round" stroke-linejoin="round" stroke-width="1"/>
              <path id="Trazado_7853" data-name="Trazado 7853" d="M181.129,129.94,167.4,131.077a1.743,1.743,0,0,1-1.727-1.446h0a1.312,1.312,0,0,1,1.09-1.68l13.734-1.138a1.745,1.745,0,0,1,1.727,1.447h0A1.313,1.313,0,0,1,181.129,129.94Z" transform="translate(-108.972 -113.238)"/>
              <path id="Trazado_7854" data-name="Trazado 7854" d="M245.212,314.932l-84.029,6.959a7.108,7.108,0,0,1-7.552-5.668L118.117,141.487a6.026,6.026,0,0,1,5.409-7.207l13.817-1.144a6.257,6.257,0,0,1,4.125,1.124l1.192.842a5.282,5.282,0,0,0,3.456,1.015l40.318-3.339a4.213,4.213,0,0,0,3.01-1.654l.164-.216a6.3,6.3,0,0,1,4.5-2.473l12.843-1.064a7,7,0,0,1,7.432,5.578l35.675,175.525A5.4,5.4,0,0,1,245.212,314.932Z" transform="translate(-100.388 -113.335)" fill="#ffda1a" stroke="#000" stroke-linecap="round" stroke-linejoin="round" stroke-width="1"/>
              <path id="Trazado_7855" data-name="Trazado 7855" d="M225.992,366.659a2.71,2.71,0,0,0-2.684-2.25,2.041,2.041,0,0,0-1.7,2.612,2.711,2.711,0,0,0,2.684,2.25A2.04,2.04,0,0,0,225.992,366.659Z" transform="translate(-119.048 -156.047)"/>
            </g>
          </g>
        </g>
        <path id="Trazado_7856" data-name="Trazado 7856" d="M169.089,340.468l-2.173-11.1a5.029,5.029,0,0,1,4.467-5.974l67.7-6.328a5.03,5.03,0,0,1,5.411,4.075l2.039,10.813a5.029,5.029,0,0,1-4.452,5.937l-67.568,6.613A5.03,5.03,0,0,1,169.089,340.468Z" transform="translate(-10.208 -36.44)"/>
        <path id="Trazado_7857" data-name="Trazado 7857" d="M147.894,231.731l-2.173-11.1a5.029,5.029,0,0,1,4.467-5.974l67.7-6.328a5.03,5.03,0,0,1,5.411,4.075l2.039,10.812a5.029,5.029,0,0,1-4.452,5.938L153.32,235.77A5.03,5.03,0,0,1,147.894,231.731Z" transform="translate(-6.728 -11.625)" fill="#fff" stroke="#000" stroke-miterlimit="10" stroke-width="1"/>
        <path id="Trazado_7858" data-name="Trazado 7858" d="M140.507,197.974l-2.174-11.1A5.029,5.029,0,0,1,142.8,180.9l67.7-6.328a5.029,5.029,0,0,1,5.41,4.075l2.039,10.813A5.029,5.029,0,0,1,213.5,195.4l-67.569,6.614A5.028,5.028,0,0,1,140.507,197.974Z" transform="translate(-5.396 -5.543)" fill="#fff" stroke="#000" stroke-miterlimit="10" stroke-width="1"/>
        <path id="Trazado_7859" data-name="Trazado 7859" d="M205.837,208.51l-2.173-11.1a5.029,5.029,0,0,1,4.467-5.974l10.782-.9a5.029,5.029,0,0,1,5.41,4.075l2.04,10.813a5.03,5.03,0,0,1-4.452,5.937l-10.648,1.185A5.029,5.029,0,0,1,205.837,208.51Z" transform="translate(-17.168 -8.42)" fill="#fff" stroke="#000" stroke-miterlimit="10" stroke-width="1"/>
      </g>
      <g id="objects-exchange" transform="matrix(0.966, -0.259, 0.259, 0.966, 846.702, 1975.226)">
        <path id="Trazado_7861" data-name="Trazado 7861" d="M16.929,162.738q1.564.863,3.243,1.622l-1.823.527a2.662,2.662,0,0,0-1.815,3.3A2.723,2.723,0,0,0,19.83,170l8.835-2.559a2.653,2.653,0,0,0,1.815-3.3l-2.557-8.839a2.724,2.724,0,0,0-3.294-1.816,2.665,2.665,0,0,0-1.815,3.3l.967,3.34A40.989,40.989,0,0,1,19.5,158.1C-1.486,146.535.274,121.672.3,121.42a2.665,2.665,0,0,0-1.368-2.55,2.629,2.629,0,0,0-1.065-.322,2.665,2.665,0,0,0-2.869,2.429C-5.032,121.261-7.021,149.543,16.929,162.738Z" transform="translate(0)" fill="none" stroke="#fff" stroke-width="1"/>
      </g>
      <g id="objects-exchange-2" data-name="objects-exchange" transform="matrix(-0.966, 0.259, -0.259, -0.966, 1077.066, 2122.418)">
        <path id="Trazado_7861-2" data-name="Trazado 7861" d="M16.929,162.738q1.564.863,3.243,1.622l-1.823.527a2.662,2.662,0,0,0-1.815,3.3A2.723,2.723,0,0,0,19.83,170l8.835-2.559a2.653,2.653,0,0,0,1.815-3.3l-2.557-8.839a2.724,2.724,0,0,0-3.294-1.816,2.665,2.665,0,0,0-1.815,3.3l.967,3.34A40.989,40.989,0,0,1,19.5,158.1C-1.486,146.535.274,121.672.3,121.42a2.665,2.665,0,0,0-1.368-2.55,2.629,2.629,0,0,0-1.065-.322,2.665,2.665,0,0,0-2.869,2.429C-5.032,121.261-7.021,149.543,16.929,162.738Z" transform="translate(0)" fill="none" stroke="#fff" stroke-width="1"/>
      </g>
    </g>
    <path id="Trazado_7948" data-name="Trazado 7948" d="M428.073,574.568" transform="matrix(0.788, -0.616, 0.616, 0.788, 207.178, 2427.803)" fill="#4a70ff"/>
    <path id="Trazado_7949" data-name="Trazado 7949" d="M933.869,534.7l-2.776.331a1.472,1.472,0,0,0-1.386,1.374h2.556a1.508,1.508,0,0,0,1.605-1.387Z" transform="matrix(0.788, -0.616, 0.616, 0.788, -128.71, 2736.06)" fill="#fd0"/>
    <g id="Grupo_3108" data-name="Grupo 3108" transform="matrix(0.791, -0.596, 0.6, 0.709, 891.335, 2617.137)">
      <g id="Grupo_3106" data-name="Grupo 3106">
        <g id="Grupo_3099" data-name="Grupo 3099" transform="translate(0 3.092)">
          <path id="Trazado_7950" data-name="Trazado 7950" d="M376.153,565.873h-5.222a1.625,1.625,0,0,0,.667,1.014,2.209,2.209,0,0,0,1.309.372,2.649,2.649,0,0,0,.956-.16,2.317,2.317,0,0,0,.776-.507l1.065,1.155a3.58,3.58,0,0,1-2.848,1.116,4.505,4.505,0,0,1-2.066-.455,3.337,3.337,0,0,1-1.386-1.264,3.48,3.48,0,0,1-.488-1.835,3.528,3.528,0,0,1,.481-1.828,3.372,3.372,0,0,1,1.322-1.27,4.092,4.092,0,0,1,3.714-.019,3.186,3.186,0,0,1,1.289,1.251,3.73,3.73,0,0,1,.468,1.892Q376.192,565.372,376.153,565.873Zm-4.683-2.22a1.639,1.639,0,0,0-.565,1.052h3.4a1.656,1.656,0,0,0-.564-1.046,1.688,1.688,0,0,0-1.129-.391A1.724,1.724,0,0,0,371.47,563.653Z" transform="translate(-368.917 -561.754)"/>
        </g>
        <g id="Grupo_3100" data-name="Grupo 3100" transform="translate(8.75 1.116)">
          <path id="Trazado_7951" data-name="Trazado 7951" d="M465.247,546.194l-1.206,1.257v2.271h-2.066v-8.981h2.066v4.2l3.978-4.2h2.31l-3.721,4,3.939,4.978h-2.425Z" transform="translate(-461.975 -540.741)"/>
        </g>
        <g id="Grupo_3101" data-name="Grupo 3101" transform="translate(17.501 3.092)">
          <path id="Trazado_7952" data-name="Trazado 7952" d="M560.732,562.518a2.922,2.922,0,0,1,.86,2.3v3.939h-1.873v-.86a2.231,2.231,0,0,1-2.1.962,3.266,3.266,0,0,1-1.379-.269,2.056,2.056,0,0,1-.892-.744,1.936,1.936,0,0,1-.308-1.078,1.8,1.8,0,0,1,.725-1.514,3.694,3.694,0,0,1,2.239-.552h1.591a1.277,1.277,0,0,0-.4-1.007,1.753,1.753,0,0,0-1.193-.353,3.482,3.482,0,0,0-1.084.173,2.869,2.869,0,0,0-.9.468l-.718-1.4a4.34,4.34,0,0,1,1.354-.616,6.067,6.067,0,0,1,1.623-.218A3.594,3.594,0,0,1,560.732,562.518Zm-1.707,4.76a1.3,1.3,0,0,0,.565-.7v-.706h-1.373q-1.232,0-1.232.808a.72.72,0,0,0,.3.61,1.358,1.358,0,0,0,.828.225A1.744,1.744,0,0,0,559.025,567.278Z" transform="translate(-555.035 -561.754)"/>
        </g>
        <g id="Grupo_3102" data-name="Grupo 3102" transform="translate(25.866 3.092)">
          <path id="Trazado_7953" data-name="Trazado 7953" d="M654.9,562.518a3.112,3.112,0,0,1,.763,2.29v3.952h-2v-3.644a1.872,1.872,0,0,0-.34-1.225,1.2,1.2,0,0,0-.969-.4,1.428,1.428,0,0,0-1.116.456,1.964,1.964,0,0,0-.411,1.354v3.464h-2v-3.644q0-1.63-1.309-1.63a1.413,1.413,0,0,0-1.1.456A1.963,1.963,0,0,0,646,565.3v3.464h-2v-6.9h1.912v.8a2.527,2.527,0,0,1,.943-.667,3.174,3.174,0,0,1,1.225-.231,2.969,2.969,0,0,1,1.321.289,2.344,2.344,0,0,1,.949.84,2.832,2.832,0,0,1,1.071-.834,3.38,3.38,0,0,1,1.418-.3A2.784,2.784,0,0,1,654.9,562.518Z" transform="translate(-643.999 -561.754)"/>
        </g>
        <g id="Grupo_3103" data-name="Grupo 3103" transform="translate(39.325 0.577)">
          <path id="Trazado_7954" data-name="Trazado 7954" d="M792.968,537.967a3.181,3.181,0,0,1,1.238,1.245,4.1,4.1,0,0,1,0,3.734,3.178,3.178,0,0,1-1.238,1.245,3.518,3.518,0,0,1-1.751.443,2.655,2.655,0,0,1-2.168-.9v.8h-1.912v-9.52h2v3.349a2.666,2.666,0,0,1,2.079-.834A3.52,3.52,0,0,1,792.968,537.967Zm-.834,4.5a2.208,2.208,0,0,0,0-2.784,1.8,1.8,0,0,0-2.528,0,2.209,2.209,0,0,0,0,2.784,1.8,1.8,0,0,0,2.528,0Z" transform="translate(-787.136 -535.01)"/>
        </g>
        <g id="Grupo_3104" data-name="Grupo 3104" transform="translate(47.934)">
          <path id="Trazado_7955" data-name="Trazado 7955" d="M879.039,530.781a1.087,1.087,0,0,1,0-1.591,1.271,1.271,0,0,1,.9-.321,1.3,1.3,0,0,1,.9.308.987.987,0,0,1,.346.77,1.089,1.089,0,0,1-.346.828,1.254,1.254,0,0,1-.9.327A1.269,1.269,0,0,1,879.039,530.781Zm-.1,1.283h2v6.9h-2Z" transform="translate(-878.692 -528.869)"/>
        </g>
        <g id="Grupo_3105" data-name="Grupo 3105" transform="translate(51.591 3.092)">
          <path id="Trazado_7956" data-name="Trazado 7956" d="M923.278,562.518a2.922,2.922,0,0,1,.86,2.3v3.939h-1.873v-.86a2.231,2.231,0,0,1-2.1.962,3.267,3.267,0,0,1-1.379-.269,2.057,2.057,0,0,1-.892-.744,1.937,1.937,0,0,1-.308-1.078,1.8,1.8,0,0,1,.725-1.514,3.693,3.693,0,0,1,2.239-.552h1.591a1.276,1.276,0,0,0-.4-1.007,1.752,1.752,0,0,0-1.193-.353,3.481,3.481,0,0,0-1.084.173,2.87,2.87,0,0,0-.9.468l-.719-1.4a4.341,4.341,0,0,1,1.354-.616,6.068,6.068,0,0,1,1.623-.218A3.593,3.593,0,0,1,923.278,562.518Zm-1.707,4.76a1.3,1.3,0,0,0,.565-.7v-.706h-1.373q-1.232,0-1.232.808a.72.72,0,0,0,.3.61,1.358,1.358,0,0,0,.828.225A1.744,1.744,0,0,0,921.571,567.278Z" transform="translate(-917.581 -561.754)"/>
        </g>
      </g>
      <g id="Grupo_3107" data-name="Grupo 3107" transform="translate(0.043 11.47)">
        <path id="Trazado_7957" data-name="Trazado 7957" d="M369.709,652.11a.643.643,0,0,1-.249-.241.7.7,0,0,1,0-.69.641.641,0,0,1,.25-.241.732.732,0,0,1,.357-.087.746.746,0,0,1,.282.052.581.581,0,0,1,.218.153l-.122.119a.491.491,0,0,0-.37-.156.538.538,0,0,0-.265.066.477.477,0,0,0-.185.182.534.534,0,0,0,0,.517.477.477,0,0,0,.185.181.537.537,0,0,0,.265.066.492.492,0,0,0,.37-.158l.122.118a.586.586,0,0,1-.219.154.738.738,0,0,1-.283.053A.727.727,0,0,1,369.709,652.11Z" transform="translate(-369.37 -650.851)"/>
        <path id="Trazado_7958" data-name="Trazado 7958" d="M397.148,652h-.7l-.145.329h-.194l.6-1.316h.186l.6,1.316h-.2Zm-.066-.151-.284-.645-.284.645Z" transform="translate(-393.596 -650.996)"/>
        <path id="Trazado_7959" data-name="Trazado 7959" d="M425.407,652.152a.588.588,0,0,1-.217-.12l.069-.147a.578.578,0,0,0,.193.11.709.709,0,0,0,.242.042.436.436,0,0,0,.245-.055.171.171,0,0,0,.081-.148.145.145,0,0,0-.044-.11.3.3,0,0,0-.109-.065q-.065-.023-.183-.051a1.86,1.86,0,0,1-.24-.071.394.394,0,0,1-.156-.11.293.293,0,0,1-.065-.2.339.339,0,0,1,.055-.19.38.38,0,0,1,.168-.135.68.68,0,0,1,.28-.051.887.887,0,0,1,.23.03.606.606,0,0,1,.194.087l-.062.15a.68.68,0,0,0-.177-.08.656.656,0,0,0-.184-.027.406.406,0,0,0-.24.058.178.178,0,0,0-.08.15.144.144,0,0,0,.045.11.316.316,0,0,0,.112.066,1.726,1.726,0,0,0,.181.05,1.831,1.831,0,0,1,.239.071.4.4,0,0,1,.155.109.287.287,0,0,1,.065.2.336.336,0,0,1-.056.189.378.378,0,0,1-.171.135.707.707,0,0,1-.282.05A.9.9,0,0,1,425.407,652.152Z" transform="translate(-419.941 -650.851)"/>
        <path id="Trazado_7960" data-name="Trazado 7960" d="M451.408,652h-.7l-.145.329h-.194l.6-1.316h.186l.6,1.316h-.2Zm-.066-.151-.284-.645-.284.645Z" transform="translate(-442.754 -650.996)"/>
        <path id="Trazado_7961" data-name="Trazado 7961" d="M499.708,651.011h.555a.8.8,0,0,1,.37.083.609.609,0,0,1,.251.232.7.7,0,0,1,0,.686.608.608,0,0,1-.251.232.8.8,0,0,1-.37.083h-.555Zm.544,1.153a.608.608,0,0,0,.281-.062.449.449,0,0,0,.187-.174.541.541,0,0,0,0-.517.449.449,0,0,0-.187-.174.61.61,0,0,0-.281-.062H499.9v.989Z" transform="translate(-487.452 -650.996)"/>
        <path id="Trazado_7962" data-name="Trazado 7962" d="M530.784,652.164v.164h-.955v-1.316h.929v.164h-.741v.4h.66v.16h-.66v.425Z" transform="translate(-514.741 -650.996)"/>
        <path id="Trazado_7963" data-name="Trazado 7963" d="M575.008,652.11a.643.643,0,0,1-.249-.241.7.7,0,0,1,0-.69.641.641,0,0,1,.25-.241.731.731,0,0,1,.357-.087.746.746,0,0,1,.282.052.581.581,0,0,1,.218.153l-.122.119a.491.491,0,0,0-.371-.156.538.538,0,0,0-.265.066.478.478,0,0,0-.185.182.534.534,0,0,0,0,.517.477.477,0,0,0,.185.181.536.536,0,0,0,.265.066.492.492,0,0,0,.371-.158l.122.118a.586.586,0,0,1-.219.154.738.738,0,0,1-.283.053A.727.727,0,0,1,575.008,652.11Z" transform="translate(-555.364 -650.851)"/>
        <path id="Trazado_7964" data-name="Trazado 7964" d="M602.446,652h-.7l-.145.329h-.194l.6-1.316h.186l.6,1.316h-.2Zm-.066-.151-.284-.645-.284.645Z" transform="translate(-579.59 -650.996)"/>
        <path id="Trazado_7965" data-name="Trazado 7965" d="M632.989,652.327l0-.959-.476.8h-.086l-.476-.794v.954h-.18v-1.316h.154l.549.925.542-.925h.154l0,1.316Z" transform="translate(-607.095 -650.996)"/>
        <path id="Trazado_7966" data-name="Trazado 7966" d="M665.535,651.76a.332.332,0,0,1,.066.212.3.3,0,0,1-.129.263.642.642,0,0,1-.375.092h-.628v-1.316h.59a.582.582,0,0,1,.349.09.293.293,0,0,1,.123.25.324.324,0,0,1-.048.179.314.314,0,0,1-.129.115A.339.339,0,0,1,665.535,651.76Zm-.878-.6v.421h.385a.391.391,0,0,0,.223-.054.2.2,0,0,0,0-.314.392.392,0,0,0-.223-.053Zm.673.959a.183.183,0,0,0,.081-.166q0-.22-.322-.22h-.432v.438h.432A.445.445,0,0,0,665.33,652.122Z" transform="translate(-636.721 -650.996)"/>
        <path id="Trazado_7967" data-name="Trazado 7967" d="M693.207,651.011h.188v1.316h-.188Z" transform="translate(-662.757 -650.996)"/>
        <path id="Trazado_7968" data-name="Trazado 7968" d="M712.209,652.11a.646.646,0,0,1-.251-.242.694.694,0,0,1,0-.688.647.647,0,0,1,.251-.242.778.778,0,0,1,.716,0,.64.64,0,0,1,.25.241.7.7,0,0,1,0,.69.64.64,0,0,1-.25.241.777.777,0,0,1-.716,0Zm.62-.146a.483.483,0,0,0,.182-.181.534.534,0,0,0,0-.517.483.483,0,0,0-.182-.182.518.518,0,0,0-.26-.066.529.529,0,0,0-.262.066.48.48,0,0,0-.184.182.533.533,0,0,0,0,.517.48.48,0,0,0,.184.181.528.528,0,0,0,.262.066A.517.517,0,0,0,712.829,651.964Z" transform="translate(-679.662 -650.851)"/>
        <path id="Trazado_7969" data-name="Trazado 7969" d="M762.267,651.517h.181v.513a.7.7,0,0,1-.228.124.853.853,0,0,1-.271.043.737.737,0,0,1-.359-.088.648.648,0,0,1-.251-.241.7.7,0,0,1,0-.691.638.638,0,0,1,.252-.241.751.751,0,0,1,.362-.086.763.763,0,0,1,.287.052.586.586,0,0,1,.219.151l-.117.117a.53.53,0,0,0-.382-.152.557.557,0,0,0-.27.065.476.476,0,0,0-.187.18.532.532,0,0,0,0,.519.483.483,0,0,0,.187.181.546.546,0,0,0,.268.066.557.557,0,0,0,.309-.085Z" transform="translate(-724.4 -650.851)"/>
        <path id="Trazado_7970" data-name="Trazado 7970" d="M791.428,651.011h.188v1.153h.713v.164h-.9Z" transform="translate(-751.742 -650.996)"/>
        <path id="Trazado_7971" data-name="Trazado 7971" d="M815.85,652.11a.646.646,0,0,1-.251-.242.7.7,0,0,1,0-.688.648.648,0,0,1,.251-.242.779.779,0,0,1,.717,0,.643.643,0,0,1,.25.241.706.706,0,0,1,0,.69.644.644,0,0,1-.25.241.777.777,0,0,1-.717,0Zm.62-.146a.485.485,0,0,0,.182-.181.534.534,0,0,0,0-.517.485.485,0,0,0-.182-.182.518.518,0,0,0-.26-.066.528.528,0,0,0-.262.066.479.479,0,0,0-.184.182.534.534,0,0,0,0,.517.479.479,0,0,0,.184.181.527.527,0,0,0,.262.066A.517.517,0,0,0,816.47,651.964Z" transform="translate(-773.558 -650.851)"/>
        <path id="Trazado_7972" data-name="Trazado 7972" d="M848.114,651.76a.333.333,0,0,1,.066.212.3.3,0,0,1-.129.263.641.641,0,0,1-.375.092h-.628v-1.316h.591a.581.581,0,0,1,.349.09.293.293,0,0,1,.123.25.324.324,0,0,1-.048.179.312.312,0,0,1-.129.115A.339.339,0,0,1,848.114,651.76Zm-.878-.6v.421h.386a.391.391,0,0,0,.223-.054.2.2,0,0,0,0-.314.391.391,0,0,0-.223-.053Zm.673.959a.183.183,0,0,0,.081-.166q0-.22-.322-.22h-.433v.438h.433A.444.444,0,0,0,847.908,652.122Z" transform="translate(-802.131 -650.996)"/>
        <path id="Trazado_7973" data-name="Trazado 7973" d="M874.706,652h-.7l-.145.329h-.194l.6-1.316h.186l.6,1.316h-.2Zm-.066-.151-.284-.645-.284.645Z" transform="translate(-826.249 -650.996)"/>
        <path id="Trazado_7974" data-name="Trazado 7974" d="M904.027,651.011h.188v1.153h.713v.164h-.9Z" transform="translate(-853.753 -650.996)"/>
        <path id="Trazado_7975" data-name="Trazado 7975" d="M947.424,652.152a.591.591,0,0,1-.217-.12l.07-.147a.578.578,0,0,0,.193.11.709.709,0,0,0,.242.042.436.436,0,0,0,.245-.055.172.172,0,0,0,.081-.148.145.145,0,0,0-.044-.11.294.294,0,0,0-.109-.065q-.065-.023-.183-.051a1.866,1.866,0,0,1-.24-.071.394.394,0,0,1-.156-.11.293.293,0,0,1-.065-.2.34.34,0,0,1,.055-.19.381.381,0,0,1,.168-.135.681.681,0,0,1,.28-.051.887.887,0,0,1,.23.03.605.605,0,0,1,.193.087l-.062.15a.683.683,0,0,0-.177-.08.655.655,0,0,0-.184-.027.406.406,0,0,0-.24.058.179.179,0,0,0-.08.15.144.144,0,0,0,.045.11.313.313,0,0,0,.112.066,1.719,1.719,0,0,0,.181.05,1.83,1.83,0,0,1,.239.071.4.4,0,0,1,.155.109.287.287,0,0,1,.065.2.335.335,0,0,1-.056.189.376.376,0,0,1-.171.135.706.706,0,0,1-.282.05A.9.9,0,0,1,947.424,652.152Z" transform="translate(-892.873 -650.851)"/>
        <path id="Trazado_7976" data-name="Trazado 7976" d="M973.425,652h-.7l-.145.329h-.194l.6-1.316h.186l.6,1.316h-.2Zm-.066-.151-.284-.645-.284.645Z" transform="translate(-915.685 -650.996)"/>
      </g>
    </g>
    <g id="Grupo_3268" data-name="Grupo 3268" transform="matrix(1, 0.017, -0.017, 0.966, 44.157, 74.066)">
      <path id="Trazado_8087" data-name="Trazado 8087" d="M3.688.351,11.37.2a4.155,4.155,0,0,1,4.155,4.155l.2,7.093A4.155,4.155,0,0,1,11.573,15.6H4.3A4.155,4.155,0,0,1,.147,11.446l-.614-6.94A4.155,4.155,0,0,1,3.688.351Z" transform="matrix(0.788, -0.616, 0.616, 0.788, 875.578, 2626.969)"/>
      <rect id="Rectángulo_2317" data-name="Rectángulo 2317" width="4.311" height="1.881" transform="matrix(0.788, -0.616, 0.616, 0.788, 880.747, 2628.746)" fill="#ffda1a"/>
      <rect id="Rectángulo_2318" data-name="Rectángulo 2318" width="4.311" height="1.881" transform="matrix(0.788, -0.616, 0.616, 0.788, 884.4, 2633.421)" fill="#ffda1a"/>
      <path id="Rectángulo_2319" data-name="Rectángulo 2319" d="M.941,0h3.37a0,0,0,0,1,0,0V1.881a0,0,0,0,1,0,0H.94A.94.94,0,0,1,0,.941v0A.941.941,0,0,1,.941,0Z" transform="matrix(0.788, -0.616, 0.616, 0.788, 882.573, 2631.084)" fill="#ffda1a"/>
      <path id="Trazado_7977" data-name="Trazado 7977" d="M252.86,577.193l-2.964-2.967v-1.881l2.4-1.814,1.095.36.347.948-.881,1.419,2.64,2.656a.75.75,0,0,1-.532,1.278Z" transform="matrix(0.788, -0.616, 0.616, 0.788, 336.633, 2331.303)" fill="#ffda1a"/>
      <path id="Trazado_7978" data-name="Trazado 7978" d="M190.172,524.126h-5.6a4.32,4.32,0,0,0-4.32,4.32v5.6a4.32,4.32,0,0,0,4.32,4.32h5.6a4.32,4.32,0,0,0,4.32-4.32v-5.6A4.32,4.32,0,0,0,190.172,524.126Zm.4,3.325,1.288-.114c.671,0,.438.238-.04.709l-.83,1.278-.258-.779a.154.154,0,0,0-.09-.09l-.984-.323Zm-8.022.826a.94.94,0,0,1,.94-.94h3.37v.94a.94.94,0,0,1-.94.94h-3.37Zm4.311,5.933a.94.94,0,0,1-.94.941h-3.37v-.94a.94.94,0,0,1,.94-.94h3.37Zm5.023.941h-2.118l-2.964-2.967h-3.314a.938.938,0,0,1-.938-.938v0a.938.938,0,0,1,.938-.938h3.26l2.433-1.816,1.114.362.359.991-.893,1.375,2.653,2.653A.751.751,0,0,1,191.886,535.151Z" transform="matrix(0.788, -0.616, 0.616, 0.788, 412.233, 2325.589)"/>
      <path id="Trazado_7979" data-name="Trazado 7979" d="M271.225,545.225l-1.929-.634a.141.141,0,0,1-.006-.265l2.172-.825,2.251-.855a.141.141,0,0,1,.182.182l-.855,2.251-.825,2.172a.141.141,0,0,1-.265-.006l-.634-1.929A.141.141,0,0,0,271.225,545.225Z" transform="matrix(0.788, -0.616, 0.616, 0.788, 338.411, 2361.984)" fill="#ffda1a"/>
    </g>
  </g>
</svg>
