<svg xmlns="http://www.w3.org/2000/svg" width="244.145" height="286.508" viewBox="0 0 244.145 286.508">
  <g id="Grupo_3267" data-name="Grupo 3267" transform="translate(-1306.211 -2525.286)">
    <g id="Grupo_3066" data-name="Grupo 3066" transform="translate(1113.938 2358.887)">
      <g id="Grupo_3057" data-name="Grupo 3057" transform="translate(315.535 166.911)">
        <path id="Trazado_7873" data-name="Trazado 7873" d="M254.135,230.842s-.416-10.818-.416-22.051,5.825-13.731,9.57-13.731a25.12,25.12,0,0,1,5.408.416s2.082-17.892,15.4-20.8,23.3,7.906,27.876,4.161-10.816-3.329-4.159-8.739,25.8-5.824,27.876,14.147-11.649,29.125-18.306,30.79-15.81-10.4-24.549-9.986-7.49,10.4-12.9,14.561-9.569,2.082-9.569,7.49-2.5,8.323-9.153,8.739S254.135,230.842,254.135,230.842Z" transform="translate(-253.719 -166.911)" stroke="#fff" stroke-linecap="round" stroke-linejoin="round" stroke-width="1"/>
        <path id="Trazado_7874" data-name="Trazado 7874" d="M284.431,193.19s6.475,2.989,14.945-2.49,2.989-17.934,1.494-18.432" transform="translate(-222.362 -161.439)" fill="none" stroke="#fff" stroke-linecap="round" stroke-linejoin="round" stroke-width="1"/>
        <path id="Trazado_7875" data-name="Trazado 7875" d="M265.7,187.44s2.989-12.951,13.45-12.453,8.967,9.964,17.934,12.953" transform="translate(-241.488 -158.679)" fill="none" stroke="#fff" stroke-linecap="round" stroke-linejoin="round" stroke-width="1"/>
        <path id="Trazado_7876" data-name="Trazado 7876" d="M271.787,187.623s-5.97-6.132-11.449-4.636-2.989,10.958-2.492,13.947-3.486,11.457-3.486,11.457" transform="translate(-253.065 -150.737)" fill="none" stroke="#fff" stroke-linecap="round" stroke-linejoin="round" stroke-width="1"/>
      </g>
      <g id="Grupo_3060" data-name="Grupo 3060" transform="translate(193.175 236.429)">
        <path id="Trazado_7877" data-name="Trazado 7877" d="M193.465,202.813l15.046,53.665,24.074-1-14.043-54.166Z" transform="translate(-192.878 -201.308)" fill="#ffda1a" stroke="#000" stroke-linecap="round" stroke-linejoin="round" stroke-width="1"/>
        <g id="Grupo_3059" data-name="Grupo 3059" transform="translate(0 17.806)">
          <g id="Grupo_3058" data-name="Grupo 3058">
            <path id="Trazado_7878" data-name="Trazado 7878" d="M233.383,294.124l-6.52,3.513s-8.025-25.077-11.536-34.608-4.513-13.541-4.513-13.541l.166-.1a9.255,9.255,0,0,0,4.365-10.024l-1.148-5.105s1.609,3.6,4.935,1.409c1.673-1.1-.109-12.2-2.116-16.21s-8.711-1.067-10.717-.065a18.79,18.79,0,0,0-4.012,3.009l-1.506-6.019s7.524-.5,9.028-.5,7.023-5.016,4.515-5.517-16.552-.5-20.062,2.508.178,15.224,1.181,17.732,6.257,27.215,8.264,34.236,4.057,39.595,10.491,55.19,13.277,10.515,17.336,7.885c7.317-4.739,17.328-14.083,17.328-14.083Z" transform="translate(-193.175 -210.119)" fill="#fff" stroke="#000" stroke-linecap="round" stroke-linejoin="round" stroke-width="1"/>
            <path id="Trazado_7879" data-name="Trazado 7879" d="M198.52,220.477s7.049-5.992,13.393-4.582" transform="translate(-187.717 -204.441)" fill="none" stroke="#000" stroke-linecap="round" stroke-linejoin="round" stroke-width="1"/>
            <path id="Trazado_7880" data-name="Trazado 7880" d="M199.566,223.519s4.935-5.285,11.631-4.933" transform="translate(-186.649 -201.492)" fill="none" stroke="#000" stroke-linecap="round" stroke-linejoin="round" stroke-width="1"/>
          </g>
          <path id="Trazado_7881" data-name="Trazado 7881" d="M272.278,219.74c-7.689,4.445-18.071,16.409-18.071,16.409l-35.244,37.169a89.141,89.141,0,0,0-6.52,8.258c-2.2,3.4-.987,2.568,1.12,10.742s7.307,21.952,7.307,21.952,1.576,4.945,4.493,4.848,2.192.27,8.4-4.8S250.2,298.84,250.2,298.84s15.046-29.088,19.058-47.645c3.073-14.214,18.934-28.323,15.71-32.827C284.225,217.315,279.967,215.294,272.278,219.74Z" transform="translate(-173.875 -200.29)" fill="#ffda1a" stroke="#000" stroke-linecap="round" stroke-linejoin="round" stroke-width="1"/>
        </g>
      </g>
      <path id="Trazado_7882" data-name="Trazado 7882" d="M355.351,230.974s-33.707-3.469-50.35-5.965-21.366-17.134-37.593,5.022-14.585,57.417-27.314,83.6c-16.849,34.662-28.454,53.029-28.454,53.029a67.961,67.961,0,0,1,36.7-3.383c20.8,3.745,31.833,36.182,53.177,25.851s15.556-33.472,32.2-67.174,25.38-84.048,25.38-86.96S355.351,230.974,355.351,230.974Z" transform="translate(18.854 53.682)" fill="#ffda1a" stroke="#000" stroke-linecap="round" stroke-linejoin="round" stroke-width="1"/>
      <path id="Trazado_7883" data-name="Trazado 7883" d="M295.4,226.4c-10.04-.962-23.933-2.4-33.539-3.842-1.4-.21-2.809-.439-4.22-.673a66.612,66.612,0,0,0-3.684,17.316c-.833,12.065,6.241,25.38,11.649,25.38s22.053-22.468,25.8-28.708A31.706,31.706,0,0,0,295.4,226.4Z" transform="translate(61.993 56.131)" stroke="#000" stroke-linecap="round" stroke-linejoin="round" stroke-width="1"/>
      <path id="Trazado_7884" data-name="Trazado 7884" d="M265.354,210.691s-4.159,21.219-7.488,29.957.416,24.133,4.576,24.547,20.8-21.219,20.8-21.219l5.825-24.133S267.852,214.02,265.354,210.691Z" transform="translate(64.743 44.7)" fill="#fff" stroke="#000" stroke-linecap="round" stroke-linejoin="round" stroke-width="1"/>
      <g id="Grupo_3061" data-name="Grupo 3061" transform="translate(285.511 284.576)">
        <path id="Trazado_7885" data-name="Trazado 7885" d="M289.509,225.132a14.418,14.418,0,0,1,10.531,7.524c4.012,7.021,44.135,73.726,44.135,73.726L317.094,313.4l-37.617-33.6s-9.028-11.536,1-32.1" transform="translate(-201.205 -225.132)" fill="#ffda1a" stroke="#000" stroke-linecap="round" stroke-linejoin="round" stroke-width="1"/>
        <path id="Trazado_7886" data-name="Trazado 7886" d="M249,256.4s-9.6,8.591-10.109,10.614,5.055,10.109,6.571,10.616,2.023-4.045,1.517-6.068-1.517-5.053-1.517-5.053l5.561-6.571S253.049,257.411,249,256.4Z" transform="translate(-127.758 -271.958) rotate(20)" fill="#fff" stroke="#000" stroke-linecap="round" stroke-linejoin="round" stroke-width="1"/>
        <path id="Trazado_7887" data-name="Trazado 7887" d="M368.065,263.221a49.254,49.254,0,0,0-19.058-3.009c-10.533.5-32.6,6.019-46.643,6.52s-13.543,1-21.065-1-23.072-14.044-26.582-14.044-14.042,17.554-12.538,19.561,14.044,11.536,17.554,12.037,11.033-4.012,11.033-4.012,37.617,5.515,55.169,7.522,39.121,4.513,47.647-1S379.6,268.237,368.065,263.221Z" transform="translate(-235.627 -198.021)" fill="#fff" stroke="#000" stroke-linecap="round" stroke-linejoin="round" stroke-width="1"/>
        <line id="Línea_116" data-name="Línea 116" x1="9.529" y2="15.046" transform="translate(9.561 59.683)" fill="none" stroke="#000" stroke-linecap="round" stroke-linejoin="round" stroke-width="1"/>
        <line id="Línea_117" data-name="Línea 117" x1="11.034" y2="15.046" transform="translate(15.078 65.2)" fill="none" stroke="#000" stroke-linecap="round" stroke-linejoin="round" stroke-width="1"/>
        <line id="Línea_118" data-name="Línea 118" x1="9.529" y2="11.535" transform="translate(21.598 71.72)" fill="none" stroke="#000" stroke-linecap="round" stroke-linejoin="round" stroke-width="1"/>
        <path id="Trazado_7888" data-name="Trazado 7888" d="M259.291,267.108l-1-3.511-5.015,3.009" transform="translate(-224.151 -185.859)" fill="none" stroke="#000" stroke-linecap="round" stroke-linejoin="round" stroke-width="1"/>
      </g>
      <g id="Grupo_3062" data-name="Grupo 3062" transform="translate(308.01 192.978)">
        <path id="Trazado_7889" data-name="Trazado 7889" d="M287.522,197.986s4.159-2.914,4.992,4.992-2.08,13.314-4.161,14.563-4.576-.833-4.576-.833Z" transform="translate(-215.505 -161.786)" fill="#fff" stroke="#000" stroke-linecap="round" stroke-linejoin="round" stroke-width="1"/>
        <path id="Trazado_7890" data-name="Trazado 7890" d="M262.1,217.256s-6.657-8.737-10.4-1.247-.833,17.059,4.159,20.8,9.986-1.663,9.986-1.663,10.818,22.051,19.972,22.884,26.214-5.825,32.455-18.723,5.408-33.7,6.241-41.608-7.906-17.892-24.133-17.892-24.133,10.818-24.133,10.818,4.578,2.5,1.249,7.074-7.49,7.49-8.739,10.4,0,5.824-1.663,8.32S262.1,217.256,262.1,217.256Z" transform="translate(-249.996 -179.809)" fill="#fff" stroke="#000" stroke-linecap="round" stroke-linejoin="round" stroke-width="1"/>
        <path id="Trazado_7891" data-name="Trazado 7891" d="M276.685,194.059c-.362,2.332-1.532,4.089-2.615,3.921s-1.667-2.195-1.306-4.527,1.532-4.086,2.615-3.919S277.047,191.726,276.685,194.059Z" transform="translate(-226.858 -169.891)"/>
        <path id="Trazado_7892" data-name="Trazado 7892" d="M284.916,196.326c-.36,2.332-1.532,4.086-2.613,3.919s-1.669-2.195-1.308-4.527,1.532-4.086,2.615-3.919S285.278,193.993,284.916,196.326Z" transform="translate(-218.454 -167.579)"/>
        <path id="Trazado_7893" data-name="Trazado 7893" d="M270.584,188.832s5.188-6.105,11.9-2.747" transform="translate(-228.975 -174.431)" fill="none" stroke="#000" stroke-linecap="round" stroke-linejoin="round" stroke-width="1"/>
        <path id="Trazado_7894" data-name="Trazado 7894" d="M281.458,188.158s7.631-2.747,9.157,7.631" transform="translate(-217.872 -171.62)" fill="none" stroke="#000" stroke-linecap="round" stroke-linejoin="round" stroke-width="1"/>
        <path id="Trazado_7895" data-name="Trazado 7895" d="M283.19,191.919s-2.747,5.19-2.136,6.716,8.24,3.357,5.8,5.493-8.547,4.58-10.378,3.359" transform="translate(-222.961 -167.445)" fill="none" stroke="#000" stroke-linecap="round" stroke-linejoin="round" stroke-width="1"/>
        <path id="Trazado_7896" data-name="Trazado 7896" d="M268.469,200.075s2.138,7.326,11.906,8.852" transform="translate(-231.134 -159.117)" fill="none" stroke="#000" stroke-linecap="round" stroke-linejoin="round" stroke-width="1"/>
      </g>
    </g>
    <g id="_002-simbolo-del-euro" data-name="002-simbolo-del-euro" transform="translate(1416.033 2761.416) rotate(-30)">
      <g id="Grupo_3164" data-name="Grupo 3164" transform="translate(0 0)">
        <g id="Grupo_3149" data-name="Grupo 3149" transform="translate(0.017 16.078)">
          <path id="Trazado_7998" data-name="Trazado 7998" d="M5.823,18.271,12.4,14.451l5.311,3.066-6.575,3.821Z" transform="translate(-5.823 -14.451)" fill="#ffec8c" stroke="#000" stroke-width="1"/>
        </g>
        <g id="Grupo_3150" data-name="Grupo 3150" transform="translate(0.049 4.603)">
          <path id="Trazado_7999" data-name="Trazado 7999" d="M5.85,8.671l6.575-3.821L18.57,8.4,12,12.219Z" transform="translate(-5.85 -4.851)" fill="#ffec8c" stroke="#000" stroke-width="1"/>
        </g>
        <g id="Grupo_3151" data-name="Grupo 3151" transform="translate(12.781 17.842)">
          <path id="Trazado_8000" data-name="Trazado 8000" d="M16.569,19.747l6.575-3.821c-.041.525-.063,1.334-.067,2.452a29.075,29.075,0,0,0,.17,3.251l-6.575,3.821A29.049,29.049,0,0,1,16.5,22.2C16.505,21.082,16.528,20.272,16.569,19.747Z" transform="translate(-16.502 -15.926)" fill="#ecae00" stroke="#000" stroke-width="1"/>
        </g>
        <g id="Grupo_3152" data-name="Grupo 3152" transform="translate(37.246 51.37)">
          <path id="Trazado_8001" data-name="Trazado 8001" d="M43.544,44.949,36.969,48.77a9.817,9.817,0,0,0,1.379-.973l6.575-3.821A9.818,9.818,0,0,1,43.544,44.949Z" transform="translate(-36.969 -43.976)" fill="#ff5766" stroke="#000" stroke-width="1"/>
        </g>
        <g id="Grupo_3153" data-name="Grupo 3153" transform="translate(14.533 30.32)">
          <path id="Trazado_8002" data-name="Trazado 8002" d="M44.3,39.243l-6.575,3.821a10.132,10.132,0,0,1-4.671,1.509,10.722,10.722,0,0,1-5.464-1.76q-6.448-3.723-9.619-12.626l6.575-3.821q3.167,8.889,9.619,12.626a10.72,10.72,0,0,0,5.464,1.761A10.133,10.133,0,0,0,44.3,39.243Z" transform="translate(-17.967 -26.365)" fill="#ffec8c" stroke="#000" stroke-width="1"/>
        </g>
        <g id="Grupo_3154" data-name="Grupo 3154" transform="translate(28.122 32.314)">
          <path id="Trazado_8003" data-name="Trazado 8003" d="M29.353,31.855l6.575-3.821-.017,5.852-6.575,3.821Z" transform="translate(-29.336 -28.034)" fill="#ecae00" stroke="#000" stroke-width="1"/>
        </g>
        <g id="Grupo_3155" data-name="Grupo 3155" transform="translate(12.951 23.546)">
          <path id="Trazado_8004" data-name="Trazado 8004" d="M16.644,24.519,23.219,20.7l15.188,8.769-6.575,3.821Z" transform="translate(-16.644 -20.698)" fill="#ffec8c" stroke="#000" stroke-width="1"/>
        </g>
        <g id="Grupo_3156" data-name="Grupo 3156" transform="translate(34.442 43.106)">
          <path id="Trazado_8005" data-name="Trazado 8005" d="M34.623,40.883,41.2,37.062l4.183,8.265-6.575,3.821Z" transform="translate(-34.623 -37.062)" fill="#ecae00" stroke="#000" stroke-width="1"/>
        </g>
        <g id="Grupo_3157" data-name="Grupo 3157" transform="translate(14.105 9.823)">
          <path id="Trazado_8006" data-name="Trazado 8006" d="M20.058,13.039l6.575-3.821a6.192,6.192,0,0,0-2.449,2.9L17.61,15.934A6.192,6.192,0,0,1,20.058,13.039Z" transform="translate(-17.61 -9.218)" fill="#ecae00" stroke="#000" stroke-width="1"/>
        </g>
        <g id="Grupo_3158" data-name="Grupo 3158" transform="translate(28.155 20.839)">
          <path id="Trazado_8007" data-name="Trazado 8007" d="M29.38,22.255l6.575-3.821-.017,5.84L29.364,28.1Z" transform="translate(-29.364 -18.434)" fill="#ecae00" stroke="#000" stroke-width="1"/>
        </g>
        <g id="Grupo_3159" data-name="Grupo 3159" transform="translate(14.105 12.718)">
          <path id="Trazado_8008" data-name="Trazado 8008" d="M17.61,15.461l6.575-3.821,14.066,8.121-6.575,3.821Z" transform="translate(-17.61 -11.64)" fill="#ffec8c" stroke="#000" stroke-width="1"/>
        </g>
        <path id="Exclusión_1" data-name="Exclusión 1" d="M28.125,22.792A37.849,37.849,0,0,0,13.257,6.382h0A16.714,16.714,0,0,0,5.041,3.821a10.417,10.417,0,0,0-3.083.459A9.586,9.586,0,0,0,0,5.136L6.571,1.317A9.6,9.6,0,0,1,8.532.459,10.417,10.417,0,0,1,11.615,0,13.3,13.3,0,0,1,15.56.64a21.349,21.349,0,0,1,4.272,1.921,34.5,34.5,0,0,1,4.454,3.062A35.666,35.666,0,0,1,28.25,9.381a42.352,42.352,0,0,1,6.45,9.59l-6.575,3.821Z" transform="translate(11.179 0)" fill="#ffec8c" stroke="#000" stroke-width="1"/>
        <g id="Grupo_3161" data-name="Grupo 3161" transform="translate(35.097 18.971)">
          <path id="Trazado_8010" data-name="Trazado 8010" d="M39.378,20.692l6.575-3.821-4.206,3.7-6.575,3.821Z" transform="translate(-35.171 -16.871)" fill="#ecae00" stroke="#000" stroke-width="1"/>
        </g>
        <g id="Grupo_3162" data-name="Grupo 3162" transform="translate(0 3.821)">
          <path id="Trazado_8011" data-name="Trazado 8011" d="M30.244,6.757a37.722,37.722,0,0,1,14.868,16.41l-4.206,3.7a41.621,41.621,0,0,0-4.921-7.331,22.977,22.977,0,0,0-5.764-4.619,9.263,9.263,0,0,0-6.18-1.5,5.56,5.56,0,0,0-4.126,3.5l14.066,8.121-.017,5.84L18.657,22.038c-.041.525-.063,1.334-.067,2.452a29.049,29.049,0,0,0,.17,3.251l15.188,8.769-.017,5.852-13.59-7.846q3.166,8.889,9.619,12.626a10.722,10.722,0,0,0,5.464,1.76,10.26,10.26,0,0,0,4.827-1.6l4.183,8.264q-5.517,4.63-14.5-.554a34.434,34.434,0,0,1-10.9-10.337,44.892,44.892,0,0,1-6.789-14.831l-6.442-3.72.017-5.852,5.311,3.066c-.106-1.147-.173-2.27-.169-3.354s.025-1.871.076-2.344l-5.2-3L5.858,8.8,12,12.347q1.971-6.128,6.942-7.692,4.986-1.543,11.3,2.1Z" transform="translate(-5.809 -4.196)" fill="#ffda1a" stroke="#000" stroke-width="1"/>
        </g>
      </g>
    </g>
    <g id="_001-simbolo-del-dolar" data-name="001-simbolo-del-dolar" transform="matrix(0.819, -0.574, 0.574, 0.819, 1331.413, 2562.272)">
      <g id="Grupo_3148" data-name="Grupo 3148" transform="translate(0 0)">
        <g id="Grupo_3132" data-name="Grupo 3132" transform="translate(19.573 57.351)">
          <path id="Trazado_7982" data-name="Trazado 7982" d="M23.99,46.62l8.1-4.706-.015,5.226-8.1,4.706Z" transform="translate(-23.975 -41.914)" fill="#ecae00" stroke="#000" stroke-width="1"/>
        </g>
        <g id="Grupo_3133" data-name="Grupo 3133" transform="translate(4.639 34.381)">
          <path id="Trazado_7983" data-name="Trazado 7983" d="M13.321,30.234l8.1-4.706q5.3,8.36,10.924,12.639l-8.1,4.706Q18.618,38.59,13.321,30.234Z" transform="translate(-13.321 -25.528)" fill="#ffec8c" stroke="#000" stroke-width="1"/>
        </g>
        <g id="Grupo_3134" data-name="Grupo 3134" transform="translate(19.61 49.568)">
          <path id="Trazado_7984" data-name="Trazado 7984" d="M24,41.068l8.1-4.706c2.018.926,3.621,1.176,4.811.737l-8.1,4.706C27.623,42.244,26.019,41.994,24,41.068Z" transform="translate(-24.001 -36.362)" fill="#ffec8c" stroke="#000" stroke-width="1"/>
        </g>
        <g id="Grupo_3135" data-name="Grupo 3135" transform="translate(24.42 50.103)">
          <path id="Trazado_7985" data-name="Trazado 7985" d="M35.963,36.744l-8.1,4.706a2.74,2.74,0,0,1-.432.2l8.1-4.706A2.733,2.733,0,0,0,35.963,36.744Z" transform="translate(-27.433 -36.744)" fill="#73bd1e" stroke="#000" stroke-width="1"/>
        </g>
        <g id="Grupo_3136" data-name="Grupo 3136" transform="translate(19.61 36.488)">
          <path id="Trazado_7986" data-name="Trazado 7986" d="M24.038,31.737l8.1-4.706L32.1,40.11,24,44.816Z" transform="translate(-24.001 -27.031)" fill="#ecae00" stroke="#000" stroke-width="1"/>
        </g>
        <g id="Grupo_3137" data-name="Grupo 3137" transform="translate(19.672 27.624)">
          <path id="Trazado_7987" data-name="Trazado 7987" d="M24.046,25.413,27.98,22.75l4.164-2.043.183.106-8.1,4.706Z" transform="translate(-24.046 -20.707)" fill="#ecc600" stroke="#000" stroke-width="1"/>
        </g>
        <g id="Grupo_3138" data-name="Grupo 3138" transform="translate(9.571 10.892)">
          <path id="Trazado_7988" data-name="Trazado 7988" d="M18.2,13.476l8.1-4.706a3.18,3.18,0,0,0-1.356,3.006,8.833,8.833,0,0,0,1.248,4.576A28.208,28.208,0,0,0,31,21.859l-8.1,4.706a28.212,28.212,0,0,1-4.809-5.507,8.835,8.835,0,0,1-1.248-4.576A3.181,3.181,0,0,1,18.2,13.476Z" transform="translate(-16.84 -8.771)" fill="#ffec8c" stroke="#000" stroke-width="1"/>
        </g>
        <path id="Unión_4" data-name="Unión 4" d="M14.066,27.855a20.99,20.99,0,0,0-3.4-11.67A53.964,53.964,0,0,0,0,4.706L8.1,0a53.97,53.97,0,0,1,10.67,11.48,20.994,20.994,0,0,1,3.4,11.67q-.017,5.841-3.334,7.774l-8.1,4.706Q14.049,33.7,14.066,27.855Z" transform="translate(19.856 27.73)" fill="#ffec8c" stroke="#000" stroke-width="1"/>
        <g id="Grupo_3141" data-name="Grupo 3141" transform="translate(19.672 13.969)">
          <path id="Trazado_7991" data-name="Trazado 7991" d="M24.084,15.671l8.1-4.706-.039,13.655-8.1,4.706Z" transform="translate(-24.046 -10.965)" fill="#ecae00" stroke="#000" stroke-width="1"/>
        </g>
        <g id="Grupo_3142" data-name="Grupo 3142" transform="translate(5.221 1.594)">
          <path id="Trazado_7992" data-name="Trazado 7992" d="M13.736,7.745l8.1-4.706q.236-.138.489-.255,3.826-1.8,9.976,1.4L24.2,8.888Q18.057,5.7,14.225,7.49q-.253.118-.489.255Z" transform="translate(-13.736 -2.137)" fill="#ffec8c" stroke="#000" stroke-width="1"/>
        </g>
        <g id="Grupo_3143" data-name="Grupo 3143" transform="translate(15.697)">
          <path id="Trazado_7993" data-name="Trazado 7993" d="M21.21,5.706,29.308,1l4.047,2.336-8.1,4.706Z" transform="translate(-21.21 -1)" fill="#ffec8c" stroke="#000" stroke-width="1"/>
        </g>
        <g id="Grupo_3144" data-name="Grupo 3144" transform="translate(19.733 2.336)">
          <path id="Trazado_7994" data-name="Trazado 7994" d="M24.1,7.373l8.1-4.706-.011,3.709-8.1,4.706Z" transform="translate(-24.089 -2.667)" fill="#ecae00" stroke="#000" stroke-width="1"/>
        </g>
        <g id="Grupo_3145" data-name="Grupo 3145" transform="translate(19.733 6.045)">
          <path id="Trazado_7995" data-name="Trazado 7995" d="M24.089,10.019l8.1-4.706a52.719,52.719,0,0,1,13.14,13.046l-8.1,4.706a52.719,52.719,0,0,0-13.14-13.046Z" transform="translate(-24.089 -5.313)" fill="#ffec8c" stroke="#000" stroke-width="1"/>
        </g>
        <g id="Grupo_3146" data-name="Grupo 3146" transform="translate(28.734 19.091)">
          <path id="Trazado_7996" data-name="Trazado 7996" d="M34.649,19.326l8.1-4.706-4.139,4.308-8.1,4.706Z" transform="translate(-30.51 -14.62)" fill="#ecae00" stroke="#000" stroke-width="1"/>
        </g>
        <g id="Grupo_3147" data-name="Grupo 3147" transform="translate(0 4.706)">
          <path id="Trazado_7997" data-name="Trazado 7997" d="M40.537,43.567a20.99,20.99,0,0,1,3.4,11.67q-.018,6.364-3.954,8.088c-2.624,1.159-6.088.608-10.38-1.617l-.015,5.226L25.538,64.6l.015-5.31a57.626,57.626,0,0,1-15.541-16.9l4.639-3.654q5.3,8.36,10.924,12.639l.04-14.1a54.364,54.364,0,0,1-10.451-11.2,20.457,20.457,0,0,1-3.3-11.4q.018-6.28,3.856-8.074T25.7,8l.01-3.639,4.047,2.336L29.745,10.4a52.719,52.719,0,0,1,13.14,13.046l-4.139,4.308a42,42,0,0,0-9.023-9.431l-.039,13.655.183.106a53.975,53.975,0,0,1,10.67,11.48Zm-6.105,11.1c1.177-.432,1.78-1.491,1.785-3.191a9.174,9.174,0,0,0-1.382-4.837,30.118,30.118,0,0,0-5.176-5.789l-.037,13.079c2.018.926,3.621,1.176,4.811.737M25.64,28.338l.036-12.574c-1.908-.9-3.389-1.112-4.468-.652s-1.621,1.513-1.625,3.142a8.835,8.835,0,0,0,1.248,4.576,28.212,28.212,0,0,0,4.809,5.507" transform="translate(-10.012 -4.357)" fill="#ffda1a" stroke="#000" stroke-width="1"/>
        </g>
      </g>
    </g>
    <g id="_005-simbolo-de-moneda-1" data-name="005-simbolo-de-moneda-1" transform="translate(1516.408 2608.782) rotate(30)">
      <g id="Grupo_3214" data-name="Grupo 3214" transform="translate(0 0)">
        <g id="Grupo_3201" data-name="Grupo 3201" transform="translate(21.587 56.631)">
          <path id="Trazado_8045" data-name="Trazado 8045" d="M24.283,45.767l8.345-4.85-.019,6.617-8.345,4.85Z" transform="translate(-24.264 -40.918)" fill="#ecae00" stroke="#000" stroke-width="1"/>
        </g>
        <g id="Grupo_3202" data-name="Grupo 3202" transform="translate(21.626 49.203)">
          <path id="Trazado_8046" data-name="Trazado 8046" d="M24.292,40.532a25.848,25.848,0,0,1,4.228-3.31,13.407,13.407,0,0,1,4.118-1.54c3.339,1.769,6.2,2.522,8.526,2.152l-8.345,4.85C30.494,43.054,27.631,42.3,24.292,40.532Z" transform="translate(-24.292 -35.682)" fill="#ecae00" stroke="#000" stroke-width="1"/>
        </g>
        <g id="Grupo_3203" data-name="Grupo 3203" transform="translate(7.018 15.355)">
          <path id="Trazado_8047" data-name="Trazado 8047" d="M17.854,16.673l8.345-4.85q-3.833,2.228-3.859,9.288a26.978,26.978,0,0,0,3.974,14.041A29.651,29.651,0,0,0,32.4,42.611l-8.345,4.85A29.653,29.653,0,0,1,17.969,40,26.978,26.978,0,0,1,14,25.961q.02-7.064,3.859-9.288Z" transform="translate(-13.995 -11.823)" fill="#ecae00" stroke="#000" stroke-width="1"/>
        </g>
        <g id="Grupo_3204" data-name="Grupo 3204" transform="translate(36.322 58.324)">
          <path id="Trazado_8048" data-name="Trazado 8048" d="M43,42.46l-8.345,4.85q.28-.163.55-.349l8.345-4.85Q43.276,42.3,43,42.46Z" transform="translate(-34.651 -42.111)" fill="#ff5766" stroke="#000" stroke-width="1"/>
        </g>
        <g id="Grupo_3205" data-name="Grupo 3205" transform="translate(21.626 16.815)">
          <path id="Trazado_8049" data-name="Trazado 8049" d="M24.384,17.7l8.345-4.85-.092,32.388-8.345,4.85Z" transform="translate(-24.292 -12.852)" fill="#ecae00" stroke="#000" stroke-width="1"/>
        </g>
        <g id="Grupo_3206" data-name="Grupo 3206" transform="translate(30.188 38.774)">
          <path id="Trazado_8050" data-name="Trazado 8050" d="M30.327,33.181l8.345-4.85L45.4,32.215l-8.345,4.85Z" transform="translate(-30.327 -28.331)" fill="#ffec8c" stroke="#000" stroke-width="1"/>
        </g>
        <g id="Grupo_3207" data-name="Grupo 3207" transform="translate(36.872 42.659)">
          <path id="Trazado_8051" data-name="Trazado 8051" d="M35.082,35.919l8.345-4.85-.044,15.666-8.345,4.85Z" transform="translate(-35.038 -31.069)" fill="#ecae00" stroke="#000" stroke-width="1"/>
        </g>
        <g id="Grupo_3208" data-name="Grupo 3208" transform="translate(5.854 5.709)">
          <path id="Trazado_8052" data-name="Trazado 8052" d="M13.175,11.342l8.345-4.85q.139-.08.28-.157c3.173-1.721,6.858-1.74,11.056-.1l-8.345,4.85c-4.2-1.641-7.883-1.622-11.056.1q-.142.077-.28.157Z" transform="translate(-13.175 -5.024)" fill="#ffec8c" stroke="#000" stroke-width="1"/>
        </g>
        <g id="Grupo_3209" data-name="Grupo 3209" transform="translate(21.74 2.626)">
          <path id="Trazado_8053" data-name="Trazado 8053" d="M24.391,7.7l8.345-4.85-.019,6.617-8.345,4.85Z" transform="translate(-24.372 -2.851)" fill="#ecae00" stroke="#000" stroke-width="1"/>
        </g>
        <g id="Grupo_3210" data-name="Grupo 3210" transform="translate(17.21)">
          <path id="Trazado_8054" data-name="Trazado 8054" d="M21.179,5.85,29.524,1l4.549,2.626-8.345,4.85Z" transform="translate(-21.179 -1)" fill="#ffec8c" stroke="#000" stroke-width="1"/>
        </g>
        <g id="Grupo_3211" data-name="Grupo 3211" transform="translate(21.74 9.243)">
          <path id="Trazado_8055" data-name="Trazado 8055" d="M24.372,12.365l8.345-4.85A41.222,41.222,0,0,1,46.133,20.989l-8.345,4.85A41.223,41.223,0,0,0,24.372,12.365Z" transform="translate(-24.372 -7.515)" fill="#ffec8c" stroke="#000" stroke-width="1"/>
        </g>
        <g id="Grupo_3212" data-name="Grupo 3212" transform="translate(0 4.85)">
          <path id="Trazado_8056" data-name="Trazado 8056" d="M39.236,43.192l6.728,3.885L45.92,62.743c-3.6,2.487-8.714,1.9-15.266-1.693l-.019,6.617L26.086,65.04l.02-6.906A42.779,42.779,0,0,1,14.973,45.34,39.677,39.677,0,0,1,9.048,24.966q.029-10.229,6.134-13.528c3.173-1.721,6.858-1.74,11.056-.1l.02-6.921,4.549,2.626-.019,6.617A41.222,41.222,0,0,1,44.2,27.135l-3.62,3.827a31.591,31.591,0,0,0-4.691-5.9,28.593,28.593,0,0,0-5.126-3.829l-.092,32.388c3.339,1.769,6.2,2.522,8.526,2.152ZM26.127,50.561l.089-31.36a8.162,8.162,0,0,0-6.009.418q-4.114,2.128-4.141,9.443A26.978,26.978,0,0,0,20.04,43.1a29.647,29.647,0,0,0,6.087,7.459" transform="translate(-9.048 -4.418)" fill="#ffda1a" stroke="#000" stroke-width="1"/>
        </g>
        <g id="Grupo_3213" data-name="Grupo 3213" transform="translate(31.535 22.717)">
          <path id="Trazado_8057" data-name="Trazado 8057" d="M34.9,21.862l8.345-4.85-3.62,3.827-8.346,4.85Z" transform="translate(-31.276 -17.012)" fill="#ecae00" stroke="#000" stroke-width="1"/>
        </g>
      </g>
    </g>
  </g>
</svg>
