<svg id="_001-ahorro" data-name="001-ahorro" xmlns="http://www.w3.org/2000/svg" width="151.999" height="160.089" viewBox="0 0 151.999 160.089">
  <path id="Trazado_7913" data-name="Trazado 7913" d="M118.2,431.1a2.231,2.231,0,0,0-2.231,2.231v3.054a2.231,2.231,0,0,0,4.462,0V433.33A2.231,2.231,0,0,0,118.2,431.1Z" transform="translate(-81.538 -303.118)" fill="#ffda1a"/>
  <path id="Trazado_7935" data-name="Trazado 7935" d="M118.2,431.1a2.231,2.231,0,0,0-2.231,2.231v3.054a2.231,2.231,0,0,0,4.462,0V433.33A2.231,2.231,0,0,0,118.2,431.1Z" transform="translate(-81.538 -299.526)" fill="#ffda1a"/>
  <path id="Trazado_7914" data-name="Trazado 7914" d="M337.6,399.53h31.574a2.231,2.231,0,0,0,2.231-2.231V377.744a2.231,2.231,0,0,0-2.231-2.231H337.6a2.231,2.231,0,0,0-2.231,2.231V397.3A2.231,2.231,0,0,0,337.6,399.53Zm29.343-4.462H355.621V379.975h11.325Zm-27.112-15.094H351.16v15.094H339.835Z" transform="translate(-235.81 -264.034)" fill="#fff"/>
  <g id="Grupo_3088" data-name="Grupo 3088" transform="translate(0 0)">
    <path id="Trazado_7915" data-name="Trazado 7915" d="M151.426,97.261,138.244,82.606a2.231,2.231,0,0,0-3.318,2.984l9.834,10.933H83.805L47.529,56.191H67.239a32.482,32.482,0,0,0,22.469,9h8.877a32.4,32.4,0,0,0,14.8-3.556l15.58,17.321a2.231,2.231,0,1,0,3.317-2.984L117.272,59.29A32.586,32.586,0,0,0,98.585,0H89.708A32.658,32.658,0,0,0,63.021,13.874a2.231,2.231,0,0,0,3.65,2.566,28,28,0,1,1-3.754,7.536,2.231,2.231,0,1,0-4.248-1.365,32.6,32.6,0,0,0,4.664,29.118H42.521a2.256,2.256,0,0,0-1.659.739L17.985,77.9A2.231,2.231,0,1,0,21.3,80.886L42.521,57.3l38.06,42.313v47.928H57.476V113.71a2.231,2.231,0,0,0-2.231-2.231H29.8a2.231,2.231,0,0,0-2.231,2.231v33.826H4.462V99.609L15.335,87.52a2.231,2.231,0,0,0-3.318-2.984L.572,97.261A2.23,2.23,0,0,0,0,98.753v51.014A2.231,2.231,0,0,0,2.231,152H149.768A2.231,2.231,0,0,0,152,149.767V98.753a2.171,2.171,0,0,0-.573-1.492ZM122.3,32.6A32.565,32.565,0,0,0,109.361,6.609a28.133,28.133,0,0,1,0,51.976A32.565,32.565,0,0,0,122.3,32.6ZM53.014,147.537H32.028v-31.6H53.014Zm94.523,0H85.042V100.984h62.494Z" transform="translate(0 0)" fill="#fff"/>
    <path id="Trazado_7916" data-name="Trazado 7916" d="M264.645,240.672a2.231,2.231,0,1,0,0,4.462h28.813a2.231,2.231,0,1,0,0-4.462Z" transform="translate(-184.511 -169.223)" fill="#ffda1a"/>
    <path id="Trazado_7917" data-name="Trazado 7917" d="M277.2,77.366a2.227,2.227,0,1,0-2.438,3.727,10.52,10.52,0,0,0,5.156,1.945V84.3a2.227,2.227,0,0,0,4.453,0V82.826a8.8,8.8,0,0,0,6.342-6.99,7.747,7.747,0,0,0-5.266-8.766c-.354-.125-.715-.255-1.076-.389V60.058a4.159,4.159,0,0,1,1.076.618l0,0a2.228,2.228,0,1,0,2.678-3.553,9.418,9.418,0,0,0-3.757-1.692V54.311a2.227,2.227,0,0,0-4.453,0v1.271c-.112.03-.225.059-.339.094a7.3,7.3,0,0,0-5.006,5.721,6.494,6.494,0,0,0,2.149,6.395,15.8,15.8,0,0,0,3.2,1.875v8.892A6.52,6.52,0,0,1,277.2,77.366Zm9.123-2.268a4.352,4.352,0,0,1-1.951,2.936v-6.6a3.226,3.226,0,0,1,1.951,3.664Zm-6.852-10.81a2.137,2.137,0,0,1-.521-2.066,3.15,3.15,0,0,1,.97-1.746v4.133c-.159-.106-.31-.212-.449-.321Z" transform="translate(-192.484 -36.622)" fill="#ffda1a"/>
  </g>
</svg>
