<svg xmlns="http://www.w3.org/2000/svg" width="162.451" height="153.594" viewBox="0 0 162.451 153.594">
  <g id="Page-1" transform="translate(-8.549 -8.083)">
    <g id="_012---Card" data-name="012---Card" transform="translate(8.549 8.083)">
      <path id="Shape" d="M149.975,36.6,53.287,1.4A19,19,0,0,0,29,12.744L11.577,60.6A18.98,18.98,0,0,0,0,78.055v56.858a18.974,18.974,0,0,0,18.953,18.953H121.839a18.974,18.974,0,0,0,18.953-18.953V116.667a18.867,18.867,0,0,0,1.056-2.353L161.2,61.2l.111-.3A18.99,18.99,0,0,0,149.975,36.6Zm.682,37.683L138.985,70.03A18.953,18.953,0,0,0,121.839,59.1h-12.9L28.543,29.839l4.381-12.046.238-.653L155.3,61.585ZM26.685,34.927,93.109,59.1H18.953c-.368,0-.728.035-1.083.054Zm108.691,99.986a13.554,13.554,0,0,1-13.538,13.538H18.953A13.554,13.554,0,0,1,5.415,134.913V78.055A13.554,13.554,0,0,1,18.953,64.517H121.839a13.554,13.554,0,0,1,13.538,13.538Zm5.415-33.516V78.055c0-.542-.035-1.083-.084-1.625l8.106,2.957Zm16.1-45L35.274,12.146A13.589,13.589,0,0,1,51.443,6.492l96.686,35.2A13.57,13.57,0,0,1,156.89,56.395Z" transform="translate(0 -0.271)" fill="#fff"/>
      <path id="Shape-2" data-name="Shape" d="M26.193,50.548a7.064,7.064,0,0,0,7.064-7.064V34.064A7.064,7.064,0,0,0,26.193,27H12.064A7.064,7.064,0,0,0,5,34.064v9.419a7.064,7.064,0,0,0,7.064,7.064Zm0-4.71H19.129v-4.71h9.419v2.355A2.355,2.355,0,0,1,26.193,45.839Zm2.355-11.774v2.355H19.129V31.71h7.064A2.355,2.355,0,0,1,28.548,34.064ZM12.064,31.71h2.355v4.71H9.71V34.064A2.355,2.355,0,0,1,12.064,31.71ZM9.71,43.484V41.129h4.71v4.71H12.064A2.355,2.355,0,0,1,9.71,43.484Z" transform="translate(10.654 47.132)" fill="#ffda1a"/>
      <path id="Shape-3" data-name="Shape" d="M9.708,43a2.708,2.708,0,1,0,0,5.415H25.953a2.708,2.708,0,1,0,0-5.415Z" transform="translate(11.953 72.689)" fill="#fff"/>
      <path id="Shape-4" data-name="Shape" d="M35.953,43H19.708a2.708,2.708,0,1,0,0,5.415H35.953a2.708,2.708,0,1,0,0-5.415Z" transform="translate(29.028 72.689)" fill="#fff"/>
      <path id="Shape-5" data-name="Shape" d="M45.953,43H29.708a2.708,2.708,0,1,0,0,5.415H45.953a2.708,2.708,0,1,0,0-5.415Z" transform="translate(46.103 72.689)" fill="#fff"/>
      <path id="Shape-6" data-name="Shape" d="M55.953,43H39.708a2.708,2.708,0,1,0,0,5.415H55.953a2.708,2.708,0,1,0,0-5.415Z" transform="translate(63.178 72.689)" fill="#fff"/>
      <path id="Shape-7" data-name="Shape" d="M15.123,49H9.708a2.708,2.708,0,1,0,0,5.415h5.415a2.708,2.708,0,1,0,0-5.415Z" transform="translate(11.953 82.934)" fill="#ffda1a"/>
      <path id="Shape-8" data-name="Shape" d="M22.123,49H16.708a2.708,2.708,0,1,0,0,5.415h5.415a2.708,2.708,0,1,0,0-5.415Z" transform="translate(23.905 82.934)" fill="#ffda1a"/>
      <path id="Shape-9" data-name="Shape" d="M60.117,28a10.762,10.762,0,0,0-8.123,3.742,10.83,10.83,0,1,0,0,14.177A10.808,10.808,0,1,0,60.117,28ZM43.871,44.245a5.415,5.415,0,1,1,5.415-5.415A5.415,5.415,0,0,1,43.871,44.245Zm16.245,0a5.415,5.415,0,1,1,5.415-5.415A5.415,5.415,0,0,1,60.117,44.245Z" transform="translate(56.307 47.076)" fill="#fff"/>
    </g>
  </g>
</svg>
