<svg xmlns="http://www.w3.org/2000/svg" width="156.608" height="156.602" viewBox="0 0 156.608 156.602">
  <g id="_008-hucha" data-name="008-hucha" transform="translate(0 -0.105)">
    <path id="Trazado_7929" data-name="Trazado 7929" d="M122.476,47.259c-1.044-.509-2.158-1.007-3.308-1.5A31.309,31.309,0,1,0,62.6,43.842c-1.661.628-3.292,1.325-4.9,2.071-6.4-5.857-16.445-6.59-20.7-6.614a5.232,5.232,0,0,0-5.189,4.381,40.015,40.015,0,0,0-.462,7.434,45.281,45.281,0,0,0-6.236.782,5.239,5.239,0,0,0-4.236,5.326,32.058,32.058,0,0,0,3.872,14.61c-.3.332-.6.66-.893.991-1.666,1.858-3.391,3.779-5.15,5.555A21.036,21.036,0,0,1,7.019,82.69,8.113,8.113,0,0,0,.162,92.344L4.4,113.687c.321,1.8,2.046,3.225,5.119,5.218l.365.24a33.266,33.266,0,0,0,7.392,3.571,40.3,40.3,0,0,1,4.8,2.07,27.474,27.474,0,0,1,9.077,7.905c.434.608.895,1.19,1.4,1.782a33.981,33.981,0,0,0,17.028,9.617v4.791a7.827,7.827,0,0,0,7.827,7.827H75.674A7.828,7.828,0,0,0,83.5,148.88v-.332c2.183.1,4.364.2,6.566.277,1.2.042,2.385.06,3.562.06,1.879,0,3.712-.068,5.526-.17v.165a7.827,7.827,0,0,0,7.827,7.827h18.264a7.827,7.827,0,0,0,7.828-7.827V138.775a48.982,48.982,0,0,0,23.481-39.24c1-21.288-12.375-41.811-34.079-52.276ZM91.328,5.38a26.044,26.044,0,0,1,11.4,49.505A86.157,86.157,0,0,0,77.08,53.267,26.052,26.052,0,0,1,91.328,5.38ZM36.992,44.516a29.861,29.861,0,0,1,15.6,4.021c-2.489,1.414-5,3.044-7.5,4.808a25,25,0,0,0-8.522-2.161,32.995,32.995,0,0,1,.42-6.669ZM26.133,57.009a39.219,39.219,0,0,1,7.9-.749c.047,0,.086.024.13.024a1.376,1.376,0,0,0,.242-.017,16.211,16.211,0,0,1,13.046,5.48,7.827,7.827,0,0,1,1.565,8.493A11.8,11.8,0,0,1,39.1,75.826c-5.819,0-12.365-5.889-12.993-18.817Zm125.2,42.277a43.478,43.478,0,0,1-18.4,33.271,2.573,2.573,0,0,0-2.473-1.941,2.609,2.609,0,0,0-2.608,2.608V148.88a2.609,2.609,0,0,1-2.61,2.608H106.983a2.609,2.609,0,0,1-2.608-2.608v-7.828a2.609,2.609,0,0,0-5.218,0v2.414c-2.892.172-5.861.26-8.916.143-2.26-.075-4.5-.178-6.738-.282v-2.275a2.61,2.61,0,0,0-5.219,0v7.828a2.609,2.609,0,0,1-2.608,2.608H57.41A2.609,2.609,0,0,1,54.8,148.88V135.834a2.609,2.609,0,1,0-5.218,0v2.81a27.013,27.013,0,0,1-13.072-7.588c-.4-.462-.767-.926-1.135-1.44a32.715,32.715,0,0,0-10.841-9.436,44.854,44.854,0,0,0-5.4-2.348,28.957,28.957,0,0,1-6.3-3l-.472-.311a17.825,17.825,0,0,1-2.907-2.15L5.281,91.306a2.889,2.889,0,0,1,.486-2.275,2.83,2.83,0,0,1,1.941-1.178c4.7-.617,11.062-2.128,14.715-5.81,1.849-1.87,3.619-3.84,5.324-5.739l.217-.244A15.72,15.72,0,0,0,39.1,81.044a16.94,16.94,0,0,0,14.595-8.482A12.952,12.952,0,0,0,51.621,58.6a16.457,16.457,0,0,0-1.913-2.1c1.9-1.282,3.794-2.494,5.673-3.553a66.393,66.393,0,0,1,9.758-4.436,31.527,31.527,0,0,0,4.63,5.568c-2.943.441-4.806.858-5.119.928A2.611,2.611,0,0,0,65.824,60.1c.326-.078,33-7.357,52.638,7.371a2.61,2.61,0,0,0,3.132-4.175,46.538,46.538,0,0,0-12.1-6.423,30.952,30.952,0,0,0,6.809-6.656c1.373.572,2.682,1.143,3.9,1.733,19.826,9.57,32.05,28.149,31.139,47.341Zm0,0" transform="translate(0 0)" fill="#fff"/>
    <path id="Trazado_7930" data-name="Trazado 7930" d="M259.419,53.411a1.692,1.692,0,0,0-3.384,0c0,3.753,3.795,6.806,8.459,6.806s8.459-3.046,8.459-6.806c0-3.285-2.912-6.034-6.767-6.665V39.979c1.945.484,3.383,1.749,3.383,3.2a1.692,1.692,0,0,0,3.383,0c0-3.287-2.912-6.035-6.767-6.668v-.4a1.692,1.692,0,1,0-3.383,0v.4c-3.856.633-6.767,3.383-6.767,6.667s2.912,6.034,6.767,6.667V56.62c-1.946-.489-3.383-1.754-3.383-3.209Zm10.15,0c0,1.455-1.438,2.72-3.383,3.2V50.208C268.131,50.691,269.569,51.956,269.569,53.411Zm-10.15-10.224c0-1.455,1.437-2.72,3.383-3.2V46.39c-1.946-.483-3.383-1.749-3.383-3.2Zm0,0" transform="translate(-173.165 -16.835)" fill="#ffda1a"/>
  </g>
</svg>
