<svg xmlns="http://www.w3.org/2000/svg" width="136.553" height="136.553" viewBox="0 0 136.553 136.553">
  <g id="Grupo_3132" data-name="Grupo 3132" transform="translate(1476.553 -3337.447)">
    <g id="Grupo_3133" data-name="Grupo 3133">
      <path id="Trazado_7931" data-name="Trazado 7931" d="M129.725,118.346H127.45V51.32a11.852,11.852,0,0,0,6.827-10.742V31.234a6.782,6.782,0,0,0-.492-2.5l-.03-.066a6.819,6.819,0,0,0-1.06-1.8l-9.8-11.757V6.827A6.836,6.836,0,0,0,116.07,0H20.483a6.836,6.836,0,0,0-6.828,6.828v8.279l-9.8,11.757a6.785,6.785,0,0,0-1.06,1.8l-.029.064a6.8,6.8,0,0,0-.492,2.506v9.344A11.852,11.852,0,0,0,9.1,51.32v67.026H6.828A6.835,6.835,0,0,0,0,125.173V132a4.556,4.556,0,0,0,4.552,4.552H132A4.556,4.556,0,0,0,136.553,132v-6.828a6.835,6.835,0,0,0-6.828-6.827ZM18.207,6.827a2.28,2.28,0,0,1,2.276-2.276H116.07a2.28,2.28,0,0,1,2.276,2.276v6.827H18.206ZM6.828,40.578V31.861h97.863a2.276,2.276,0,0,0,0-4.552H9.411L17,18.206H119.556l7.587,9.1H113.795a2.276,2.276,0,1,0,0,4.552h15.93v8.717a7.092,7.092,0,0,1-6.152,7.183A6.766,6.766,0,0,1,118.3,46.02a6.848,6.848,0,0,1-2.235-5.054V38.689a2.276,2.276,0,0,0-4.552,0v2.276a6.828,6.828,0,0,1-13.655,0V38.689a2.276,2.276,0,0,0-4.552,0v2.276a6.828,6.828,0,0,1-13.655,0V38.689a2.276,2.276,0,0,0-4.552,0v2.276a6.828,6.828,0,0,1-13.656,0V38.689a2.276,2.276,0,0,0-4.552,0v2.276a6.828,6.828,0,0,1-13.655,0V38.689a2.276,2.276,0,0,0-4.552,0v2.276a6.828,6.828,0,0,1-13.655,0V38.689a2.276,2.276,0,0,0-4.552,0v2.276a6.846,6.846,0,0,1-2.235,5.052A6.743,6.743,0,0,1,12.98,47.76a7.092,7.092,0,0,1-6.152-7.182ZM111.518,56.9H84.208a4.556,4.556,0,0,0-4.552,4.552v56.9h-66V52.281a11.161,11.161,0,0,0,9.107-4.492,11.369,11.369,0,0,0,18.2,0,11.37,11.37,0,0,0,18.207,0,11.37,11.37,0,0,0,18.207,0,11.37,11.37,0,0,0,18.207,0,11.369,11.369,0,0,0,18.2,0,11.165,11.165,0,0,0,9.107,4.493v66.064H116.07v-56.9a4.556,4.556,0,0,0-4.552-4.552Zm0,4.552v56.9H84.208v-56.9ZM4.552,132v-6.828A2.278,2.278,0,0,1,6.828,122.9h122.9A2.278,2.278,0,0,1,132,125.173L132,132Zm0,0" transform="translate(-1476.553 3337.447)" fill="#fff"/>
      <path id="Trazado_7932" data-name="Trazado 7932" d="M114.78,213.332H80.6a3.8,3.8,0,0,0-3.8,3.8v24.687a3.8,3.8,0,0,0,3.8,3.8H114.78a3.8,3.8,0,0,0,3.8-3.8V217.13A3.8,3.8,0,0,0,114.78,213.332ZM94.93,241.817l13.546-12.579a1.9,1.9,0,0,0-2.583-2.784L89.347,241.817H80.6v-1.07l6.989-6.49A1.9,1.9,0,1,0,85,231.473l-4.4,4.089V217.13h19.85L90.7,226.183a1.9,1.9,0,0,0,2.585,2.783l12.746-11.836h8.749v1.07l-3.483,3.236a1.9,1.9,0,1,0,2.585,2.783l.9-.835,0,18.433Zm0,0" transform="translate(-1528.725 3184.215)" fill="#ffda1a"/>
      <path id="Trazado_7933" data-name="Trazado 7933" d="M337.352,265.672h9.1a4.556,4.556,0,0,0,4.552-4.552v-9.1a4.557,4.557,0,0,0-4.552-4.553h-9.1a4.557,4.557,0,0,0-4.552,4.553v9.1A4.556,4.556,0,0,0,337.352,265.672Zm0-13.655h9.1v9.1l-9.1,0Zm0,0" transform="translate(-1720.594 3155.982)" fill="#fff"/>
      <path id="Trazado_7934" data-name="Trazado 7934" d="M335.076,337.352h2.276a2.276,2.276,0,0,0,0-4.552h-2.276a2.276,2.276,0,0,0,0,4.552Zm0,0" transform="translate(-1720.594 3093.406)" fill="#ffda1a"/>
    </g>
  </g>
</svg>
