<svg xmlns="http://www.w3.org/2000/svg" width="136.553" height="136.554" viewBox="0 0 136.553 136.554">
  <path id="Trazado_7931" data-name="Trazado 7931" d="M129.725,118.346H127.45V51.32a11.852,11.852,0,0,0,6.827-10.742V31.234a6.782,6.782,0,0,0-.492-2.5l-.03-.066a6.819,6.819,0,0,0-1.06-1.8l-9.8-11.757V6.827A6.836,6.836,0,0,0,116.07,0H20.483a6.836,6.836,0,0,0-6.828,6.828v8.279l-9.8,11.757a6.785,6.785,0,0,0-1.06,1.8l-.029.064a6.8,6.8,0,0,0-.492,2.506v9.344A11.852,11.852,0,0,0,9.1,51.32v67.026H6.828A6.835,6.835,0,0,0,0,125.173V132a4.556,4.556,0,0,0,4.552,4.552H132A4.556,4.556,0,0,0,136.553,132v-6.828a6.835,6.835,0,0,0-6.828-6.827ZM18.207,6.827a2.28,2.28,0,0,1,2.276-2.276H116.07a2.28,2.28,0,0,1,2.276,2.276v6.827H18.206ZM6.828,40.578V31.861h97.863a2.276,2.276,0,0,0,0-4.552H9.411L17,18.206H119.556l7.587,9.1H113.795a2.276,2.276,0,1,0,0,4.552h15.93v8.717a7.092,7.092,0,0,1-6.152,7.183A6.766,6.766,0,0,1,118.3,46.02a6.848,6.848,0,0,1-2.235-5.054V38.689a2.276,2.276,0,0,0-4.552,0v2.276a6.828,6.828,0,0,1-13.655,0V38.689a2.276,2.276,0,0,0-4.552,0v2.276a6.828,6.828,0,0,1-13.655,0V38.689a2.276,2.276,0,0,0-4.552,0v2.276a6.828,6.828,0,0,1-13.656,0V38.689a2.276,2.276,0,0,0-4.552,0v2.276a6.828,6.828,0,0,1-13.655,0V38.689a2.276,2.276,0,0,0-4.552,0v2.276a6.828,6.828,0,0,1-13.655,0V38.689a2.276,2.276,0,0,0-4.552,0v2.276a6.846,6.846,0,0,1-2.235,5.052A6.743,6.743,0,0,1,12.98,47.76a7.092,7.092,0,0,1-6.152-7.182ZM111.518,56.9H84.208a4.556,4.556,0,0,0-4.552,4.552v56.9h-66V52.281a11.161,11.161,0,0,0,9.107-4.492,11.369,11.369,0,0,0,18.2,0,11.37,11.37,0,0,0,18.207,0,11.37,11.37,0,0,0,18.207,0,11.37,11.37,0,0,0,18.207,0,11.369,11.369,0,0,0,18.2,0,11.165,11.165,0,0,0,9.107,4.493v66.064H116.07v-56.9a4.556,4.556,0,0,0-4.552-4.552Zm0,4.552v56.9H84.208v-56.9ZM4.552,132v-6.828A2.278,2.278,0,0,1,6.828,122.9h122.9A2.278,2.278,0,0,1,132,125.173L132,132Zm0,0" transform="translate(0 0.001)" fill="#fff"/>
</svg>
